<?xml version="1.0" encoding="utf-8"?>
<!-- Generator: Adobe Illustrator 19.1.0, SVG Export Plug-In . SVG Version: 6.00 Build 0)  -->
<svg version="1.1" id="Layer_1" xmlns="http://www.w3.org/2000/svg" xmlns:xlink="http://www.w3.org/1999/xlink" x="0px" y="0px"
	 viewBox="-439 111.6 48.4 93.4" style="enable-background:new -439 111.6 48.4 93.4;" xml:space="preserve">
<style type="text/css">
	.st0{fill:#020202;}
</style>
<g>
	<path class="st0" d="M-411.5,184.2l0.5-14.8c12.4-2,20.4-9.7,20.4-19.7c0-5.6-2.8-15.4-4.9-22.6c-1.1-3.9-2.2-7.6-2.2-8.6
		c0-2.1,0.5-5.8,0.5-5.8l0.1-1.1h-35.4l0.1,1.1c0,0,0.5,3.7,0.5,5.8c0,1-1.1,4.7-2.2,8.6c-2.1,7.1-4.9,16.9-4.9,22.6
		c0,4,1.6,8.3,4.4,11.6c3.6,4.3,8.9,7,15.7,8.1l0.6,14.8c-9.6,0.9-16.5,5.1-16.5,10.3c0,5.9,8.8,10.5,20,10.5s20-4.6,20-10.5
		C-394.8,189.3-401.8,185-411.5,184.2z M-414.8,203c-9.8,0-18-3.9-18-8.5c0-4,6.3-7.5,14.5-8.3l0.3,8.4l2-0.1l-1-26.8l-0.8-0.1
		c-18.7-2.7-19.2-16.3-19.2-17.9c0-5.4,2.8-15,4.8-22c1.5-5,2.3-7.9,2.3-9.2c0-1.5-0.2-3.6-0.4-4.9h30.9c-0.1,1.3-0.4,3.5-0.4,4.9
		c0,1.2,0.8,4.1,2.3,9.2c2,7,4.8,16.6,4.8,22c0,9.2-7.7,16.2-19.5,17.9l-0.8,0.1l-0.9,26.8l2,0.1l0.3-8.4c8.3,0.7,14.7,4.3,14.7,8.4
		C-396.8,199.1-405,203-414.8,203z"/>
</g>
</svg>
