<?xml version="1.0" encoding="utf-8"?>
<!-- Generator: Adobe Illustrator 19.1.0, SVG Export Plug-In . SVG Version: 6.00 Build 0)  -->
<svg version="1.1" id="Layer_1" xmlns="http://www.w3.org/2000/svg" xmlns:xlink="http://www.w3.org/1999/xlink" x="0px" y="0px"
	 viewBox="0 0 609 122.5" style="enable-background:new 0 0 609 122.5;" xml:space="preserve">
<style type="text/css">
	.st0{fill:#875C3C;}
	.st1{font-family:'NexaRustSlab-BlackShadow01';}
	.st2{font-size:100.0532px;}
</style>
<text transform="matrix(1 0 0 1 91.3939 91.8446)"><tspan x="0" y="0" class="st0 st1 st2">BEER</tspan><tspan x="310.5" y="0" class="st1 st2">D D</tspan></text>
<path d="M499.8,3c0.3-0.3,0.2-0.6,5.1-0.6c4.8,0,4.4,0.3,4.7,0.6c0.3,0.3,0.7,2,0.7,2c-0.8,0-0.8,0.4-1.3,0.4
	c-0.2,0-0.5-0.4-0.8-0.4c-0.3,0-0.5,0.4-0.8,0.4c-0.3,0-0.5-0.4-0.8-0.4c-0.3,0-0.6,0.4-0.8,0.4c-0.3,0-0.6-0.4-0.8-0.4
	c-0.3,0-0.6,0.4-0.9,0.4c-0.3,0-0.6-0.4-0.9-0.4c-0.3,0-0.6,0.4-0.9,0.4c-0.3,0-0.6-0.4-0.9-0.4c-0.3,0-0.6,0.4-0.9,0.4
	c-0.5,0-0.3-0.4-1.3-0.4C499.2,5,499.6,3.3,499.8,3z M517.3,91.3c-0.3-3.1,1-33.3,0.2-39.1c-1.8-12.6-8-15.9-8-36.6
	c0-1,0.1-1.2,0.2-1.3c0.2-0.2,0.5-0.2,0.3-1c-0.2-0.8-0.6-2-0.6-2s-0.1-0.5,0-0.6c0.1-0.1,0.1-0.7-0.4-0.8c-0.4-0.1-8-0.1-8.4,0
	c-0.5,0.2-0.5,0.7-0.4,0.8c0.1,0.1,0,0.6,0,0.6s-0.4,1.2-0.6,2c-0.2,0.8,0.1,0.8,0.3,1c0.1,0.1,0.2,0.4,0.2,1.3
	c0,20.7-6.3,24-8,36.6c-0.8,5.8,0.5,36,0.2,39.1c-0.7,6.6,11.7,6.3,12.5,6.3S517.9,97.8,517.3,91.3z"/>
<path d="M76.2,40.7c0,0.3,0.2,0.5,0.3,0.8c0.6,1,1.4,1.9,1.8,3c0.2,0.5-0.1,1.2-0.2,2.1c0,0.6,0,1.5,0,2.5c0,0,0.2,0,0.4,0
	c0,0.3-0.1,0.6-0.1,1c0.8,0.3,1.6,0.6,2.4,0.9c0-0.1,0.1-0.1,0.1-0.2c0.1,0.4,0.1,0.7,0.3,1.2c-0.9-0.2-1.6-0.5-2.4-0.6
	c-0.5-0.1-1-0.2-1.5-0.2c-0.3,0-0.5,0.4-0.7,0.6c0.1,0.1,0.1,0.1,0.2,0.2c0.3,0,0.6,0,0.7,0c0,1,0,1.9,0,2.8c0.1,0,0.2,0,0.3,0
	c0.2-0.6,0.4-1.2,0.7-2.1c0.1,0,0.5-0.2,0.8-0.4c0.1,0.5,0.2,0.8,0.3,1.2c-1.4,0.8-1.6,1.3-0.8,2.8c0.3,0.6,0.6,1.1,0.8,1.7
	c0.1,0.3,0.1,0.6,0.1,1c-0.1,0-0.2,0.1-0.3,0.1c-0.2-0.2-0.4-0.5-0.6-0.7c-0.1-0.1-0.4-0.1-0.6-0.2c0,0.2,0,0.3,0.1,0.5
	c0.1,0.3,0.2,0.5,0.3,0.8c0.7,0.3,1.8-0.1,2.2,1.1c-0.5-0.1-0.8-0.2-1.3-0.4c0,0.4,0,0.7,0,1c0.6,0.3,1.7-0.3,1.9,0.8
	c0.1,0.4,0.2,0.8,0.2,1.2c-0.1,0.8-0.2,1.6-0.4,2.6c-0.7-0.1-1.4-0.2-2.3-0.2c-0.1,0.7,0.2,0.9,0.8,0.8c0.5-0.1,1-0.1,1,0.6
	c-0.1,0-0.2-0.1-0.3-0.1c-0.2,0.6-0.5,1.1-0.7,1.7c-0.2,0.8-0.4,1.6-0.6,2.5c-0.1,0-0.2,0-0.3,0c-0.1-0.2-0.2-0.4-0.2-0.6
	c-0.5,0.1-0.9,0.2-1.3,0.3c0,0.1,0,0.2,0,0.2c0.4,0,0.7,0,0.9,0c-0.1,0.5-0.1,1.1-0.2,1.6c0.1,0,0.2,0,0.3,0.1
	c0.1-0.4,0.2-0.7,0.3-1.1c0.1,0.1,0.3,0.1,0.4,0.2c-0.2,1.2-0.4,2.4-0.6,3.5c1,0.3,1.8,0.6,2.8,0.9c-0.1,0.7-0.3,1.4-0.4,2.2
	c-0.4,0-0.7,0-1.1,0c0.1,1,0.2,2,0.3,3.1c1.1-1-0.1-2.5,1.4-3.2c-0.1,1.3-0.2,2.5-0.4,3.7c0.3,0,0.6-0.1,1.1-0.1
	c-0.5,0.9-0.9,1.7-1.4,2.5c-0.1,0.3-0.2,0.5-0.3,0.8c-0.3,0.8-0.7,1.6,0.1,2.4c0.7,0.8,0.2,3.1-0.6,4.1c0-0.5,0.2-1,0-1.3
	c-0.1-0.3-0.5-0.5-1-0.9c-0.1,1.3-0.2,2.4-0.3,3.4c-0.1,0-0.2,0-0.3,0c-0.1-0.5-0.2-1-0.4-1.5c-0.1-0.2-0.3-0.4-0.5-0.6
	c0,0-0.4,0.2-0.4,0.2c0,0.2,0.1,0.5,0.2,0.7c0.1,0.3,0.3,0.7,0.2,0.8c-0.5,0.6-0.8,1.4-1.9,1.3c0.1,0.3,0.2,0.5,0.3,0.8
	c-1.5,1.1-2.4,2.5-2.3,4.3c0,0.1,0,0.2-0.1,0.4c-0.3,0.7-0.6,1.3-0.9,2c-0.2,0.3-0.5,0.6-0.9,1c0.2,0.8-0.1,1.3-1.3,1.8
	c-0.3,0.1-0.6,0.5-0.8,0.8c-0.3,0.5-0.7,0.8-1.4,0.4c0,1.4-1.1,1.4-2,1.5c-0.1,0.5-0.3,1-0.4,1.4c0.3,0,0.6,0.1,1.1,0.1
	c-0.2,0.4-0.5,0.7-0.6,1c-0.2,0.4-0.6,1-0.5,1.2c0.3,0.5,0.8,0.3,1.3-0.1c0.2-0.2,0.7-0.3,1-0.3c0.7-0.2,1.4-0.3,2.1-0.4
	c-0.6,0.3-1.2,0.7-1.8,1c-2,0.9-4,2.1-6.1,2.6c-1.3,0.3-2.2,0.8-3.3,1.3c-0.8,0.3-1.8,0.3-2.6,0.4c-0.2,0-0.4,0.3-0.6,0.5
	c1-0.1,1.8-0.1,2.8-0.2c-0.2,0.8-0.4,1.4-0.6,2.1c-0.9-1-1.8-0.9-2.8-0.6c-0.5,0.1-1.1,0-1.7,0c-0.6,0-1.2,0-1.7,0
	c0,0.1,0,0.2,0,0.3c0.8,0.1,1.6,0.2,2.4,0.4c0,0.1,0,0.3-0.1,0.4c-0.6-0.1-1.3-0.2-1.8-0.3c-0.1,0.4-0.1,0.8-0.2,1.2
	c0.3,0.3,0.7,0.7,1.1,1.1c-1.4,0.2-1.7,0-2.7-1.8c-0.6,0.8-1.2,1.5-1.6,2.2c0.6,0.3,1.1,0.5,1.9,0.8c-0.7,0.3-1.2,0.5-1.8,0.7
	c-0.3-0.8-1-0.7-1.7-0.5c-0.5,0.2-0.9,0.3-1.4-0.2c-1.2-1.1-1.9-0.8-2.5,0.9c-0.5-0.2-1.1-0.5-1.6-0.7c0,0.4,0,0.7,0.1,0.9
	c-0.7,0-1.3,0.1-2.1,0.1c0,0-0.2-0.2-0.4-0.4c-1.9,0.9-3.3,1-5.5,0.1c0.4-0.2,0.7-0.5,0.9-0.6c-0.3-0.4-0.4-0.6-0.7-0.8
	c-0.3-0.2-0.6-0.2-0.9-0.3c-0.1,0.3-0.3,0.6-0.2,0.7c0.2,0.2,0.5,0.3,1,0.5c0,0,0,0.2-0.1,0.6c-0.9-0.4-1.7-0.8-2.4-1.2
	c-0.1,0.1-0.2,0.1-0.2,0.2c0.2,0.4,0.4,0.7,0.6,1.2c-1,0.2-1.6-0.2-2-1c-0.4-0.9-1-1.7-2.2-2.3c0.3,0.9,0.5,1.6,0.8,2.3
	c-0.9-1.2-1.8-2.3-3.5-2.8c0,0.7-0.5,0.6-1,0.4c-0.1,0.5-0.2,0.8-0.3,1.4c-0.8-0.4-1.4-0.8-2.1-1.1c-0.4-0.2-0.8-0.3-1.2-0.5
	c-0.1,0.1-0.2,0.2-0.3,0.2c0-0.3,0-0.6-0.1-1c-0.7,0.2-1.3,0.5-1.9,0.6c-0.3-0.4-0.5-0.8-0.9-1.2c0,0,0.1-0.2,0.4-0.4
	c-0.8,0-1.5,0-2.4,0.1c0.2-0.5,0.3-0.8,0.4-1.1c-0.7-1.3-2-0.5-2.9-0.5c-0.6-0.4,0.3-1.6-0.9-1.5c-0.2,1.3-0.5,2.6-0.7,3.9
	c-0.5-0.2-0.9-0.3-1.4-0.4c-0.3-0.1-0.6,0-0.9,0.1c-0.3,0.1-0.6,0.2-0.8,0.3c-0.1-0.3-0.1-0.7-0.2-1c1.8,0.4,2.7-0.1,3.3-1.7
	c-0.3-0.3-0.7-0.5-1.1-0.8c-0.1,0.4-0.2,0.8-0.3,1.1c-0.1,0.1-0.2,0.4-0.3,0.4c-0.1,0-0.4-0.1-0.4-0.2c-0.1-0.2-0.1-0.4,0-0.6
	c0.3-0.7,0.7-1.3,0.9-2c0.2-0.7-0.4-1-1.2-1.1c-0.1,0.5-0.2,1.1-0.3,1.6c-0.3-0.6-0.6-1.2-1-1.8c0.9-0.2,2.3,0.1,2-1.4
	c-0.7-0.3-1.4-0.6-1.9-0.9c-0.5,0.7-0.9,1.4-1.3,2.1c-0.1,0-0.2-0.1-0.3-0.1c0.1-1.3,0.3-2.6,0.5-4c1.5,0.5,1.5,0.5,1.8-0.3
	c-0.5-0.2-1.6,0.2-1.5-0.8c0-0.2,0.8-0.4,1.4-0.7c-0.3-0.4-0.7-0.7-1.4-0.3c-0.6,0.4-1.1,0.8-1.7,1.1c-0.3,0.2-0.7,0.2-1.2,0.4
	c0.7-1.4,3-1.2,3-3.1c-0.6,0.2-0.9,0.5-1.3,0.6c-0.3,0.1-0.7,0-1,0c-0.8-0.1-1.6-0.1-2.4-0.2c0.1-0.2,0.1-0.5,0.2-0.8
	c-0.5,0-1,0-1.6-0.1c0.3-1,0.8-1.2,1.7-0.6c0.1-0.4,0.2-0.8,0.3-1.1c0.1,0,0.2,0,0.2,0c0.1,0.4,0.1,0.7,0.2,1.1c0.1,0.5,0.4,1,1,0.8
	c1.2-0.3,2.3-0.8,3.4-1.2c0.8-0.3,0.9-1,0.6-1.7c-0.7,0.1-1.5-0.4-2.1,0.7c-0.2,0.3-1.1,0.5-1.6,0.5c-0.2,0-0.5-0.6-0.7-0.9
	c-0.2-0.3-0.3-0.6-0.6-1.1c-0.2,0.7-0.1,1.4-1,0.9c-0.2-0.1-0.6,0.1-0.9,0.2c-0.4-1.4-2,0.2-2.6-0.9c1.6-0.1,3.2-0.2,4.6-0.4
	C3.6,98.8,4,98.5,4.5,98c0-0.7-0.7-0.7-1.4-0.8c-0.7,0-1.4-0.1-2.3-0.2c-0.7,0.5-1.1,0.6-1.7,0c0.7-0.3,1.4-0.5,2.2-0.8
	c0-0.1,0-0.2-0.1-0.3c0.3,0.1,0.6,0.2,1,0.3c-0.7-0.8,0-1.1,0.4-1.6c0.5-0.5,0.5-0.5,0.1-1c-0.6,0.6-1.3,1.2-1.9,1.7
	c-0.1,0-0.1-0.1-0.2-0.1c0.3-1,0.6-2,0.9-3c-0.2,0-0.4,0-0.7,0C1,91.2,3.1,92,2.9,90.5c-0.3,0-0.6,0-1,0.1c0-0.3,0-0.6-0.1-0.9
	c0.3,0,0.6-0.1,1-0.1c-0.2-0.2-0.3-0.4-0.5-0.6c0.3-0.2,0.6-0.5,0.9-0.7c0.6,0.3,1.1,0.8,1.8,0.2c-1-0.6-2-1.2-3.1-1.7
	c-0.1-1,1.8-1.3,1.2-2.6c-0.2,0-0.5,0-0.7,0.1c0-0.1-0.1-0.1-0.1-0.2c0.4-0.3,0.9-0.6,1.4-1c-0.6-1.1,0.2-1.8,0.8-2.7
	c-0.6,0.3-1.1,0.6-1.8,1c0.2-0.9,0.3-1.5,0.5-2.3c0.3,0,0.8,0,1.2-0.1c0.2,0,0.5-0.2,0.6-0.4c0.1-0.1-0.1-0.4-0.2-0.4
	c-0.2-0.1-0.5-0.1-0.7,0c-0.3,0.1-0.5,0.2-0.7,0.3c-0.4-0.8-0.8-1.5-1.2-2.2c-0.1,0-0.2,0.1-0.3,0.1c0,0.2,0,0.5,0,0.9
	c-0.5-0.2-1-0.3-1.5-0.5c0.1,1.5,0.2,2.9,0.3,4.4c2,0.6,0.3,2.3,1.1,3.3c-0.9,0.6-2.4,0.5-2.4,1.9c-0.2-0.6-0.4-1.2-0.5-1.8
	c0-0.2,0.2-0.5,0.4-0.7c0.1-0.1,0.5,0.1,0.7,0.2c0.2,0.1,0.3,0.3,0.5,0.4C1,83.9,1,82.6,0.4,82.1C-0.2,81.8,0,81.4,0,81
	c0-0.5,0.2-1.2-0.7-1.2c0.2-1.6,0.4-3.2,0.6-4.8c0.1-0.6,0.3-0.8,1-0.8c0.9,0,1.8-0.1,2.9-0.2c-0.2,0.5-0.4,1-0.6,1.6
	c0.3,0,0.6,0.1,1,0.1c0,0.4,0.1,0.7,0.1,1.2c0.3,0,0.6,0.1,1.1,0.1c0.1-1.1,0.1-2.1,0.2-3.2c-0.4,0-0.9,0-1.4-0.1c0-0.1,0-0.1,0-0.2
	c0.3-0.1,0.5-0.2,0.8-0.3c0.8-0.3,1.5-0.7,1-1.7c-0.3-0.6,0.3-1.4-0.6-1.9c-0.1,0,0.1-0.5,0.2-0.7c0.1-0.4,0.3-0.9,0.5-1.4
	c-0.4,0.1-0.6,0.1-1,0.1c0-0.2,0-0.4,0.1-0.5c1.2-1.7,2.4-3.4,3.6-5.1C9,61.8,9,61.5,9,61.3c-0.3-0.6-0.2-1.1,0.4-1.5
	c0.7-0.5,1-1,0.3-1.7c-0.1-0.1-0.2-0.3-0.2-0.5c0-0.2,0.1-0.4,0.2-0.7c0.2,0.1,0.4,0.2,0.8,0.4c0-0.7,0-1.4-0.1-2.2
	c0.3,0.3,0.6,0.5,0.9,0.7c0.1,0,0.1-0.1,0.2-0.1c-0.2-0.3-0.4-0.5-0.7-1c1.1-0.1,2-0.2,3-0.3c-0.2-0.9-0.6-1-2.3-0.9
	c-0.3-0.4-0.5-0.9-0.8-1.1c-1.1-0.6-1.8-1.4-1-2.7c0.8,0.3,0.9,1,1.1,1.7c0.1,0.4,0.4,0.7,0.7,1c0,0,0.3-0.1,0.3-0.1
	c0-0.2-0.1-0.3-0.2-0.6c0.9,0,1.7-0.1,2.5-0.1c0.3-0.6,0.6-1.3,1-2c0.8,0.7,1.9,0.6,2.5-0.2c-0.4-0.1-0.7-0.2-1-0.3
	c0-0.1,0-0.2,0-0.3c0.6,0,1.3,0,1.9,0c0.1,0,0.2,0.4,0.3,0.8c1.2-0.2,2.4-0.4,3.8-0.6c0.1,0.9,1,0.5,1.5,0.6
	c0.9,0.2,1.8,0.2,2.7,0.4c0.3-0.5,0.9-1,0.9-1.4c0-0.5-0.6-0.9-1.2-1.6c1.4,0,2.6,0,3.7,0.1c0.2,0,0.4,0.2,0.4,0.3
	c0.3,0.8,0.5,1.6,0.7,2.4c-0.1,0-0.2,0.1-0.2,0.1c-0.2-0.2-0.3-0.3-0.5-0.5c-0.3,0.3-0.5,0.7-0.9,1.1c0.4,0,0.7-0.1,1.1-0.1
	c-0.1,0.6-0.1,0.6-0.6,0.6c-0.4,0-0.8,0-1.2,0c0,0.1,0.1,0.2,0.1,0.3c-0.3,0.2-0.6,0.5-0.9,0.6c-0.6,0.2-0.8,0.3-0.7,0.9
	c0.1,0.7,0.1,1.4,0.2,2.3c0.4-0.3,0.7-0.4,1.2-0.7c0,0.4,0,0.8-0.1,0.8c-0.8,0.4-0.3,0.8-0.1,1.3c1.5-0.7,2.5,0.5,4,0.7
	c-1,0.9-1.5-0.4-2.5-0.1c-0.1,0.9-0.2,1.9-0.3,3c0.1,0,0.2,0,0.3,0.1c0.2-0.5,0.4-1,0.5-1.4c0.1-0.8,0.5-1,1.3-0.8
	c0.5,0.1,1.1,0.3,1.6,0.3c0.7,0.1,1.5,0.1,2.3,0c0.7-0.2,1.2,0,1.5,0.6c0.3,0.5,0.6,0.9,1.1,0.1c0.1-0.2,0.5-0.2,0.9-0.3
	c-0.1,0.4-0.2,0.7-0.3,0.9c1.5,0.1,1.2,2.4,3,2.1c-0.1,0.9-0.1,1.6-0.2,2.6c0.6-0.6,1-1.1,1.4-1.5c0.4,0.8,0.7,1.5,1,2.1
	c0.9,0.4,2.2-0.6,2.9,0.6c0.3-0.2,0.6-0.5,1.1-0.9c-1.7,0.2-1.2-1.2-2-1.7c1.5-0.6,0.6,1.1,1.5,1c-0.1-0.3-0.1-0.5-0.2-0.8
	c0.6-0.1,1.2-0.3,1.4,0.6c0,0.2,0.3,0.4,0.4,0.4c0.2,0,0.5-0.2,0.7-0.3c0.3-0.3,0.6-0.7,1.1-1.2c-0.3-0.3-0.7-0.6-1.1-0.9
	c0.1-0.2,0.3-0.4,0.5-0.5c0.5,0.3,1,0.6,1.7,0.9c0,0.2-0.1,0.5-0.1,0.9c0.8-0.3,0.8-0.3,0.7-1.4c0.6-0.1,1.1-0.1,1.5-0.2
	c0.1-0.8,0.2-1.5,0.3-2.3c1.3,0.5,1.4,1.1,0.4,2.1c1.5-0.3,1.9-1.4,2.5-2.6c0.4,0.5,0.7,1,1.1,1.4c0.1-0.1,0.2-0.1,0.3-0.2
	c0.1-1.3-0.6-2.6,0.2-3.8c0.1,0,0.3-0.1,0.4-0.1c0.2,0.5,0.3,1,0.5,1.5c0.1,0.3,0.4,0.6,0.6,1c0.1,0,0.3-0.1,0.4-0.1
	c-0.1-0.9-0.2-1.8-0.3-2.6c0.9-0.6,1.9-1.3,3-2.1c-0.7-1-0.3-2,0.2-3.1c0.2-0.5,0.1-1.1,0-1.6c-0.2-0.9,0.6-0.7,1-0.9
	c0-0.6-0.1-1.3,0.1-1.7c0.2-0.4,0.9-0.6,1.4-0.8c-0.3-0.2-0.7-0.3-1.1-0.5c0-0.1,0-0.2,0.1-0.3c0.4-0.1,0.7-0.1,1.2-0.2
	c-0.1-0.2-0.1-0.4-0.2-0.8c0.5,0.3,0.9,0.5,1.3,0.7c0.9-1.1-0.5-2.8,1.4-3.6c-1.1,1.3,0.8,1.8,0.8,2.8c0-0.3,0.1-0.6,0.1-0.9
	c-0.1-0.7-0.2-1.4-0.3-2.1c-0.3-1.7-0.2-1.8,1.8-2.1c-0.5-0.4-0.8-0.8-1.4-1.3 M6.9,83.8c-1-0.2-1-0.3-0.8-1.1
	c0.2-0.6,0.4-1.1,0.6-1.7c-0.1-0.1-0.3-0.2-0.4-0.4c0.2,1.3-0.8,0.7-1,0.9c-0.5,1.2-0.9,2.1-1.3,3.2c0.2,0.2,0.5,0.6,0.9,1
	C4.5,86,4.2,86.1,4,86.3c0.2,0.3,0.3,0.5,0.4,0.7c0.9,0.1,1.8,0.1,2.5,0.2c0.3-0.4,0.6-0.7,1-1.2C7,86,6.3,86.1,5.2,86.2
	c0.3-0.8,0.6-1.4,0.9-2.1c0.1,0,0.2,0,0.3,0.1c0,0.2,0.1,0.4,0.1,0.6c0.1,0,0.2,0,0.3,0C6.8,84.5,6.8,84.1,6.9,83.8z M7.3,95.1
	C7.2,95,7.2,95,7.1,94.9c-0.6,0.5-1.3,1-1.9,1.6C6,97.9,6,98.2,5,98.9c0.4,0.7,1,0.5,1.5,0.1c0.4-0.2,0.6-0.6,0.9-0.8
	c0-0.1-0.1-0.1-0.1-0.2c-0.2,0.1-0.5,0.1-0.9,0.2c0.1-0.6,0.2-1.1,0.4-1.7C6.9,96.1,7.1,95.6,7.3,95.1z M4.2,90.4
	c-0.1,0-0.2,0.1-0.3,0.1c0.1,0.2,0.2,0.6,0.3,0.6c0.5,0,1-0.1,1.3-0.3c0.4-0.3,0.7-0.7,1.1-1.1c0.2-0.2,0.5-0.4,0.8-0.6
	c-0.7,0-1.2-0.8-1.8-0.1c-0.4,0.5-0.8,1.1-1.2,1.6C4.4,90.6,4.3,90.5,4.2,90.4z M31.7,118.4c-0.6,0-1.1,0.1-1.5,0.1
	c0.1-0.6,0.1-1.1,0.2-1.8c-0.9,0.3-1.3,0.8-1.1,1.4c0.2,0.9,1.3,1.5,2.8,1.4C31.9,119.2,31.8,118.8,31.7,118.4z M72.1,37.8
	c0.4-0.1,0.9-0.2,1.4-0.3 M64,107c0.2,0.7,0.5,1.4,0.8,2.1c-0.7,0.3-1.4,0.6-2.1,0.8c0,0.1,0,0.2,0,0.3c0.7,0,1.4-0.1,2-0.1
	C65.8,108.8,65.1,107.9,64,107z M37.8,62.3c0.1-1-0.5-1.5-1.3-2c-0.9-0.6-1.4-0.7-1.9-0.4C35.6,60.6,36.7,61.4,37.8,62.3z
	 M38.8,64.5c1-0.9,1-2.6-0.1-4C38.7,62,38.7,63.3,38.8,64.5z M13.5,71.6c0.7-0.3,1.3-0.6,1.9-0.9c0-0.1-0.1-0.2-0.1-0.3
	c-0.9,0.3-1.8,0.6-2.7,0.9c-0.1,0.1-0.1,0.5-0.1,0.6c0.7,0.2,1.2,0.3,1.8,0.4c0,0,0.1-0.1,0.1-0.1C14.1,72.1,13.9,71.9,13.5,71.6z
	 M78.1,89.3c0.7-0.1,1.3-0.7,1.6,0.3c1-1,0.9-1.6,0.1-1.9C79.1,88.3,78.6,88.8,78.1,89.3z M74.8,42.5c0.6,1,1.1,1.9,1.7,2.8
	c0.2-0.2,0.4-0.4,0.6-0.6C76.4,44,76.3,42.8,74.8,42.5z M5.2,95.1c0.1,0,0.3,0,0.4,0c0.2-0.8,0.3-1.7,0.5-2.6
	c-0.3-0.2-0.6-0.4-0.9-0.6C5.2,93,5.2,94,5.2,95.1z M22.7,68.9c-0.1,0.4-0.1,0.8-0.2,1.2c0.1,0,0.1-0.1,0.2-0.1
	c0.4,0.6,0.8,1.2,1.2,1.9c0.1-0.4,0-0.8-0.1-1.2c0-0.4,0-0.7-0.1-1C23.4,69.5,23.1,69.2,22.7,68.9z M7.3,76.4
	c0.2-0.8,0.3-1.4,0.4-2.3c-0.7,0.7-1.2,1.2-1.9,1.8C6.5,76.1,6.9,76.3,7.3,76.4z M40.6,68.8c1.2-0.5,1.3-1.4,0.4-2.4
	C40.8,67.1,40.7,67.9,40.6,68.8z M14.9,79.6c-0.7,0.1-1.4,0-1.5,0.9c0,0.1,0.4,0.4,0.6,0.4C14.7,80.9,15,80.4,14.9,79.6z M13.8,76.3
	c0.4,0.3,2.5,0,2.6-0.4c-0.1-0.2-0.2-0.4-0.2-0.3C15.3,75.9,14.6,76.1,13.8,76.3z M21.4,111.4c-0.1,0.4-0.4,0.7-0.3,0.8
	c0.3,0.5,0.7,0.9,1.1,1.3c0.1-0.1,0.2-0.1,0.3-0.2C22.2,112.8,21.8,112.2,21.4,111.4z M28.4,117c-0.3,0-0.7,0.1-0.8,0
	c-0.7-0.6-0.9-0.5-1.2,0.4C27.4,117.6,28,117.5,28.4,117z M11.1,59.7c0.1,0.1,0.2,0.2,0.3,0.3c0.4-0.4,0.8-0.8,1.3-1.4
	c0.2,0.2,0.3,0.4,0.5,0.6c0.1-0.1,0.1-0.1,0.2-0.2c0-0.3,0-0.5,0-0.8c-0.1-0.1-0.2-0.1-0.2-0.2C12.4,58.6,11.8,59.2,11.1,59.7z
	 M62.4,110.6c-0.9,0.2-1.6,0.3-2.3,0.5C60.9,111.6,61.9,111.4,62.4,110.6z M58,61.8c0.1-0.1,0.2-0.2,0.3-0.3
	c-0.2-0.4-0.3-0.7-0.5-1.2c-0.3,0.3-0.6,0.6-0.6,0.7C57.4,61.3,57.7,61.5,58,61.8z M26.1,115.1c-0.4-0.8-0.8-1.3-1.1-1.8
	C24.6,114.1,24.9,114.6,26.1,115.1z M21.4,58.9c-0.2,0-0.3,0-0.5,0c0.1,0.6,0.1,1.3,0.2,1.9c0.1,0,0.2,0,0.3,0
	C21.4,60.1,21.4,59.5,21.4,58.9z"/>
<g>
	<path d="M19.7,4c4.1,1.5,8.2,3.2,12.5,4.4c1.7,0.5,3.7,0.3,5.6,0.2c3.6,0,7.2-0.4,10.8-0.2c7.7,0.5,15.3,1.7,22.7,3.6
		c0.5,0.1,1.1,0.1,1.5-0.2c3.8-2.5,7.6-5,11.4-7.5c2.6-1.8,5.3-3.4,8.4-4.2c1-0.2,2.1-0.5,2.3,0.8c0.4,2.1,1.4,4.2,0.4,6.3
		C95,7.7,94.5,8,94.2,8.4c-0.1-0.5-0.4-1-0.4-1.4c-0.1-1.2,0-2.4,0-3.6c-0.2,0-0.3-0.1-0.5-0.1c-0.7,1.1-1.3,2.3-2,3.4
		c-0.5,0.8-1.1,1.7-1.9,2.3c-5.6,3.9-11.2,7.7-16.8,11.4c-1.3,0.9-2,2-2.4,3.4c-0.8,2.5-1.7,4.9-2.7,7.3c-1,2.3-2.9,3.4-5.3,3.6
		c-1,0.1-2.1,0.1-3.2,0.1c-4.8-0.4-9.4-1.9-13.9-3.5c-3.4-1.2-5.9-3.3-7.6-6.3c-1.4-2.5-2.6-5.1-3.9-7.7c-0.7-1.3-1.4-2.5-3.3-2.5
		c-0.1,0.6-0.2,1.2-0.3,1.8c-0.6,2-1.2,4-2,6c-0.7,1.8-2.3,2.8-4.2,2.6c-5.4-0.5-10.4-2.3-12.9-7.4C8.5,13.1,7,8.2,5.2,3.5
		c-1.8-4.6,9.3-1.2,10.9-0.8c1.1,0.3-0.3-0.1,0.8,0.2 M37.7,11.7c-0.5,0.1-1.1,0.6-1.2,1.1c-0.1,0.5,0.2,1.3,0.5,1.6
		c3.2,2.5,4.3,6,4.6,9.8c0.2,1.7,0.9,2.8,2.3,3.6c5.3,2.9,10.9,4.8,17.1,4.4c2.8-0.2,4.1-1,4.8-3.7c0.6-2.6,0.9-5.3,0.9-8
		c-0.1-3.8-2.4-6.1-6-6.9c-3.8-0.9-7.7-1.5-11.6-2.1c-1.6-0.3-3.2-0.3-5.4-0.4C42,11.1,39.8,11.3,37.7,11.7z M16.3,20
		c2,2,4.4,2.9,7.2,2.8c1.2,0,2.1-0.5,2.2-1.8c0.3-2.5,0.8-5,0.7-7.5c0-1.3-0.9-2.8-1.8-3.7c-2.5-2.4-5.6-3.8-9-4.4
		c-1.7-0.3-3.6,0.4-5.5,0.7C11.3,11.3,12.6,16.2,16.3,20z"/>
</g>
</svg>
