<?xml version="1.0" encoding="utf-8"?>
<!-- Generator: Adobe Illustrator 19.1.0, SVG Export Plug-In . SVG Version: 6.00 Build 0)  -->
<svg version="1.1" id="Layer_1" xmlns="http://www.w3.org/2000/svg" xmlns:xlink="http://www.w3.org/1999/xlink" x="0px" y="0px"
	 viewBox="0 0 745 211.3" style="enable-background:new 0 0 745 211.3;" xml:space="preserve">
<style type="text/css">
	.st0{fill:#875C3C;}
	.st1{font-family:'NexaRustSlab-BlackShadow01';}
	.st2{font-size:140.8923px;}
</style>
<text transform="matrix(1 0 0 1 16.4466 128.7403)"><tspan x="0" y="0" class="st0 st1 st2">BEER</tspan><tspan x="437.2" y="0" class="st1 st2">D D</tspan></text>
<path d="M591.6,3.7c0.4-0.4,0.3-0.8,7.1-0.8s6.2,0.4,6.6,0.8c0.4,0.4,0.9,2.8,0.9,2.8c-1.2,0-1.1,0.6-1.8,0.5
	c-0.3,0-0.7-0.6-1.2-0.6c-0.4,0-0.8,0.6-1.2,0.6c-0.4,0-0.8-0.6-1.2-0.6c-0.4,0-0.8,0.6-1.2,0.6c-0.4,0-0.8-0.6-1.2-0.6
	c-0.4,0-0.8,0.6-1.2,0.6c-0.4,0-0.8-0.6-1.2-0.6c-0.4,0-0.8,0.6-1.2,0.6c-0.4,0-0.8-0.6-1.2-0.6c-0.4,0-0.8,0.6-1.2,0.6
	c-0.7,0-0.4-0.5-1.8-0.5C590.8,6.4,591.2,4,591.6,3.7z M616.1,127.9c-0.4-4.4,1.4-46.9,0.3-55.1c-2.5-17.8-11.3-22.4-11.3-51.5
	c0-1.4,0.1-1.7,0.3-1.9c0.3-0.3,0.7-0.3,0.5-1.4c-0.3-1.1-0.9-2.8-0.9-2.8s-0.2-0.7,0-0.9c0.2-0.2,0.2-0.9-0.6-1.2
	c-0.5-0.2-11.3-0.2-11.8,0c-0.7,0.3-0.7,1-0.6,1.2c0.2,0.2,0,0.9,0,0.9s-0.6,1.7-0.9,2.8c-0.3,1.1,0.2,1.1,0.5,1.4
	c0.2,0.2,0.3,0.5,0.3,1.9c0,29.1-8.8,33.7-11.3,51.5c-1.1,8.2,0.7,50.7,0.3,55.1c-0.9,9.2,16.5,8.8,17.6,8.8
	C599.6,136.7,617.1,137.2,616.1,127.9z"/>
<path d="M123.2,81.6c0,0.4,0.3,0.8,0.5,1.2c1,1.6,2.2,3.1,2.9,4.8c0.4,0.8-0.1,2-0.3,3.4c0,1,0,2.4,0.1,3.9c0,0,0.3,0,0.6,0
	c-0.1,0.5-0.1,1-0.2,1.6c1.3,0.5,2.6,1,3.9,1.5c0.1-0.1,0.2-0.2,0.2-0.3c0.1,0.6,0.2,1.1,0.4,2c-1.4-0.4-2.6-0.7-3.8-1
	c-0.8-0.2-1.7-0.3-2.5-0.3c-0.4,0-0.8,0.6-1.1,1c0.1,0.1,0.2,0.2,0.3,0.3c0.5,0,1,0,1.2-0.1c0,1.5,0,3,0,4.5c0.2,0,0.3,0,0.5,0.1
	c0.3-1,0.6-2,1-3.3c0.2-0.1,0.7-0.3,1.3-0.6c0.2,0.7,0.4,1.3,0.5,1.9c-2.2,1.3-2.5,2.1-1.3,4.4c0.4,0.9,0.9,1.8,1.3,2.7
	c0.2,0.5,0.1,1,0.2,1.5c-0.2,0.1-0.3,0.2-0.5,0.2c-0.3-0.4-0.6-0.8-1-1.2c-0.2-0.2-0.6-0.2-0.9-0.3c0,0.3,0,0.5,0.1,0.8
	c0.1,0.4,0.3,0.8,0.4,1.3c1.1,0.4,2.9-0.1,3.5,1.7c-0.7-0.2-1.3-0.4-2-0.6c0,0.7,0,1.1-0.1,1.6c1,0.5,2.7-0.4,3,1.2
	c0.1,0.6,0.4,1.2,0.3,1.8c-0.1,1.3-0.4,2.5-0.6,4.1c-1.1-0.1-2.3-0.2-3.6-0.4c-0.2,1.1,0.2,1.5,1.3,1.3c0.8-0.1,1.5-0.1,1.5,0.9
	c-0.1,0-0.3-0.1-0.4-0.1c-0.4,0.9-0.8,1.8-1,2.7c-0.4,1.3-0.6,2.6-0.9,3.9c-0.2,0-0.4,0-0.5,0c-0.1-0.3-0.3-0.7-0.4-1
	c-0.7,0.2-1.4,0.3-2.1,0.4c0,0.1,0,0.3,0,0.4c0.6,0,1.1,0,1.5,0.1c-0.1,0.8-0.2,1.7-0.3,2.6c0.2,0,0.4,0.1,0.5,0.1
	c0.2-0.6,0.3-1.2,0.5-1.8c0.2,0.1,0.5,0.2,0.7,0.4c-0.3,1.9-0.7,3.9-1,5.6c1.5,0.5,2.9,1,4.4,1.5c-0.2,1.1-0.4,2.3-0.6,3.4
	c-0.6,0-1.1,0-1.7,0c0.1,1.6,0.3,3.2,0.5,5c1.8-1.6-0.2-4,2.2-5.2c-0.2,2.1-0.4,3.9-0.6,5.9c0.5,0,1-0.1,1.7-0.2
	c-0.8,1.4-1.5,2.7-2.2,4c-0.2,0.4-0.3,0.8-0.5,1.3c-0.5,1.3-1,2.5,0.1,3.9c1,1.3,0.3,5-1,6.5c0-0.8,0.2-1.5,0-2.1
	c-0.2-0.5-0.8-0.8-1.6-1.5c-0.2,2.1-0.3,3.7-0.4,5.4c-0.2,0-0.3,0.1-0.5,0.1c-0.2-0.8-0.4-1.7-0.7-2.4c-0.1-0.4-0.5-0.7-0.8-1
	c0,0-0.6,0.2-0.6,0.3c0.1,0.4,0.2,0.8,0.4,1.1c0.1,0.4,0.6,1.1,0.4,1.2c-0.8,0.9-1.2,2.2-3,2.1c0.2,0.4,0.3,0.8,0.5,1.2
	c-2.4,1.7-3.8,3.9-3.7,6.8c0,0.2,0,0.4-0.1,0.6c-0.5,1.1-0.9,2.1-1.4,3.2c-0.3,0.5-0.8,0.9-1.5,1.7c0.4,1.3-0.1,2-2.1,2.8
	c-0.5,0.2-0.9,0.8-1.3,1.3c-0.5,0.8-1.1,1.3-2.2,0.6c0,2.3-1.7,2.2-3.2,2.3c-0.2,0.8-0.4,1.5-0.6,2.3c0.4,0.1,0.9,0.1,1.7,0.2
	c-0.4,0.6-0.7,1.1-1,1.6c-0.3,0.7-1,1.6-0.7,2c0.5,0.9,1.3,0.5,2-0.2c0.4-0.3,1.1-0.4,1.6-0.5c1.1-0.3,2.1-0.5,3.4-0.6
	c-0.9,0.6-1.8,1.2-2.8,1.6c-3.2,1.5-6.3,3.4-9.7,4.1c-2,0.4-3.5,1.3-5.3,2c-1.2,0.5-2.8,0.4-4.2,0.7c-0.3,0.1-0.6,0.4-1,0.8
	c1.6-0.1,2.9-0.2,4.5-0.3c-0.4,1.3-0.6,2.2-1,3.4c-1.4-1.6-2.9-1.4-4.4-1c-0.8,0.2-1.8,0-2.6,0c-0.9,0-1.8,0-2.8,0.1
	c0,0.1,0,0.3,0,0.4c1.3,0.2,2.6,0.4,3.9,0.6c0,0.2-0.1,0.4-0.1,0.6c-1-0.2-2-0.3-2.9-0.5c-0.1,0.7-0.2,1.3-0.2,1.8
	c0.5,0.5,1.1,1.1,1.7,1.7c-2.3,0.3-2.7,0-4.3-2.9c-0.9,1.2-1.8,2.4-2.6,3.4c0.9,0.4,1.8,0.8,3,1.3c-1.2,0.5-1.9,0.8-2.8,1.1
	c-0.5-1.3-1.6-1.1-2.7-0.8c-0.8,0.3-1.4,0.4-2.2-0.3c-1.9-1.7-3-1.2-3.9,1.4c-0.8-0.4-1.7-0.8-2.6-1.2c0,0.6,0.1,1.1,0.1,1.5
	c-1.1,0.1-2,0.1-3.3,0.2c0,0-0.4-0.4-0.7-0.7c-3,1.5-5.2,1.5-8.8,0.1c0.6-0.4,1-0.7,1.4-1c-0.5-0.6-0.7-1-1.1-1.3
	c-0.4-0.3-1-0.3-1.5-0.5c-0.1,0.4-0.5,1-0.3,1.2c0.3,0.3,0.8,0.4,1.5,0.7c0,0,0,0.3-0.1,0.9c-1.4-0.7-2.6-1.3-3.9-1.9
	c-0.1,0.1-0.2,0.2-0.4,0.3c0.3,0.6,0.6,1.2,1,1.8c-1.5,0.3-2.5-0.3-3.1-1.5c-0.7-1.4-1.5-2.7-3.4-3.6c0.5,1.4,0.9,2.5,1.2,3.6
	c-1.4-2-2.9-3.7-5.6-4.4c0,1.2-0.8,1-1.6,0.6c-0.2,0.7-0.3,1.3-0.5,2.2c-1.2-0.7-2.3-1.3-3.3-1.8c-0.6-0.3-1.2-0.5-1.8-0.8
	c-0.1,0.1-0.3,0.2-0.4,0.4c0-0.5-0.1-1-0.1-1.6c-1,0.4-2.1,0.7-2.9,1c-0.4-0.6-0.9-1.2-1.4-1.9c0,0,0.2-0.2,0.6-0.7
	c-1.3,0-2.5,0.1-3.8,0.1c0.3-0.8,0.5-1.3,0.6-1.7c-1.2-2-3.1-0.8-4.6-0.8c-0.9-0.7,0.5-2.5-1.4-2.4c-0.4,2.1-0.7,4.1-1.1,6.2
	c-0.8-0.3-1.5-0.5-2.3-0.7c-0.5-0.1-1,0-1.5,0.1c-0.5,0.1-0.9,0.3-1.3,0.5c-0.1-0.5-0.2-1-0.3-1.6c2.9,0.6,4.3-0.2,5.2-2.7
	c-0.5-0.4-1.1-0.8-1.8-1.3c-0.2,0.6-0.3,1.2-0.5,1.8c-0.1,0.2-0.3,0.6-0.5,0.6c-0.2,0-0.6-0.2-0.7-0.4c-0.1-0.3-0.1-0.6,0-0.9
	c0.5-1.1,1.2-2.1,1.4-3.2c0.3-1.1-0.6-1.5-1.9-1.7c-0.2,0.9-0.3,1.7-0.5,2.6c-0.5-1-1-1.9-1.5-2.9c1.4-0.4,3.7,0.1,3.2-2.2
	c-1.2-0.5-2.1-1-3.1-1.4c-0.7,1.1-1.4,2.2-2.1,3.3c-0.2-0.1-0.3-0.1-0.5-0.2c0.2-2.1,0.5-4.1,0.7-6.3c2.4,0.8,2.4,0.8,2.9-0.5
	c-0.9-0.4-2.5,0.3-2.4-1.3c0-0.4,1.3-0.7,2.2-1.1c-0.4-0.6-1.1-1.1-2.2-0.4c-0.9,0.6-1.8,1.3-2.7,1.8c-0.5,0.3-1.1,0.4-1.9,0.7
	c1.2-2.2,4.7-1.9,4.8-4.9c-0.9,0.4-1.5,0.8-2.1,0.9c-0.5,0.1-1.1,0-1.7-0.1c-1.2-0.1-2.5-0.2-3.8-0.4c0.1-0.4,0.2-0.8,0.3-1.3
	c-0.8,0-1.6-0.1-2.5-0.1c0.4-1.6,1.3-1.9,2.7-1c0.2-0.7,0.3-1.2,0.4-1.7c0.1,0,0.2,0,0.4,0c0.1,0.6,0.2,1.1,0.3,1.7
	c0.2,0.9,0.6,1.6,1.7,1.3c1.9-0.5,3.7-1.2,5.5-2c1.2-0.5,1.4-1.5,1-2.7c-1.2,0.1-2.5-0.6-3.3,1.1c-0.3,0.5-1.7,0.7-2.6,0.8
	c-0.3,0-0.7-0.9-1-1.4c-0.3-0.5-0.5-0.9-0.9-1.7c-0.3,1.1-0.1,2.2-1.5,1.4c-0.3-0.2-0.9,0.2-1.4,0.3c-0.6-2.2-3.2,0.2-4.1-1.4
	c2.5-0.2,5.1-0.4,7.2-0.6c0.7-0.7,1.3-1.2,2.1-1.9c0-1.2-1.1-1.2-2.1-1.2c-1.1-0.1-2.2-0.2-3.7-0.3c-1,0.8-1.7,0.9-2.7,0
	c1.2-0.4,2.3-0.8,3.4-1.2c0-0.2-0.1-0.3-0.1-0.5c0.5,0.2,1,0.3,1.6,0.5c-1.1-1.2,0-1.8,0.7-2.5c0.7-0.7,0.8-0.7,0.1-1.6
	c-1,0.9-2,1.8-3.1,2.7c-0.1-0.1-0.2-0.1-0.3-0.2c0.5-1.6,0.9-3.1,1.4-4.8c-0.3,0-0.7,0-1.2-0.1c0.5-1.8,3.7-0.5,3.4-2.9
	c-0.5,0-1,0.1-1.6,0.1c0-0.5-0.1-0.9-0.1-1.4c0.5-0.1,1-0.1,1.6-0.2c-0.2-0.3-0.5-0.6-0.7-0.9c0.5-0.4,1-0.8,1.5-1.1
	c0.9,0.5,1.8,1.2,2.9,0.3c-1.6-0.9-3.2-1.8-4.9-2.8c-0.1-1.7,2.8-2.1,1.9-4.1c-0.4,0-0.8,0.1-1.2,0.1c-0.1-0.1-0.1-0.2-0.2-0.3
	c0.7-0.5,1.4-1,2.2-1.5c-1-1.7,0.3-2.8,1.3-4.2c-0.9,0.5-1.8,1-2.8,1.6c0.3-1.4,0.5-2.4,0.8-3.6c0.5,0,1.2,0,1.9-0.1
	c0.4-0.1,0.8-0.3,1-0.6c0.1-0.1-0.1-0.6-0.3-0.7c-0.3-0.1-0.8-0.1-1.1,0c-0.4,0.1-0.8,0.4-1.1,0.5c-0.7-1.2-1.3-2.4-1.9-3.5
	c-0.2,0.1-0.4,0.1-0.6,0.2c0,0.4,0,0.8-0.1,1.4c-0.8-0.3-1.5-0.5-2.4-0.8c0.1,2.4,0.3,4.6,0.4,7c3.2,0.9,0.5,3.6,1.7,5.2
	c-1.5,0.9-3.8,0.8-3.8,3.1c-0.3-0.9-0.6-1.8-0.7-2.8c0-0.3,0.3-0.9,0.6-1.1c0.2-0.1,0.7,0.1,1.1,0.3c0.3,0.2,0.5,0.4,0.7,0.7
	c0.8-1.2,0.8-3.3-0.2-4c-0.9-0.6-0.6-1.2-0.6-1.9c0.1-0.9,0.4-1.9-1.1-2c0.3-2.6,0.7-5.1,1-7.7c0.1-0.9,0.5-1.3,1.5-1.2
	c1.4,0,2.8-0.2,4.5-0.3c-0.3,0.8-0.6,1.6-0.9,2.5c0.5,0.1,1,0.1,1.5,0.2c0,0.6,0.1,1.2,0.1,1.8c0.5,0.1,1,0.1,1.7,0.2
	c0.1-1.7,0.2-3.4,0.4-5.1c-0.7,0-1.5-0.1-2.3-0.1c0-0.1,0-0.2,0-0.3c0.4-0.1,0.8-0.3,1.2-0.4c1.3-0.5,2.3-1.1,1.6-2.6
	c-0.4-0.9,0.6-2.3-0.9-3c-0.1,0,0.1-0.7,0.3-1.1c0.2-0.7,0.5-1.4,0.8-2.2c-0.6,0.1-1,0.1-1.5,0.2c0.1-0.3,0-0.6,0.2-0.8
	c1.9-2.7,3.9-5.4,5.8-8.2c0.2-0.3,0.3-0.9,0.2-1.3c-0.4-1-0.2-1.7,0.7-2.3c1.1-0.7,1.5-1.6,0.5-2.7c-0.2-0.2-0.4-0.5-0.4-0.8
	c0-0.3,0.2-0.7,0.3-1.1c0.3,0.2,0.6,0.3,1.3,0.6c0-1.1-0.1-2.2-0.1-3.5c0.5,0.4,1,0.7,1.4,1.1c0.1-0.1,0.2-0.1,0.3-0.2
	c-0.3-0.4-0.6-0.9-1.2-1.6c1.7-0.2,3.2-0.4,4.7-0.6c-0.3-1.4-1-1.6-3.6-1.4c-0.4-0.6-0.7-1.4-1.3-1.7c-1.8-1-2.8-2.2-1.6-4.3
	c1.3,0.4,1.4,1.6,1.7,2.7c0.2,0.6,0.7,1.1,1.1,1.6c0,0,0.5-0.1,0.5-0.1c0-0.3-0.1-0.5-0.2-1c1.4-0.1,2.7-0.1,3.9-0.2
	c0.5-1,1-2.1,1.6-3.2c1.3,1.1,3,0.9,3.9-0.3c-0.6-0.2-1.1-0.3-1.6-0.5c0-0.2,0-0.3,0-0.5c1,0,2.1,0,3.1,0.1c0.2,0,0.2,0.6,0.4,1.2
	c1.9-0.3,3.9-0.7,6-1c0.2,1.4,1.5,0.8,2.4,0.9c1.4,0.3,2.9,0.4,4.2,0.6c0.5-0.7,1.4-1.5,1.4-2.3c0-0.8-1-1.5-1.9-2.6
	c2.3,0,4.1,0,5.9,0.1c0.3,0,0.6,0.3,0.7,0.5c0.4,1.3,0.8,2.6,1.2,3.8c-0.1,0.1-0.3,0.1-0.4,0.2c-0.3-0.3-0.5-0.5-0.8-0.9
	c-0.4,0.5-0.8,1-1.4,1.7c0.6-0.1,1.2-0.1,1.7-0.2c-0.1,1-0.1,1-1,1c-0.6,0-1.2,0-1.9,0c0.1,0.1,0.1,0.3,0.2,0.4
	c-0.5,0.4-0.9,0.9-1.4,1c-0.9,0.2-1.2,0.6-1.1,1.5c0.2,1.1,0.2,2.3,0.3,3.7c0.7-0.4,1.1-0.7,1.9-1.2c-0.1,0.6,0,1.2-0.2,1.3
	c-1.2,0.7-0.5,1.3-0.2,2c2.4-1.1,4,0.8,6.3,1c-1.6,1.4-2.4-0.7-3.9-0.1c-0.2,1.5-0.3,3.1-0.5,4.7c0.1,0,0.3,0.1,0.4,0.1
	c0.3-0.8,0.7-1.5,0.8-2.3c0.2-1.3,0.8-1.6,2-1.3c0.9,0.2,1.7,0.4,2.6,0.5c1.2,0.1,2.4,0.2,3.6,0c1.2-0.3,1.8,0,2.3,0.9
	c0.5,0.8,0.9,1.4,1.7,0.2c0.2-0.3,0.8-0.3,1.4-0.5c-0.2,0.7-0.3,1-0.4,1.5c2.4,0.2,1.8,3.9,4.8,3.3c-0.1,1.4-0.2,2.6-0.3,4.1
	c0.9-1,1.6-1.8,2.2-2.4c0.6,1.3,1.1,2.3,1.6,3.3c1.5,0.6,3.4-1,4.6,0.9c0.5-0.4,1-0.8,1.8-1.4c-2.7,0.3-1.9-1.9-3.1-2.7
	c2.3-0.9,1,1.8,2.4,1.7c-0.1-0.4-0.2-0.8-0.3-1.3c1-0.2,2-0.4,2.2,1c0,0.3,0.4,0.7,0.6,0.7c0.4,0,0.8-0.3,1-0.5c0.5-0.5,1-1.1,1.7-2
	c-0.5-0.4-1.1-1-1.8-1.5c0.2-0.2,0.5-0.6,0.7-0.9c0.8,0.5,1.7,0.9,2.7,1.5c0,0.3-0.1,0.8-0.2,1.4c1.2-0.4,1.2-0.4,1-2.3
	c0.9-0.1,1.8-0.2,2.3-0.3c0.2-1.3,0.3-2.5,0.5-3.6c2,0.8,2.2,1.8,0.7,3.3c2.3-0.5,3.1-2.2,3.9-4.1c0.7,0.8,1.2,1.5,1.7,2.2
	c0.1-0.1,0.3-0.2,0.4-0.2c0.1-2-0.9-4.1,0.3-6.1c0.2,0,0.4-0.1,0.6-0.1c0.2,0.8,0.4,1.6,0.7,2.3c0.2,0.5,0.6,1,0.9,1.5
	c0.2-0.1,0.4-0.2,0.6-0.2c-0.2-1.4-0.3-2.8-0.5-4.1c1.4-1,3-2.1,4.7-3.3c-1.2-1.5-0.5-3.2,0.3-5c0.3-0.7,0.2-1.7,0-2.5
	c-0.4-1.5,0.9-1.1,1.6-1.4c0-0.9-0.2-2,0.2-2.8c0.4-0.6,1.5-0.9,2.3-1.3c-0.6-0.3-1.1-0.5-1.7-0.8c0-0.1,0.1-0.3,0.1-0.4
	c0.6-0.1,1.2-0.2,1.9-0.3c-0.1-0.4-0.2-0.7-0.4-1.3c0.8,0.4,1.4,0.7,2,1.1c1.4-1.7-0.7-4.5,2.2-5.6c-1.8,2,1.3,2.8,1.3,4.5
	c0-0.5,0.2-1,0.1-1.5c-0.1-1.1-0.3-2.3-0.5-3.4c-0.5-2.7-0.3-2.9,2.9-3.3c-0.7-0.7-1.3-1.3-2.2-2.1 M13.2,149.9
	c-1.5-0.4-1.6-0.5-1.3-1.7c0.3-0.9,0.6-1.8,0.9-2.7c-0.2-0.2-0.4-0.4-0.6-0.6c0.3,2.1-1.3,1.1-1.6,1.4c-0.7,1.8-1.4,3.4-2.1,5.1
	c0.3,0.4,0.8,1,1.4,1.6c-0.5,0.4-0.9,0.6-1.2,0.9c0.2,0.5,0.4,0.9,0.6,1.2c1.4,0.1,2.8,0.2,4,0.3c0.5-0.6,1-1.2,1.6-2
	c-1.4,0.1-2.7,0.3-4.4,0.5c0.5-1.2,1-2.3,1.4-3.3c0.2,0,0.3,0.1,0.5,0.1c0.1,0.3,0.1,0.6,0.2,0.9c0.1,0,0.3,0,0.4,0
	C13.1,151,13.1,150.5,13.2,149.9z M13.9,167.8c-0.1-0.1-0.2-0.2-0.3-0.3c-1,0.8-2,1.6-3,2.5c1.3,2.2,1.3,2.8-0.4,3.9
	c0.7,1.1,1.6,0.7,2.4,0.2c0.6-0.4,1-0.9,1.5-1.3c-0.1-0.1-0.1-0.2-0.2-0.3c-0.4,0.1-0.8,0.2-1.4,0.3c0.2-1,0.4-1.8,0.6-2.6
	C13.3,169.4,13.6,168.6,13.9,167.8z M8.9,160.4c-0.1,0-0.3,0.1-0.4,0.1c0.2,0.4,0.3,1,0.5,1c0.7,0,1.6-0.1,2.1-0.4
	c0.7-0.4,1.1-1.2,1.7-1.8c0.4-0.4,0.8-0.7,1.2-1c-1.1,0.1-1.9-1.2-2.8-0.1c-0.7,0.8-1.3,1.7-2,2.6C9.2,160.8,9,160.6,8.9,160.4z
	 M52.5,204.9c-1,0.1-1.7,0.1-2.4,0.2c0.1-1,0.2-1.8,0.3-2.8c-1.5,0.5-2,1.2-1.7,2.3c0.3,1.4,2.1,2.3,4.5,2.2
	C52.9,206.1,52.7,205.5,52.5,204.9z M116.7,76.9c0.7-0.1,1.4-0.3,2.2-0.5 M103.9,186.8c0.4,1.1,0.8,2.2,1.2,3.4
	c-1.1,0.5-2.2,0.9-3.3,1.3c0,0.2,0,0.3,0,0.5c1.1,0,2.2-0.1,3.1-0.1C106.8,189.7,105.6,188.2,103.9,186.8z M62.3,115.8
	c0.2-1.5-0.9-2.4-2.1-3.2c-1.5-1-2.2-1-3-0.6C58.8,113.1,60.5,114.4,62.3,115.8z M63.8,119.4c1.6-1.4,1.6-4.2-0.2-6.3
	C63.7,115.3,63.8,117.4,63.8,119.4z M23.8,130.6c1.1-0.5,2.1-1,3-1.4c-0.1-0.2-0.1-0.4-0.2-0.5c-1.5,0.5-2.9,0.9-4.4,1.4
	c-0.2,0.1-0.2,0.8-0.2,1c1.1,0.3,2,0.5,2.9,0.7c0-0.1,0.1-0.2,0.1-0.2C24.7,131.3,24.3,131.1,23.8,130.6z M126.2,158.7
	c1-0.2,2-1,2.6,0.5c1.5-1.6,1.4-2.6,0.1-3C127.9,157,127,157.8,126.2,158.7z M121.1,84.4c1,1.6,1.8,3,2.7,4.4c0.3-0.3,0.6-0.6,1-0.9
	C123.6,86.7,123.4,84.9,121.1,84.4z M10.5,167.8c0.2,0,0.4,0,0.6,0c0.3-1.3,0.5-2.7,0.8-4.2c-0.5-0.3-1-0.7-1.5-1
	C10.5,164.6,10.5,166.2,10.5,167.8z M38.3,126.3c-0.1,0.6-0.2,1.2-0.3,1.9c0.1-0.1,0.2-0.1,0.3-0.2c0.6,1,1.3,2,1.9,3
	c0.1-0.7-0.1-1.3-0.1-1.8c-0.1-0.6-0.1-1.2-0.1-1.5C39.4,127.2,38.9,126.8,38.3,126.3z M13.9,138.2c0.2-1.3,0.4-2.2,0.7-3.6
	c-1.1,1.1-1.9,1.8-3,2.9C12.6,137.8,13.2,138,13.9,138.2z M66.7,126.1c1.9-0.8,2-2.2,0.6-3.9C67.1,123.5,66.9,124.7,66.7,126.1z
	 M26,143.3c-1.1,0.2-2.2,0.1-2.4,1.4c0,0.2,0.6,0.7,0.9,0.7C25.7,145.3,26,144.6,26,143.3z M24.2,138.1c0.6,0.4,4,0,4.2-0.6
	c-0.2-0.3-0.4-0.6-0.4-0.5C26.6,137.4,25.4,137.7,24.2,138.1z M36.2,193.8c-0.2,0.6-0.6,1.1-0.5,1.3c0.5,0.8,1.1,1.4,1.7,2.1
	c0.2-0.1,0.3-0.2,0.5-0.3C37.4,196,36.9,195.1,36.2,193.8z M47.4,202.6c-0.5,0-1.1,0.1-1.3-0.1c-1.1-0.9-1.3-0.8-1.9,0.6
	C45.7,203.6,46.7,203.5,47.4,202.6z M19.9,111.7c0.1,0.1,0.3,0.3,0.4,0.4c0.6-0.6,1.2-1.3,2.1-2.2c0.2,0.4,0.5,0.7,0.7,1
	c0.1-0.1,0.2-0.2,0.3-0.3c0-0.4,0-0.8,0-1.3c-0.1-0.1-0.3-0.2-0.4-0.3C22,110,21,110.8,19.9,111.7z M101.3,192.5
	c-1.4,0.3-2.5,0.5-3.6,0.8C98.9,194,100.5,193.8,101.3,192.5z M94.4,115c0.1-0.1,0.3-0.3,0.4-0.4c-0.2-0.6-0.5-1.1-0.8-2
	c-0.4,0.5-1,1-0.9,1.1C93.4,114.2,93.9,114.6,94.4,115z M43.7,199.7c-0.7-1.2-1.2-2-1.7-2.9C41.3,198,41.7,198.9,43.7,199.7z
	 M36.2,110.3c-0.3,0-0.5,0-0.8,0c0.1,1,0.2,2,0.3,3.1c0.2,0,0.4,0,0.5,0C36.3,112.4,36.2,111.4,36.2,110.3z"/>
</svg>
