<?xml version="1.0" encoding="utf-8"?>
<!-- Generator: Adobe Illustrator 19.1.0, SVG Export Plug-In . SVG Version: 6.00 Build 0)  -->
<svg version="1.1" id="Layer_1" xmlns="http://www.w3.org/2000/svg" xmlns:xlink="http://www.w3.org/1999/xlink" x="0px" y="0px"
	 viewBox="-69 -56.8 365.2 365.2" style="enable-background:new -69 -56.8 365.2 365.2;" xml:space="preserve">
<style type="text/css">
	.st0{fill:#875C3C;}
</style>
<g>
	<path class="st0" d="M-33.5,169.4l-1.5,0.1l-2.1-0.2l-0.7-0.1l-0.5-0.3l-0.3-0.3l-0.2-0.7l-0.3-1.9v-1.3l0.2-1.4l0.1-1.9l-0.1-1.9
		v-2.7l0.3-1.9l0.2-0.7l0.2-0.4l0.4-0.3l0.7-0.2l1.8-0.2l2.6,0.4l1.8-0.3l0.3-0.2v-0.3l-0.2-0.4l-0.1-0.5v-2.2l-0.2-3l-0.1-2.2
		l0.2-3.7l0.2-1.5V137l0.1-2.2l0.1-3l0.1-2.2l-0.1-2.2l-0.2-3l-0.1-2.2l0.1-2.2v-1.5l0.1-1.5l0.1-2.7l0.1-0.5v-0.4l-0.3-0.2
		l-1.9-0.2l-2.5,0.2l-1.9-0.2l-0.6-0.1l-0.4-0.2l-0.2-0.4l-0.1-0.6l-0.1-1.9l0.1-2.6v-1.9l-0.1-1.9l-0.5-2.7l0.2-1.8l0.2-0.7
		l0.3-0.4l0.5-0.3l0.7-0.2l2.1-0.2l2.9,0.4l4.3,0.1l2.9-0.4l2.2-0.1l2.1,0.1l2.9,0.4l2.2,0.1l2.1-0.1h2.9l2.2-0.1l3.5-0.1l1.5-0.1
		L1,97.4l5-0.1h2l3.7,0.3l3.7,0.6l1.9,0.4l3.4,1.2l3.4,1.8l2.9,2.3l2.4,2.8l1.9,3.3l0.9,3.5l0.3,3.9l-0.1,1.8l-0.7,3.6l-1.4,3.3
		l-1,1.5l-1.2,1.4l-1.5,1.2l-0.5,0.6l-0.2,0.6l0.2,0.6l0.5,0.5l1.7,1.6l1.5,1.7l1.3,1.8l2,4.1l1.1,4.3l0.1,2.2l-0.1,2.2l-0.2,2
		l-0.4,1.8L33,156l-0.9,1.8l-1,1.7l-1.3,1.5l-1.3,1.4l-1.5,1.3l-1.6,1.2l-1.7,1.1l-1.8,0.9l-1.8,0.6l-2,0.5l-1.9,0.4l-2,0.4l-4,0.6
		l-2,0.2l-2,0.1H-1l-3.6-0.2l-5.8-0.2h-2.9l-4.3-0.1l-2.9,0.1h-4.3l-2.9-0.2l-4.3,0.1L-33.5,169.4z M38.7,151.3l-0.1,2.5l-0.3,2.1
		l-0.4,2l-0.6,1.9l-1,2.2l-1.4,2.1l-1.4,1.7l-1.3,1.4l-1.6,1.4l-1.7,1.3l-1.9,1.2l-2.3,1.2l-1.9,0.6l-2.1,0.6l-2.1,0.4l-2,0.3
		l-2,0.4l-2.1,0.3l-2.1,0.2l-1.7,0.1H4.5l-2.1-0.1l-3-0.2l-2.1-0.1h-16.6l-2.9-0.2h-2.2l-2.1,0.1l-1.5,0.2l-1.5,0.1l-2.1-0.2
		l-0.7-0.1l-0.5-0.3l-0.3-0.3l-0.2-0.7l-0.3-1.6h0.3l1.5-0.2l2-0.1h2l2.9,0.2h16.7l2,0.1l3,0.2l2.2,0.1h7.3l2-0.1l2.2-0.2l2.1-0.3
		l2-0.4l2-0.3l2.1-0.4l2-0.5l2.3-0.8l2-1.1l1.9-1.2l1.5-1.2l1.7-1.4l1.4-1.5l1.4-1.7l1.3-2l1-2l0.7-2.1l0.4-2l0.3-2.2l0.1-2.5
		l-0.2-2.7l-0.4-2.3l-0.5-1.6l1,1.5l1,2l0.4,1.1l0.6,2.7L38.7,151.3z M-32,161.2L-32,161.2h0.3l0.1-0.1l0.1-0.2h-0.3L-32,161
		C-32,161-32,161.2-32,161.2z M-29.4,162.8l0.2,0.2l0.2-0.1l0.1-0.2v-0.1l-0.1-0.1h-0.3l-0.1,0.1V162.8z M-28.9,161.4l0.2,0.1h0.2
		l0.1-0.2v-0.2l-0.1-0.2l-0.2,0.1l-0.2,0.2V161.4z M-27.1,158.6l0.3,0.3l-0.1,1l0.7,0.1h0.2l0.1-0.1l0.3,0.2l0.2,0.1h0.8l0.1-0.2
		v-0.3H-25l-0.1,0.1l-0.4,0.1l-0.4-0.1l-0.2-0.4l-0.1-0.5h0.1v-0.1l-0.1-0.5v-0.2l-0.1-0.2v0.2h-0.2l-0.6-0.3
		C-27.1,157.8-27.1,158.6-27.1,158.6z M-25.7,161.7l-0.1-0.2l-0.1-0.4L-26,161v-0.1l-0.1,0.2l-0.1,0.1v0.6l0.1,0.3l0.2,0.1l0.1-0.2
		l0.1-0.1V161.7z M-25.7,156.4l0.6,0.2l0.2,0.1h0.1l-0.1-0.1l-0.3-0.1l-0.2-0.1H-25.7z M-25.1,143.4l0.2,0.4l0.4,0.2l0.3,0.5
		l-0.1,0.4l-0.5,0.6l-0.2,0.6l0.7-0.3l0.8,0.2l0.2,0.1l0.2-0.1l0.1-0.2v-0.2l-0.8-0.3l0.4-0.8v-0.3l-0.4-0.2l-0.6-0.5L-25.1,143.4z
		 M-25.1,155.8l0.2,0.1l0.3-0.3l-0.5-0.3V155.8z M-23.4,158.8h0.2l-0.3-0.2l-0.1-0.1l-0.2-0.1v0.1l0.1,0.1l0.2,0.1L-23.4,158.8z
		 M-22.9,151.1l-0.3,0.6l0.7,0.2l0.1-0.1l0.2,0.2v0.1l0.1,0.7l-0.3,0.3h-0.2l-0.1,0.2l0.2,0.2h0.3l0.5,0.1l0.4,0.1l-0.1-0.4
		l-0.3-0.3l0.2-0.7l0.4-0.5l-0.1-0.2v-0.1l0.4-0.5l0.7-0.7l0.1-0.3l-0.2-0.2l-0.2,0.1l-0.9,0.4l-0.8,0.6l-0.2,0.1l-0.1,0.2l-0.2-0.1
		H-22.9z M-21.2,163.3l-0.3,0.1l-0.2,0.1l-0.2-0.1l-0.3-0.1h-0.2l0.2,0.3l0.4,0.1l0.6,0.1V163.3z M-22,133l0.2,0.7v0.2l0.1,0.2
		l-0.2,0.5l0.3,0.5h0.1l0.2-0.1l-0.1-0.5l0.1-0.2v-0.7l-0.3-0.8l-0.3-0.3L-22,133z M-20.9,140.4l-0.5,0.1l-0.4,0.2l0.6,0.6l0.5,0.1
		l0.2,0.2l0.2,0.1l0.2,0.2l0.5,0.9v0.6l-0.6,0.7l-0.1,0.8l-0.8,0.5l0.3,0.4l0.6,0.3l0.4-0.5l0.3-0.4l-0.4-0.3l0.2-0.5h0.5l0.5,0.1
		l0.4-0.4l0.2-0.4l-0.1-0.4h-0.3l-0.2,0.3H-19l-0.2-0.2v-0.6l-0.2-1l-0.2-0.2l-0.2-0.1l-0.1-0.5l-0.1-0.6H-20.9z M-20.7,133.7
		l0.3,0.5h0.3v-0.1h0.4l0.2-0.1l-0.2-0.3l-0.4-0.3h-0.6C-20.7,133.4-20.7,133.7-20.7,133.7z M-20,156.3l0.4,0.1h0.7l0.1-0.2L-19,156
		l-0.7-0.3l-0.4,0.3l-0.2,0.2l-0.2,0.1H-20z M-19.4,162.1l-0.8-0.7l-0.1,0.5l-0.1,0.2l0.1,0.3v0.1l0.1,0.1l0.3,0.2v-0.5l0.1-0.2
		H-19.4z M-18.3,163.8l-0.1-0.2l-0.1-0.1l-0.2-0.1h-0.1l-0.1,0.3l0.4,0.3L-18.3,163.8z M-18.8,130l0.2,0.7l0.7,0.1l0.7-0.3l0.7-0.2
		h0.8l-0.2-0.2l-0.2-0.1l-0.4-0.4l-0.3-0.2l-0.3-0.1l-0.9,0.1L-18.8,130z M-17,128.7l0.3,0.1l0.2,0.1l1.1-0.1l0.1-0.1l0.2-0.1
		l0.2-0.3l-0.3-0.1h-0.2v-0.1h-0.3l-1.2,0.2L-17,128.7z M-15.6,149.4l-0.5,0.5l-0.3,0.4l-0.3-0.2h-0.1l-0.1,0.4h0.5l0.6-0.3
		L-15.6,149.4z M-15.1,137.3l-0.2-0.4h-0.2v0.2L-15.1,137.3L-15.1,137.3z M-14.8,135.9l-0.2-0.1l-0.2,0.1l0.1,0.3l0.4,0.2l0.1-0.1
		v-0.2L-14.8,135.9z M-13,133.3l0.8,0.2l0.5,0.1l0.6-0.3l-0.1-0.6H-12L-13,133.3z M-11.2,123.6l0.2,0.6l0.4,0.4l0.6,0.3l0.7,0.1h2.2
		l2.9,0.1H-2l2.2-0.1l2.9-0.1l2.2-0.1l2.5-0.3l2.2-1l1.5-1.7l0.6-2.5l-0.4-2.3l-1.3-2l-2-1.5L5.7,113H3.5L2,113.1l-1.6,0.2H-4
		l-3.1-0.1l-2.2-0.1l-0.6,0.2l-0.5,0.4l-0.4,0.5l-0.1,0.6l-0.1,2.6v1.8l-0.1,1.8L-11.2,123.6z M14.1,146.7l-0.6-3.2l-1.7-2.3
		l-2.4-1.4l-3.1-0.4H-9.3l-0.6,0.1l-0.5,0.3l-0.3,0.5l-0.2,0.6v11.4l0.2,0.6l0.3,0.5l0.5,0.4l0.6,0.1H6.3l3.5-0.6l2.4-1.7l1.4-2.3
		L14.1,146.7z M-9.9,129.2l0.1-0.3l-0.1-0.1l-0.5,0.2l-0.1,0.5l0.3,0.3l0.4,0.1l0.1-0.3L-9.9,129.2z M-9.7,132.1l-0.4,0.6l0.5,0.3
		v-0.4L-9.7,132.1z M-5.5,122.6h-3.3l0.1-1.5l0.1-1.8v-1.8l0.1-2l1.4,0.1h1.4l1.6,0.1h4.6l1.7-0.2l1.4-0.1h1.9l1.9,0.4l1.2,0.9
		l0.8,1.2l0.1,0.6H9l-1.5,0.1l-1.6,0.2H1.5l-1.6-0.1h-1.5l-2.2-0.1l-0.6,0.2l-0.5,0.4l-0.4,0.5l-0.1,0.6L-5.5,122.6z M11.2,144.5
		l0.1,0.4H-3.8l-0.6,0.1l-0.5,0.3l-0.3,0.5l-0.2,0.6v5.1h-3.1v-9.7H6.2l2.4,0.3l1.6,1L11.2,144.5z M-7.9,134.8l-0.2,0.2v0.3l0.4,0.2
		l0.3-0.3l0.4-0.1l0.1-0.3l-0.4-0.2L-7.9,134.8z M-7.4,130.1l0.8,0.3l0.7-0.5l-0.5-0.3l-0.4-0.3l-0.4-0.1l-0.3,0.2l-0.1,0.3
		L-7.4,130.1z M-4.3,131.1l0.8-0.4l0.4,0.3h0.6l0.1-0.1v-0.2l-0.4-0.3h-0.8l-0.7-0.6l-0.9,0.3l-0.2,0.5L-5,131L-4.3,131.1z
		 M-5.3,132.3l0.5,0.6l0.3-0.8L-5.3,132.3z M-2.1,128.6l-0.2,0.7l0.1,0.5l0.5-0.4l0.2-0.8v-0.5L-2,128l-0.2,0.2L-2.1,128.6z
		 M-1.7,133.5l-0.3,0.2l-0.1,0.2L-2,134l0.4-0.1l0.4-0.2L-1.7,133.5z M0.8,130.7l-0.2-0.2l-0.3,0.3l-0.1,0.4l0.4-0.1L0.8,130.7z
		 M1.3,132.7L1,132.2H0.6l-0.2,0.1l0.1,0.3l0.4,0.2L1.3,132.7z M1.2,135.4L1,135.9l0.2,0.3l0.6-0.2l0.3-0.5l-0.4-0.3L1.2,135.4z
		 M4.5,130.7h0.2l0.1-0.1l0.1-0.2l-0.1-0.2H4.6l-0.2,0.1v0.2L4.5,130.7z M5.2,127.6h0.2l0.1-0.2l-0.1-0.2H5v0.2L5.2,127.6z M6,130.5
		l0.2,0.1l0.2-0.1l0.1-0.1l-0.1-0.2l-0.3-0.1l-0.2,0.1v0.2L6,130.5z M13.4,107.8l0.1,0.5l0.2,0.1l0.2,0.2l0.1,0.2l0.2-0.2l-0.1-0.4
		l-0.2-0.2l-0.1-0.2l-0.2-0.1L13.4,107.8z M14.4,134.5l-0.2-0.1l0.1,0.3l-0.1,0.3h0.3l0.3,0.1h0.1l0.3-0.2l-0.1-0.3h-0.2l-0.2-0.1
		H14.4z M15,163.6l-0.1-0.1h-0.2l-0.1,0.1l-0.2,0.1l-0.2,0.2l0.2,0.2l0.2,0.1L15,164L15,163.6L15,163.6z M14.8,107.3l0.2,0.2
		l0.1-0.1h0.1l0.1-0.2l-0.1-0.2H15l-0.1,0.1L14.8,107.3z M15.5,140.2l-0.1-0.2l-0.2,0.1l-0.3,0.3l-0.1,0.4l0.1,0.1H15l0.3-0.1
		l0.2-0.3V140.2z M15,106.4l0.2,0.2l0.1-0.1v-0.3H15V106.4z M15.4,135.3l-0.1,0.2l-0.1,0.1v0.1h0.1v0.3l0.2-0.2l0.2-0.1v-0.1
		l0.1-0.2l0.2-0.3h-0.2l-0.2,0.1h-0.1L15.4,135.3z M15.8,106l0.2,0.2l0.1,0.2l0.6,0.1l-0.3-0.5l-0.4-0.4l-0.1,0.1L15.8,106z
		 M15.8,125.8l0.2,0.4l0.4,0.3l0.4,0.2l0.1-0.3v-0.2l-0.1-0.3l-0.4-0.4h-0.3l-0.2,0.1L15.8,125.8z M16.1,132.6l-0.1,0.1l0.4,0.5h0.1
		l0.3,0.1l0.4,0.2l-0.2-0.3l-0.1-0.3v-0.1l-0.5-0.3L16.1,132.6z M16.1,103.6l0.4,0.2l0.2-0.4l-0.1-0.1h-0.3l-0.2,0.1L16.1,103.6
		L16.1,103.6z M16.5,108.2L16.5,108.2l-0.3-0.1l-0.1,0.1v0.2h0.1l0.1,0.1h0.1l0.2-0.1L16.5,108.2z M18.3,162.9l-0.2-0.1l-0.4-0.1
		l-0.5-0.3l-0.2,0.1h-0.3l-0.4,0.1l-0.2,0.4l0.2,0.2H17l0.1-0.1h0.2l0.4-0.1L18.3,162.9z M16.6,131.7l-0.2,0.2l-0.1,0.2l-0.1,0.1
		h0.4l0.3-0.1l0.1-0.3v-0.4l-0.1-0.3v-0.3h-0.1l-0.2-0.1l-0.3-0.2v0.3l0.1,0.4l0.1,0.2L16.6,131.7z M16.7,155.5v0.4H17l0.1-0.1h0.1
		l0.2-0.3l-0.3-0.4l-0.3-0.1l-0.2,0.1v0.2L16.7,155.5z M16.9,106.6l0.1,0.5l0.2,0.1h0.1l0.1,0.1h0.3l0.2-0.3l-0.1-0.3l-0.1-0.2
		l-0.2-0.1h-0.3L16.9,106.6z M18,111.4l-0.3-0.1l-0.4,0.3l-0.3,0.3l0.3,0.1h0.2l0.5-0.2V111.4z M17.2,149v0.8l0.1,0.1l0.1,0.4
		l0.1,0.3v0.2l0.6-0.3l0.2-0.2v-0.1l0.1-0.2v-0.1l0.2-0.2l0.2-0.1h0.1l0.2-0.2l1.4-0.3l0.8,0.1l0.5,0.4l0.5,0.5l0.6,0.2l0.6,0.3
		l0.1,0.2l0.1,0.4l0.1,0.3l0.2,0.4l0.4-0.1l0.2-0.1l0.5-0.5l0.3-0.4l-0.1-0.2l-0.9-0.9l-0.2-0.3l-0.3,0.3l-0.3,0.2l-0.4-0.1
		l-0.4-0.2l0.1-0.4v-0.4l0.2-0.3l0.1-0.3v-0.1l-0.3-0.3l-0.2-0.1l-0.1-0.1l-0.6-0.4l-0.6,0.2l-0.1,0.2v0.2l0.2,0.2l0.2,0.1l0.1,0.4
		l-0.4,0.2h-1.3l-0.4,0.1l-0.7-0.1l-0.2,0.2l-0.2,0.1C18.6,149,17.2,149,17.2,149z M17.4,125.7v0.5l0.3,0.1h0.6l0.3-0.1L19,126
		l-0.2-0.4l-0.4-0.2l-0.4-0.1L17.4,125.7z M17.8,122.8h0.3l0.2,0.1h0.1l0.3,0.3l0.3-0.1v-0.2l-0.1-0.1l-0.3-0.1l-0.1-0.1h-0.1
		l-0.4-0.2h-0.4l-0.1,0.1v0.1L17.8,122.8z M17.7,129.4l-0.1,0.1l0.1,0.2l0.1,0.1l0.2-0.1v-0.3H17.7z M18.1,120.8l-0.2,0.2l-0.2,0.3
		l0.3,0.4l0.5-0.1v-0.1l0.1-0.2l0.1-0.1v-0.1l0.2-0.1l0.1-0.1h0.1l-0.5-0.1C18.6,120.8,18.1,120.8,18.1,120.8z M19,138.8l-0.2-0.2
		h-0.1l-0.2-0.1l-0.3,0.2v0.2l0.1,0.1h0.6L19,138.8z M19.4,156.3l-0.1-0.2v-0.2l-0.3-0.1l-0.2-0.1l-0.2,0.2l-0.3,0.1v0.1l-0.1,0.2
		v0.5h0.3l0.3,0.1h0.1l0.4-0.2v-0.1l0.1-0.1V156.3z M18.5,104.8L18.5,104.8l0.1,0.2l0.2-0.2l0.2-0.1l-0.1-0.2l-0.2,0.1L18.5,104.8z
		 M18.5,112.4l0.1,0.1l0.3-0.1l0.1-0.1v-0.2h-0.3L18.5,112.4z M19,159.3l-0.1-0.2l-0.1-0.1l-0.2-0.1l-0.1,0.2v0.2l0.2,0.1l0.2,0.2
		L19,159.3z M19.2,128.9H19l-0.2,0.2l-0.1,0.2v0.1l-0.1,0.1v0.3l0.3,0.2l0.3-0.1h0.2l0.6,0.2l-0.1-0.3v-0.2L19.2,128.9z M19.7,142
		v-0.3l-0.2-0.1l-0.1-0.1h-0.3l-0.2,0.1l-0.2,0.4v0.1l0.1,0.2v0.1l0.2,0.2h0.4l0.4-0.4L19.7,142z M20.6,151.5l0.2-0.1l0.3-0.3
		l0.2-0.3v-0.1l-0.3-0.1l-0.2-0.3h-1.5l-0.1,0.2v0.1l-0.3,0.3l-0.1,0.2l-0.1,0.1l0.1,0.1l0.2,0.6h0.8l0.3-0.1l0.2-0.2L20.6,151.5z
		 M19.2,121.9l0.1,0.2l0.2,0.3l0.1-0.1l0.2-0.1V122l-0.3-0.2h-0.2v0.1H19.2z M19.8,152.6L19.8,152.6l-0.3-0.1v0.4l-0.1,0.3v0.3
		l-0.1,0.3v0.4l0.3,0.3h0.6l0.2-0.2l-0.1-0.4l-0.1-0.1v-0.3l-0.2-0.3l-0.1-0.4L19.8,152.6z M19.4,106.9l0.2,0.1l0.2-0.3v-0.6
		l-0.4,0.3V106.9z M19.6,117.9l0.2,0.1l0.1,0.1v-0.3l0.2-0.2v-0.3h-0.4l-0.1,0.2l-0.1,0.1v0.1L19.6,117.9z M19.6,118.7L19.6,118.7
		l0.4,0.1l0.1-0.2l-0.1-0.1l-0.2-0.1L19.6,118.7L19.6,118.7z M20.3,161.3l-0.1-0.2l-0.3-0.1h-0.2l-0.1,0.2v0.2l0.1,0.4h0.2l0.1-0.1
		h0.1L20.3,161.3z M19.9,115.8l-0.2,0.2v0.1l0.1,0.2h0.1l0.2-0.1l0.1-0.1v-0.2L19.9,115.8z M20.4,133.9v-0.2H20l-0.2,0.3v0.4
		l0.1,0.2h0.2l0.3-0.3l0.1-0.3L20.4,133.9z M19.8,147.5l0.2,0.2h0.4v-0.5l-0.1-0.1l-0.2,0.2L19.8,147.5z M21.8,159.4l-0.1-0.3
		l-0.5-1l-0.3-0.7l-0.1-0.2l-0.3-0.5l-0.4-0.7v0.3l-0.1,0.6l-0.2,0.6v1.8l0.2,0.4l0.3,0.3l0.5,0.1h0.5l0.3-0.3L21.8,159.4z
		 M20.6,122.2l-0.4,0.2l-0.1,0.1l-0.1,0.2l0.1,0.1l0.1,0.2v0.3l0.3,0.1h0.3l0.6-0.2l0.2-0.1l0.3-0.1v-0.2l-0.2-0.2l-0.3,0.1
		l-0.2-0.2l-0.3-0.1L20.6,122.2z M20.9,130.5l-0.2,0.1l-0.3,0.3l0.2,0.2l0.3-0.2V130.5z M21.4,146.2L21.4,146.2l-0.3-0.2h-0.2
		l-0.4,0.1v0.3l0.1,0.3l0.3,0.1h0.6l0.1-0.2l0.1-0.1L21.4,146.2z M20.6,153.9l0.1,0.2l0.1,0.4l0.8,0.2v-0.1l0.3-0.6l0.2-0.2l0.1-0.3
		l0.1-0.1l0.4-0.3l0.3-0.3h-0.2l-0.5-0.1l-0.8-0.1l-0.1,0.1l-0.3,0.4l-0.4,0.4h-0.1L20.6,153.9L20.6,153.9z M21.5,131.8h-0.4
		l-0.2,0.1l-0.1,0.1v0.3h0.3l0.2-0.1l0.2-0.2V131.8z M20.9,108.2l0.1,0.1v0.1h0.5l0.4-0.3l-0.3-0.1h-0.3L20.9,108.2z M20.9,110.4
		l0.2,0.4l0.6,0.2l-0.1-0.5l-0.2-0.2l-0.2-0.1H21L20.9,110.4z M21.5,136.2l-0.4,0.1l0.1,0.3l0.1,0.4v0.1l0.2,0.2l0.2,0.3l-0.2,0.6
		v0.6l0.6-0.6l0.5-0.6l-0.1-0.1l-0.3-0.4l-0.2-0.4L21.5,136.2z M22,118.6l-0.1-0.2l-0.1-0.1l-0.3-0.2l-0.1,0.2l-0.1,0.1v0.1l0.1,0.3
		l0.3,0.1h0.1l0.1-0.1L22,118.6z M25.2,138.6l-2.2,1.2l-0.3,0.3l-0.2,0.3l-0.3-0.1l-0.3-0.2l-0.3,0.1h-0.3l0.2,0.4l0.1,0.3v0.2H22
		l0.5,0.1l0.6-0.6l0.4-0.2l0.3-0.3l0.3-0.1h0.4l0.3-0.1h0.4l0.6-0.3l0.1-0.1v-0.3l0.1-0.4l-0.1-0.2l-0.2-0.2L25.2,138.6z
		 M21.7,128.3v0.4l-0.1,0.1l-0.1,0.9l0.2,0.4l0.5,0.4v-0.1l0.3-0.1l0.6-0.6l0.3-0.4v-0.1l0.2-0.4l0.1-0.4l-0.1-0.5l-0.3,0.2
		l-0.2,0.1H23l-0.1,0.3l-0.3,0.3l-0.4-0.2l-0.1-0.3l-0.3-0.2L21.7,128.3z M22,121l0.1-0.1l0.2-0.1v-0.1l-0.3-0.1l-0.4-0.1v0.3
		L22,121z M22,123.7l-0.2,0.2l-0.1,0.4v0.3l0.2-0.2l0.3-0.2l0.2-0.1l0.2-0.2h0.2l0.1-0.2l-0.1-0.2l-0.3-0.3h-0.2l-0.2,0.2L22,123.7z
		 M22.2,156.8l0.5-0.2l-0.2-1l1.2-0.4l-0.6-0.1l-0.6-0.2v0.1l-0.1,0.2l-0.1,0.3l-0.1,0.4l-0.3,0.7l-0.1,0.3L22.2,156.8z M22.1,116.7
		l0.1,0.5v0.2l0.2,0.2l0.3-0.3l-0.1-0.3v-0.3l-0.1-0.2L22.1,116.7z M22.4,111.4l0.3,0.2l0.2,0.1l0.1,0.1l0.2,0.1l0.2-0.1v-0.1
		l-0.1-0.3l-0.2-0.3l-0.3-0.3l-0.1-0.3l-0.1-0.1v0.2l-0.1,0.3v0.3L22.4,111.4z M23.5,131.1l-0.1,0.3l-0.1,0.1l-0.5,0.3l-0.3,0.3
		l-0.1,0.2h0.2l0.3-0.1l0.4-0.2l0.1-0.2v-0.1l0.2-0.1l0.2-0.2l0.3-0.1l0.2-0.1l0.1-0.5v-0.6l-0.3,0.4L23.5,131.1z M23.8,162.7
		l-0.1-0.5v-0.3l-0.1-0.2l-0.4-0.1l-0.5-0.1l-0.1,0.1l-0.1,0.2l-0.1,0.4l0.5,0.5H23.8z M24.2,158.8l0.5-0.2l0.4-0.3l0.2-0.2v-1.7
		l-0.1,0.2l-0.6,0.8l-0.1,0.2l-0.1,0.1l-0.3,0.4l-0.3,0.6l-0.4,0.3l-0.3,0.1l-0.1,0.1l-0.3,0.5l-0.2,0.3v0.2l0.8-0.4h0.1l0.2-0.1
		l0.3-0.2v-0.1l0.1-0.1V159L24.2,158.8z M23.1,113.3l0.2-0.4v-0.3h-0.2l-0.1,0.3v0.2L23.1,113.3z M23.5,115.4l-0.1,0.2l0.1,0.2
		l0.1,0.1h0.3l0.3-0.1l0.1-0.1l0.2-0.1l-0.3-0.3l-0.4-0.1L23.5,115.4z M23.7,108h0.2l0.1,0.1l0.2-0.1v-0.3l-0.3-0.1l-0.2,0.2V108z
		 M24.8,122.3h-0.6l-0.2,0.2l-0.3,0.2l0.2,0.1L24,123h0.5l0.3-0.3V122.3z M24.2,152.7L24.2,152.7l0.1,0.3l0.4-0.1H25l0.1-0.3
		l0.1-0.2l0.1-0.1l-0.7-0.1l-0.2,0.2L24.2,152.7L24.2,152.7z M24.9,134.8l-0.3-0.2l-0.3,0.1l-0.1,0.2v0.3l0.2,0.2l0.3-0.1l0.2-0.2
		L24.9,134.8L24.9,134.8z M26,160.5l-0.4-0.3l-0.5-0.4l-0.2,0.4l-0.2,0.3l0.1,0.3l0.2,0.4l0.4-0.1l0.4-0.2L26,160.5z M26,150.3
		l0.1,0.4l0.1,0.3v0.1l0.1,0.4v0.4l0.2,0.3l0.1,0.3l0.6,0.1l0.4-0.2l0.2-0.5l-0.1-0.1v-0.1l-0.2-0.3h-0.4l-0.3-0.2l-0.2-0.1v-0.7
		l-0.1-0.2l-0.1-0.3l-0.3-0.6l-1-0.6l-0.2,0.2l-0.1,0.2l0.3,0.4l0.2,0.3l0.4,0.3L26,150.3z M25.3,123.3l0.1,0.4v0.5l0.2,0.5l0.4,0.1
		l0.6-0.4h0.1l0.1-0.4l0.1-0.3l0.1-0.1l-0.3-0.3l-0.3,0.1h-0.2l-0.5,0.1L25.3,123.3z M25.3,126l0.3,0.2h0.2l0.2-0.1l-0.3-0.3
		l-0.3-0.1l-0.1,0.1L25.3,126L25.3,126z M25.9,141l-0.1,0.1v0.1l-0.1,0.3l0.2,0.2l0.1,0.2l0.3,0.1h0.2l0.3-0.1v-0.4l-0.1-0.2
		l-0.2-0.2l-0.3-0.1H25.9z M26.5,127.7l-0.1-0.3h-0.1l-0.2,0.1v0.3l0.1,0.2l0.2,0.1V128h0.1V127.7z M26.5,155.2l0.1-0.2l0.1-0.1
		l0.2-0.5l-0.2-0.3l-0.3,0.1l-0.1,0.1l-0.2,0.4v0.2l0.1,0.3H26.5z M26.9,126.1l-0.5-0.1v0.2l0.1,0.3l0.2,0.4l0.2-0.2V126.1z
		 M27.5,143.1l-0.9,0.6l-0.2,0.2l1.2,0.6L28,145l0.5,0.5l-0.1,0.3l-0.1,0.2l0.4,0.4l0.2-0.2l0.2-0.1l-0.1-0.3v-0.2l-0.1-0.1l0.1-0.3
		l0.1-0.4v-0.7l0.2-0.2l0.3-0.2v-0.4l0.1-0.4l-0.2-0.4l-0.1-0.3l-0.1-0.2l-0.3-0.2l-0.3-0.3l-0.2,0.2l-0.3,0.2l0.1,0.4v0.3l0.1,0.1
		l-0.3,0.1l-0.2,0.2L27.5,143.1z M27.6,145.9l-0.1-0.1l-0.1-0.2l-0.3,0.1h-0.4l-0.1,0.2l-0.1,0.1l0.1,0.3v0.1l0.1,0.1l0.4,0.2
		l0.4-0.2l0.1-0.3L27.6,145.9L27.6,145.9z M27.3,148.2l-0.3,0.2l-0.3,0.3l-0.1,0.3v0.2l0.3,0.2l0.3,0.1l0.3-0.2l0.2-0.2H28l0.2-0.1
		l0.6,0.4l0.1-0.1l0.1-0.2l0.3-0.2l-0.2-0.3l-0.2-0.4l-0.6,0.2l-0.1-0.1l-0.2-0.1C28,148.2,27.3,148.2,27.3,148.2z M27.7,155.9
		l-0.1,0.1l-0.3,0.2l-0.4,0.3v0.1l-0.2,0.6l-0.1,0.1l0.2,0.3l0.3,0.1v-0.2l0.3-0.6v-0.1l0.1-0.4l0.1-0.3L27.7,155.9z M30.2,154.3
		l-0.1-0.4l-0.1-0.6l-0.1,0.5v0.1l-0.1,0.2l-0.1,0.3l-0.5-0.2l-0.7-0.1h-0.2l-0.2,0.1h-0.3l-0.2,0.1l0.3,0.5l0.3,0.6l0.1,0.1
		l0.2,0.4l0.2,0.6l0.3-0.2l0.3-0.3l0.1-0.3l0.1-0.2v-0.2l0.4-0.4l0.2-0.3l0.1-0.1V154.3z M28.2,117.8h0.2l0.1-0.1l0.1-0.2v-0.2
		l-0.2-0.1l-0.2,0.2L28.2,117.8L28.2,117.8z M29.3,149.8L29.3,149.8l-0.1,0.3l-0.1,0.3l-0.1,0.1l-0.3,0.2l-0.3,0.3v1l0.1,0.3
		l0.2,0.3H29l0.3-0.1l1,0.2l0.1,0.3l0.2,0.2l0.5-0.1v-0.2l0.1-0.3l-0.2-0.5l-0.1-0.2l-0.1-0.4l-0.2-0.4v-0.2l-0.4-0.5l-0.2-0.3
		l-0.1-0.1L29.3,149.8z M28.9,124.9L29,125v0.1h0.3l0.1-0.3l-0.1-0.1v-0.2L28.9,124.9z M32.5,127.2l0.7-1.6l0.7-2l0.6-2.1l0.3-1.9
		l0.1-2.1l-0.1-2.2l-0.2-2.3l-0.4-1.8l0.7,1l1,1.6l0.7,1.4l0.3,1.4l0.2,2l0.1,2.3l-0.1,2.1l-0.3,1.9l-0.5,1.9l-0.7,2.1l-0.8,1.7
		l-1.1,1.7l-1.5,1.7l-0.4,0.4l-0.2-0.2l-1.4-1.7l-0.3-0.3l-0.9-0.8l0.9-0.8l1.5-1.7L32.5,127.2z"/>
	<path class="st0" d="M47.7,169.6l-3.1-0.1l-2.2-0.4l-0.8-0.1l-0.5-0.1l-0.4-0.4l-0.2-0.6l-0.3-1.9l0.2-2.7l0.1-3.9l0.1-2.6l0.3-1.9
		l0.1-0.7l0.3-0.5l0.3-0.4l0.6-0.2l1.5-0.1l2.1,0.6l1.4-0.1l0.6-0.2l0.4-0.3l0.2-0.5l0.2-0.7l0.3-2.2l0.1-3l-0.1-4.4l-0.3-3
		l-0.1-4.4v-7.4l0.2-3l0.1-4.4l0.2-3l-0.2-2.2l-0.2-0.7l-0.3-0.4l-0.5-0.3l-0.6-0.2l-1.4-0.2l-2,0.2l-1.4-0.2l-0.6-0.1l-0.4-0.3
		l-0.2-0.3l-0.1-0.6l-0.3-1.9l-0.3-2.6v-3.8l0.2-2.6l0.3-1.9l0.1-0.7l0.2-0.6l0.3-0.4l0.7-0.2l2.2-0.2l3.1,0.6l2.2,0.2h5.3l2.3,0.1
		l3.7-0.2l1.5-0.2l6-0.1h3.8l3.8,0.1h1.5l4.4,0.1l1.6,0.1l3.7,0.1l3.8-0.1H95l2.2-0.2l3.1-0.4l2.2,0.2l0.6,0.2l0.3,0.4l0.2,0.5
		l0.6,4.2v5.6l0.1,2.8v5.6l-0.5,3.5l-0.2,0.7l-0.1,0.6l-0.4,0.4l-0.6,0.2l-1.8,0.3l-2.6-0.2l-1.9-0.1h-1.8l-2.5-0.1l-2.5-0.4L89,121
		l-0.3-0.3l-0.2-0.6l-0.3-1.3l0.3-1.8l0.1-1.3v-1l-0.1-0.5l-0.3-0.2l-2.6-0.2l-3.7,0.4l-2.6,0.2l-6.3-0.2l-2.6,0.1l-0.7,0.1
		l-0.4,0.4l-0.3,0.4l-0.1,0.6v2.4l-0.1,3.2l0.3,2.3l0.2,0.7l0.2,0.5l0.4,0.2l0.7,0.2l2,0.3h1.5l1.4-0.1h2.1l2.1-0.1l1.4-0.1l1.4,0.1
		l2.8,0.4l0.6,0.2l0.4,0.3l0.2,0.6l0.3,1.9l-0.3,2.6l-0.1,2l0.1,1.9l0.1,2.6l-0.2,1.9l-0.2,0.7l-0.8,0.8l-0.7,0.2l-1.9,0.2l-2.7-0.4
		l-2-0.2l-1.9,0.1l-1.3,0.2l-3.3,0.2l-1.1,0.1l-0.9,0.5l-0.7,0.8l-0.2,1l0.1,2.1l0.1,1.5l0.2,1.4v2.1l0.1,0.5l0.1,0.4l0.3,0.3
		l0.4,0.1l2.7-0.1l3.6-0.2h7.2l1.9,0.1H88l0.5,0.1l0.4,0.1h0.3l0.3-0.3l0.3-1.6l-0.1-1.2l-0.2-1.2l0.3-1.7l0.2-0.6l0.2-0.4l0.5-0.2
		l0.7-0.1l1.8-0.1l2.5-0.1h1.9l3.1-0.3l1.3-0.1l1.9,0.2l0.7,0.2l0.5,0.4l0.3,0.5l0.2,0.7l0.2,2.1l-0.6,2.9l-0.2,2.2l0.1,2.1l0.2,2.8
		v2.2l0.2,2.1l0.2,2.9l-0.2,2.1l-0.2,0.7l-0.3,0.5l-0.5,0.3l-0.7,0.2l-2.2,0.3H100l-1.6-0.1l-2.3-0.1H78.5l-3.2-0.3l-2.2-0.1
		l-2.3,0.1l-3.1,0.3h-2.3l-5.4-0.1h-4.6l-3.1-0.1L47.7,169.6z M44.5,163.8l-0.3-0.4l-0.4-0.1l-0.1,0.1v0.1l0.3,0.3H44.5z
		 M111.1,169.7l0.1,1.5l-0.2,2.1l-0.2,0.7l-0.3,0.5l-0.5,0.3l-0.7,0.2l-2.2,0.3h-1.6l-1.6-0.1l-2.3-0.1H84l-1.6-0.2l-3.8-0.2
		l-2.3,0.1l-3.1,0.3H67l-6.1-0.1l-3.1-0.1h-2.3l-2.3,0.1h-1.5l-4.6-0.6l-0.5-0.1l-0.4-0.4l-0.2-0.6l-0.2-1.4h2l2.2-0.1l3.8,0.1h6.1
		l1.6,0.1h6.2l3.2-0.3l2.2-0.1l3.6,0.2l1.6,0.2l20,0.1l1.7,0.1h1.9l2.4-0.3l0.9-0.3l0.7-0.3l0.5-0.4l0.4-0.3l0.3-0.4l0.3-0.5
		l0.2-0.6l0.2-1l0.3-2.1l-0.1-1.9l-0.2-1.5l-0.1-4.1l-0.2-3l-0.1-1.9l0.2-1.8l0.3-1.4l0.1-0.4l1.4,0.1l0.7,0.2l0.5,0.4l0.3,0.5
		l0.2,0.7l0.2,2.1l-0.6,2.9l-0.2,2.2l0.1,2.1l0.2,2.8v2.2l0.2,2.1L111.1,169.7z M47,102.1l-0.1-0.1h-0.4v0.1l0.1,0.2l0.2,0.1
		L47,102.1L47,102.1z M48.6,103.6l-0.1-0.9l-0.5-0.3h-0.2l-0.1,0.2L48,103L48.6,103.6z M48.6,162.7l0.3,0.4l0.4-0.1l0.2-0.4l0.2-0.1
		l0.3-0.1l-0.4-0.3l-0.5,0.1H49l-0.2-0.2l-0.2,0.2V162.7z M49.6,104.1l0.1,0.1H50l0.1-0.2v-0.1l-0.1-0.2l-0.3,0.1L49.6,104.1
		L49.6,104.1z M49.6,106.3l0.1,0.5l0.6-0.4v-0.6h-0.4L49.6,106.3z M50.5,159l-0.2-0.1h-0.1l-0.1,0.2v0.1l0.2,0.1h0.2l0.1-0.2
		L50.5,159z M50.7,107.2l0.1,0.5h0.3l0.2-0.3l0.2-0.4l-0.5-0.2L50.7,107.2z M50.8,102.8H51l0.1-0.1v-0.3H51l-0.2,0.1V102.8z
		 M50.8,103.9l0.2,0.6l0.4,0.2l0.4-0.3l0.8-0.7l0.9-0.7h-1.3l-1.1,0.3L50.8,103.9z M53.5,106.7l-0.7-0.5l-0.7-0.3l-0.4-0.4l-0.7-0.2
		l0.4,0.5l0.2,0.3h0.3l0.6,0.8L53.5,106.7z M52.6,102.1l0.3,0.4h0.3l0.3-0.1V102l-0.3-0.3l-0.3-0.1l-0.3,0.1V102.1z M53.1,108.2
		l0.6,0.1l-0.3-0.5l-0.4-0.1l-0.3,0.1v0.2L53.1,108.2z M52.8,100.4l0.2,0.4l0.3,0.1l0.3-0.3v-0.2l-0.2-0.1h-0.3L52.8,100.4z
		 M54.6,104.6l-1.5-0.4l0.3,0.6l0.7-0.2l0.1,0.5l0.1,0.4L54.6,104.6z M54.7,109.6l0.3-0.2l0.2-0.2l0.2-0.1v-0.2l0.1-0.1v-0.2h-0.2
		l-0.2,0.1l-0.1,0.1l-0.2,0.4l-0.2,0.3l-0.5,0.5l0.1-0.2l0.1-0.1l0.2-0.4v-0.1l0.1-0.1v-0.6l0.1-0.3l-0.7,0.4l-0.7,0.5l0.2,0.3
		l0.3,0.2l0.3,0.3v0.2v0.1v-0.1l0.2-0.2l0.2-0.1L54.7,109.6z M54.7,107.2h-0.3l-0.2,0.1v0.2l0.2,0.1l0.3,0.1l0.2-0.1v-0.2
		L54.7,107.2z M54.7,103l0.2,0.1l0.3-0.1l0.6-0.1l0.6-0.2l-0.1-0.1v-0.1l-0.6-0.1l-0.5-0.1h-0.3l-0.2,0.2V103z M54.7,103.9l0.4,0.2
		l0.6,0.4l0.4,0.6l0.2-1.1l-0.8-0.7h-0.2l-0.5,0.1L54.7,103.9z M55.2,156.2l-0.2-0.1L55.2,156.2L55.2,156.2z M56.4,110h0.3l0.3-0.1
		h0.2l0.4-0.2l-0.4-0.1h-0.4l-0.2-0.1l-0.3-0.1v-0.1h-0.1l-0.2,0.1h-0.1v0.2l-0.1,0.1l-0.1,0.2h-0.2l-0.2,0.1l-0.1,0.1h-0.1l0.2,0.1
		l0.3,0.4l0.4-0.2v-0.3h0.2L56.4,110z M55.8,107.4l-0.1,0.1l-0.2,0.4v0.1l-0.1,0.1l0.1,0.1h0.1l0.2-0.1l0.2-0.3l0.1-0.1l0.2-0.1h0.3
		l0.4-0.1h0.4l0.4-0.2l0.5-0.3v-0.1l-0.1-0.1l-0.3,0.1h-0.4l-0.6,0.4h-0.7l-0.2,0.1H55.8z M57.1,108.2l0.2-0.4v-0.1h-0.2l-0.2,0.2
		l-0.2,0.1l-0.1,0.2l-0.4,0.4l-0.4,0.2l-0.1,0.1l-0.1,0.2l0.2-0.1H56l0.1-0.2l0.4-0.2l0.1-0.1L57.1,108.2z M55.9,106.5H56l0.1,0.2
		l0.1-0.3l0.1-0.2l-0.1-0.1l-0.1-0.2H56l-0.2,0.1L55.9,106.5L55.9,106.5z M56.4,114.6H56l-0.2,0.1l0.1,0.2l0.3,0.1l0.2-0.2
		L56.4,114.6L56.4,114.6z M56.6,106.4l0.2,0.2l0.1,0.3l0.4-0.2l0.4-0.1l0.6-0.2l-0.1-0.2V106l0.6-0.4l0.2,0.1l-0.4,0.3l-0.3,0.5
		l0.5,0.4l0.4,0.3l0.3-0.4L60,107v0.5l-0.2,0.5l0.8,0.6l0.3-0.2l0.1-0.3l-0.3-0.2v-0.2l0.2-0.2h0.4v0.2l0.4,0.2l0.3-0.2v-0.4h0.4
		l0.1-0.4l0.5-0.1l0.4-0.1l-0.1-0.8L63,105l-0.4,0.6v0.5l-0.3,0.4l-0.2,0.4L62,107l-0.1-0.2l-0.2-0.1h-0.1l-0.3,0.2v0.2h-0.4
		l-0.6-0.5l-0.8-0.2l-0.5-0.7l0.4,0.2l0.5,0.4h0.2l0.4,0.1l0.2,0.1h0.2l0.5-0.5v-0.5l-0.6,0.1l-0.5-0.2l0.1-0.1v-0.2l0.2-0.2
		l0.2-0.3l0.1-0.2l0.1-0.3l0.4-0.4l-0.6-0.5l0.1-0.2l0.1-0.3l0.1-0.2l0.1-0.3l-1.9-0.7l-0.6-0.2h-0.8l0.2,0.3l0.1,0.1v0.1h0.1
		l0.1,0.2l0.9,0.4l0.9,0.9l0.2,0.3l0.1,0.2l0.1,0.1l-0.4,0.5l-0.5,0.4l-0.6,0.1l-0.6,0.2l-0.8,0.6l-0.6,0.1h-0.5L56.6,106.4
		L56.6,106.4z M60.2,112.4l-0.5-0.3l-1.2,0.2l-0.4-0.1l-0.5-0.1H57l-0.3,0.4l0.1,0.3H59l0.2-0.2l0.3-0.1l0.2,0.4l0.5,0.2V112.4z
		 M56.9,102.8l0.4,0.8l0.6,0.6l0.4-0.1l0.3-0.1l0.1-0.5v-0.6l-0.7-0.4l-0.1-0.1h-0.1v-0.1l-0.2-0.1l-0.1-0.1l-0.6,0.1L56.9,102.8
		L56.9,102.8z M56.9,109.1h0.4l0.3-0.1l0.1-0.1v-0.2l-0.1-0.1h-0.2l-0.2,0.2l-0.2,0.1L56.9,109.1z M57.5,110.7l-0.3-0.1h-0.3v0.2
		l0.1,0.3l0.4,0.2l0.1-0.1l0.1-0.2L57.5,110.7z M58.1,117.2l0.3-0.3l-0.1-0.1h-0.5l-0.1,0.2l0.2,0.2
		C57.9,117.2,58.1,117.2,58.1,117.2z M59.5,113.9l-1.1,0.2l-0.1,1l0.1,0.3l0.2,0.1l0.3-0.5v-0.5l0.4-0.2L59.5,113.9z M58.9,119.6
		l0.1,0.1h0.1l0.2-0.4l-0.2-0.5l-0.3,0.4L58.9,119.6z M61.4,115.3l-0.1-0.2l-0.2-0.1l-0.1,0.1v0.1l0.1,0.3h0.2L61.4,115.3
		L61.4,115.3z M61.2,107.3l0.1-0.2L62,107v0.2v0.1h-0.1l-0.5,0.2h-0.1L61.2,107.3z M62.5,112.6l-0.1-0.4l-0.3-0.2l-0.3,0.2l-0.1,0.4
		l0.1,0.4l0.3,0.1l0.3-0.2L62.5,112.6z M62,105.9l0.1,0.2l0.2-0.4l0.1-0.4v-0.2l-0.1-0.1l-0.3,0.3V105.9z M63.8,110.5l-0.4,0.1h-0.3
		l-0.3-0.2h-0.2v0.3l0.3,0.1l0.5,0.1L63.8,110.5z M62.6,159.7L62.6,159.7l0.3,0.2l0.1-0.1l0.1-0.2l-0.1-0.2h-0.1l-0.2,0.1
		L62.6,159.7z M64,164.7l-1-0.4l-0.2,0.1l-0.1,0.2l0.4,0.3h0.5l0.2,0.1L64,164.7z M63.6,151.2l0.2-0.4l-0.4-0.2l-0.3,0.1l-0.1,0.5
		l0.1,0.4l0.3-0.2L63.6,151.2z M63.1,103.5l0.2,0.3l0.3-0.1l0.1,0.1h0.6l0.4-0.4v-0.1l-0.4-0.1l-0.3,0.2h-0.3l-0.4-0.1L63.1,103.5z
		 M63.4,162.3l-0.2,0.2l0.2,0.2h0.2v-0.2L63.4,162.3z M63.9,115.9l-0.2,0.1l-0.2,0.3v0.1l0.1,0.1h0.3l0.2-0.2V116L63.9,115.9z
		 M64.1,163.3l-0.1-0.2l-0.1-0.1l-0.2,0.1l-0.1,0.2l0.1,0.1l0.2,0.1L64.1,163.3z M64.9,161.8l-0.5-0.3h-0.6v0.1l0.1,0.2l0.5,0.2
		L64.9,161.8z M64.3,112.3l0.1-0.2l0.1-0.1l-0.5-0.1l0.1,0.4l0.2,0.6l0.8,0.2l-0.5-0.4L64.3,112.3z M64.9,104.3l-0.3,0.1l-0.2,0.3
		l0.2,0.3l0.3,0.1l0.3-0.1l0.1-0.3l-0.1-0.3L64.9,104.3z M66.2,161.4l-0.3-0.2h-0.4l-0.3,0.2v0.3l0.3,0.3l0.4-0.1l0.3-0.1V161.4z
		 M65.2,159.5h0.1l0.1-0.1V159h-0.2L65.2,159.5L65.2,159.5z M66.1,163.2l-0.2-0.1h-0.3l-0.1,0.1v0.2l0.1,0.1h0.2l0.2-0.1L66.1,163.2
		z M65.6,110.1h0.5l0.4,0.1l0.3,0.4l0.1-0.7l-0.6-0.2l-0.4-0.1l-0.3,0.1V110.1z M65.6,153.4l0.4,0.4v-0.4l-0.1-0.3l0.3-0.2l-0.1-0.3
		h-0.2l-0.2,0.3L65.6,153.4z M66.3,111.4l-0.2-0.3l-0.3-0.1v0.4l0.3,0.2h0.1L66.3,111.4z M66.3,108.2l0.2,0.3l0.1-0.1v-0.1l0.1-0.3
		h-0.3L66.3,108.2z M67,159.6l-0.1,0.4l0.2,0.4h0.1l0.2-0.1l-0.1-0.4L67,159.6z M67.1,101.8l0.3,0.3l-0.1,0.9l0.9,0.1h0.7l0.7,0.3
		h1.5l0.6-0.5H71l-0.6,0.1l-0.7,0.1l-0.8-0.1l-0.2-0.4l-0.1-0.5l0.5-0.1v-0.5l-0.2-0.3l-0.3,0.1H68l-0.5-0.3h-0.4V101.8z
		 M67.6,107.5l0.1,0.2l0.3-0.2v-0.3l-0.2-0.1l-0.2,0.1l-0.1,0.2L67.6,107.5z M68,111.5l0.4-0.6l-0.6-0.7l-0.1,0.8v0.7h0.2L68,111.5z
		 M70.3,105.3l-0.8-0.1l0.1,0.3l0.3,0.2v0.1l-0.3-0.2h-0.3v-0.1l-0.2-0.1v-0.2l-0.2-0.3v-0.3l0.2-0.2l-0.1-0.1l-0.2-0.1l-0.3,0.2
		l-0.4,0.1l-0.3,0.1L68,105h0.4l0.3,0.6l-0.1,0.7l0.2,0.2v0.6l-0.1,0.6l-0.1,0.3l0.1,0.2l0.2,0.1l0.1-0.2l0.5-0.8l0.4-0.8v-0.4
		l0.3-0.1l0.1-0.1L70.3,105.3L70.3,105.3z M68.5,112.5l-0.2-0.2h-0.2l0.1,0.4l0.3,0.2L68.5,112.5L68.5,112.5z M69,160.2h0.3l0.3-0.3
		l-0.1-0.5l-0.3,0.4L69,160.2z M69.5,164.4l-0.1,0.5l0.1,0.3l0.3-0.1l0.2-0.2l0.1-0.4l-0.3-0.3L69.5,164.4z M69.6,101.5l0.4,0.1
		l0.4-0.2l0.4-0.1h0.4L71,101l-0.1-0.4l-0.2-0.2l0.2-0.3l-0.6-0.2l-0.5,0.1l-0.1,0.3l0.2,0.2l-0.3,0.3L69.6,101.5L69.6,101.5z
		 M69.9,100.5l0.2-0.2h0.5l0.1,0.1l-0.2,0.2L69.9,100.5z M70.3,157.8l0.1,0.1l0.2-0.1l0.1-0.3h-0.1l-0.1-0.1l-0.2,0.1V157.8z
		 M71.9,104.5l-0.6-0.1l-0.9,0.6l0.6,0.2l0.4,0.1l0.6-0.2L71.9,104.5z M70.8,161.1l-0.1,0.1l0.1,0.2l0.5,0.1l0.5-0.4l-0.5-0.2
		L70.8,161.1z M71.5,164l-0.1-0.1l-0.2-0.1l-0.2,0.3v0.4l0.4-0.1L71.5,164z M92.3,134.2l-0.4,4.6l0.1,1.9l0.1,1.3v0.6h-0.9l-1.5,0.3
		l-1,0.5l-0.7,0.9l-0.5,1.3l-0.2,1.4l-0.4-0.1l-1.3-0.2l-2-0.2l-1.9,0.1h-1.3l-1.3-0.1l-2,0.1h-1.2l-1,0.3l-0.6,0.5l-0.2,0.9
		l0.1,1.4l-1.6,0.1l-1.1,0.1v-1.1l-0.2-1.6l-0.2-1.3V144l0.8-0.1l1.9-0.1l2.6-0.3l1.7-0.1l1.7,0.2l1.2,0.2l1.5,0.2H83l1.9-0.3
		l1.1-0.2l0.4-0.1l0.8-0.6l0.6-0.6l0.7-1.2l0.2-1l0.3-2.2l-0.2-4.5l0.1-1.7l0.1-0.7l1.1,0.2l0.7,0.1l0.6,0.2l0.4,0.3l0.2,0.6
		L92.3,134.2z M86.1,116.6l-0.2,1l0.1,2.1l-1.2,0.1l-2.7-0.1l-1.8-0.1h-1.8l-2.6,0.1l-0.7,0.1l-0.4,0.4l-0.3,0.4l-0.1,0.6v1.9h-1.6
		l-1.4-0.2l-0.2-1.8l0.1-2.9v-1.7h3.4l1.8,0.1l2.7,0.1l2.9-0.2l1.9-0.3l1.6-0.1l0.5,0.1V116.6z M72.1,110.8l-0.4-0.5l-0.1,0.5
		l0.1,0.5l0.1,0.1l0.2-0.1L72.1,110.8z M71.7,160.1l0.7,0.6l0.6-0.4l0.2-0.1V160h-0.7L71.7,160.1z M72.9,101.6l0.2,0.4l0.4,0.1
		l0.1-0.3l-0.1-0.4l0.1-0.2l-0.1-0.2l-0.4,0.1L72.9,101.6z M73.5,104.6l-0.1-0.5l-0.4,0.5l0.4,0.4L73.5,104.6z M73.8,160.6l0.3,0.2
		h0.3l-0.2-0.3l-0.4-0.1L73.8,160.6L73.8,160.6z M74.3,111.3l0.3,0.3l0.3-0.4l-0.4-0.1h-0.1L74.3,111.3z M75.2,109.3l-0.3,0.7
		l-0.1,0.2l0.1,0.2l0.2,0.1h0.2l0.3-0.8l0.7,0.4h0.3l0.3-0.3l0.4-0.6l0.1-0.7l-0.3,0.3l-0.2,0.3l-0.5,0.3l-0.4-0.1l-0.5-0.5
		l-0.7-0.1L75.2,109.3z M75.6,102.1l0.2,0.4l0.6,0.3l0.7-0.4l-0.4-0.3l-0.3-0.3l-0.4-0.2l-0.3,0.2L75.6,102.1z M76.2,164.4l0.1,0.2
		h0.4l0.2-0.1l-0.1-0.2l-0.2-0.1h-0.3L76.2,164.4z M76.5,160.7l0.1,0.3l0.2,0.1l0.3-0.1l0.1-0.3l-0.2-0.3l-0.1-0.3l-0.3,0.3
		L76.5,160.7z M77.5,104.7l0.4,0.7l0.3-0.8L77.5,104.7z M77.5,162.1l0.2,0.4h0.6l0.2-0.1l0.2-0.2l-0.2-0.2h-0.8L77.5,162.1z
		 M77.6,103.1l0.3,0.5l-0.1,0.1h0.8l0.7-0.3l0.4,0.4h0.5l0.2-0.2l-0.4-0.4h-0.7l-0.6-0.7l-0.9,0.2L77.6,103.1z M79.3,164.7h-0.5
		l-0.3-0.3h-0.3v0.4l0.5,0.2l0.3-0.1L79.3,164.7z M78.6,156.6l0.1,0.1l0.2,0.1l0.2-0.2l-0.1-0.2l-0.2-0.1l-0.1,0.1L78.6,156.6z
		 M79.3,163.1l0.3,0.2h0.2l0.3-0.1l0.2-0.3l-0.2-0.1l-0.2-0.2l-0.4,0.2L79.3,163.1z M80.3,164.7l-0.1-0.2H80l-0.1,0.1l-0.2,0.1
		l0.4,0.2L80.3,164.7z M80.5,104.9l-0.3,0.1l0.1,0.3l0.3,0.2l0.3-0.2l0.4-0.1l0.1-0.2l-0.4-0.3L80.5,104.9z M81.1,106.4l-0.3-0.2
		l-0.4,0.1v0.3h0.4L81.1,106.4z M80.6,102.7l0.5-0.3l0.3-0.8v-0.5L81,101l-0.2,0.2v0.4l-0.2,0.6L80.6,102.7L80.6,102.7z M82.1,162.8
		h0.4l0.1-0.4l-0.3-0.3l-0.2,0.1V162.8z M82.7,104.2l0.4-0.1l0.2-0.3v-0.1l-0.1-0.1l-0.3,0.3L82.7,104.2z M83.4,105.3l-0.4-0.1
		l-0.2,0.1l0.1,0.2l0.3,0.3l0.4-0.1L83.4,105.3z M83.7,108.1l-0.4,0.1l-0.2,0.5l0.1,0.3l0.5-0.1l0.4-0.5L83.7,108.1z M83.1,159.5
		l0.2,0.5l0.5,0.4L84,160l-0.1-0.4l-0.4-0.2L83.1,159.5z M84.9,165.8l-0.2-0.4h-0.9l-0.5-0.3l0.2,0.9l0.8,0.2h0.1l0.1-0.1
		L84.9,165.8z M83.5,157.5l0.3,0.4l0.1,0.4v0.4l0.3-0.2l0.4-0.1l0.3-0.3v-0.4l-0.5-0.5h-0.7L83.5,157.5z M83.8,154.8l0.4,0.2
		l0.1-0.1l-0.1-0.2l-0.2-0.1L83.8,154.8z M85.7,162.9l-0.4-0.4l-0.5-0.4l-0.2-0.2h-0.2l-0.1,0.3l0.2,0.2v0.3l-0.2,0.6l0.4,0.3
		l0.4,0.1l0.3-0.3l0.3-0.1V162.9z M85,164.3l-0.2-0.1l-0.1-0.1h-0.3l-0.1,0.3l0.1,0.2h0.2l0.2-0.1L85,164.3z M85,160.8l-0.2,0.2
		l-0.2,0.3l0.2,0.2l0.2,0.1h0.6l0.7-0.1l-1-0.5l-0.1-0.2H85z M85.6,156.9l0.4-0.3l0.2-0.3l-0.2-0.1h-0.1l-0.3,0.2L85.6,156.9
		L85.6,156.9z M85.9,157.2l-0.2,0.3l0.1,0.3l0.1,0.1l0.1-0.1l0.1-0.3L85.9,157.2z M86.4,165.6l-0.2-0.3V165l0.1-0.4l-0.2-0.2
		l-0.3,0.2l0.1,0.3l-0.1,0.1v0.6l0.3,0.3h0.3L86.4,165.6L86.4,165.6z M86.7,104l0.1,0.1l0.2,0.1l0.1-0.1v-0.3l-0.2-0.1l-0.2,0.1
		L86.7,104L86.7,104z M86.7,156.4l0.1,0.1l0.2-0.1l0.1-0.2V156H87l-0.3,0.1V156.4z M87.6,101.3l0.2,0.1l0.2-0.2l-0.1-0.2l-0.1-0.1
		h-0.2L87.6,101.3L87.6,101.3z M88.1,104l0.1,0.2h0.4l0.1-0.1l-0.1-0.2l-0.3-0.1h-0.1L88.1,104z M88.1,158.3l0.3,0.2l0.2,0.1h0.3
		l0.4,0.1v0.4l-0.1,0.2v0.3h0.2l0.1-0.1l0.6-0.2h0.2l0.1-0.4l0.2-0.4V158l-0.5-0.2h-0.9l-0.8,0.2L88.1,158.3z M90.5,164l-0.3-0.4
		l-0.6-0.4l-0.5-0.3l-0.2,0.5l0.3,0.8l0.8,0.1L90.5,164z M89.2,156.5l0.7,0.1l0.7-0.1l0.4,0.2l0.6-0.1l-0.4-0.2l-0.3-0.2l-0.1,0.1
		h-0.2l-0.7-0.3L89.2,156.5z M91.8,165l-0.1-0.5l-0.2-0.4l-0.4,0.1l-0.3,0.5l-0.1,0.5l0.3,0.3l0.6-0.1L91.8,165z M91.9,158.9v-0.2
		l-0.3-0.1l-0.3,0.3C91.3,158.9,91.9,158.9,91.9,158.9z M92.4,160.8l-0.1-0.3l-0.4-0.2l-0.2-0.6l-0.3,0.5l0.1,0.4v0.1l-0.1,0.3
		l0.2,0.2l0.4-0.1L92.4,160.8z M91.8,157.6l0.1,0.2l0.2,0.1h0.2l0.1-0.2l-0.2-0.2l-0.2-0.1h-0.2L91.8,157.6L91.8,157.6z M92.6,161.5
		l0.2,0.2l0.2-0.1l0.1-0.2l-0.1-0.1h-0.2v0.1L92.6,161.5z M103.9,124.1l1.2-0.5l0.4-0.4l0.2-0.6l0.3-1l0.1-0.8l0.1-0.9l0.5-3.5v-3.6
		l-0.1-3.6v-6.8l1.4,0.1l0.6,0.2l0.3,0.4l0.2,0.5l0.6,4.2v5.6l0.1,4.9v2.1l-0.2,2.9l-0.3,1.7l-0.2,0.7l-0.1,0.6l-0.4,0.4l-0.6,0.2
		l-1.8,0.3h-6.3l-2.5-0.1l-2.5-0.4l-0.4-0.3l-0.3-0.3l-0.2-0.6l-0.3-1.4h2.5l4.4,0.3l2.3-0.3H103.9z M94.5,161l0.3,0.6L95,161
		l0.2-0.5l0.2-0.1l0.3-0.2l-0.6-0.2l-0.4,0.5L94.5,161z M96.9,157.8L96.9,157.8l0.2,0.1h0.1l0.2-0.1l0.2-0.2v-0.4l-0.3,0.2
		L96.9,157.8z M97.7,158.1l-0.2,0.1l-0.1,0.4l0.4,0.1l0.3,0.3v-0.3l0.1-0.2l-0.2-0.1l-0.2-0.2l0.1-0.1
		C97.9,158.1,97.7,158.1,97.7,158.1z"/>
	<path class="st0" d="M121.3,169.6l-3.1-0.1l-2.2-0.4l-0.8-0.1l-0.5-0.1l-0.4-0.4l-0.2-0.6l-0.3-1.9l0.2-2.7l0.1-3.9l0.1-2.6
		l0.3-1.9l0.1-0.7l0.3-0.5l0.3-0.4l0.6-0.2l1.5-0.1l2.1,0.6l1.4-0.1l0.6-0.2l0.4-0.3l0.2-0.5l0.2-0.7l0.3-2.2l0.1-3l-0.1-4.4l-0.3-3
		l-0.1-4.4v-7.4l0.2-3l0.1-4.4l0.2-3l-0.2-2.2l-0.2-0.7l-0.3-0.4l-0.5-0.3l-0.6-0.2l-1.4-0.2l-2,0.2L116,113l-0.6-0.1l-0.4-0.3
		l-0.2-0.3l-0.1-0.6l-0.3-1.9l-0.3-2.6v-3.8l0.2-2.6l0.3-1.9l0.1-0.7l0.2-0.6l0.3-0.4l0.7-0.2l2.2-0.2l3.1,0.6l2.2,0.2h5.3l2.3,0.1
		l3.7-0.2l1.5-0.2l6-0.1h3.8l3.8,0.1h1.5l4.4,0.1l1.6,0.1l3.7,0.1l3.8-0.1h3.8l2.2-0.2l3.1-0.4l2.2,0.2l0.6,0.2l0.3,0.4l0.2,0.5
		l0.6,4.2v5.6l0.1,2.8v5.6l-0.5,3.5l-0.2,0.7l-0.1,0.6l-0.4,0.4l-0.6,0.2l-1.8,0.3l-2.6-0.2l-1.9-0.1H168l-2.5-0.1l-2.5-0.4
		l-0.4-0.3l-0.3-0.3l-0.2-0.6l-0.3-1.3l0.3-1.8l0.1-1.3v-1l-0.1-0.5l-0.3-0.2l-2.6-0.2l-3.7,0.4l-2.6,0.2l-6.3-0.2l-2.6,0.1
		l-0.7,0.1l-0.4,0.4l-0.3,0.4l-0.1,0.6v2.4l-0.1,3.2l0.3,2.3l0.2,0.7l0.2,0.5l0.4,0.2l0.7,0.2l2,0.3h1.5l1.4-0.1h2.1l2.1-0.1
		l1.4-0.1l1.4,0.1l2.8,0.4l0.6,0.2l0.4,0.3l0.2,0.6l0.3,1.9l-0.3,2.6l-0.1,2l0.1,1.9l0.1,2.6l-0.2,1.9l-0.2,0.7l-0.8,0.8l-0.7,0.2
		l-1.9,0.2l-2.7-0.4l-2-0.2l-1.9,0.1l-1.3,0.2l-3.3,0.2l-1.1,0.1l-0.9,0.5l-0.7,0.8l-0.2,1l0.1,2.1l0.1,1.5l0.2,1.4v2.1l0.1,0.5
		l0.1,0.4l0.3,0.3l0.4,0.1l2.7-0.1l3.6-0.2h7.2l1.9,0.1h2.6l0.5,0.1l0.4,0.1h0.3l0.3-0.3l0.3-1.6l-0.1-1.2l-0.2-1.2l0.3-1.7l0.2-0.6
		l0.2-0.4l0.5-0.2l0.7-0.1l1.8-0.1l2.5-0.1h1.9l3.1-0.3l1.3-0.1l1.9,0.2l0.7,0.2l0.5,0.4l0.3,0.5l0.2,0.7l0.2,2.1l-0.6,2.9l-0.2,2.2
		l0.1,2.1l0.2,2.8v2.2l0.2,2.1l0.2,2.9l-0.2,2.1l-0.2,0.7l-0.3,0.5l-0.5,0.3l-0.7,0.2l-2.2,0.3h-1.6l-1.6-0.1l-2.3-0.1h-17.6
		l-3.2-0.3l-2.2-0.1l-2.3,0.1l-3.1,0.3H139l-5.4-0.1H129l-3.1-0.1L121.3,169.6z M118.1,163.8l-0.3-0.4l-0.4-0.1l-0.1,0.1v0.1
		l0.3,0.3H118.1z M184.6,169.7l0.1,1.5l-0.2,2.1l-0.2,0.7l-0.3,0.5l-0.5,0.3l-0.7,0.2l-2.2,0.3H179l-1.6-0.1l-2.3-0.1h-17.6
		l-1.6-0.2l-3.8-0.2l-2.3,0.1l-3.1,0.3h-6.2l-6.1-0.1l-3.1-0.1H129l-2.3,0.1h-1.5l-4.6-0.6l-0.5-0.1l-0.4-0.4l-0.2-0.6l-0.2-1.4h2
		l2.2-0.1l3.8,0.1h6.1l1.6,0.1h6.2l3.2-0.3l2.2-0.1l3.6,0.2l1.6,0.2l20,0.1l1.7,0.1h1.9l2.4-0.3l0.9-0.3l0.7-0.3l0.5-0.4l0.4-0.3
		l0.3-0.4l0.3-0.5l0.2-0.6l0.2-1l0.3-2.1l-0.1-1.9l-0.2-1.5l-0.1-4.1l-0.2-3l-0.1-1.9l0.2-1.8l0.3-1.4l0.1-0.4l1.4,0.1l0.7,0.2
		l0.5,0.4l0.3,0.5l0.2,0.7l0.2,2.1l-0.6,2.9l-0.2,2.2l0.1,2.1l0.2,2.8v2.2l0.2,2.1L184.6,169.7z M120.6,102.1l-0.1-0.1h-0.4v0.1
		l0.1,0.2l0.2,0.1L120.6,102.1L120.6,102.1z M122.2,103.6l-0.1-0.9l-0.5-0.3h-0.2l-0.1,0.2l0.3,0.4L122.2,103.6z M122.2,162.7
		l0.3,0.4l0.4-0.1l0.2-0.4l0.2-0.1l0.3-0.1l-0.4-0.3l-0.5,0.1h-0.1l-0.2-0.2l-0.2,0.2V162.7z M123.2,104.1l0.1,0.1h0.3l0.1-0.2v-0.1
		l-0.1-0.2l-0.3,0.1L123.2,104.1L123.2,104.1z M123.2,106.3l0.1,0.5l0.6-0.4v-0.6h-0.4L123.2,106.3z M124.1,159l-0.2-0.1h-0.1
		l-0.1,0.2v0.1l0.2,0.1h0.2l0.1-0.2L124.1,159z M124.3,107.2l0.1,0.5h0.3l0.2-0.3l0.2-0.4l-0.5-0.2L124.3,107.2z M124.4,102.8h0.2
		l0.1-0.1v-0.3h-0.1l-0.2,0.1V102.8z M124.4,103.9l0.2,0.6l0.4,0.2l0.4-0.3l0.8-0.7l0.9-0.7h-1.3l-1.1,0.3L124.4,103.9z
		 M127.1,106.7l-0.7-0.5l-0.7-0.3l-0.4-0.4l-0.7-0.2l0.4,0.5l0.2,0.3h0.3l0.6,0.8L127.1,106.7z M126.2,102.1l0.3,0.4h0.3l0.3-0.1
		V102l-0.3-0.3l-0.3-0.1l-0.3,0.1V102.1z M126.7,108.2l0.6,0.1l-0.3-0.5l-0.4-0.1l-0.3,0.1v0.2L126.7,108.2z M126.4,100.4l0.2,0.4
		l0.3,0.1l0.3-0.3v-0.2l-0.2-0.1h-0.3L126.4,100.4z M128.2,104.6l-1.5-0.4l0.3,0.6l0.7-0.2l0.1,0.5l0.1,0.4L128.2,104.6z
		 M128.3,109.6l0.3-0.2l0.2-0.2l0.2-0.1v-0.2l0.1-0.1v-0.2h-0.2l-0.2,0.1l-0.1,0.1l-0.2,0.4l-0.2,0.3l-0.5,0.5l0.1-0.2l0.1-0.1
		l0.2-0.4v-0.1l0.1-0.1v-0.6l0.1-0.3l-0.7,0.4l-0.7,0.5l0.2,0.3l0.3,0.2l0.3,0.3v0.2v0.1v-0.1l0.2-0.2l0.2-0.1L128.3,109.6z
		 M128.3,107.2H128l-0.2,0.1v0.2l0.2,0.1l0.3,0.1l0.2-0.1v-0.2L128.3,107.2z M128.3,103l0.2,0.1l0.3-0.1l0.6-0.1l0.6-0.2l-0.1-0.1
		v-0.1l-0.6-0.1l-0.5-0.1h-0.3l-0.2,0.2V103z M128.3,103.9l0.4,0.2l0.6,0.4l0.4,0.6l0.2-1.1l-0.8-0.7h-0.2l-0.5,0.1L128.3,103.9z
		 M128.8,156.2l-0.2-0.1l0.1,0.1H128.8z M130,110h0.3l0.3-0.1h0.2l0.4-0.2l-0.4-0.1h-0.4l-0.2-0.1l-0.3-0.1v-0.1h-0.1l-0.2,0.1h-0.1
		v0.2l-0.1,0.1l-0.1,0.2h-0.2l-0.2,0.1l-0.1,0.1h-0.1l0.2,0.1l0.3,0.4l0.4-0.2v-0.3h0.2L130,110z M129.4,107.4l-0.1,0.1l-0.2,0.4
		v0.1l-0.1,0.1l0.1,0.1h0.1l0.2-0.1l0.2-0.3l0.1-0.1l0.2-0.1h0.3l0.4-0.1h0.4l0.4-0.2l0.5-0.3v-0.1l-0.1-0.1l-0.3,0.1h-0.4l-0.6,0.4
		h-0.7l-0.2,0.1H129.4z M130.7,108.2l0.2-0.4v-0.1h-0.2l-0.2,0.2l-0.2,0.1l-0.1,0.2l-0.4,0.4l-0.4,0.2l-0.1,0.1l-0.1,0.2l0.2-0.1
		h0.2l0.1-0.2l0.4-0.2l0.1-0.1L130.7,108.2z M129.5,106.5h0.1l0.1,0.2l0.1-0.3l0.1-0.2l-0.1-0.1l-0.1-0.2h-0.1l-0.2,0.1v0.4
		L129.5,106.5z M130,114.6h-0.4l-0.2,0.1l0.1,0.2l0.3,0.1l0.2-0.2V114.6z M130.2,106.4l0.2,0.2l0.1,0.3l0.4-0.2l0.4-0.1l0.6-0.2
		l-0.1-0.2V106l0.6-0.4l0.2,0.1l-0.4,0.3l-0.3,0.5l0.5,0.4l0.4,0.3l0.3-0.4l0.5,0.2v0.5l-0.2,0.5l0.8,0.6l0.3-0.2l0.1-0.3l-0.3-0.2
		v-0.2l0.2-0.2h0.4v0.2l0.4,0.2l0.3-0.2v-0.4h0.4l0.1-0.4l0.5-0.1l0.4-0.1l-0.1-0.8l-0.3-0.9l-0.4,0.6v0.5l-0.3,0.4l-0.2,0.4
		l-0.1,0.1l-0.1-0.2l-0.2-0.1h-0.1l-0.3,0.2v0.2h-0.4l-0.6-0.5l-0.8-0.2l-0.5-0.7l0.4,0.2l0.5,0.4h0.2l0.4,0.1l0.2,0.1h0.2l0.5-0.5
		v-0.5l-0.6,0.1l-0.5-0.2l0.1-0.1v-0.2l0.2-0.2l0.2-0.3l0.1-0.2l0.1-0.3l0.4-0.4l-0.6-0.5l0.1-0.2l0.1-0.3l0.1-0.2l0.1-0.3l-1.9-0.7
		l-0.6-0.2h-0.8l0.2,0.3l0.1,0.1v0.1h0.1l0.1,0.2l0.9,0.4l0.9,0.9l0.2,0.3l0.1,0.2l0.1,0.1l-0.4,0.5l-0.5,0.4l-0.6,0.1l-0.6,0.2
		l-0.8,0.6l-0.6,0.1h-0.5L130.2,106.4L130.2,106.4z M133.8,112.4l-0.5-0.3l-1.2,0.2l-0.4-0.1l-0.5-0.1h-0.6l-0.3,0.4l0.1,0.3h2.2
		l0.2-0.2l0.3-0.1l0.2,0.4l0.5,0.2L133.8,112.4L133.8,112.4z M130.5,102.8l0.4,0.8l0.6,0.6l0.4-0.1l0.3-0.1l0.1-0.5v-0.6l-0.7-0.4
		l-0.1-0.1h-0.1v-0.1l-0.2-0.1l-0.1-0.1l-0.6,0.1L130.5,102.8L130.5,102.8z M130.5,109.1h0.4l0.3-0.1l0.1-0.1v-0.2l-0.1-0.1H131
		l-0.2,0.2l-0.2,0.1L130.5,109.1z M131.1,110.7l-0.3-0.1h-0.3v0.2l0.1,0.3l0.4,0.2l0.1-0.1l0.1-0.2L131.1,110.7z M131.7,117.2
		l0.3-0.3l-0.1-0.1h-0.5l-0.1,0.2l0.2,0.2C131.5,117.2,131.7,117.2,131.7,117.2z M133.1,113.9l-1.1,0.2l-0.1,1l0.1,0.3l0.2,0.1
		l0.3-0.5v-0.5l0.4-0.2L133.1,113.9z M132.5,119.6l0.1,0.1h0.1l0.2-0.4l-0.2-0.5l-0.3,0.4L132.5,119.6z M135,115.3l-0.1-0.2
		l-0.2-0.1l-0.1,0.1v0.1l0.1,0.3h0.2L135,115.3L135,115.3z M134.8,107.3l0.1-0.2l0.7-0.1v0.2v0.1h-0.1l-0.5,0.2h-0.1L134.8,107.3z
		 M136.1,112.6l-0.1-0.4l-0.3-0.2l-0.3,0.2l-0.1,0.4l0.1,0.4l0.3,0.1l0.3-0.2L136.1,112.6z M135.6,105.9l0.1,0.2l0.2-0.4l0.1-0.4
		v-0.2l-0.1-0.1l-0.3,0.3L135.6,105.9L135.6,105.9z M137.4,110.5l-0.4,0.1h-0.3l-0.3-0.2h-0.2v0.3l0.3,0.1l0.5,0.1L137.4,110.5z
		 M136.2,159.7l0.1,0.1l0.2,0.1l0.1-0.1l0.1-0.2l-0.1-0.2h-0.1l-0.2,0.1L136.2,159.7z M137.6,164.7l-1-0.4l-0.2,0.1l-0.1,0.2
		l0.4,0.3h0.5l0.2,0.1L137.6,164.7z M137.2,151.2l0.2-0.4l-0.4-0.2l-0.3,0.1l-0.1,0.5l0.1,0.4l0.3-0.2L137.2,151.2z M136.7,103.5
		l0.2,0.3l0.3-0.1l0.1,0.1h0.6l0.4-0.4v-0.1l-0.4-0.1l-0.3,0.2h-0.3l-0.4-0.1L136.7,103.5z M137,162.3l-0.2,0.2l0.2,0.2h0.2v-0.2
		L137,162.3z M137.5,115.9l-0.2,0.1l-0.2,0.3v0.1l0.1,0.1h0.3l0.2-0.2V116L137.5,115.9z M137.7,163.3l-0.1-0.2l-0.1-0.1l-0.2,0.1
		l-0.1,0.2l0.1,0.1l0.2,0.1L137.7,163.3z M138.4,161.8l-0.5-0.3h-0.6v0.1l0.1,0.2l0.5,0.2L138.4,161.8z M137.9,112.3l0.1-0.2
		l0.1-0.1l-0.5-0.1l0.1,0.4l0.2,0.6l0.8,0.2l-0.5-0.4L137.9,112.3z M138.5,104.3l-0.3,0.1l-0.2,0.3l0.2,0.3l0.3,0.1l0.3-0.1l0.1-0.3
		l-0.1-0.3L138.5,104.3z M139.7,161.4l-0.3-0.2H139l-0.3,0.2v0.3l0.3,0.3l0.4-0.1l0.3-0.1L139.7,161.4L139.7,161.4z M138.8,159.5
		h0.1l0.1-0.1V159h-0.2V159.5z M139.6,163.2l-0.2-0.1h-0.3l-0.1,0.1v0.2l0.1,0.1h0.2l0.2-0.1L139.6,163.2z M139.1,110.1h0.5l0.4,0.1
		l0.3,0.4l0.1-0.7l-0.6-0.2l-0.4-0.1l-0.3,0.1V110.1z M139.1,153.4l0.4,0.4v-0.4l-0.1-0.3l0.3-0.2l-0.1-0.3h-0.2l-0.2,0.3
		L139.1,153.4z M139.8,111.4l-0.2-0.3l-0.3-0.1v0.4l0.3,0.2h0.1L139.8,111.4z M139.8,108.2l0.2,0.3l0.1-0.1v-0.1l0.1-0.3h-0.3
		L139.8,108.2z M140.5,159.6l-0.1,0.4l0.2,0.4h0.1l0.2-0.1l-0.1-0.4L140.5,159.6z M140.6,101.8l0.3,0.3l-0.1,0.9l0.9,0.1h0.7
		l0.7,0.3h1.5l0.6-0.5h-0.7l-0.6,0.1l-0.7,0.1l-0.8-0.1l-0.2-0.4l-0.1-0.5l0.5-0.1v-0.5l-0.2-0.3l-0.3,0.1h-0.6L141,101h-0.4
		L140.6,101.8L140.6,101.8z M141.1,107.5l0.1,0.2l0.3-0.2v-0.3l-0.2-0.1l-0.2,0.1l-0.1,0.2L141.1,107.5z M141.5,111.5l0.4-0.6
		l-0.6-0.7l-0.1,0.8v0.7h0.2L141.5,111.5z M143.8,105.3l-0.8-0.1l0.1,0.3l0.3,0.2v0.1l-0.3-0.2h-0.3v-0.1l-0.2-0.1v-0.2l-0.2-0.3
		v-0.3l0.2-0.2l-0.1-0.1l-0.2-0.1l-0.3,0.2l-0.4,0.1l-0.3,0.1l0.2,0.4h0.4l0.3,0.6l-0.1,0.7l0.2,0.2v0.6l-0.1,0.6l-0.1,0.3l0.1,0.2
		l0.2,0.1l0.1-0.2l0.5-0.8l0.4-0.8v-0.4l0.3-0.1l0.1-0.1L143.8,105.3L143.8,105.3z M142,112.5l-0.2-0.2h-0.2l0.1,0.4l0.3,0.2
		L142,112.5L142,112.5z M142.5,160.2h0.3l0.3-0.3l-0.1-0.5l-0.3,0.4L142.5,160.2z M143,164.4l-0.1,0.5l0.1,0.3l0.3-0.1l0.2-0.2
		l0.1-0.4l-0.3-0.3L143,164.4z M143.1,101.5l0.4,0.1l0.4-0.2l0.4-0.1h0.4l-0.2-0.3l-0.1-0.4l-0.2-0.2l0.2-0.3l-0.6-0.2l-0.5,0.1
		l-0.1,0.3l0.2,0.2l-0.3,0.3L143.1,101.5L143.1,101.5z M143.4,100.5l0.2-0.2h0.5l0.1,0.1l-0.2,0.2L143.4,100.5z M143.8,157.8
		l0.1,0.1l0.2-0.1l0.1-0.3h-0.1l-0.1-0.1l-0.2,0.1V157.8z M145.4,104.5l-0.6-0.1l-0.9,0.6l0.6,0.2l0.4,0.1l0.6-0.2L145.4,104.5z
		 M144.3,161.1l-0.1,0.1l0.1,0.2l0.5,0.1l0.5-0.4l-0.5-0.2L144.3,161.1z M145,164l-0.1-0.1l-0.2-0.1l-0.2,0.3v0.4l0.4-0.1L145,164z
		 M165.8,134.2l-0.4,4.6l0.1,1.9l0.1,1.3v0.6h-0.9l-1.5,0.3l-1,0.5l-0.7,0.9l-0.5,1.3l-0.2,1.4l-0.4-0.1l-1.3-0.2l-2-0.2l-1.9,0.1
		h-1.3l-1.3-0.1l-2,0.1h-1.2l-1,0.3l-0.6,0.5l-0.2,0.9l0.1,1.4l-1.6,0.1l-1.1,0.1v-1.1l-0.2-1.6l-0.2-1.3V144l0.8-0.1l1.9-0.1
		l2.6-0.3l1.7-0.1l1.7,0.2l1.2,0.2l1.5,0.2h0.5l1.9-0.3l1.1-0.2l0.4-0.1l0.8-0.6l0.6-0.6l0.7-1.2l0.2-1l0.3-2.2l-0.2-4.5l0.1-1.7
		l0.1-0.7l1.1,0.2l0.7,0.1l0.6,0.2l0.4,0.3l0.2,0.6L165.8,134.2z M159.6,116.6l-0.2,1l0.1,2.1l-1.2,0.1l-2.7-0.1l-1.8-0.1H152
		l-2.6,0.1l-0.7,0.1l-0.4,0.4l-0.3,0.4l-0.1,0.6v1.9h-1.6l-1.4-0.2l-0.2-1.8l0.1-2.9v-1.7h3.4l1.8,0.1l2.7,0.1l2.9-0.2l1.9-0.3
		l1.6-0.1l0.5,0.1L159.6,116.6L159.6,116.6z M145.6,110.8l-0.4-0.5l-0.1,0.5l0.1,0.5l0.1,0.1l0.2-0.1L145.6,110.8z M145.2,160.1
		l0.7,0.6l0.6-0.4l0.2-0.1V160H146L145.2,160.1z M146.4,101.6l0.2,0.4l0.4,0.1l0.1-0.3l-0.1-0.4l0.1-0.2L147,101l-0.4,0.1
		L146.4,101.6z M147,104.6l-0.1-0.5l-0.4,0.5l0.4,0.4L147,104.6z M147.3,160.6l0.3,0.2h0.3l-0.2-0.3l-0.4-0.1L147.3,160.6
		L147.3,160.6z M147.8,111.3l0.3,0.3l0.3-0.4l-0.4-0.1h-0.1L147.8,111.3z M148.7,109.3l-0.3,0.7l-0.1,0.2l0.1,0.2l0.2,0.1h0.2
		l0.3-0.8l0.7,0.4h0.3l0.3-0.3l0.4-0.6l0.1-0.7l-0.3,0.3l-0.2,0.3l-0.5,0.3l-0.4-0.1l-0.5-0.5l-0.7-0.1L148.7,109.3z M149.1,102.1
		l0.2,0.4l0.6,0.3l0.7-0.4l-0.4-0.3l-0.3-0.3l-0.4-0.2l-0.3,0.2L149.1,102.1z M149.7,164.4l0.1,0.2h0.4l0.2-0.1l-0.1-0.2l-0.2-0.1
		h-0.3L149.7,164.4z M150,160.7l0.1,0.3l0.2,0.1l0.3-0.1l0.1-0.3l-0.2-0.3l-0.1-0.3l-0.3,0.3L150,160.7z M151,104.7l0.4,0.7l0.3-0.8
		L151,104.7z M151,162.1l0.2,0.4h0.6l0.2-0.1l0.2-0.2L152,162h-0.8L151,162.1z M151.1,103.1l0.3,0.5l-0.1,0.1h0.8l0.7-0.3l0.4,0.4
		h0.5l0.2-0.2l-0.4-0.4h-0.7l-0.6-0.7l-0.9,0.2L151.1,103.1z M152.8,164.7h-0.5l-0.3-0.3h-0.3v0.4l0.5,0.2l0.3-0.1L152.8,164.7z
		 M152.1,156.6l0.1,0.1l0.2,0.1l0.2-0.2l-0.1-0.2l-0.2-0.1l-0.1,0.1L152.1,156.6z M152.8,163.1l0.3,0.2h0.2l0.3-0.1l0.2-0.3
		l-0.2-0.1l-0.2-0.2l-0.4,0.2L152.8,163.1z M153.8,164.7l-0.1-0.2h-0.2l-0.1,0.1l-0.2,0.1l0.4,0.2L153.8,164.7z M154,104.9l-0.3,0.1
		l0.1,0.3l0.3,0.2l0.3-0.2l0.4-0.1l0.1-0.2l-0.4-0.3L154,104.9z M154.6,106.4l-0.3-0.2l-0.4,0.1v0.3h0.4L154.6,106.4z M154.1,102.7
		l0.5-0.3l0.3-0.8v-0.5l-0.4-0.1l-0.2,0.2v0.4l-0.2,0.6L154.1,102.7L154.1,102.7z M155.6,162.8h0.4l0.1-0.4l-0.3-0.3l-0.2,0.1V162.8
		z M156.2,104.2l0.4-0.1l0.2-0.3v-0.1l-0.1-0.1l-0.3,0.3L156.2,104.2z M156.9,105.3l-0.4-0.1l-0.2,0.1l0.1,0.2l0.3,0.3l0.4-0.1
		L156.9,105.3z M157.2,108.1l-0.4,0.1l-0.2,0.5l0.1,0.3l0.5-0.1l0.4-0.5L157.2,108.1z M156.6,159.5l0.2,0.5l0.5,0.4l0.2-0.4
		l-0.1-0.4l-0.4-0.2L156.6,159.5z M158.4,165.8l-0.2-0.4h-0.9l-0.5-0.3l0.2,0.9l0.8,0.2h0.1l0.1-0.1L158.4,165.8z M157,157.5
		l0.3,0.4l0.1,0.4v0.4l0.3-0.2l0.4-0.1l0.3-0.3v-0.4l-0.5-0.5h-0.7L157,157.5z M157.3,154.8l0.4,0.2l0.1-0.1l-0.1-0.2l-0.2-0.1
		L157.3,154.8z M159.2,162.9l-0.4-0.4l-0.5-0.4l-0.2-0.2h-0.2l-0.1,0.3l0.2,0.2v0.3l-0.2,0.6l0.4,0.3l0.4,0.1l0.3-0.3l0.3-0.1
		L159.2,162.9L159.2,162.9z M158.5,164.3l-0.2-0.1l-0.1-0.1h-0.3l-0.1,0.3l0.1,0.2h0.2l0.2-0.1L158.5,164.3z M158.5,160.8l-0.2,0.2
		l-0.2,0.3l0.2,0.2l0.2,0.1h0.6l0.7-0.1l-1-0.5l-0.1-0.2H158.5z M159.1,156.9l0.4-0.3l0.2-0.3l-0.2-0.1h-0.1l-0.3,0.2V156.9z
		 M159.4,157.2l-0.2,0.3l0.1,0.3l0.1,0.1l0.1-0.1l0.1-0.3L159.4,157.2z M159.9,165.6l-0.2-0.3V165l0.1-0.4l-0.2-0.2l-0.3,0.2
		l0.1,0.3l-0.1,0.1v0.6l0.3,0.3h0.3L159.9,165.6L159.9,165.6z M160.2,104l0.1,0.1l0.2,0.1l0.1-0.1v-0.3l-0.2-0.1l-0.2,0.1V104z
		 M160.2,156.4l0.1,0.1l0.2-0.1l0.1-0.2V156h-0.1l-0.3,0.1L160.2,156.4L160.2,156.4z M161.1,101.3l0.2,0.1l0.2-0.2l-0.1-0.2
		l-0.1-0.1h-0.2V101.3z M161.6,104l0.1,0.2h0.4l0.1-0.1l-0.1-0.2l-0.3-0.1h-0.1L161.6,104z M161.6,158.3l0.3,0.2l0.2,0.1h0.3
		l0.4,0.1v0.4l-0.1,0.2v0.3h0.2l0.1-0.1l0.6-0.2h0.2l0.1-0.4l0.2-0.4V158l-0.5-0.2h-0.9l-0.8,0.2L161.6,158.3z M164,164l-0.3-0.4
		l-0.6-0.4l-0.5-0.3l-0.2,0.5l0.3,0.8l0.8,0.1L164,164z M162.7,156.5l0.7,0.1l0.7-0.1l0.4,0.2l0.6-0.1l-0.4-0.2l-0.3-0.2l-0.1,0.1
		h-0.2l-0.7-0.3L162.7,156.5z M165.3,165l-0.1-0.5l-0.2-0.4l-0.4,0.1l-0.3,0.5l-0.1,0.5l0.3,0.3l0.6-0.1L165.3,165z M165.4,158.9
		v-0.2l-0.3-0.1l-0.3,0.3C164.8,158.9,165.4,158.9,165.4,158.9z M165.9,160.8l-0.1-0.3l-0.4-0.2l-0.2-0.6l-0.3,0.5l0.1,0.4v0.1
		l-0.1,0.3l0.2,0.2l0.4-0.1L165.9,160.8z M165.3,157.6l0.1,0.2l0.2,0.1h0.2l0.1-0.2l-0.2-0.2l-0.2-0.1h-0.2V157.6z M166.1,161.5
		l0.2,0.2l0.2-0.1l0.1-0.2l-0.1-0.1h-0.2v0.1L166.1,161.5z M177.4,124.1l1.2-0.5l0.4-0.4l0.2-0.6l0.3-1l0.1-0.8l0.1-0.9l0.5-3.5
		v-3.6l-0.1-3.6v-6.8l1.4,0.1l0.6,0.2l0.3,0.4l0.2,0.5l0.6,4.2v5.6l0.1,4.9v2.1l-0.2,2.9l-0.3,1.7l-0.2,0.7l-0.1,0.6l-0.4,0.4
		l-0.6,0.2l-1.8,0.3h-6.3l-2.5-0.1l-2.5-0.4l-0.4-0.3l-0.3-0.3l-0.2-0.6l-0.3-1.4h2.5l4.4,0.3l2.3-0.3
		C176.4,124.1,177.4,124.1,177.4,124.1z M168,161l0.3,0.6l0.2-0.6l0.2-0.5l0.2-0.1l0.3-0.2l-0.6-0.2l-0.4,0.5L168,161z M170.4,157.8
		L170.4,157.8l0.2,0.1h0.1l0.2-0.1l0.2-0.2v-0.4l-0.3,0.2L170.4,157.8z M171.2,158.1l-0.2,0.1l-0.1,0.4l0.4,0.1l0.3,0.3v-0.3
		l0.1-0.2l-0.2-0.1l-0.2-0.2l0.1-0.1C171.4,158.1,171.2,158.1,171.2,158.1z"/>
	<path class="st0" d="M262.7,164.3l-0.2,3.3l0.2,1.1l-0.5,0.7l-3.5,0.2l-3.5-0.3l-3.5-0.1l-3.5-0.2l-3.5,0.2l-3.5,0.3l-3.5,0.1
		l-3.5-0.5l-0.7-0.5l-0.2-1l0.1-4.2l0.3-4.2v-0.5l-0.1-0.5l-1.9-2.9l-2-2.8l-4.4-5.4l-0.9-0.8l-1.1-0.3l-1.7-0.1h-1.7l-0.9-0.2
		l-0.9-0.1l-0.5,0.2l-0.3,0.3l-0.2,1.1v5.6l0.2,0.9l0.4,0.3l0.4,0.1l2.7-0.1l2.6,0.3l0.6,0.2l0.4,0.4l0.4,0.6l0.3,1.8v1.6l-0.3,2.9
		v2.9l-0.1,2.9l-0.1,0.5l-0.4,0.4l-1.1,0.4l-3.5,0.3l-3.6,0.2l-3.5-0.2l-3.5-0.3l-7.1,0.4h-7.1l-3.6,0.2l-3.5-0.3l-0.4-0.6l0.2-1
		l0.1-3.7l0.2-3.6l-0.2-3.6l0.4-3.6l0.4-0.5l0.8,0.1l2.8,0.3l2.8-0.1l1-0.4l0.2-0.4l0.1-0.6l0.2-3.7l-0.3-3.7l0.3-3.7l0.2-3.7
		l-0.4-7.4l0.3-3.7l0.2-3.7l-0.2-3.7l-0.3-3.7l0.1-1.1l-0.1-0.6l-0.3-0.1l-5.6,0.6l-2-0.2l-0.6-0.6v-1.1l-0.1-3.2v-6.4l0.2-3.2
		l0.2-0.7l0.5-0.5l0.8-0.5l0.9-0.2l6.9,0.4h7l3.4,0.1h3.5l3.4,0.1h3.5l6.9-0.4l10.5,0.3l3.3,0.5l3.6,0.7l3.2,1.1l3.2,1.7l2.8,1.9
		l2.5,2.6l1.9,2.9l1.9,3l1.4,3.2l0.6,3.5l0.1,3.5l-0.3,4.3l-1.1,4l-1.6,3.8l-2.5,3.5l-3.2,2.3l-3.9,2.2l-0.5,0.5l-0.3,0.7v0.8
		l0.3,0.6l2.9,4.1l3.1,3.9l0.6,0.5l0.8,0.1l3.5-0.2l3.5,0.1l1.1,0.5l0.3,0.4l0.1,0.7l0.3,1.9v1.3L262.7,164.3z M230.3,161l-0.4-0.6
		l-0.4-0.4l-0.7-0.2l-1.4-0.2l-0.2,2.4v2.7l-0.1,2.9l-0.1,1.1v0.7l-0.2,0.9l-0.3,0.5l-0.8,0.3l-0.8,0.1l-1.4,0.2l-3.7,0.1l-3.6,0.3
		l-3.9-0.2l-3.4-0.3l-6.9,0.4h-7.2l-1.8,0.1v1.3l-0.2,1l0.4,0.6l3.5,0.3l3.6-0.2h7.1l7.1-0.4l3.5,0.3l3.5,0.2l3.6-0.2l3.5-0.3
		l1.1-0.4l0.4-0.4l0.1-0.5l0.1-2.9v-2.9l0.3-2.9v-1.6L230.3,161z M200,137.7l-0.2,0.2v0.2l0.3,0.1h0.1l0.1-0.1l-0.1-0.2L200,137.7z
		 M202.7,116.3l0.2-0.4l0.4-0.3l-0.1-0.6l-0.4-0.4l-0.4,0.2H202l-0.4-0.1l-0.3-0.2l-0.3,0.1v0.3l0.2,0.2l0.5,0.7l0.6,0.4
		L202.7,116.3z M201.7,114.4v-0.6h1l0.3-0.2l0.3-0.1l-1.4-1l-0.2,0.4l-0.1,0.4l-0.3,0.5L201.7,114.4z M202.8,121l0.1-0.5l0.4-0.1
		h0.4l0.5-0.1l0.4-0.2l-0.7-0.5l-0.6-0.7l0.2-0.3l-0.3-0.3l-0.3,0.2v0.3l-0.2,0.4v0.4l-0.5,0.1l-0.2,0.5l0.1,0.5l0.3,0.4L202.8,121z
		 M202.6,109.8l0.5,0.1v-0.5l-0.5-0.2l-0.4,0.3l0.1,0.3C202.3,109.8,202.6,109.8,202.6,109.8z M203,125.7l-0.1-0.2l-0.2-0.1h-0.2
		l-0.2,0.2l0.1,0.2l0.3,0.1l0.1-0.1L203,125.7z M203.8,108.2V108l-0.2-0.3H203l-0.5,0.4l0.7,0.3L203.8,108.2z M202.9,111.5h-0.2v0.5
		l0.1,0.6l0.4-0.5l-0.1-0.5L202.9,111.5z M203,136.3l-0.3-0.3v0.4l0.2,0.3L203,136.3z M204.8,116.9l0.1-0.2l-0.1-0.1l-0.4-0.2
		l-0.4,0.3h-0.3l-0.1,0.1l-0.5-0.3l-0.3,0.3l0.2,0.4l0.5-0.1l0.1,0.1h0.2l0.5,0.1L204.8,116.9z M203.1,150.3l-0.2,0.1l-0.1,0.2v0.2
		l0.2,0.1l0.2-0.1v-0.4L203.1,150.3z M204.4,148.8l-0.4-0.3l-0.2-0.5l-0.4-0.3h-0.2l-0.1,0.1l0.3,0.7l0.6,0.4l0.3,0.1l0.2,0.3
		l-0.1,0.3l0.2,0.2h0.3l0.2-0.2v-0.4l-0.2-0.2L204.4,148.8z M205.8,123.7l0.6-0.2l0.3,0.4l0.4,0.3l0.1-0.8l-0.5-0.4l-0.6,0.1
		l-0.7,0.1l-0.5-0.1l-0.5-0.2h-0.6l-0.4,0.3l0.1,0.3l0.4,0.1h1L205.8,123.7z M204.2,109.9l-0.5,0.9l0.6,0.9l0.2-0.9V110l0.2-0.6
		l-0.1-0.7l-0.3,0.5l-0.2,0.4L204.2,109.9L204.2,109.9z M204.4,114.4l-0.4,0.1l-0.3,0.1v0.3l0.2,0.3h0.4l0.3,0.2l0.1,0.4l0.5,0.7
		l0.8,0.4l0.1-0.1l0.1-0.2l-0.4-0.5l-0.6-0.3l-0.2-0.5l-0.3-0.5L204.4,114.4z M204.9,139.8l-0.5-0.1L204,140l-0.3,0.1v0.4l0.4,0.5
		l0.5,0.4l0.2,0.2h0.2l0.2-0.2l-0.2-0.3v-0.6l0.2-0.4L204.9,139.8z M204.2,113.4l0.1-0.3v-0.2l-0.2-0.2l-0.3,0.1v0.5l0.2,0.2
		L204.2,113.4z M204.2,122l0.4-0.2l-0.2-0.4l-0.3-0.1h-0.3v0.1l0.1,0.4L204.2,122z M204.1,118.9h0.6l0.2-0.2l-0.1-0.3l-0.4-0.2
		l-0.3,0.1l-0.1,0.4L204.1,118.9z M204.5,127.9l-0.2,0.1l-0.1,0.2l0.1,0.2h0.3l0.3-0.3l-0.1-0.2H204.5z M205,126.1v0.3l0.2,0.2
		l0.4-0.5v-0.5l0.4-0.2l0.3-0.4l-1.2,0.1L205,126.1z M205.4,107.3l0.2-0.1l0.1-0.2l-0.2-0.2l-0.3-0.1v0.1l-0.1,0.1l0.1,0.3
		L205.4,107.3z M206.2,104.5l-0.2-0.2h-0.2l-0.2,0.5l-0.4,0.7l0.8-0.4L206.2,104.5z M205.2,130.6v0.4l0.1,0.2h0.1l0.2-0.4l-0.1-0.6
		L205.2,130.6z M205.3,108.3l0.1,0.5l0.5,0.3l1,0.5l1.1,0.6l-0.6-1.3l-0.8-1l-0.7-0.1L205.3,108.3z M205.6,113.9l-0.1,0.5l0.5-0.1
		l0.3-0.4l-0.1-0.1l-0.2-0.1L205.6,113.9z M205.9,103.4l0.2-0.2l-0.2-0.4l-0.1,0.1l-0.2,0.1l0.1,0.3L205.9,103.4z M209,117.6
		l-0.4-0.3v-0.4l0.3-0.1l0.6-0.1l0.7-0.2h0.5l0.3-0.4l0.5-0.1l0.6-0.2l-0.1-1l-0.5-1.1l-0.4,0.7L211,115l-0.6,1l-0.1,0.1l-0.1,0.2
		l-0.7-0.1h-0.6l-0.8-0.6l-1-0.3l-0.6-0.9l-0.5,0.3l-0.4,0.7l0.6,0.5l0.5,0.4l0.4-0.4l0.6,0.2v0.6l-0.2,0.6l0.4,0.5l0.5,0.3l0.5-0.2
		L209,117.6z M206.5,110.3l-0.4,0.5l0.5,0.6l-0.8,0.6l1-0.1L206.5,110.3z M207,151.5l-0.2-0.3l-0.1-0.3l-0.3,0.5l0.1,0.5v0.1
		l-0.1,0.2l0.1,0.2h0.6l0.4-0.3l-0.1-0.4L207,151.5z M207.2,107.6h0.2l0.1-0.1l-0.2-0.2h-0.2l-0.2,0.1l0.2,0.1L207.2,107.6z
		 M207.5,111.7v0.5l-0.1,0.7l-0.4,0.7l1.2-0.3l0.3-1.1V112l-0.4-0.4L207.5,111.7z M207.9,137.5l-0.4,0.1l-0.2,0.3l0.2,0.2l0.3,0.1
		l0.4-0.2l0.2-0.2l-0.3-0.2L207.9,137.5z M208.1,126.9l0.1-0.1l0.1-0.2l-0.2-0.2l-0.2-0.1h-0.1v0.2l0.1,0.3L208.1,126.9z M207.9,157
		l-0.1,0.4l0.1,0.1h0.2l0.3-0.4l-0.1-0.5L207.9,157z M208.6,109.8l0.4-0.1l0.1-0.4L209,109l-0.2-0.4l-0.4,0.3l-0.2,0.4l0.1,0.3
		L208.6,109.8z M208.7,111.2l-0.2,0.1v0.3l0.2,0.2l0.4,0.5l0.3,0.5l0.1-0.1h0.1l-0.1-0.6l-0.1-0.7l-0.1-0.3H209L208.7,111.2z
		 M209.4,119.3l0.1-0.3l-0.1-0.3l-0.3-0.2l-0.3,0.1l-0.2,0.2l0.1,0.4l0.4,0.2L209.4,119.3z M209.6,113.4l-0.3,0.4l-0.3,0.3l-0.3,0.7
		l0.5,0.3l1.1-0.3l0.2-1.1l-0.3-0.6L209.6,113.4z M209.5,124.2l0.1-0.4v-0.4l-0.3-0.2l-0.4,0.2l-0.1,0.4l0.1,0.4l0.3,0.2
		L209.5,124.2z M209.5,128.7l-0.5,0.2v0.9l0.4-0.2l0.2-0.2l0.2-0.4L209.5,128.7z M209.7,117.7l-0.1,0.3v0.1l0.1,0.2l0.4-0.4
		l-0.1-0.1l-0.1-0.2L209.7,117.7z M209.9,144.4l-0.2,0.1v0.4l0.3,0.1l0.4-0.2l-0.2-0.2L209.9,144.4z M211.7,135.6l-0.4-0.4h-0.2
		l-1,0.2l-0.3,0.9l0.6-0.3h1.1L211.7,135.6z M210.3,109.2l0.2-0.1l0.1-0.2l-0.4-0.6l-0.2,0.2l-0.1,0.2v0.4L210.3,109.2z
		 M210.6,127.6l-0.2,0.2v0.2l0.1,0.1h0.3l0.3-0.2v-0.3l-0.2-0.1L210.6,127.6z M211.9,139.8l0.3-0.3l-0.1-0.4L212,139l-0.2,0.1
		l-0.4,0.3l0.1,0.5v0.2l-0.1,0.4l0.3,0.2l0.3-0.3l-0.1-0.3L211.9,139.8L211.9,139.8z M212.4,130.8h-0.3l-0.2,0.4l-0.1,0.5l0.5,0.3
		l-0.2-0.6l0.3-0.3L212.4,130.8L212.4,130.8z M237.3,127.9l0.8-1.3l0.6-1.4l0.4-1.6l0.1-1.7l-0.1-1.7l-0.4-1.5l-0.7-1.5l-0.9-1.2
		l-1-1.1l-1.3-0.9l-1.5-0.7l-1.8-0.2l-2,0.1l-1.4,0.1l-1.3,0.2l-2,0.1l-1.9-0.1l-1.4-0.2l-1.3-0.2l-2-0.1l-0.6,0.2l-0.4,0.4
		l-0.2,0.6l-0.1,0.6v2.1l-0.1,1.5v1.4l-0.1,2.1v3.6l0.1,1.4l0.1,2.1v0.7l0.3,0.5l0.4,0.3l0.6,0.2h2l1.4,0.1h1.3l2,0.1l2-0.1l1.4-0.3
		l1.4-0.2l3.7-0.2l1.5-0.5l1.3-0.7L237.3,127.9z M219.1,125.3l0.1,1.5v1.5h1.1l1.1,0.1h0.5v-1l0.1-2.1v-1.4l0.1-1.5v-2.7l0.2-0.6
		l0.4-0.4l0.6-0.2l2.4,0.1h2.7l1.9,0.1l2-0.1h1.4l1.3,0.1l1.1-0.1l-0.1-0.2l-0.7-0.9l-0.8-0.8l-0.9-0.7l-0.9-0.4l-1.2-0.1l-1.8,0.1
		l-1.2,0.1l-1.5,0.2l-2.2,0.1l-2.2-0.1l-1.5-0.3l-1.2-0.1l-0.6-0.1v1.6l-0.1,1.5v1.5l-0.1,2L219.1,125.3L219.1,125.3z M222.2,150.2
		l0.1,0.1h2.4l-1.3-1.6l-0.3-0.3h-0.3l-1.4-0.1h-2v3.3h1.6l1.2,0.1L222.2,150.2L222.2,150.2z M225.7,136.3l-0.1-0.1h-0.4l-0.1,0.2
		h-0.2l0.4,0.2h0.5v-0.1L225.7,136.3z M226.1,135l-0.4,0.2v0.4l-0.1,0.1l0.1,0.1l0.2,0.1l0.3-0.1l-0.1-0.4V135z M228.3,142.6
		l-0.1-0.4l-0.4-0.4v0.8l0.1,0.1h0.2l0.1,0.8l0.8,0.3l-0.3-0.6L228.3,142.6z M228.3,141.1h0.2l0.1-0.3l-0.2-0.4l-0.2,0.1l-0.1,0.2
		l0.1,0.3L228.3,141.1z M229.4,137l0.5-0.1l0.3-0.7l-0.6,0.2l-0.5,0.2l-0.3-0.2l-0.3-0.1l0.2,0.7C228.7,137,229.4,137,229.4,137z
		 M229.8,140.7L229.8,140.7l-0.1-0.3l-0.2-0.2l-0.1,0.2l0.1,0.2L229.8,140.7z M230.8,143.7h0.3v-0.4l0.1-0.2L231,143l-0.1-0.4
		l0.3-0.3h0.3l0.2-0.2l-0.1-0.2h-0.3l-0.4-0.4v-0.1h-0.5l-0.5,0.1l-0.4,0.3l0.1,0.6l0.5,0.7L230.8,143.7z M230.3,146L230.3,146
		l-0.2-0.3l-0.2,0.1l-0.1,0.1v0.1l0.2,0.1h0.2L230.3,146z M230.5,148.9h-0.2l-0.1,0.2l0.2,0.2h0.2v-0.2L230.5,148.9z M231.2,139.5
		h0.1l0.3-0.1l0.1-0.2l-0.3-0.4l-0.5-0.1l-0.3,0.3l0.1,0.4l-0.1,0.3l-0.2,0.2h0.5L231.2,139.5z M230.5,146.5v0.2l0.1,0.1l0.3,0.1
		l0.5-0.3l-0.5-0.1C230.9,146.5,230.5,146.5,230.5,146.5z M231.1,138.1h0.3v-0.2l-0.2-0.2l-0.2,0.2L231.1,138.1z M231.9,145.8
		l-0.3,0.1l-0.1,0.3h0.3l0.3-0.3L231.9,145.8L231.9,145.8z M233.2,146.7l-0.5-0.2l-0.3,0.3l-0.1,0.7l0.3,0.6l0.4-0.1l0.2-0.4
		l0.3-0.4l0.4-0.2l-0.4-0.1L233.2,146.7z M235.1,137.9l0.4-0.2l0.2-0.5l-0.4-0.4l-0.5,0.1l-0.3,0.2l-0.3,0.5l0.3,0.2L235.1,137.9z
		 M235.6,139.5l-0.4-0.8l-0.5-0.2l-0.2,0.5v0.7l0.1,0.5h0.5L235.6,139.5z M234.6,146.6v0.4l0.3,0.3l0.4-0.5l0.1-0.6h-0.5
		L234.6,146.6z M234.9,152.2l-0.2,0.1v0.3l0.1,0.1l0.2-0.2v-0.2L234.9,152.2z M235.4,143.9l-0.5-0.5v0.7l0.1,0.5l-0.1,0.2l0.1,0.1
		l0.4,0.1l0.3-0.1v-0.4L235.4,143.9z M237,143.1l-0.3-0.2l-0.2,0.3l-0.2,0.5l-0.1,0.6v0.3l0.1,0.2l0.2-0.1l0.2-0.3l0.2-0.1l0.3-0.1
		l0.4-0.2v-0.4l-0.2-0.4L237,143.1z M238.6,140.9l-0.3,0.1l-0.2,0.4l-0.2,0.2h-0.4v0.4l0.3,0.1l0.3-0.3h0.2l0.3-0.2l0.2-0.5
		L238.6,140.9z M237.7,146l-0.1,0.4l0.2,0.2l0.2-0.2l0.3-0.2l-0.2-0.3L237.7,146z M238.3,143H238v0.4l0.2,0.1l0.3-0.1l0.1-0.1
		l-0.1-0.2L238.3,143z M238.8,129.4l0.3-0.4l-0.1-0.6l-0.2,0.3l-0.1,0.4l-0.4,0.1l-0.1,0.2l0.2,0.2L238.8,129.4z M268.4,162
		l-0.3-1.9l-0.1-0.7l-0.3-0.4l-1.1-0.5h-1.3l-0.2,2.7v3.1l-0.1,3.2v1l0.1,0.8l-0.1,1.2l-0.5,0.7l-1,0.5h-1.1l-3.9,0.3l-3.5-0.3
		l-3.4-0.1l-3.4-0.2l-6.8,0.5h-2.6v1.2l0.2,1l0.7,0.5l3.5,0.5l3.5-0.1l3.5-0.3l3.5-0.2l3.5,0.2l3.5,0.1l3.5,0.3l3.5-0.2l0.5-0.7
		l-0.2-1.1l0.2-3.3v-3.2l0.2-3.3L268.4,162L268.4,162z M239.3,151.6l-0.2,0.2l-0.2,0.3l0.4,0.1l0.4-0.1l0.2-0.2v-0.3l-0.3-0.2
		L239.3,151.6z M240,142.4h-0.1v-0.1l-0.5-0.1l-0.3,0.3l0.2,0.4l0.3,0.5v0.6l0.7-0.7L240,142.4z M239.9,133l0.3-0.4l0.2-0.4h-0.7
		l-0.4,0.3l0.1,0.5C239.4,133,239.9,133,239.9,133z M239.5,147.7l-0.1,0.2v0.3l0.4,0.2h0.3v-0.6l-0.3-0.2L239.5,147.7z M240.5,150
		l-0.3-0.4l-0.2-0.2h-0.2l-0.1,0.3l0.2,0.3l0.2,0.4h0.2L240.5,150z M240.4,158.7l-0.2,0.1v0.2l0.2,0.1l0.2-0.1v-0.2L240.4,158.7z
		 M241.1,154.4v-0.3l-0.2-0.3l-0.1,0.4l0.1,0.3h0.1L241.1,154.4z M241.1,147.1h0.2l-0.1-0.2v-0.2l-0.1-0.1l-0.2,0.2v0.2L241.1,147.1
		z M241.1,155.1l-0.2,0.2l0.4,0.6l0.5,0.5l0.1-0.9L241.1,155.1z M242.3,125.4l-0.2-0.2l-0.2-0.1l-0.4,0.4l0.2,0.5v0.1h0.1l1,0.3
		l0.7-0.7h-0.6L242.3,125.4z M241.8,147.6l-0.3-0.1l0.2,0.4v0.4l0.2,0.2l0.3-0.2v-0.5L241.8,147.6z M242.5,109.4l-0.1-0.5l-0.2,0.1
		h-0.1l-0.1,0.5l0.3,0.5L242.5,109.4z M243.2,158.4h-0.4l-0.4,0.3l0.5,0.1l0.5-0.2L243.2,158.4z M243,150.3l0.1-0.3l-0.1-0.2
		l-0.1-0.1h-0.2l-0.2,0.1l0.1,0.3l0.1,0.2H243z M242.6,155.9l0.2,0.5l0.3,0.3h0.2l0.1-0.2l-0.2-0.5L242.6,155.9z M244.3,121.4
		L244.3,121.4l0.3-0.4l-0.1-0.1v-0.2h-0.4l-0.1,0.5l-0.2,0.2l-0.4,0.2l-0.2,0.4l0.1,0.1h0.2l0.5-0.1L244.3,121.4z M244.6,160.1
		l-0.2-0.2l-0.3,0.3l-0.1,0.5l0.4-0.2L244.6,160.1z M244.8,162.1h-0.3l-0.2,0.1l0.1,0.2l0.2-0.1l0.3-0.1L244.8,162.1z M245.3,154.4
		l-0.1,0.2v0.1l0.4,0.1l0.3-0.2l-0.2-0.3L245.3,154.4z M246.2,114.2l0.6,0.4V114l-0.4-0.4v-0.4l-0.3-0.2l-0.4,0.3l-0.2,0.6l0.3,0.3
		C245.8,114.2,246.2,114.2,246.2,114.2z M245.7,125.5l0.2,0.2l0.4,0.1l0.3-0.2l-0.1-0.3l-0.1-0.2L246,125l-0.4,0.2L245.7,125.5z
		 M246,120.4h0.3l0.2,0.1l0.2-0.1l-0.1-0.1L246,120.4L246,120.4z M246.3,160.1l-0.3,0.3v0.3l0.2,0.3l0.3,0.2l0.3-0.2l0.1-0.4
		l-0.3-0.4L246.3,160.1z M246.3,163.8l-0.2,0.1L246,164v0.2l0.2,0.1l0.3-0.1l0.1-0.1l-0.1-0.2L246.3,163.8z M246.4,155.3v0.4
		l0.3,0.2l0.5-0.2l0.2-0.3l-0.3-0.2h-0.3L246.4,155.3z M247,161.2l0.1,0.6l0.3,0.5l0.3-0.3l-0.2-0.5L247,161.2z M248,159.5l-0.2-0.1
		h-0.2v0.2l0.3,0.3l0.2-0.1v-0.2L248,159.5z M248.5,161.7l-0.2,0.1v0.3h0.2l0.1-0.1L248.5,161.7L248.5,161.7z M248.8,160.9h-0.1
		l-0.1,0.2v0.2l0.2,0.1l0.2-0.1V161L248.8,160.9z M254.4,144.4l3.1-2.3l3.1-4l2-4.6l1-4.1l0.4-4.9l-0.1-3.7l-0.5-3l-0.3-0.7
		l-1.8-2.9l0.7,3.8l0.1,3.7l-0.4,5l-1,4l-2,4.6l-3.1,4l-3.1,2.4l-3.6,1.9l2,2.7L254.4,144.4z M250.3,115.1l-0.4,0.1l-0.3-0.2
		l-0.1-0.3l-0.3-0.1l-0.2,0.2l-0.1,0.2l0.2,0.4l0.3,0.1h1.1l0.4,0.4l0.6,0.1l0.1-0.1v-0.2l-0.6-0.5L250.3,115.1z M249.4,129.8
		l0.3-0.3v-0.4l-0.3,0.2V129.8z M251.1,123.6l-0.1-0.1v-0.2l-0.2-0.1l-0.3,0.2v0.4l-0.4,0.6l-0.2,0.2l-0.2,0.1l0.1,0.4l0.4,0.4
		l0.5-0.1l0.3,0.1l0.1-0.2v-0.1h0.1v-0.5l0.1-0.4l-0.1-0.4L251.1,123.6z M250.1,113.3h0.2v-0.4l-0.1-0.1H250l-0.1,0.1L250.1,113.3z
		 M250.3,160.2H250l0.2,1l0.2,0.2h0.2v-0.5l-0.2-0.5L250.3,160.2z M253,129.1h-0.2l-0.1,0.3l0.1,0.2h0.2l0.1-0.2L253,129.1z"/>
	<path d="M12.5,223.3l-0.7-0.2l-0.5-0.3l-0.4-0.4l-0.1-0.7l-0.1-1.9l0.2-2.6v-2l-0.1-1.9v-2.6l0.3-1.9l0.2-0.7l0.2-0.5l0.3-0.3
		l0.7-0.2l2.1-0.3l3.1,0.4l2.2,0.1h2.2l1.5-0.2l3.8-0.2h2.2l3,0.1l2.2,0.1L37,207h7.4l3.1,0.3l2.2,0.1l3.7-0.1h1.9l1.7,0.2l3.6,0.9
		l3.4,1.2l1.8,0.5l1.8,0.7l3.2,1.4l3.2,1.9l2.8,2.3l2.4,2.6l2.2,3l1,1.5l1.1,1.4l1.8,3.2l0.6,1.7l0.5,1.8l0.8,3.7l0.2,3.6l-0.1,1.8
		v3.8l-0.1,3.7l-0.6,3.7l-1.2,3.5l-0.6,1.7l-1.2,3.6l-1.5,3.4l-1.1,1.5l-1.3,1.3l-2.7,2.6l-2.8,2.4l-3.1,2.1l-3.2,1.7l-5.3,1.8
		l-3.6,0.7l-7.4,1.2l-1.9,0.1h-2.2l-3.1,0.1l-4.4-0.1l-3,0.2h-4.4l-1.5-0.2l-5.9-0.2h-7.5l-1.5,0.2l-1.5,0.1l-2.2-0.2l-0.7-0.2
		l-0.5-0.3l-0.3-0.4l-0.2-0.7l-0.3-1.9l0.1-1.3l0.2-1.3l0.1-2l-0.2-1.9l-0.2-1.4l-0.1-1.3l0.2-1.9l0.3-0.7l0.3-0.4l0.6-0.2l0.7-0.2
		l1.9-0.1l2.6,0.6l1.9-0.2l0.3-0.3l-0.1-0.4l-0.2-0.6l-0.1-0.6l-0.1-2.2l-0.2-3l-0.1-4.3v-7.4l0.1-3l0.1-2.2v-2.2l0.4-3l0.1-2.2V230
		l-0.1-3v-2.8l0.2-0.5v-0.4l-0.4-0.2l-1.8-0.2l-1.3,0.2l-1.4,0.3L12.5,223.3z M20.5,284.9l2-0.1h5.3l7.5,0.2l1.5,0.1l1.5,0.2h1.6
		l4.9-0.2h7.9l1.7-0.1l2-0.3l5.5-0.9l3.8-0.8l3.7-1.2l3.8-1.6l3.4-2l3.1-2.4l2.8-2.6l2.9-3l1.3-1.8l1.7-3.7L89,263l1.2-3.6l0.7-1.8
		l0.6-2l0.4-2.1l0.3-3.9v-3.8l0.1-3.7V240l-0.2-1.8l-0.4-2l-0.7-2.5l-0.8-1.6l-1-1.6l-0.7-1l0.4,1.6l0.5,1.9l0.5,3.9l0.1,2l-0.1,3.8
		v3.8l-0.1,2.1l-0.2,1.8l-0.5,2.1l-1.2,3.8l-1.2,3.5l-0.6,1.8l-1.7,3.7l-1.3,1.8l-2.9,3l-2.8,2.6l-3.1,2.4l-3.4,2l-3.8,1.6l-3.7,1.2
		l-3.9,0.8l-5.4,0.9l-2.1,0.3l-4.3,0.1h-7.4l-3,0.2h-4.7l-1.5-0.2l-3.6-0.1l-2.2-0.1l-3-0.1h-2.1l-2,0.1l-1.6,0.2h-0.3l0.2,1.4
		l0.2,0.7l0.3,0.4l0.5,0.3l0.7,0.2l1,0.1L20.5,284.9z M16.9,273.7v0.3l0.4,0.3l0.5-0.1l-0.4-0.4L16.9,273.7z M23.5,272.1h-1
		l-0.2,0.1l0.1,0.6l0.3,0.4l0.4-0.1l0.2-0.4l0.4-0.2l0.3-0.2L23.5,272.1z M24.1,268.5h-0.2l-0.1,0.2l0.1,0.1l0.2,0.1h0.2l0.1-0.2
		l-0.1-0.1L24.1,268.5z M27.2,268.6l-0.7,0.3l-0.5,0.6l-0.1,0.4l-0.3,0.1h-0.3l-0.2,0.2v0.3l0.2,0.2h0.4l0.3-0.3l0.2-0.4l0.2-0.5
		l0.6-0.2l0.3-0.5v-0.1L27.2,268.6z M30.9,275l-0.3,0.1v0.3l0.1,0.2l0.1,0.1l0.4-0.4l-0.1-0.3C31.1,275,30.9,275,30.9,275z
		 M35.9,270l0.1-0.5l-0.3-0.3l-0.2-0.4l-0.3,0.1l-0.6,0.4l-0.4,0.5L34,270v0.3l0.3,0.1l0.3-0.2h0.6l0.4,0.1L35.9,270z M36.7,276.6
		h-0.6l-0.1,0.1l-0.4-0.1l-0.3,0.3l0.3,0.3L36,277h0.2l0.1,0.1l0.4,0.2l0.4-0.1v-0.3L36.7,276.6z M36.7,213.1h0.1l0.1-0.2l-0.1-0.1
		h-0.2l-0.1,0.1v0.2l0.1,0.1L36.7,213.1z M38,265l-0.2-0.2l-0.2,0.1l-0.1,0.2v0.1l0.1,0.1h0.2L38,265z M38.2,272.4l-0.4,0.4l0.2,0.4
		l0.4,0.2l0.2-0.3v-0.2l-0.1-0.4L38.2,272.4z M38.9,214.1h-0.2l-0.1,0.2v0.1l0.1,0.1h0.2l0.1-0.2L38.9,214.1L38.9,214.1z
		 M39.1,260.6l-0.1,0.5l-0.2,0.4v0.2l0.3,0.1l3.1,0.2l2.2,0.1h7.3l2-0.2l1.8-0.3l1.6-0.5l1.8-0.9l1.5-1.1l1.4-1.3l1.2-1.3l1.1-1.5
		l0.9-1.7l0.7-1.7l1-3.6l0.3-1.9l0.2-1.8l0.1-1.9l-0.1-1.9l-0.3-1.7l-0.4-1.7l-0.5-1.7l-0.6-1.7l-0.7-1.7l-0.8-1.5l-1.1-1.4
		l-1.2-1.3l-1.4-1.1l-1.6-1l-1.7-0.8l-1.6-0.4l-1.8-0.2l-1.9-0.1h-1.9l-3.2-0.1l-2.1-0.1l-2.2,0.1l-3.1,0.4l-0.3,0.1l0.2,0.2
		l0.3,0.4l0.1,0.5v3.5l-0.1,1.4v2.1l-0.1,2.1l-0.4,2.8l-0.1,2.1l0.1,2l0.1,2.9v9l0.1,2.1l0.1,2.8V260.6z M39.4,213l-0.1-0.1h-0.2
		l-0.1,0.2v0.2l0.1,0.1l0.2-0.1v-0.1L39.4,213z M39.3,267.9h0.3l0.4-0.2h-0.4L39.3,267.9z M40,274.8l0.3,0.6l0.1,0.6v0.5l0.5,0.1
		l0.4-0.4V276l-0.3-1L40,274.8z M43.3,212l-0.6,0.1L42,212l-0.2-0.3l-0.1-0.4l0.4-0.2v-0.4l-0.1-0.2l-0.3,0.1h-0.5l-0.5-0.2h-0.3
		v0.6l0.3,0.2l-0.1,0.8l0.8,0.1H42l0.6,0.2h1.3l0.5-0.4h-0.6L43.3,212z M41.2,243.1l0.1,1.4v9.1l0.1,3.4l0.1,2.6h0.9l2,0.1v-9.6
		l-0.1-2.9l-0.1-2l0.1-2.1l0.4-2.8l0.1-2.1l0.1-4.9v-2.1l-0.1-0.5l-0.3-0.4l-0.2-0.2l0.3-0.1l3.1-0.4l2.2-0.1l2.1,0.1l3.2,0.1h1.9
		l1.9,0.1l1.3,0.2l-0.4-0.4l-1.1-0.9l-1.3-0.9l-1.4-0.6l-1.3-0.3l-1.5-0.2l-1.7-0.1h-2l-3.1-0.1l-2.1-0.1l-2,0.1l-0.6,0.1v2.7
		l-0.1,1.4l-0.1,2v2.4l-0.4,2.7V243.1z M41.7,213l-0.1-0.1l-0.3,0.2v0.7l0.3,0.1l0.2-0.2l-0.1-0.4V213z M45.1,215.2l0.3-0.4
		l-0.2,0.1l-0.3,0.1l-0.2-0.2h-0.3v0.2L45.1,215.2z M45.7,276.7l-0.5-0.1l-0.4,0.5l0.3-0.1l0.4-0.1l0.3,0.2h0.3v-0.3L45.7,276.7z
		 M47.3,214.4l0.4,0.2l0.3,0.3l0.1-0.7l-0.6-0.1l-0.3-0.1l-0.3,0.1v0.3C46.9,214.4,47.3,214.4,47.3,214.4z M47.4,215.7h0.1v-0.1
		l-0.1-0.3h-0.3v0.3L47.4,215.7z M47.5,273.6l-0.4,0.1l0.2,0.4l0.2,0.2l0.5,0.1l0.2-0.3l-0.2-0.4L47.5,273.6z M48.2,211.9v-0.4
		l-0.1-0.2h-0.3L48.2,211.9z M51.7,209.6l-0.2,0.4v0.3l0.1,0.2l0.3,0.1h0.2l0.2-0.4L51.7,209.6z M53.1,214.4l-0.2,0.7l-0.1,0.6
		l0.1,0.1l0.6-0.6L53.1,214.4z M53.4,268.2l-0.2,0.1v0.1l0.5,0.1l0.7-0.2l-0.6-0.2L53.4,268.2z M54.4,210.8l-0.2,0.1l-0.1,0.1
		l0.5,0.3l0.1-0.3L54.4,210.8z M58.1,214.3l-0.1-0.1v-0.1l0.2-0.4l-0.5-0.5l-0.6,0.1l-0.1,0.2l0.3,0.2l0.4,0.1h-0.5l-0.1,0.1
		l-0.1-0.1h-0.4l-0.4-0.1l-0.3-0.3v-0.2h-0.1l-0.2,0.1v0.2l-0.2,0.3l-0.1,0.3l0.3,0.1L56,214l0.6,0.2l0.2,0.1l0.3,0.5h0.2l0.1,0.1
		v0.1l0.1,0.1l0.1,0.2l0.2,0.5l0.1,0.2l0.2,0.2l0.2-0.1v-0.2L58.1,214.3z M56.7,267.1l-0.3-0.1l-0.2,0.2l0.1,0.2l0.1,0.1l0.2,0.1
		l0.2-0.1v-0.2L56.7,267.1z M56.8,218.7l0.2-0.2l-0.3-0.2l-0.1,0.4v0.6l0.5,0.3l-0.2-0.5L56.8,218.7z M57.6,272h-0.2l-0.1,0.1v0.2
		l0.3,0.2h0.3l0.1-0.2l-0.1-0.2L57.6,272z M59.4,267.3h-0.2l-0.3,0.1h-0.4v0.1l-0.1,0.2h0.2v0.1l0.2,0.1H59l0.3-0.1l0.2,0.1l0.1,0.1
		v0.1h0.5l-0.5-0.9L59.4,267.3z M58.7,269.7l-0.2,0.1l-0.1,0.2l0.1,0.1h0.2l0.1-0.1h0.1l0.1-0.2l-0.1-0.1H58.7z M58.6,265.7l0.1,0.1
		l0.1-0.1v-0.2l-0.1-0.2l-0.1-0.1V265.7z M61.2,268.5l0.8-0.2l0.3-0.5l-0.6-1l0.1-0.4V266l-0.1-0.5l-0.5-0.2l-0.3,0.2v0.3l0.2,0.8
		l0.2,0.7l0.4,0.4l-0.4,0.3L61.2,268.5z M61.2,217.5l0.1,0.3l0.2,0.2v0.1l0.2-0.1h0.2l0.3,0.3v0.1l-0.2,0.3l-0.3,0.3l0.2,0.8
		l0.4,0.1l0.1-0.2l-0.1-0.3l0.1-0.2h0.3l0.4,0.2l0.4,0.1l0.3,0.2l0.3-0.2l0.4,0.2l0.3,0.1l0.4-0.7l0.1-0.7l-0.5,0.2l-0.3,0.3
		l-0.3,0.2h-1l-0.3-0.2l-0.3-0.7l-0.5-0.5l-0.2-0.5l0.1-0.3h-0.5l-0.3,0.2l-0.2,0.2h0.1L61.2,217.5z M62,269.6l-0.4,0.2v0.3l0.3,0.2
		l0.8-0.2l0.1-0.3l-0.3-0.2H62z M62,215.2h0.1l0.1,0.1l0.2,0.1l0.3-0.2l0.4-0.2l0.7,0.8l0.2,0.1l0.3-0.1l0.6-0.1l0.4-0.5h-0.4
		l-0.3,0.2l-0.4-0.1h-0.1l-0.1-0.2l-0.6-0.6l-0.2-0.3l-0.4-0.3h-0.1l-0.2-0.2v0.4l0.2,0.3l-0.3,0.2l-0.2,0.2h-0.1L62,215V215.2z
		 M63.9,264.8l0.4,0.3l0.1-0.9l0.5-0.8h0.3l0.1-0.3l-0.2-0.2l-0.4,0.3h-0.4l-0.4,0.3l-0.3-0.3l-0.6,0.1l-0.4,0.4v0.3l0.1,0.1
		l0.2,0.1h0.2v-0.1l0.3,0.2l0.2,0.3L63.9,264.8z M63.1,265.1h-0.2l-0.1,0.1v0.2l-0.1,0.1l0.2,0.2H63l0.1-0.1h0.1v-0.1l-0.1-0.2
		V265.1z M74.8,266h-0.5l-0.5,0.1l-0.3,0.1h-0.1l-0.6,0.3v-0.9l-0.1-0.1v-0.1l-0.3-0.6l-0.1,0.2l-0.2,0.2l-0.3,0.4l-0.1,0.9
		l-0.2,0.6l-0.4,0.5l-0.1-1v-1l0.5-0.7l0.2-0.3l0.2-0.4l0.1-0.3l0.1-0.4h-0.3l-0.3-0.1l-0.1-0.1l-0.6-0.8l-0.6,0.2H70l-0.2,0.1h-0.2
		l-0.8,0.4v0.9l-0.4,0.8l-0.1,0.1l-0.2,0.1v-0.3l-0.1-0.2v-0.1l-0.1-0.6v-0.4l-0.5-0.1l-0.3-0.3l-0.5-0.1l-0.5-0.7l-0.2-0.9l0.2-0.3
		v-0.3l0.4-0.4l0.5-0.3h0.5v0.5l0.2,0.3H68l0.2-0.1v-0.2l-0.2-0.4l-0.1-0.1V260h-0.1l0.6-0.1l0.3-0.2l-0.2-0.2v-0.4l-0.3-0.2v-0.4
		l-0.4-0.1l-0.3,0.2v0.3l-0.2,0.2l-1.4,1.5l-0.6,0.2l-0.6,0.7l-0.4,0.1h-0.9l0.2,0.6h0.8l1,0.2h0.1l0.1,0.1h0.2l0.1,0.1l0.6,0.8
		l0.1,0.2l0.2,0.2h-0.1l-0.1,0.6l0.2,0.2l0.2,0.3h-0.1l-0.1,0.1l0.3,1l0.8,0.4l0.6-0.2h0.1l0.1-0.3l0.2-0.3h0.2l0.6,0.3l0.7,1v0.1
		h-0.1l-0.7,0.7h-0.3l-0.2-0.1l-0.1-0.2l0.2-0.3l-0.3-0.3l-0.6,0.6v0.1l-0.3,0.4l-0.3,0.5l-0.1,0.3l-0.4,0.6l-0.1,0.2v0.2l-0.3,0.1
		l-0.2,0.1v-0.4l-0.7-0.6l-0.3-0.1l-0.1-0.1h-0.1v-0.3l0.1-0.3l0.5-1l-0.2-0.9l-0.8,0.4h-0.7l-0.5,0.3v0.1l-0.1,0.2l-0.2,0.2
		l0.2,0.2l0.1,0.3h0.7l0.1-0.2v-0.2l0.5-0.1l0.1,0.4l-0.1,0.2l-0.2,0.3v0.1l-0.1,0.1v0.6l0.1,0.2l0.3,0.2l0.3,0.1v0.4l-0.1,0.4
		l0.6,0.4l0.3-0.1l0.2-0.1l0.4-0.1l-0.2,0.2v0.1l-0.1,0.1l-0.2,0.4h0.4l0.1-0.1l0.2-0.4v-0.4l0.4-0.2l1.2-0.4l0.4-0.3l0.3-0.1
		l0.2-0.2L70,269l0.2,0.1h0.7l0.6-0.2l0.4-0.2v-0.1H72l0.6-0.5l0.2,0.3h0.3l0.3-0.6l-0.2-0.5l0.1-0.1v-0.1l0.3-0.2l0.2-0.2H74
		l0.3-0.1l0.7-0.5L74.8,266z M67.4,267.7l0.4-0.2l-0.1-0.4l-0.1-0.1h-0.3l-0.3,0.3l-0.1,0.4l0.2,0.2L67.4,267.7z M67.5,225.7
		l0.2-0.1l-0.1-0.2l-0.2,0.1l-0.1,0.3l0.1-0.1H67.5z M68.4,221.2L68.4,221.2l0.3,0.4h0.5l0.1-0.1l-0.2-0.3l-0.3-0.1l-0.1-0.1h-0.1
		l-0.2-0.3h-0.3v0.3L68.4,221.2z M68.8,222.7l0.1-0.2l-0.1-0.2l-0.3-0.2l-0.2,0.1l-0.1,0.3l0.2,0.3l0.2,0.1L68.8,222.7z M68.6,226
		h0.2l0.2-0.2v-0.1h-0.1l-0.1-0.1l-0.2,0.1V226z M69.1,257l-0.1,0.1v1.1l0.1,0.7l0.3,0.3l0.3-0.3l0.5-0.2l0.3-0.6V258l-0.1-0.1v-0.1
		l-0.4-0.2l-0.3-0.1l-0.4-0.4L69.1,257L69.1,257z M69.5,261.4h-0.1l-0.3,0.1v0.1l-0.1,0.1l0.2,0.2l0.1,0.2l0.2-0.1h0.1l0.1-0.2v-0.2
		L69.5,261.4z M70.5,260.6l0.2-0.2v-0.1l-0.2-0.3h-0.6l-0.2-0.1l-0.1-0.3l-0.5,0.1v0.5l0.4,0.1v0.1l0.1,0.1l0.4,0.3L70.5,260.6z
		 M69.5,257.2l0.1,0.1v-0.1l0.1-0.2l0.3,0.1l0.4,0.1h0.3l0.3-0.1l-0.3-0.7l-0.4-0.7L70,256l-0.2,0.4l-0.4,0.5l0.1,0.2V257.2z
		 M71,260.3l0.4,0.7h0.1l0.2-0.2v-0.6l-0.3-0.6l0.2-0.5v-0.3l0.1-0.3v-0.2l-0.1-0.1h-0.2l-0.2-0.1H71l-0.2,0.1l0.1,0.1v0.3l0.2,0.1
		l0.2,0.3l-0.2,0.4L71,260.3z M71.6,255l-0.1-0.2h-0.2l-0.2,0.6L71,256l0.4-0.4L71.6,255z M71.6,253.5l0.4,0.1l0.1-0.5l-0.4-0.3
		l-0.3,0.3v0.3L71.6,253.5z M71.9,256.9l0.1-0.2l-0.1-0.3l-0.2,0.1l-0.1,0.2l-0.1,0.3l0.1,0.3l0.2-0.1L71.9,256.9z M72,227.1
		l0.5,0.3l0.4-0.4l-0.3-0.5l-0.8-0.3l0.1,0.5L72,227.1z M76.7,259.9v0.1h-0.1l-0.3,0.8l-0.1,0.2l-0.6,0.5h-0.1l-1.3,0.3l-0.4-0.3
		l-0.2-0.9L73,260l0.3-0.8l-0.2-0.4l-0.2,0.2h-0.3l-0.3,0.2l-0.4,0.3l0.2,0.7l0.1,0.5l0.5-0.2l0.3,0.4l-0.4,0.6l-0.4,0.5v0.6
		l0.1,0.3v0.3h0.5l0.1-0.2l0.1-0.1v-0.4l0.1-0.4l0.4-0.1l0.5,0.3h0.5l0.4,0.3l0.5-0.4l0.8,0.2l0.3-0.5l0.5-0.8l0.1-0.2v-0.3l0.1-0.4
		V260l0.1-0.6l-0.4,0.3L76.7,259.9z M73,251.6l-0.1-0.3l-0.5-0.1l-0.4,0.4l0.4,0.4l0.5-0.2L73,251.6z M73.5,252.5l-0.4,0.5l-0.3,0.4
		v0.4l-0.2,0.4l-0.1,0.1v0.2h-0.2l0.1,0.1v0.3l0.1,0.6l0.2-0.5l0.2-0.2v-0.2l0.1-0.3v-0.4l0.4-0.6L73.5,252.5z M72.6,230.1l-0.2,0.1
		v0.3l0.2,0.2h0.1l0.2,0.2h0.2l0.1-0.2v-0.2l-0.1-0.1l-0.3-0.2L72.6,230.1z M72.6,258.1l-0.2,0.4h0.2l0.1,0.1l0.2-0.2l0.2-0.1v-0.2
		L73,258L72.6,258.1z M73.7,263.5v-0.2h-0.3v0.1l-0.2,0.1l-0.2,0.6l0.3-0.2L73.7,263.5z M73.9,227.8h-0.6v0.4l0.3-0.1L73.9,227.8z
		 M74.3,255.7l-0.4,0.2l-0.4,0.3l0.8,0.1l0.3-1.1v-0.6l-0.4,0.4L74.3,255.7z M74.2,224.3l0.3,0.3l0.2,0.3l0.1-0.3l0.2-0.4l0.1-0.3
		l-0.3-0.3l-0.6-0.1l-0.5,0.3l0.1,0.4L74.2,224.3z M75.5,257.1v-0.8l-0.6-0.1l-0.2,0.6l-0.3,0.7l-0.6,0.6h1L75.5,257.1z M74,252.8
		l0.4,0.3l0.6,0.7l0.8,0.8l-0.1-1.5l-0.5-1.1l-0.5-0.3l-0.6,0.5L74,252.8z M74.5,236.9l-0.2,0.2l0.2,0.4l0.5,0.2l0.1-0.4l-0.2-0.3
		L74.5,236.9z M74.3,250.6v0.3l0.2,0.1h0.1l0.1-0.1v-0.2l-0.1-0.1l-0.2-0.1L74.3,250.6z M75.4,248.2l-0.1-0.3h-0.2l-0.2,0.5
		l-0.4,0.9l0.7-0.5L75.4,248.2z M74.7,260.6l0.5-0.1h0.6l0.2-0.4l0.1-0.3v-0.1h0.1l0.3-0.6v-0.7l-0.6,0.2l-0.8,0.6v0.1H75v0.1
		l-0.1,0.1l-0.2,0.4h-0.1v0.3L74.7,260.6z M75.1,246.5v0.2l0.2,0.2l0.2-0.2l-0.1-0.2l-0.1-0.3l-0.1,0.1L75.1,246.5z M75.6,226.7
		l0.2-0.2l0.2-0.1l0.1-0.1l-0.3-0.3l-0.4,0.1l-0.2,0.4l0.2,0.3L75.6,226.7z M75.2,231.8h0.7l-0.4-0.5L75.2,231.8z M75.3,234.2
		L75.3,234.2l0.1,0.4l0.3,0.2v-0.4l-0.2-0.2H75.3z M76.3,224.4l-0.2-0.5l-0.3-0.4l-0.3,0.2l-0.1,0.3l0.3,0.3L76.3,224.4z
		 M75.9,251.3h-0.1l-0.2,0.1l0.1,0.2l0.1,0.1h0.1l0.1-0.1v-0.1L75.9,251.3z M75.8,256.1l-0.1,0.3l0.1,0.3l0.2,1.2h0.1l0.1-0.1
		l0.1-0.7l0.1-0.6l0.1-0.2V256l-0.2-0.1h-0.2L75.8,256.1z M76.7,254.2l0.2-0.4v-0.3l-0.1-0.5l-0.3,0.2l-0.3,0.5v0.3l0.2,0.3
		L76.7,254.2z M76.5,229.2v0.5l0.6,0.4v-0.4l0.2-0.4l-0.1-0.4l-0.3-0.3h-0.3l-0.2,0.4L76.5,229.2z M77.5,232.2l-0.1-0.1V232l0.2-0.7
		l-0.4-0.6h-0.5l-0.2,0.4l-0.1,0.1l0.3,0.5l0.5,0.4l-0.1,0.5l0.2,0.4h0.2l0.1-0.4L77.5,232.2z M77.2,235.8l-0.2,0.1l-0.1,0.3
		l0.2,0.4l0.2-0.3v-0.4L77.2,235.8z M78,252.9l-0.4,0.4v0.4l0.3,0.1h0.2l0.1-0.3L78,252.9z M78,235.4l0.2,0.3l0.3,0.1l0.1-0.1v-0.1
		l-0.2-0.2H78z M79.8,232.8l-0.1-0.3l-0.2-0.1l-0.3,0.1l-0.6,0.1l-0.3,0.2l0.4,0.3l0.7-0.1L79.8,232.8z M79.6,238.7l-0.1-0.1h-0.2
		l-0.1,0.1v0.2h0.1l0.1,0.1l0.2-0.1V238.7z M79.7,239.7l-0.1,0.2v0.3l0.2,0.1l0.1-0.2v-0.2L79.7,239.7z M82,238.5L82,238.5l-0.3,0.2
		l0.1,0.2h0.1l0.2-0.1v-0.2L82,238.5z"/>
	<path d="M136.4,223.3l-0.7-0.2l-0.5-0.3l-0.4-0.4l-0.1-0.7l-0.1-1.9l0.2-2.6v-2l-0.1-1.9v-2.6l0.3-1.9l0.2-0.7l0.2-0.5l0.3-0.3
		l0.7-0.2l2.1-0.3l3.1,0.4l2.2,0.1h2.2l1.5-0.2l3.8-0.2h2.2l3,0.1l2.2,0.1l2.2-0.1h7.4l3.1,0.3l2.2,0.1l3.7-0.1h1.9l1.7,0.2l3.6,0.9
		l3.4,1.2l1.8,0.5l1.8,0.7l3.2,1.4l3.2,1.9l2.8,2.3l2.4,2.6l2.2,3l1,1.5l1.1,1.4l1.8,3.2l0.6,1.7l0.5,1.8l0.8,3.7l0.2,3.6l-0.1,1.8
		v3.8l-0.1,3.7l-0.6,3.7l-1.2,3.5l-0.6,1.7l-1.2,3.6l-1.5,3.4l-1.1,1.5l-1.3,1.3l-2.6,2.6l-2.8,2.4l-3.1,2.1l-3.2,1.7l-5.3,1.8
		l-3.6,0.7l-7.4,1.2l-1.9,0.1h-2.2l-3.1,0.1l-4.4-0.1l-3,0.2h-4.4l-1.6-0.2l-5.9-0.2h-7.5l-1.5,0.2l-1.5,0.1l-2.2-0.2l-0.7-0.2
		l-0.5-0.3l-0.3-0.4l-0.2-0.7l-0.3-1.9l0.1-1.3l0.2-1.3l0.1-2l-0.2-1.9l-0.2-1.4l-0.1-1.3l0.2-1.9l0.3-0.7l0.3-0.4l0.6-0.2l0.7-0.2
		l1.9-0.1l2.6,0.6l1.9-0.2l0.3-0.3l-0.1-0.4l-0.2-0.6l-0.1-0.6l-0.1-2.2l-0.2-3l-0.1-4.3v-7.4l0.1-3l0.1-2.2v-2.2l0.4-3l0.1-2.2V230
		l-0.1-3v-2.8l0.2-0.5v-0.4l-0.4-0.2l-1.8-0.2l-1.3,0.2l-1.4,0.3L136.4,223.3z M144.4,284.9l2-0.1h5.3l7.5,0.2l1.5,0.1l1.5,0.2h1.6
		l4.9-0.2h7.9l1.7-0.1l2-0.3l5.5-0.9l3.8-0.8l3.7-1.2l3.8-1.6l3.4-2l3.1-2.4l2.8-2.6l2.9-3l1.3-1.8l1.7-3.7l0.6-1.7l1.2-3.6l0.7-1.8
		l0.6-2l0.4-2.1l0.3-3.9v-3.8l0.1-3.7V240l-0.2-1.8l-0.4-2l-0.7-2.5l-0.8-1.6l-1-1.6l-0.7-1l0.4,1.6l0.5,1.9l0.5,3.9l0.1,2l-0.1,3.8
		v3.8l-0.1,2.1l-0.2,1.8l-0.5,2.1l-1.2,3.8l-1.2,3.5l-0.6,1.8l-1.7,3.7l-1.3,1.8l-2.9,3l-2.8,2.6l-3.1,2.4l-3.4,2l-3.8,1.6l-3.7,1.2
		l-3.9,0.8l-5.4,0.9l-2.1,0.3l-4.3,0.1h-7.4l-3,0.2h-4.7L155,282l-3.6-0.1l-2.2-0.1l-3-0.1h-2.1l-2,0.1l-1.6,0.2h-0.3l0.2,1.4
		l0.2,0.7l0.3,0.4l0.5,0.3l0.7,0.2l1,0.1L144.4,284.9z M140.8,273.7v0.3l0.4,0.3l0.5-0.1l-0.4-0.4L140.8,273.7z M147.4,272.1h-1
		l-0.2,0.1l0.1,0.6l0.3,0.4l0.4-0.1l0.2-0.4l0.4-0.2l0.3-0.2L147.4,272.1z M148,268.5h-0.2l-0.1,0.2l0.1,0.1l0.2,0.1h0.2l0.1-0.2
		l-0.1-0.1L148,268.5z M151.1,268.6l-0.7,0.3l-0.5,0.6l-0.1,0.4l-0.3,0.1h-0.3l-0.2,0.2v0.3l0.2,0.2h0.4l0.3-0.3l0.2-0.4l0.2-0.5
		l0.6-0.2l0.3-0.5v-0.1L151.1,268.6z M154.8,275l-0.3,0.1v0.3l0.1,0.2l0.1,0.1l0.4-0.4L155,275C155,275,154.8,275,154.8,275z
		 M159.8,270l0.1-0.5l-0.3-0.3l-0.2-0.4l-0.3,0.1l-0.6,0.4l-0.4,0.5l-0.2,0.2v0.3l0.3,0.1l0.3-0.2h0.6l0.4,0.1L159.8,270z
		 M160.6,276.6H160l-0.1,0.1l-0.4-0.1l-0.3,0.3l0.3,0.3l0.4-0.2h0.2l0.1,0.1l0.4,0.2l0.4-0.1v-0.3L160.6,276.6z M160.6,213.1
		L160.6,213.1l0.2-0.2l-0.1-0.1h-0.2l-0.1,0.1v0.2l0.1,0.1L160.6,213.1z M161.9,265l-0.2-0.2l-0.2,0.1l-0.1,0.2v0.1l0.1,0.1h0.2
		L161.9,265z M162.1,272.4l-0.4,0.4l0.2,0.4l0.4,0.2l0.2-0.3v-0.2l-0.1-0.4L162.1,272.4z M162.8,214.1h-0.2l-0.1,0.2v0.1l0.1,0.1
		h0.2l0.1-0.2L162.8,214.1L162.8,214.1z M163,260.6l-0.1,0.5l-0.2,0.4v0.2l0.3,0.1l3.1,0.2l2.2,0.1h7.3l2-0.2l1.8-0.3l1.6-0.5
		l1.8-0.9l1.5-1.1l1.4-1.3l1.2-1.3l1.1-1.5l0.9-1.7l0.7-1.7l1-3.6l0.3-1.9l0.2-1.8l0.1-1.9l-0.1-1.9l-0.3-1.7l-0.4-1.7l-0.5-1.7
		l-0.6-1.7l-0.7-1.7l-0.8-1.5l-1.1-1.4l-1.2-1.3l-1.4-1.1l-1.6-1l-1.7-0.8l-1.6-0.4l-1.8-0.2l-1.9-0.1h-1.9l-3.2-0.1l-2.1-0.1
		l-2.2,0.1l-3.1,0.4l-0.3,0.1l0.2,0.2l0.3,0.4l0.1,0.5v3.5l-0.1,1.4v2.1l-0.1,2.1l-0.4,2.8l-0.1,2.1l0.1,2l0.1,2.9v9l0.1,2.1
		l0.1,2.8V260.6z M163.3,213l-0.1-0.1H163l-0.1,0.2v0.2l0.1,0.1l0.2-0.1v-0.1L163.3,213z M163.2,267.9h0.3l0.4-0.2h-0.4L163.2,267.9
		z M163.9,274.8l0.3,0.6l0.1,0.6v0.5l0.5,0.1l0.4-0.4V276l-0.3-1L163.9,274.8z M167.2,212l-0.6,0.1l-0.7-0.1l-0.2-0.3l-0.1-0.4
		l0.4-0.2v-0.4l-0.1-0.2l-0.3,0.1h-0.5l-0.5-0.2h-0.3v0.6l0.3,0.2l-0.1,0.8l0.8,0.1h0.6l0.6,0.2h1.3l0.5-0.4h-0.6L167.2,212z
		 M165.1,243.1l0.1,1.4v9.1l0.1,3.4l0.1,2.6h0.9l2,0.1v-9.6l-0.1-2.9l-0.1-2l0.1-2.1l0.4-2.8l0.1-2.1l0.1-4.9v-2.1l-0.1-0.5
		l-0.3-0.4l-0.2-0.2l0.3-0.1l3.1-0.4l2.2-0.1l2.1,0.1l3.2,0.1h1.9l1.9,0.1l1.3,0.2l-0.4-0.4l-1.1-0.9l-1.3-0.9l-1.4-0.6l-1.3-0.3
		l-1.5-0.2l-1.7-0.1h-2l-3.1-0.1l-2.1-0.1l-2,0.1l-0.6,0.1v2.7l-0.1,1.4l-0.1,2v2.4l-0.4,2.7L165.1,243.1L165.1,243.1z M165.6,213
		l-0.1-0.1l-0.3,0.2v0.7l0.3,0.1l0.2-0.2l-0.1-0.4L165.6,213L165.6,213z M169,215.2l0.3-0.4l-0.2,0.1l-0.3,0.1l-0.2-0.2h-0.3v0.2
		L169,215.2z M169.6,276.7l-0.5-0.1l-0.4,0.5l0.3-0.1l0.4-0.1l0.3,0.2h0.3v-0.3L169.6,276.7z M171.2,214.4l0.4,0.2l0.3,0.3l0.1-0.7
		l-0.6-0.1l-0.3-0.1l-0.3,0.1v0.3C170.8,214.4,171.2,214.4,171.2,214.4z M171.3,215.7L171.3,215.7L171.3,215.7v-0.4H171v0.3
		L171.3,215.7z M171.4,273.6l-0.4,0.1l0.2,0.4l0.2,0.2l0.5,0.1l0.2-0.3l-0.2-0.4L171.4,273.6z M172.1,211.9v-0.4l-0.1-0.2h-0.3
		L172.1,211.9z M175.6,209.6l-0.2,0.4v0.3l0.1,0.2l0.3,0.1h0.2l0.2-0.4L175.6,209.6z M177,214.4l-0.2,0.7l-0.1,0.6l0.1,0.1l0.6-0.6
		L177,214.4z M177.3,268.2l-0.2,0.1v0.1l0.5,0.1l0.7-0.2l-0.6-0.2L177.3,268.2z M178.3,210.8l-0.2,0.1L178,211l0.5,0.3l0.1-0.3
		L178.3,210.8z M182,214.3l-0.1-0.1v-0.1l0.2-0.4l-0.5-0.5l-0.6,0.1l-0.1,0.2l0.3,0.2l0.4,0.1h-0.5l-0.1,0.1l-0.1-0.1h-0.4l-0.4-0.1
		l-0.3-0.3v-0.2h-0.1l-0.2,0.1v0.2l-0.2,0.3l-0.1,0.3l0.3,0.1l0.4-0.2l0.6,0.2l0.2,0.1l0.3,0.5h0.2l0.1,0.1v0.1l0.1,0.1l0.1,0.2
		l0.2,0.5l0.1,0.2l0.2,0.2l0.2-0.1v-0.2L182,214.3z M180.6,267.1l-0.3-0.1l-0.2,0.2l0.1,0.2l0.1,0.1l0.2,0.1l0.2-0.1v-0.2
		L180.6,267.1z M180.7,218.7l0.2-0.2l-0.3-0.2l-0.1,0.4v0.6l0.5,0.3l-0.2-0.5L180.7,218.7z M181.5,272h-0.2l-0.1,0.1v0.2l0.3,0.2
		h0.3l0.1-0.2l-0.1-0.2L181.5,272z M183.3,267.3h-0.2l-0.3,0.1h-0.4v0.1l-0.1,0.2h0.2v0.1l0.2,0.1h0.2l0.3-0.1l0.2,0.1l0.1,0.1v0.1
		h0.5l-0.5-0.9L183.3,267.3z M182.6,269.7l-0.2,0.1l-0.1,0.2l0.1,0.1h0.2l0.1-0.1h0.1l0.1-0.2l-0.1-0.1H182.6z M182.5,265.7
		L182.5,265.7h0.2v-0.2l-0.1-0.2l-0.1-0.1V265.7z M185.1,268.5l0.8-0.2l0.3-0.5l-0.6-1l0.1-0.4V266l-0.1-0.5l-0.5-0.2l-0.3,0.2v0.3
		l0.2,0.8l0.2,0.7l0.4,0.4l-0.4,0.3L185.1,268.5z M185.1,217.5l0.1,0.3l0.2,0.2v0.1l0.2-0.1h0.2l0.3,0.3v0.1l-0.2,0.3l-0.3,0.3
		l0.2,0.8l0.4,0.1l0.1-0.2l-0.1-0.3l0.1-0.2h0.3l0.4,0.2l0.4,0.1l0.3,0.2l0.3-0.2l0.4,0.2l0.3,0.1l0.4-0.7l0.1-0.7l-0.5,0.2
		l-0.3,0.3l-0.3,0.2h-1l-0.3-0.2l-0.3-0.7l-0.5-0.5l-0.2-0.5l0.1-0.3h-0.5l-0.3,0.2l-0.2,0.2h0.1L185.1,217.5z M185.9,269.6
		l-0.4,0.2v0.3l0.3,0.2l0.8-0.2l0.1-0.3l-0.3-0.2H185.9z M185.9,215.2L185.9,215.2l0.2,0.1l0.2,0.1l0.3-0.2l0.4-0.2l0.7,0.8l0.2,0.1
		l0.3-0.1l0.6-0.1l0.4-0.5h-0.4l-0.3,0.2l-0.4-0.1H188l-0.1-0.2l-0.6-0.6l-0.2-0.3l-0.4-0.3h-0.1l-0.2-0.2v0.4l0.2,0.3l-0.3,0.2
		l-0.2,0.2H186l-0.1,0.2V215.2z M187.8,264.8l0.4,0.3l0.1-0.9l0.5-0.8h0.3l0.1-0.3l-0.2-0.2l-0.4,0.3h-0.4l-0.4,0.3l-0.3-0.3
		l-0.6,0.1l-0.4,0.4v0.3l0.1,0.1l0.2,0.1h0.2v-0.1l0.3,0.2l0.2,0.3L187.8,264.8z M187,265.1h-0.2l-0.1,0.1v0.2l-0.1,0.1l0.2,0.2h0.1
		l0.1-0.1h0.1v-0.1l-0.1-0.2V265.1z M198.8,266h-0.5l-0.5,0.1l-0.3,0.1h-0.1l-0.6,0.3v-0.9l-0.1-0.1v-0.1l-0.3-0.6l-0.1,0.2
		l-0.2,0.2l-0.3,0.4l-0.1,0.9l-0.2,0.6l-0.4,0.5l-0.1-1v-1l0.5-0.7l0.2-0.3l0.2-0.4l0.1-0.3l0.1-0.4h-0.3l-0.3-0.1l-0.1-0.1
		l-0.6-0.8l-0.6,0.2H194l-0.2,0.1h-0.2l-0.8,0.4v0.9l-0.4,0.8l-0.1,0.1l-0.2,0.1v-0.3l-0.1-0.2v-0.1l-0.1-0.6v-0.4l-0.5-0.1
		l-0.3-0.3l-0.5-0.1l-0.5-0.7l-0.2-0.9l0.2-0.3v-0.3l0.4-0.4l0.5-0.3h0.5v0.5l0.2,0.3h0.3l0.2-0.1v-0.2l-0.2-0.4l-0.1-0.1V260h-0.1
		l0.6-0.1l0.3-0.2l-0.2-0.2v-0.4l-0.3-0.2v-0.4l-0.4-0.1l-0.3,0.2v0.3l-0.2,0.2l-1.4,1.5l-0.6,0.2l-0.6,0.7l-0.4,0.1h-0.9l0.2,0.6
		h0.8l1,0.2h0.1l0.1,0.1h0.2l0.1,0.1l0.6,0.8l0.1,0.2l0.2,0.2h-0.1l-0.1,0.6l0.2,0.2l0.2,0.3h-0.1l-0.1,0.1l0.3,1l0.8,0.4l0.6-0.2
		h0.1l0.1-0.3l0.2-0.3h0.2l0.6,0.3l0.7,1v0.1h-0.1l-0.7,0.7h-0.3l-0.2-0.1l-0.1-0.2l0.2-0.3l-0.3-0.3l-0.6,0.6v0.1l-0.3,0.4
		l-0.3,0.5l-0.1,0.3l-0.4,0.6l-0.2,0.2v0.2l-0.3,0.1l-0.2,0.1v-0.4l-0.7-0.6l-0.3-0.1l-0.1-0.1h-0.1v-0.3l0.1-0.3l0.5-1l-0.2-0.9
		l-0.8,0.4h-0.7l-0.5,0.3v0.1l-0.1,0.2l-0.2,0.2l0.2,0.2l0.1,0.3h0.7l0.1-0.2v-0.2l0.5-0.1l0.1,0.4L189,268l-0.2,0.3v0.1l-0.1,0.1
		v0.6l0.1,0.2l0.3,0.2l0.3,0.1v0.4l-0.1,0.4l0.6,0.4l0.3-0.1l0.2-0.1l0.4-0.1l-0.2,0.2v0.1l-0.1,0.1l-0.2,0.4h0.4l0.1-0.1l0.2-0.4
		v-0.4l0.4-0.2l1.2-0.4l0.4-0.3l0.3-0.1l0.2-0.2l0.4-0.2l0.2,0.1h0.7l0.6-0.2l0.4-0.2v-0.1h0.1l0.6-0.5l0.2,0.3h0.3l0.3-0.6
		l-0.2-0.5l0.1-0.1v-0.1l0.3-0.2l0.2-0.2h0.2l0.3-0.1l0.7-0.5L198.8,266z M191.3,267.7l0.4-0.2l-0.1-0.4l-0.1-0.1h-0.3l-0.3,0.3
		l-0.1,0.4l0.2,0.2L191.3,267.7z M191.4,225.7l0.2-0.1l-0.1-0.2l-0.2,0.1l-0.1,0.3L191.4,225.7L191.4,225.7z M192.3,221.2
		L192.3,221.2l0.3,0.4h0.5l0.1-0.1l-0.2-0.3l-0.3-0.1l-0.1-0.1h-0.1l-0.2-0.3H192v0.3L192.3,221.2z M192.7,222.7l0.1-0.2l-0.1-0.2
		l-0.3-0.2l-0.2,0.1l-0.1,0.3l0.2,0.3l0.2,0.1L192.7,222.7z M192.5,226h0.2l0.2-0.2v-0.1h-0.1l-0.1-0.1l-0.2,0.1L192.5,226
		L192.5,226z M193.1,257l-0.1,0.1v1.1l0.1,0.7l0.3,0.3l0.3-0.3l0.5-0.2l0.3-0.6V258l-0.1-0.1v-0.1l-0.4-0.2l-0.3-0.1l-0.4-0.4
		L193.1,257L193.1,257z M193.4,261.4L193.4,261.4l-0.4,0.1v0.1l-0.1,0.1l0.2,0.2l0.1,0.2l0.2-0.1h0.1l0.1-0.2v-0.2L193.4,261.4z
		 M194.5,260.6l0.2-0.2v-0.1l-0.2-0.3h-0.6l-0.2-0.1l-0.1-0.3l-0.5,0.1v0.5l0.4,0.1v0.1l0.1,0.1l0.4,0.3L194.5,260.6z M193.4,257.2
		L193.4,257.2L193.4,257.2l0.2-0.2l0.3,0.1l0.4,0.1h0.3l0.3-0.1l-0.3-0.7l-0.4-0.7l-0.3,0.3l-0.2,0.4l-0.4,0.5l0.1,0.2L193.4,257.2
		L193.4,257.2z M195,260.3l0.4,0.7h0.1l0.2-0.2v-0.6l-0.3-0.6l0.2-0.5v-0.3l0.1-0.3v-0.2l-0.1-0.1h-0.2l-0.2-0.1H195l-0.2,0.1
		l0.1,0.1v0.3l0.2,0.1l0.2,0.3l-0.2,0.4L195,260.3z M195.6,255l-0.1-0.2h-0.2l-0.2,0.6L195,256l0.4-0.4L195.6,255z M195.6,253.5
		l0.4,0.1l0.1-0.5l-0.4-0.3l-0.3,0.3v0.3L195.6,253.5z M195.9,256.9l0.1-0.2l-0.1-0.3l-0.2,0.1l-0.1,0.2l-0.1,0.3l0.1,0.3l0.2-0.1
		L195.9,256.9z M196,227.1l0.5,0.3l0.4-0.4l-0.3-0.5l-0.8-0.3l0.1,0.5L196,227.1z M200.7,259.9v0.1h-0.1l-0.3,0.8l-0.1,0.2l-0.6,0.5
		h-0.1l-1.3,0.3l-0.4-0.3l-0.2-0.9L197,260l0.3-0.8l-0.2-0.4l-0.2,0.2h-0.3l-0.3,0.2l-0.4,0.3l0.2,0.7l0.1,0.5l0.5-0.2l0.3,0.4
		l-0.4,0.6l-0.4,0.5v0.6l0.1,0.3v0.3h0.5l0.1-0.2l0.1-0.1v-0.4l0.1-0.4l0.4-0.1l0.5,0.3h0.5l0.4,0.3l0.5-0.4l0.8,0.2l0.3-0.5
		l0.5-0.8l0.1-0.2v-0.3l0.1-0.4V260l0.1-0.6l-0.4,0.3L200.7,259.9z M197,251.6l-0.1-0.3l-0.5-0.1l-0.4,0.4l0.4,0.4l0.5-0.2
		L197,251.6z M197.5,252.5l-0.4,0.5l-0.3,0.4v0.4l-0.2,0.4l-0.1,0.1v0.2h-0.2l0.1,0.1v0.3l0.1,0.6l0.2-0.5l0.2-0.2v-0.2l0.1-0.3
		v-0.4l0.4-0.6L197.5,252.5z M196.6,230.1l-0.2,0.1v0.3l0.2,0.2h0.1l0.2,0.2h0.2l0.1-0.2v-0.2l-0.1-0.1l-0.3-0.2L196.6,230.1z
		 M196.6,258.1l-0.2,0.4h0.2l0.1,0.1l0.2-0.2l0.2-0.1v-0.2L197,258L196.6,258.1z M197.7,263.5v-0.2h-0.3v0.1l-0.2,0.1l-0.2,0.6
		l0.3-0.2L197.7,263.5z M197.9,227.8h-0.6v0.4l0.3-0.1L197.9,227.8z M198.3,255.7l-0.4,0.2l-0.4,0.3l0.8,0.1l0.3-1.1v-0.6l-0.4,0.4
		L198.3,255.7z M198.2,224.3l0.3,0.3l0.2,0.3l0.1-0.3l0.2-0.4l0.1-0.3l-0.3-0.3l-0.6-0.1l-0.5,0.3l0.1,0.4L198.2,224.3z
		 M199.5,257.1v-0.8l-0.6-0.1l-0.2,0.6l-0.3,0.7l-0.6,0.6h1L199.5,257.1z M198,252.8l0.4,0.3l0.6,0.7l0.8,0.8l-0.1-1.5l-0.5-1.1
		l-0.5-0.3l-0.6,0.5L198,252.8z M198.5,236.9l-0.2,0.2l0.2,0.4l0.5,0.2l0.1-0.4l-0.2-0.3L198.5,236.9z M198.3,250.6v0.3l0.2,0.1h0.1
		l0.1-0.1v-0.2l-0.1-0.1l-0.2-0.1L198.3,250.6z M199.4,248.2l-0.1-0.3h-0.2l-0.2,0.5l-0.4,0.9l0.7-0.5L199.4,248.2z M198.7,260.6
		l0.5-0.1h0.6l0.2-0.4l0.1-0.3v-0.1h0.1l0.3-0.6v-0.7l-0.6,0.2l-0.8,0.6v0.1H199v0.1l-0.1,0.1l-0.2,0.4h-0.1v0.3L198.7,260.6z
		 M199.1,246.5v0.2l0.2,0.2l0.2-0.2l-0.1-0.2l-0.1-0.3l-0.1,0.1L199.1,246.5z M199.6,226.7l0.2-0.2l0.2-0.1l0.1-0.1l-0.3-0.3
		l-0.4,0.1l-0.2,0.4l0.2,0.3L199.6,226.7z M199.2,231.8h0.7l-0.4-0.5L199.2,231.8z M199.3,234.2L199.3,234.2l0.1,0.4l0.3,0.2v-0.4
		l-0.2-0.2H199.3z M200.3,224.4l-0.2-0.5l-0.3-0.4l-0.3,0.2l-0.1,0.3l0.3,0.3L200.3,224.4z M199.9,251.3L199.9,251.3l-0.3,0.1
		l0.1,0.2l0.1,0.1h0.1l0.1-0.1v-0.1L199.9,251.3z M199.8,256.1l-0.1,0.3l0.1,0.3l0.2,1.2h0.1l0.1-0.1l0.1-0.7l0.1-0.6l0.1-0.2V256
		l-0.2-0.1h-0.2L199.8,256.1z M200.7,254.2l0.2-0.4v-0.3l-0.1-0.5l-0.3,0.2l-0.3,0.5v0.3l0.2,0.3L200.7,254.2z M200.5,229.2v0.5
		l0.6,0.4v-0.4l0.2-0.4l-0.1-0.4l-0.3-0.3h-0.3l-0.2,0.4L200.5,229.2z M201.5,232.2L201.5,232.2l-0.1-0.2l0.2-0.7l-0.4-0.6h-0.5
		l-0.2,0.4l-0.1,0.1l0.3,0.5l0.5,0.4l-0.1,0.5l0.2,0.4h0.2l0.1-0.4L201.5,232.2z M201.2,235.8l-0.2,0.1l-0.1,0.3l0.2,0.4l0.2-0.3
		v-0.4L201.2,235.8z M202,252.9l-0.4,0.4v0.4l0.3,0.1h0.2l0.1-0.3L202,252.9z M202,235.4l0.2,0.3l0.3,0.1l0.1-0.1v-0.1l-0.2-0.2H202
		z M203.8,232.8l-0.1-0.3l-0.2-0.1l-0.3,0.1l-0.6,0.1l-0.3,0.2l0.4,0.3l0.7-0.1L203.8,232.8z M203.6,238.7L203.6,238.7l-0.3-0.1
		l-0.1,0.1v0.2h0.1l0.1,0.1l0.2-0.1V238.7z M203.7,239.7l-0.1,0.2v0.3l0.2,0.1l0.1-0.2v-0.2L203.7,239.7z M206,238.5L206,238.5
		l-0.3,0.2l0.1,0.2h0.1l0.2-0.1v-0.2L206,238.5z"/>
</g>
<path d="M107.8,190.5c0.3-0.3,0.2-0.6,5.1-0.6c4.8,0,4.4,0.3,4.7,0.6c0.3,0.3,0.7,2,0.7,2c-0.8,0-0.8,0.4-1.3,0.4
	c-0.2,0-0.5-0.4-0.8-0.4s-0.5,0.4-0.8,0.4s-0.5-0.4-0.8-0.4s-0.6,0.4-0.8,0.4c-0.3,0-0.6-0.4-0.8-0.4c-0.3,0-0.6,0.4-0.9,0.4
	s-0.6-0.4-0.9-0.4s-0.6,0.4-0.9,0.4s-0.6-0.4-0.9-0.4s-0.6,0.4-0.9,0.4c-0.5,0-0.3-0.4-1.3-0.4C107.2,192.5,107.6,190.8,107.8,190.5
	z M125.3,278.8c-0.3-3.1,1-33.3,0.2-39.1c-1.8-12.6-8-15.9-8-36.6c0-1,0.1-1.2,0.2-1.3c0.2-0.2,0.5-0.2,0.3-1s-0.6-2-0.6-2
	s-0.1-0.5,0-0.6c0.1-0.1,0.1-0.7-0.4-0.8c-0.4-0.1-8-0.1-8.4,0c-0.5,0.2-0.5,0.7-0.4,0.8c0.1,0.1,0,0.6,0,0.6s-0.4,1.2-0.6,2
	s0.1,0.8,0.3,1c0.1,0.1,0.2,0.4,0.2,1.3c0,20.7-6.3,24-8,36.6c-0.8,5.8,0.5,36,0.2,39.1c-0.7,6.6,11.7,6.3,12.5,6.3
	S125.9,285.3,125.3,278.8z"/>
<path d="M148.2-1.8c0,0.3,0.2,0.5,0.3,0.8c0.6,1,1.4,1.9,1.8,3c0.2,0.5-0.1,1.2-0.2,2.1c0,0.6,0,1.5,0,2.5c0,0,0.2,0,0.4,0
	c0,0.3-0.1,0.6-0.1,1c0.8,0.3,1.6,0.6,2.4,0.9c0-0.1,0.1-0.1,0.1-0.2c0.1,0.4,0.1,0.7,0.3,1.2c-0.9-0.2-1.6-0.5-2.4-0.6
	c-0.5-0.1-1-0.2-1.5-0.2c-0.3,0-0.5,0.4-0.7,0.6c0.1,0.1,0.1,0.1,0.2,0.2c0.3,0,0.6,0,0.7,0c0,1,0,1.9,0,2.8c0.1,0,0.2,0,0.3,0
	c0.2-0.6,0.4-1.2,0.7-2.1c0.1,0,0.5-0.2,0.8-0.4c0.1,0.5,0.2,0.8,0.3,1.2c-1.4,0.8-1.6,1.3-0.8,2.8c0.3,0.6,0.6,1.1,0.8,1.7
	c0.1,0.3,0.1,0.6,0.1,1c-0.1,0-0.2,0.1-0.3,0.1c-0.2-0.2-0.4-0.5-0.6-0.7c-0.1-0.1-0.4-0.1-0.6-0.2c0,0.2,0,0.3,0.1,0.5
	c0.1,0.3,0.2,0.5,0.3,0.8c0.7,0.3,1.8-0.1,2.2,1.1c-0.5-0.1-0.8-0.2-1.3-0.4c0,0.4,0,0.7,0,1c0.6,0.3,1.7-0.3,1.9,0.8
	c0.1,0.4,0.2,0.8,0.2,1.2c-0.1,0.8-0.2,1.6-0.4,2.6c-0.7-0.1-1.4-0.2-2.3-0.2c-0.1,0.7,0.2,0.9,0.8,0.8c0.5-0.1,1-0.1,1,0.6
	c-0.1,0-0.2-0.1-0.3-0.1c-0.2,0.6-0.5,1.1-0.7,1.7c-0.2,0.8-0.4,1.6-0.6,2.5c-0.1,0-0.2,0-0.3,0c-0.1-0.2-0.2-0.4-0.2-0.6
	c-0.5,0.1-0.9,0.2-1.3,0.3c0,0.1,0,0.2,0,0.2c0.4,0,0.7,0,0.9,0c-0.1,0.5-0.1,1.1-0.2,1.6c0.1,0,0.2,0,0.3,0.1
	c0.1-0.4,0.2-0.7,0.3-1.1c0.1,0.1,0.3,0.1,0.4,0.2c-0.2,1.2-0.4,2.4-0.6,3.5c1,0.3,1.8,0.6,2.8,0.9c-0.1,0.7-0.3,1.4-0.4,2.2
	c-0.4,0-0.7,0-1.1,0c0.1,1,0.2,2,0.3,3.1c1.1-1-0.1-2.5,1.4-3.2c-0.1,1.3-0.2,2.5-0.4,3.7c0.3,0,0.6-0.1,1.1-0.1
	c-0.5,0.9-0.9,1.7-1.4,2.5c-0.1,0.3-0.2,0.5-0.3,0.8c-0.3,0.8-0.7,1.6,0.1,2.4c0.7,0.8,0.2,3.1-0.6,4.1c0-0.5,0.2-1,0-1.3
	c-0.1-0.3-0.5-0.5-1-0.9c-0.1,1.3-0.2,2.4-0.3,3.4c-0.1,0-0.2,0-0.3,0c-0.1-0.5-0.2-1-0.4-1.5c-0.1-0.2-0.3-0.4-0.5-0.6l-0.4,0.2
	c0,0.2,0.1,0.5,0.2,0.7c0.1,0.3,0.3,0.7,0.2,0.8c-0.5,0.6-0.8,1.4-1.9,1.3c0.1,0.3,0.2,0.5,0.3,0.8c-1.5,1.1-2.4,2.5-2.3,4.3
	c0,0.1,0,0.2-0.1,0.4c-0.3,0.7-0.6,1.3-0.9,2c-0.2,0.3-0.5,0.6-0.9,1c0.2,0.8-0.1,1.3-1.3,1.8c-0.3,0.1-0.6,0.5-0.8,0.8
	c-0.3,0.5-0.7,0.8-1.4,0.4c0,1.4-1.1,1.4-2,1.5c-0.1,0.5-0.3,1-0.4,1.4c0.3,0,0.6,0.1,1.1,0.1c-0.2,0.4-0.5,0.7-0.6,1
	c-0.2,0.4-0.6,1-0.5,1.2c0.3,0.5,0.8,0.3,1.3-0.1c0.2-0.2,0.7-0.3,1-0.3c0.7-0.2,1.4-0.3,2.1-0.4c-0.6,0.3-1.2,0.7-1.8,1
	c-2,0.9-4,2.1-6.1,2.6c-1.3,0.3-2.2,0.8-3.3,1.3c-0.8,0.3-1.8,0.3-2.6,0.4c-0.2,0-0.4,0.3-0.6,0.5c1-0.1,1.8-0.1,2.8-0.2
	c-0.2,0.8-0.4,1.4-0.6,2.1c-0.9-1-1.8-0.9-2.8-0.6c-0.5,0.1-1.1,0-1.7,0c-0.6,0-1.2,0-1.7,0c0,0.1,0,0.2,0,0.3
	c0.8,0.1,1.6,0.2,2.4,0.4c0,0.1,0,0.3-0.1,0.4c-0.6-0.1-1.3-0.2-1.8-0.3c-0.1,0.4-0.1,0.8-0.2,1.2c0.3,0.3,0.7,0.7,1.1,1.1
	c-1.4,0.2-1.7,0-2.7-1.8c-0.6,0.8-1.2,1.5-1.6,2.2c0.6,0.3,1.1,0.5,1.9,0.8c-0.7,0.3-1.2,0.5-1.8,0.7c-0.3-0.8-1-0.7-1.7-0.5
	c-0.5,0.2-0.9,0.3-1.4-0.2c-1.2-1.1-1.9-0.8-2.5,0.9c-0.5-0.2-1.1-0.5-1.6-0.7c0,0.4,0,0.7,0.1,0.9c-0.7,0-1.3,0.1-2.1,0.1
	c0,0-0.2-0.2-0.4-0.4c-1.9,0.9-3.3,1-5.5,0.1c0.4-0.2,0.7-0.5,0.9-0.6c-0.3-0.4-0.4-0.6-0.7-0.8c-0.3-0.2-0.6-0.2-0.9-0.3
	c-0.1,0.3-0.3,0.6-0.2,0.7c0.2,0.2,0.5,0.3,1,0.5c0,0,0,0.2-0.1,0.6c-0.9-0.4-1.7-0.8-2.4-1.2c-0.1,0.1-0.2,0.1-0.2,0.2
	c0.2,0.4,0.4,0.7,0.6,1.2c-1,0.2-1.6-0.2-2-1c-0.4-0.9-1-1.7-2.2-2.3c0.3,0.9,0.5,1.6,0.8,2.3c-0.9-1.2-1.8-2.3-3.5-2.8
	c0,0.7-0.5,0.6-1,0.4c-0.1,0.5-0.2,0.8-0.3,1.4c-0.8-0.4-1.4-0.8-2.1-1.1c-0.4-0.2-0.8-0.3-1.2-0.5c-0.1,0.1-0.2,0.2-0.3,0.2
	c0-0.3,0-0.6-0.1-1c-0.7,0.2-1.3,0.5-1.9,0.6c-0.3-0.4-0.5-0.8-0.9-1.2c0,0,0.1-0.2,0.4-0.4c-0.8,0-1.5,0-2.4,0.1
	c0.2-0.5,0.3-0.8,0.4-1.1c-0.7-1.3-2-0.5-2.9-0.5c-0.6-0.4,0.3-1.6-0.9-1.5c-0.2,1.3-0.5,2.6-0.7,3.9c-0.5-0.2-0.9-0.3-1.4-0.4
	c-0.3-0.1-0.6,0-0.9,0.1c-0.3,0.1-0.6,0.2-0.8,0.3c-0.1-0.3-0.1-0.7-0.2-1c1.8,0.4,2.7-0.1,3.3-1.7c-0.3-0.3-0.7-0.5-1.1-0.8
	c-0.1,0.4-0.2,0.8-0.3,1.1c-0.1,0.1-0.2,0.4-0.3,0.4s-0.4-0.1-0.4-0.2c-0.1-0.2-0.1-0.4,0-0.6c0.3-0.7,0.7-1.3,0.9-2s-0.4-1-1.2-1.1
	c-0.1,0.5-0.2,1.1-0.3,1.6c-0.3-0.6-0.6-1.2-1-1.8c0.9-0.2,2.3,0.1,2-1.4c-0.7-0.3-1.4-0.6-1.9-0.9c-0.5,0.7-0.9,1.4-1.3,2.1
	c-0.1,0-0.2-0.1-0.3-0.1c0.1-1.3,0.3-2.6,0.5-4c1.5,0.5,1.5,0.5,1.8-0.3c-0.5-0.2-1.6,0.2-1.5-0.8c0-0.2,0.8-0.4,1.4-0.7
	c-0.3-0.4-0.7-0.7-1.4-0.3c-0.6,0.4-1.1,0.8-1.7,1.1c-0.3,0.2-0.7,0.2-1.2,0.4c0.7-1.4,3-1.2,3-3.1c-0.6,0.2-0.9,0.5-1.3,0.6
	c-0.3,0.1-0.7,0-1,0c-0.8-0.1-1.6-0.1-2.4-0.2c0.1-0.2,0.1-0.5,0.2-0.8c-0.5,0-1,0-1.6-0.1c0.3-1,0.8-1.2,1.7-0.6
	c0.1-0.4,0.2-0.8,0.3-1.1c0.1,0,0.2,0,0.2,0c0.1,0.4,0.1,0.7,0.2,1.1c0.1,0.5,0.4,1,1,0.8c1.2-0.3,2.3-0.8,3.4-1.2
	c0.8-0.3,0.9-1,0.6-1.7c-0.7,0.1-1.5-0.4-2.1,0.7c-0.2,0.3-1.1,0.5-1.6,0.5c-0.2,0-0.5-0.6-0.7-0.9c-0.2-0.3-0.3-0.6-0.6-1.1
	c-0.2,0.7-0.1,1.4-1,0.9c-0.2-0.1-0.6,0.1-0.9,0.2c-0.4-1.4-2,0.2-2.6-0.9c1.6-0.1,3.2-0.2,4.6-0.4c0.5-0.7,0.9-1,1.4-1.5
	c0-0.7-0.7-0.7-1.4-0.8c-0.7,0-1.4-0.1-2.3-0.2c-0.7,0.5-1.1,0.6-1.7,0c0.7-0.3,1.4-0.5,2.2-0.8c0-0.1,0-0.2-0.1-0.3
	c0.3,0.1,0.6,0.2,1,0.3c-0.7-0.8,0-1.1,0.4-1.6c0.5-0.5,0.5-0.5,0.1-1c-0.6,0.6-1.3,1.2-1.9,1.7c-0.1,0-0.1-0.1-0.2-0.1
	c0.3-1,0.6-2,0.9-3c-0.2,0-0.4,0-0.7,0c0.2-1,2.3-0.2,2.1-1.7c-0.3,0-0.6,0-1,0.1c0-0.3,0-0.6-0.1-0.9c0.3,0,0.6-0.1,1-0.1
	c-0.2-0.2-0.3-0.4-0.5-0.6c0.3-0.2,0.6-0.5,0.9-0.7c0.6,0.3,1.1,0.8,1.8,0.2c-1-0.6-2-1.2-3.1-1.7c-0.1-1,1.8-1.3,1.2-2.6
	c-0.2,0-0.5,0-0.7,0.1c0-0.1-0.1-0.1-0.1-0.2c0.4-0.3,0.9-0.6,1.4-1c-0.6-1.1,0.2-1.8,0.8-2.7c-0.6,0.3-1.1,0.6-1.8,1
	c0.2-0.9,0.3-1.5,0.5-2.3c0.3,0,0.8,0,1.2-0.1c0.2,0,0.5-0.2,0.6-0.4c0.1-0.1-0.1-0.4-0.2-0.4c-0.2-0.1-0.5-0.1-0.7,0
	c-0.3,0.1-0.5,0.2-0.7,0.3c-0.4-0.8-0.8-1.5-1.2-2.2c-0.1,0-0.2,0.1-0.3,0.1c0,0.2,0,0.5,0,0.9c-0.5-0.2-1-0.3-1.5-0.5
	c0.1,1.5,0.2,2.9,0.3,4.4c2,0.6,0.3,2.3,1.1,3.3c-0.9,0.6-2.4,0.5-2.4,1.9c-0.2-0.6-0.4-1.2-0.5-1.8c0-0.2,0.2-0.5,0.4-0.7
	c0.1-0.1,0.5,0.1,0.7,0.2c0.2,0.1,0.3,0.3,0.5,0.4c0.5-0.6,0.5-1.9-0.1-2.4c-0.6-0.3-0.4-0.7-0.4-1.1c0-0.5,0.2-1.2-0.7-1.2
	c0.2-1.6,0.4-3.2,0.6-4.8c0.1-0.6,0.3-0.8,1-0.8c0.9,0,1.8-0.1,2.9-0.2c-0.2,0.5-0.4,1-0.6,1.6c0.3,0,0.6,0.1,1,0.1
	c0,0.4,0.1,0.7,0.1,1.2c0.3,0,0.6,0.1,1.1,0.1c0.1-1.1,0.1-2.1,0.2-3.2c-0.4,0-0.9,0-1.4-0.1c0-0.1,0-0.1,0-0.2
	c0.3-0.1,0.5-0.2,0.8-0.3c0.8-0.3,1.5-0.7,1-1.7c-0.3-0.6,0.3-1.4-0.6-1.9c-0.1,0,0.1-0.5,0.2-0.7c0.1-0.4,0.3-0.9,0.5-1.4
	c-0.4,0.1-0.6,0.1-1,0.1c0-0.2,0-0.4,0.1-0.5c1.2-1.7,2.4-3.4,3.6-5.1C81,19.3,81,19,81,18.8c-0.3-0.6-0.2-1.1,0.4-1.5
	c0.7-0.5,1-1,0.3-1.7c-0.1-0.1-0.2-0.3-0.2-0.5s0.1-0.4,0.2-0.7c0.2,0.1,0.4,0.2,0.8,0.4c0-0.7,0-1.4-0.1-2.2
	c0.3,0.3,0.6,0.5,0.9,0.7c0.1,0,0.1-0.1,0.2-0.1c-0.2-0.3-0.4-0.5-0.7-1c1.1-0.1,2-0.2,3-0.3c-0.2-0.9-0.6-1-2.3-0.9
	c-0.3-0.4-0.5-0.9-0.8-1.1c-1.1-0.6-1.8-1.4-1-2.7c0.8,0.3,0.9,1,1.1,1.7c0.1,0.4,0.4,0.7,0.7,1l0.3-0.1c0-0.2-0.1-0.3-0.2-0.6
	c0.9,0,1.7-0.1,2.5-0.1c0.3-0.6,0.6-1.3,1-2c0.8,0.7,1.9,0.6,2.5-0.2c-0.4-0.1-0.7-0.2-1-0.3c0-0.1,0-0.2,0-0.3c0.6,0,1.3,0,1.9,0
	c0.1,0,0.2,0.4,0.3,0.8c1.2-0.2,2.4-0.4,3.8-0.6c0.1,0.9,1,0.5,1.5,0.6c0.9,0.2,1.8,0.2,2.7,0.4c0.3-0.5,0.9-1,0.9-1.4
	c0-0.5-0.6-0.9-1.2-1.6c1.4,0,2.6,0,3.7,0.1c0.2,0,0.4,0.2,0.4,0.3c0.3,0.8,0.5,1.6,0.7,2.4c-0.1,0-0.2,0.1-0.2,0.1
	c-0.2-0.2-0.3-0.3-0.5-0.5c-0.3,0.3-0.5,0.7-0.9,1.1c0.4,0,0.7-0.1,1.1-0.1c-0.1,0.6-0.1,0.6-0.6,0.6c-0.4,0-0.8,0-1.2,0
	c0,0.1,0.1,0.2,0.1,0.3c-0.3,0.2-0.6,0.5-0.9,0.6c-0.6,0.2-0.8,0.3-0.7,0.9c0.1,0.7,0.1,1.4,0.2,2.3c0.4-0.3,0.7-0.4,1.2-0.7
	c0,0.4,0,0.8-0.1,0.8c-0.8,0.4-0.3,0.8-0.1,1.3c1.5-0.7,2.5,0.5,4,0.7c-1,0.9-1.5-0.4-2.5-0.1c-0.1,0.9-0.2,1.9-0.3,3
	c0.1,0,0.2,0,0.3,0.1c0.2-0.5,0.4-1,0.5-1.4c0.1-0.8,0.5-1,1.3-0.8c0.5,0.1,1.1,0.3,1.6,0.3c0.7,0.1,1.5,0.1,2.3,0
	c0.7-0.2,1.2,0,1.5,0.6c0.3,0.5,0.6,0.9,1.1,0.1c0.1-0.2,0.5-0.2,0.9-0.3c-0.1,0.4-0.2,0.7-0.3,0.9c1.5,0.1,1.2,2.4,3,2.1
	c-0.1,0.9-0.1,1.6-0.2,2.6c0.6-0.6,1-1.1,1.4-1.5c0.4,0.8,0.7,1.5,1,2.1c0.9,0.4,2.2-0.6,2.9,0.6c0.3-0.2,0.6-0.5,1.1-0.9
	c-1.7,0.2-1.2-1.2-2-1.7c1.5-0.6,0.6,1.1,1.5,1c-0.1-0.3-0.1-0.5-0.2-0.8c0.6-0.1,1.2-0.3,1.4,0.6c0,0.2,0.3,0.4,0.4,0.4
	c0.2,0,0.5-0.2,0.7-0.3c0.3-0.3,0.6-0.7,1.1-1.2c-0.3-0.3-0.7-0.6-1.1-0.9c0.1-0.2,0.3-0.4,0.5-0.5c0.5,0.3,1,0.6,1.7,0.9
	c0,0.2-0.1,0.5-0.1,0.9c0.8-0.3,0.8-0.3,0.7-1.4c0.6-0.1,1.1-0.1,1.5-0.2c0.1-0.8,0.2-1.5,0.3-2.3c1.3,0.5,1.4,1.1,0.4,2.1
	c1.5-0.3,1.9-1.4,2.5-2.6c0.4,0.5,0.7,1,1.1,1.4c0.1-0.1,0.2-0.1,0.3-0.2c0.1-1.3-0.6-2.6,0.2-3.8c0.1,0,0.3-0.1,0.4-0.1
	c0.2,0.5,0.3,1,0.5,1.5c0.1,0.3,0.4,0.6,0.6,1c0.1,0,0.3-0.1,0.4-0.1c-0.1-0.9-0.2-1.8-0.3-2.6c0.9-0.6,1.9-1.3,3-2.1
	c-0.7-1-0.3-2,0.2-3.1c0.2-0.5,0.1-1.1,0-1.6c-0.2-0.9,0.6-0.7,1-0.9c0-0.6-0.1-1.3,0.1-1.7c0.2-0.4,0.9-0.6,1.4-0.8
	c-0.3-0.2-0.7-0.3-1.1-0.5c0-0.1,0-0.2,0.1-0.3c0.4-0.1,0.7-0.1,1.2-0.2c-0.1-0.2-0.1-0.4-0.2-0.8c0.5,0.3,0.9,0.5,1.3,0.7
	c0.9-1.1-0.5-2.8,1.4-3.6c-1.1,1.3,0.8,1.8,0.8,2.8c0-0.3,0.1-0.6,0.1-0.9c-0.1-0.7-0.2-1.4-0.3-2.1c-0.3-1.7-0.2-1.8,1.8-2.1
	c-0.5-0.4-0.8-0.8-1.4-1.3 M78.9,41.3c-1-0.2-1-0.3-0.8-1.1c0.2-0.6,0.4-1.1,0.6-1.7c-0.1-0.1-0.3-0.2-0.4-0.4
	c0.2,1.3-0.8,0.7-1,0.9c-0.5,1.2-0.9,2.1-1.3,3.2c0.2,0.2,0.5,0.6,0.9,1c-0.4,0.3-0.7,0.4-0.9,0.6c0.2,0.3,0.3,0.5,0.4,0.7
	c0.9,0.1,1.8,0.1,2.5,0.2c0.3-0.4,0.6-0.7,1-1.2c-0.9,0-1.6,0.1-2.7,0.2c0.3-0.8,0.6-1.4,0.9-2.1c0.1,0,0.2,0,0.3,0.1
	c0,0.2,0.1,0.4,0.1,0.6c0.1,0,0.2,0,0.3,0C78.8,42,78.8,41.6,78.9,41.3z M79.3,52.6c-0.1-0.1-0.1-0.1-0.2-0.2
	c-0.6,0.5-1.3,1-1.9,1.6c0.8,1.4,0.8,1.7-0.2,2.4c0.4,0.7,1,0.5,1.5,0.1c0.4-0.2,0.6-0.6,0.9-0.8c0-0.1-0.1-0.1-0.1-0.2
	c-0.2,0.1-0.5,0.1-0.9,0.2c0.1-0.6,0.2-1.1,0.4-1.7C78.9,53.6,79.1,53.1,79.3,52.6z M76.2,47.9c-0.1,0-0.2,0.1-0.3,0.1
	c0.1,0.2,0.2,0.6,0.3,0.6c0.5,0,1-0.1,1.3-0.3c0.4-0.3,0.7-0.7,1.1-1.1c0.2-0.2,0.5-0.4,0.8-0.6c-0.7,0-1.2-0.8-1.8-0.1
	c-0.4,0.5-0.8,1.1-1.2,1.6C76.4,48.1,76.3,48,76.2,47.9z M103.7,75.9c-0.6,0-1.1,0.1-1.5,0.1c0.1-0.6,0.1-1.1,0.2-1.8
	c-0.9,0.3-1.3,0.8-1.1,1.4c0.2,0.9,1.3,1.5,2.8,1.4C103.9,76.7,103.8,76.3,103.7,75.9z M144.1-4.7c0.4-0.1,0.9-0.2,1.4-0.3
	 M136,64.5c0.2,0.7,0.5,1.4,0.8,2.1c-0.7,0.3-1.4,0.6-2.1,0.8c0,0.1,0,0.2,0,0.3c0.7,0,1.4-0.1,2-0.1
	C137.8,66.3,137.1,65.4,136,64.5z M109.8,19.8c0.1-1-0.5-1.5-1.3-2c-0.9-0.6-1.4-0.7-1.9-0.4C107.6,18.1,108.7,18.9,109.8,19.8z
	 M110.8,22c1-0.9,1-2.6-0.1-4C110.7,19.5,110.7,20.8,110.8,22z M85.5,29.1c0.7-0.3,1.3-0.6,1.9-0.9c0-0.1-0.1-0.2-0.1-0.3
	c-0.9,0.3-1.8,0.6-2.7,0.9c-0.1,0.1-0.1,0.5-0.1,0.6c0.7,0.2,1.2,0.3,1.8,0.4l0.1-0.1C86.1,29.6,85.9,29.4,85.5,29.1z M150.1,46.8
	c0.7-0.1,1.3-0.7,1.6,0.3c1-1,0.9-1.6,0.1-1.9C151.1,45.8,150.6,46.3,150.1,46.8z M146.8,0c0.6,1,1.1,1.9,1.7,2.8
	c0.2-0.2,0.4-0.4,0.6-0.6C148.4,1.5,148.3,0.3,146.8,0z M77.2,52.6c0.1,0,0.3,0,0.4,0c0.2-0.8,0.3-1.7,0.5-2.6
	c-0.3-0.2-0.6-0.4-0.9-0.6C77.2,50.5,77.2,51.5,77.2,52.6z M94.7,26.4c-0.1,0.4-0.1,0.8-0.2,1.2c0.1,0,0.1-0.1,0.2-0.1
	c0.4,0.6,0.8,1.2,1.2,1.9c0.1-0.4,0-0.8-0.1-1.2c0-0.4,0-0.7-0.1-1C95.4,27,95.1,26.7,94.7,26.4z M79.3,33.9
	c0.2-0.8,0.3-1.4,0.4-2.3c-0.7,0.7-1.2,1.2-1.9,1.8C78.5,33.6,78.9,33.8,79.3,33.9z M112.6,26.3c1.2-0.5,1.3-1.4,0.4-2.4
	C112.8,24.6,112.7,25.4,112.6,26.3z M86.9,37.1c-0.7,0.1-1.4,0-1.5,0.9c0,0.1,0.4,0.4,0.6,0.4C86.7,38.4,87,37.9,86.9,37.1z
	 M85.8,33.8c0.4,0.3,2.5,0,2.6-0.4c-0.1-0.2-0.2-0.4-0.2-0.3C87.3,33.4,86.6,33.6,85.8,33.8z M93.4,68.9c-0.1,0.4-0.4,0.7-0.3,0.8
	c0.3,0.5,0.7,0.9,1.1,1.3c0.1-0.1,0.2-0.1,0.3-0.2C94.2,70.3,93.8,69.7,93.4,68.9z M100.4,74.5c-0.3,0-0.7,0.1-0.8,0
	c-0.7-0.6-0.9-0.5-1.2,0.4C99.4,75.1,100,75,100.4,74.5z M83.1,17.2c0.1,0.1,0.2,0.2,0.3,0.3c0.4-0.4,0.8-0.8,1.3-1.4
	c0.2,0.2,0.3,0.4,0.5,0.6c0.1-0.1,0.1-0.1,0.2-0.2c0-0.3,0-0.5,0-0.8c-0.1-0.1-0.2-0.1-0.2-0.2C84.4,16.1,83.8,16.7,83.1,17.2z
	 M134.4,68.1c-0.9,0.2-1.6,0.3-2.3,0.5C132.9,69.1,133.9,68.9,134.4,68.1z M130,19.3c0.1-0.1,0.2-0.2,0.3-0.3
	c-0.2-0.4-0.3-0.7-0.5-1.2c-0.3,0.3-0.6,0.6-0.6,0.7C129.4,18.8,129.7,19,130,19.3z M98.1,72.6c-0.4-0.8-0.8-1.3-1.1-1.8
	C96.6,71.6,96.9,72.1,98.1,72.6z M93.4,16.4c-0.2,0-0.3,0-0.5,0c0.1,0.6,0.1,1.3,0.2,1.9c0.1,0,0.2,0,0.3,0
	C93.4,17.6,93.4,17,93.4,16.4z"/>
<g>
	<path d="M91.7-38.5c4.1,1.5,8.2,3.2,12.5,4.4c1.7,0.5,3.7,0.3,5.6,0.2c3.6,0,7.2-0.4,10.8-0.2c7.7,0.5,15.3,1.7,22.7,3.6
		c0.5,0.1,1.1,0.1,1.5-0.2c3.8-2.5,7.6-5,11.4-7.5c2.6-1.8,5.3-3.4,8.4-4.2c1-0.2,2.1-0.5,2.3,0.8c0.4,2.1,1.4,4.2,0.4,6.3
		c-0.3,0.5-0.8,0.8-1.1,1.2c-0.1-0.5-0.4-1-0.4-1.4c-0.1-1.2,0-2.4,0-3.6c-0.2,0-0.3-0.1-0.5-0.1c-0.7,1.1-1.3,2.3-2,3.4
		c-0.5,0.8-1.1,1.7-1.9,2.3c-5.6,3.9-11.2,7.7-16.8,11.4c-1.3,0.9-2,2-2.4,3.4c-0.8,2.5-1.7,4.9-2.7,7.3c-1,2.3-2.9,3.4-5.3,3.6
		c-1,0.1-2.1,0.1-3.2,0.1c-4.8-0.4-9.4-1.9-13.9-3.5c-3.4-1.2-5.9-3.3-7.6-6.3c-1.4-2.5-2.6-5.1-3.9-7.7c-0.7-1.3-1.4-2.5-3.3-2.5
		c-0.1,0.6-0.2,1.2-0.3,1.8c-0.6,2-1.2,4-2,6c-0.7,1.8-2.3,2.8-4.2,2.6c-5.4-0.5-10.4-2.3-12.9-7.4c-2.4-4.7-3.9-9.6-5.7-14.3
		c-1.8-4.6,9.3-1.2,10.9-0.8c1.1,0.3-0.3-0.1,0.8,0.2 M109.7-30.8c-0.5,0.1-1.1,0.6-1.2,1.1c-0.1,0.5,0.2,1.3,0.5,1.6
		c3.2,2.5,4.3,6,4.6,9.8c0.2,1.7,0.9,2.8,2.3,3.6c5.3,2.9,10.9,4.8,17.1,4.4c2.8-0.2,4.1-1,4.8-3.7c0.6-2.6,0.9-5.3,0.9-8
		c-0.1-3.8-2.4-6.1-6-6.9c-3.8-0.9-7.7-1.5-11.6-2.1c-1.6-0.3-3.2-0.3-5.4-0.4C114-31.4,111.8-31.2,109.7-30.8z M88.3-22.5
		c2,2,4.4,2.9,7.2,2.8c1.2,0,2.1-0.5,2.2-1.8c0.3-2.5,0.8-5,0.7-7.5c0-1.3-0.9-2.8-1.8-3.7c-2.5-2.4-5.6-3.8-9-4.4
		c-1.7-0.3-3.6,0.4-5.5,0.7C83.3-31.2,84.6-26.3,88.3-22.5z"/>
</g>
</svg>
