<?xml version="1.0" encoding="utf-8"?>
<!-- Generator: Adobe Illustrator 19.1.0, SVG Export Plug-In . SVG Version: 6.00 Build 0)  -->
<svg version="1.1" id="Layer_1" xmlns="http://www.w3.org/2000/svg" xmlns:xlink="http://www.w3.org/1999/xlink" x="0px" y="0px"
	 viewBox="0 0 745 211.3" style="enable-background:new 0 0 745 211.3;" xml:space="preserve">
<style type="text/css">
	.st0{fill:#875C3C;}
</style>
<g>
	<path class="st0" d="M26.5,128.9l-2.1,0.1l-3-0.3l-1-0.1l-0.7-0.4l-0.4-0.4l-0.3-1l-0.4-2.7v-1.8l0.3-2l0.1-2.7l-0.1-2.7v-3.8
		l0.4-2.7l0.3-1l0.3-0.6l0.6-0.4l1-0.3l2.5-0.3l3.7,0.6l2.5-0.4l0.4-0.3v-0.4l-0.3-0.6l-0.1-0.7V101l-0.3-4.2l-0.1-3.1l0.3-5.2
		l0.3-2.1v-3.1l0.1-3.1l0.1-4.2l0.1-3.1l-0.1-3.1l-0.3-4.2l-0.1-3.1l0.1-3.1v-2.1l0.1-2.1l0.1-3.8l0.1-0.7V50l-0.4-0.3l-2.7-0.3
		l-3.5,0.3l-2.7-0.3l-0.8-0.1L20,49l-0.3-0.6l-0.1-0.8l-0.1-2.7l0.1-3.7v-2.7l-0.1-2.7l-0.7-3.8l0.3-2.5l0.3-1l0.4-0.6l0.7-0.4
		l1-0.3l3-0.3l4.1,0.6l6.1,0.1l4.1-0.6l3.1-0.1l3,0.1l4.1,0.6l3.1,0.1l3-0.1h4.1l3.1-0.1l4.9-0.1l2.1-0.1l6.1,0.1l7-0.1h2.8l5.2,0.4
		l5.2,0.8l2.7,0.6l4.8,1.7l4.8,2.5l4.1,3.2l3.4,3.9l2.7,4.6l1.3,4.9l0.4,5.5l-0.1,2.5l-1,5.1l-2,4.6l-1.4,2.1l-1.7,2l-2.1,1.7
		l-0.7,0.8l-0.3,0.8l0.3,0.8l0.7,0.7l2.4,2.3l2.1,2.4l1.8,2.5l2.8,5.8l1.5,6.1L122,99l-0.1,3.1l-0.3,2.8l-0.6,2.5l-0.8,2.5l-1.3,2.5
		l-1.4,2.4l-1.8,2.1l-1.8,2l-2.1,1.8l-2.3,1.7l-2.4,1.5l-2.5,1.3l-2.5,0.8l-2.8,0.7l-2.7,0.6l-2.8,0.6l-5.6,0.8l-2.8,0.3l-2.8,0.1
		H72.2l-5.1-0.3l-8.2-0.3h-4.1l-6.1-0.1l-4.1,0.1h-6.1l-4.1-0.3l-6.1,0.1L26.5,128.9z M128.2,103.4l-0.1,3.5l-0.4,3l-0.6,2.8
		l-0.8,2.7l-1.4,3.1l-2,3l-2,2.4l-1.8,2l-2.3,2l-2.4,1.8l-2.7,1.7l-3.2,1.7l-2.7,0.8l-3,0.8l-3,0.6l-2.8,0.4l-2.8,0.6l-3,0.4l-3,0.3
		l-2.4,0.1H80l-3-0.1l-4.2-0.3l-3-0.1H46.5l-4.1-0.3h-3.1l-3,0.1l-2.1,0.3l-2.1,0.1l-3-0.3l-1-0.1l-0.7-0.4l-0.4-0.4l-0.3-1
		l-0.4-2.3h0.4l2.1-0.3l2.8-0.1h2.8l4.1,0.3h23.5l2.8,0.1l4.2,0.3l3.1,0.1h10.3l2.8-0.1l3.1-0.3l3-0.4l2.8-0.6l2.8-0.4l3-0.6
		l2.8-0.7l3.2-1.1l2.8-1.5l2.7-1.7l2.1-1.7l2.4-2l2-2.1l2-2.4l1.8-2.8l1.4-2.8l1-3l0.6-2.8l0.4-3.1l0.1-3.5l-0.3-3.8l-0.6-3.2
		l-0.7-2.3l1.4,2.1l1.4,2.8l0.6,1.5l0.8,3.8L128.2,103.4z M28.6,117.3l0.1,0.1l0.3-0.1l0.1-0.1l0.1-0.3h-0.4l-0.3,0.1V117.3z
		 M32.2,119.6l0.3,0.3l0.3-0.1l0.1-0.3v-0.1l-0.1-0.1h-0.4l-0.1,0.1V119.6z M32.9,117.6l0.3,0.1h0.3l0.1-0.3v-0.3l-0.1-0.3l-0.3,0.1
		l-0.3,0.3V117.6z M35.5,113.7l0.4,0.4l-0.1,1.4l1,0.1H37l0.1-0.1l0.4,0.3l0.3,0.1H39l0.1-0.3v-0.4h-0.7l-0.1,0.1l-0.6,0.1l-0.6-0.1
		l-0.3-0.6l-0.1-0.7h0.1v-0.1l-0.1-0.7V113l-0.1-0.3v0.3h-0.3l-0.8-0.4V113.7z M37.4,118l-0.1-0.3l-0.1-0.6L37,117v-0.1l-0.1,0.3
		l-0.1,0.1v0.8l0.1,0.4l0.3,0.1l0.1-0.3l0.1-0.1V118z M37.4,110.6l0.8,0.3l0.3,0.1h0.1l-0.1-0.1l-0.4-0.1l-0.3-0.1H37.4z M38.3,92.2
		l0.3,0.6l0.6,0.3l0.4,0.7l-0.1,0.6l-0.7,0.8l-0.3,0.8l1-0.4l1.1,0.3l0.3,0.1l0.3-0.1l0.1-0.3v-0.3l-1.1-0.4l0.6-1.1v-0.4l-0.6-0.3
		l-0.8-0.7L38.3,92.2z M38.3,109.7l0.3,0.1l0.4-0.4l-0.7-0.4V109.7z M40.7,113.9H41l-0.4-0.3l-0.1-0.1l-0.3-0.1v0.1l0.1,0.1l0.3,0.1
		L40.7,113.9z M41.4,103.1l-0.4,0.8l1,0.3l0.1-0.1l0.3,0.3v0.1l0.1,1l-0.4,0.4h-0.3l-0.1,0.3l0.3,0.3h0.4l0.7,0.1l0.6,0.1l-0.1-0.6
		l-0.4-0.4l0.3-1l0.6-0.7l-0.1-0.3v-0.1l0.6-0.7l1-1l0.1-0.4l-0.3-0.3l-0.3,0.1l-1.3,0.6l-1.1,0.8l-0.3,0.1l-0.1,0.3l-0.3-0.1H41.4z
		 M43.8,120.3l-0.4,0.1l-0.3,0.1l-0.3-0.1l-0.4-0.1h-0.3l0.3,0.4l0.6,0.1l0.8,0.1V120.3z M42.7,77.6l0.3,1v0.3l0.1,0.3l-0.3,0.7
		l0.4,0.7h0.1l0.3-0.1l-0.1-0.7l0.1-0.3v-1l-0.4-1.1l-0.4-0.4L42.7,77.6z M44.2,88l-0.7,0.1l-0.6,0.3l0.8,0.8l0.7,0.1l0.3,0.3
		l0.3,0.1l0.3,0.3l0.7,1.3v0.8l-0.8,1L45,94.4l-1.1,0.7l0.4,0.6l0.8,0.4l0.6-0.7l0.4-0.6l-0.6-0.4l0.3-0.7h0.7l0.7,0.1l0.6-0.6
		l0.3-0.6L48,92.1h-0.4l-0.3,0.4h-0.4l-0.3-0.3v-0.8L46.3,90L46,89.7l-0.3-0.1l-0.1-0.7L45.5,88H44.2z M44.5,78.6l0.4,0.7h0.4v-0.1
		h0.6l0.3-0.1l-0.3-0.4l-0.6-0.4h-0.8V78.6z M45.5,110.4l0.6,0.1h1l0.1-0.3l-0.3-0.3l-1-0.4l-0.6,0.4l-0.3,0.3l-0.3,0.1H45.5z
		 M46.3,118.6l-1.1-1l-0.1,0.7l-0.1,0.3L45,119v0.1l0.1,0.1l0.4,0.3v-0.7l0.1-0.3H46.3z M47.9,121l-0.1-0.3l-0.1-0.1l-0.3-0.1h-0.1
		l-0.1,0.4l0.6,0.4L47.9,121z M47.2,73.4l0.3,1l1,0.1l1-0.4l1-0.3h1.1l-0.3-0.3L51,73.4l-0.6-0.6L50,72.5l-0.4-0.1l-1.3,0.1
		L47.2,73.4z M49.7,71.5l0.4,0.1l0.3,0.1l1.5-0.1l0.1-0.1l0.3-0.1l0.3-0.4l-0.4-0.1H52v-0.1h-0.4L49.8,71L49.7,71.5z M51.7,100.7
		l-0.7,0.7l-0.4,0.6l-0.4-0.3H50l-0.1,0.6h0.7l0.8-0.4L51.7,100.7z M52.4,83.7l-0.3-0.6h-0.3v0.3l0.6,0.4V83.7z M52.8,81.7l-0.3-0.1
		l-0.3,0.1l0.1,0.4l0.6,0.3l0.1-0.1V82L52.8,81.7z M55.3,78l1.1,0.3l0.7,0.1L58,78l-0.1-0.8h-1.1L55.3,78z M57.9,64.3l0.3,0.8
		l0.6,0.6l0.8,0.4l1,0.1h3.1l4.1,0.1h3.1l3.1-0.1l4.1-0.1l3.1-0.1l3.5-0.4l3.1-1.4l2.1-2.4l0.8-3.5l-0.6-3.2l-1.8-2.8l-2.8-2.1
		l-3.8-0.7h-3.1l-2.1,0.1l-2.3,0.3H68l-4.4-0.1l-3.1-0.1l-0.8,0.3L59,50.4l-0.6,0.7l-0.1,0.8l-0.1,3.7v2.5L58,60.7L57.9,64.3z
		 M93.5,96.9l-0.8-4.5l-2.4-3.2l-3.4-2l-4.4-0.6h-22l-0.8,0.1L59,87.2l-0.4,0.7l-0.3,0.8v16.1l0.3,0.8l0.4,0.7l0.7,0.6l0.8,0.1h22
		l4.9-0.8l3.4-2.4l2-3.2L93.5,96.9z M59.7,72.2l0.1-0.4l-0.1-0.1L59,72l-0.1,0.7l0.4,0.4l0.6,0.1l0.1-0.4L59.7,72.2z M60,76.3
		l-0.6,0.8l0.7,0.4V77L60,76.3z M65.9,62.9h-4.6l0.1-2.1l0.1-2.5v-2.5l0.1-2.8l2,0.1h2l2.3,0.1h6.5l2.4-0.3l2-0.1h2.7l2.7,0.6
		l1.7,1.3l1.1,1.7l0.1,0.8h-0.7l-2.1,0.1L82,57.6h-6.2l-2.3-0.1h-2.1l-3.1-0.1l-0.8,0.3l-0.7,0.6l-0.6,0.7L66,59.7L65.9,62.9z
		 M89.4,93.8l0.1,0.6H68.3l-0.8,0.1l-0.7,0.4l-0.4,0.7L66,96.5v7.2h-4.4V90h20.7l3.4,0.4l2.3,1.4L89.4,93.8z M62.5,80.1l-0.3,0.3
		v0.4l0.6,0.3l0.4-0.4l0.6-0.1l0.1-0.4l-0.6-0.3L62.5,80.1z M63.2,73.5l1.1,0.4l1-0.7l-0.7-0.4l-0.6-0.4l-0.6-0.1l-0.4,0.3l-0.1,0.4
		L63.2,73.5z M67.6,74.9l1.1-0.6l0.6,0.4h0.8l0.1-0.1v-0.3l-0.6-0.4h-1.1l-1-0.8l-1.3,0.4L66,74.2l0.6,0.6L67.6,74.9z M66.2,76.6
		l0.7,0.8l0.4-1.1L66.2,76.6z M70.7,71.4l-0.3,1l0.1,0.7l0.7-0.6l0.3-1.1v-0.7l-0.7-0.1l-0.3,0.3L70.7,71.4z M71.3,78.3l-0.4,0.3
		l-0.1,0.3l0.1,0.1l0.6-0.1l0.6-0.3L71.3,78.3z M74.8,74.4l-0.3-0.3l-0.4,0.4l-0.1,0.6l0.6-0.1L74.8,74.4z M75.5,77.2l-0.4-0.7h-0.6
		l-0.3,0.1l0.1,0.4l0.6,0.3L75.5,77.2z M75.3,81l-0.3,0.7l0.3,0.4l0.8-0.3l0.4-0.7L76,80.7L75.3,81z M80,74.4h0.3l0.1-0.1l0.1-0.3
		l-0.1-0.3h-0.3l-0.3,0.1v0.3L80,74.4z M81,70h0.3l0.1-0.3l-0.1-0.3h-0.6v0.3L81,70z M82.1,74.1l0.3,0.1l0.3-0.1l0.1-0.1l-0.1-0.3
		l-0.4-0.1L82,73.6v0.3L82.1,74.1z M92.5,42.1l0.1,0.7l0.3,0.1l0.3,0.3l0.1,0.3l0.3-0.3l-0.1-0.6l-0.3-0.3l-0.1-0.3l-0.3-0.1
		L92.5,42.1z M93.9,79.7l-0.3-0.1l0.1,0.4l-0.1,0.4h0.4l0.4,0.1h0.1l0.4-0.3l-0.1-0.4h-0.3l-0.3-0.1H93.9z M94.8,120.7l-0.1-0.1
		h-0.3l-0.1,0.1l-0.3,0.1l-0.3,0.3l0.3,0.3l0.3,0.1l0.6-0.3V120.7z M94.5,41.4l0.3,0.3l0.1-0.1h0.1l0.1-0.3L95.1,41h-0.3l-0.1,0.1
		L94.5,41.4z M95.5,87.7l-0.1-0.3l-0.3,0.1L94.6,88l-0.1,0.6l0.1,0.1h0.1l0.4-0.1l0.3-0.4V87.7z M94.8,40.1l0.3,0.3l0.1-0.1v-0.4
		h-0.4V40.1z M95.4,80.8l-0.1,0.3l-0.1,0.1v0.1h0.1v0.4l0.3-0.3l0.3-0.1v-0.1l0.1-0.3l0.3-0.4h-0.3l-0.3,0.1h-0.1L95.4,80.8z
		 M95.9,39.6l0.3,0.3l0.1,0.3l0.8,0.1l-0.4-0.7L96.2,39l-0.1,0.1L95.9,39.6z M95.9,67.4l0.3,0.6l0.6,0.4l0.6,0.3l0.1-0.4V68
		l-0.1-0.4L96.8,67h-0.4l-0.3,0.1L95.9,67.4z M96.3,77l-0.1,0.1l0.6,0.7h0.1l0.4,0.1l0.6,0.3l-0.3-0.4l-0.1-0.4v-0.1l-0.7-0.4
		L96.3,77z M96.3,36.2l0.6,0.3l0.3-0.6L97,35.7h-0.4l-0.3,0.1V36.2z M96.9,42.7v-0.1h-0.4l-0.1,0.1v0.3h0.1l0.1,0.1h0.1l0.3-0.1
		L96.9,42.7z M99.4,119.7l-0.3-0.1l-0.6-0.1l-0.7-0.4l-0.3,0.1h-0.4l-0.6,0.1l-0.3,0.6l0.3,0.3h1l0.1-0.1H98l0.6-0.1L99.4,119.7z
		 M97,75.8L96.8,76l-0.1,0.3l-0.1,0.1H97l0.4-0.1l0.1-0.4v-0.6l-0.1-0.4v-0.4h-0.1L97,74.4l-0.4-0.3v0.4l0.1,0.6l0.1,0.3L97,75.8z
		 M97.2,109.3v0.6h0.4l0.1-0.1h0.1l0.3-0.4l-0.4-0.6l-0.4-0.1l-0.3,0.1v0.3L97.2,109.3z M97.5,40.4l0.1,0.7l0.3,0.1H98l0.1,0.1h0.4
		l0.3-0.4l-0.1-0.4l-0.1-0.3l-0.3-0.1h-0.4L97.5,40.4z M99,47.2L98.6,47L98,47.4l-0.4,0.4L98,48h0.3l0.7-0.3V47.2z M97.9,100.1v1.1
		l0.1,0.1l0.1,0.6l0.1,0.4v0.3l0.8-0.4l0.3-0.3v-0.1l0.1-0.3v-0.1l0.3-0.3l0.3-0.1h0.1l0.3-0.3l2-0.4l1.1,0.1l0.7,0.6l0.7,0.7
		l0.8,0.3l0.8,0.4l0.1,0.3l0.1,0.6l0.1,0.4l0.3,0.6l0.6-0.1l0.3-0.1l0.7-0.7l0.4-0.6l-0.1-0.3l-1.3-1.3l-0.3-0.4l-0.4,0.4l-0.4,0.3
		l-0.6-0.1l-0.6-0.3l0.1-0.6v-0.6l0.3-0.4l0.1-0.4v-0.1l-0.4-0.4l-0.3-0.1l-0.1-0.1l-0.8-0.6l-0.8,0.3l-0.1,0.3v0.3l0.3,0.3l0.3,0.1
		l0.1,0.6l-0.6,0.3H102l-0.6,0.1l-1-0.1l-0.3,0.3l-0.3,0.1H97.9z M98.2,67.3V68l0.4,0.1h0.8l0.4-0.1l0.6-0.3l-0.3-0.6l-0.6-0.3
		L99,66.7L98.2,67.3z M98.7,63.2h0.4l0.3,0.1h0.1l0.4,0.4l0.4-0.1v-0.3l-0.1-0.1l-0.4-0.1l-0.1-0.1h-0.1L99,62.7h-0.6l-0.1,0.1v0.1
		L98.7,63.2z M98.6,72.5l-0.1,0.1l0.1,0.3l0.1,0.1l0.3-0.1v-0.4H98.6z M99.2,60.4l-0.3,0.3l-0.3,0.4l0.4,0.6l0.7-0.1v-0.1l0.1-0.3
		L100,61v-0.1l0.3-0.1l0.1-0.1h0.1l-0.7-0.1H99.2z M100.4,85.8l-0.3-0.3H100l-0.3-0.1l-0.4,0.3v0.3l0.1,0.1h0.8L100.4,85.8z
		 M101,110.4l-0.1-0.3v-0.3l-0.4-0.1l-0.3-0.1l-0.3,0.3l-0.4,0.1v0.1l-0.1,0.3v0.7h0.4l0.4,0.1h0.1l0.6-0.3v-0.1l0.1-0.1V110.4z
		 M99.7,37.9l0.1,0.1v0.1l0.3-0.3l0.3-0.1l-0.1-0.3l-0.3,0.1L99.7,37.9z M99.7,48.6l0.1,0.1l0.4-0.1l0.1-0.1v-0.3H100L99.7,48.6z
		 M100.4,114.7l-0.1-0.3l-0.1-0.1l-0.3-0.1l-0.1,0.3v0.3l0.3,0.1l0.3,0.3L100.4,114.7z M100.7,71.8h-0.3l-0.3,0.3l-0.1,0.3v0.1
		l-0.1,0.1v0.4l0.4,0.3l0.4-0.1h0.3l0.8,0.3l-0.1-0.4v-0.3L100.7,71.8z M101.4,90.3v-0.4l-0.3-0.1l-0.1-0.1h-0.4l-0.3,0.1l-0.3,0.6
		v0.1l0.1,0.3v0.1l0.3,0.3h0.6l0.6-0.6L101.4,90.3z M102.7,103.7l0.3-0.1l0.4-0.4l0.3-0.4v-0.1l-0.4-0.1L103,102h-2.1l-0.1,0.3v0.1
		l-0.4,0.4l-0.1,0.3l-0.1,0.1l0.1,0.1l0.3,0.8h1.1l0.4-0.1l0.3-0.3L102.7,103.7z M100.7,62l0.1,0.3l0.3,0.4l0.1-0.1l0.3-0.1v-0.3
		l-0.4-0.3h-0.3V62H100.7z M101.6,105.2v-0.1h-0.4v0.6l-0.1,0.4v0.4l-0.1,0.4v0.6l0.4,0.4h0.8l0.3-0.3l-0.1-0.6l-0.1-0.1v-0.4
		l-0.3-0.4l-0.1-0.6L101.6,105.2z M101,40.8l0.3,0.1l0.3-0.4v-0.8l-0.6,0.4V40.8z M101.3,56.3l0.3,0.1l0.1,0.1v-0.4l0.3-0.3v-0.4
		h-0.6l-0.1,0.3l-0.1,0.1V56L101.3,56.3z M101.3,57.4l0.1,0.1h0.4l0.1-0.3l-0.1-0.1l-0.3-0.1l-0.1,0.3L101.3,57.4z M102.3,117.5
		l-0.1-0.3l-0.4-0.1h-0.3l-0.1,0.3v0.3l0.1,0.6h0.3l0.1-0.1h0.1L102.3,117.5z M101.7,53.4l-0.3,0.3v0.1l0.1,0.3h0.1l0.3-0.1l0.1-0.1
		v-0.3L101.7,53.4z M102.4,78.9v-0.3h-0.6l-0.3,0.4v0.6l0.1,0.3h0.3l0.4-0.4l0.1-0.4L102.4,78.9z M101.6,98l0.3,0.3h0.6v-0.7
		l-0.1-0.1l-0.3,0.3L101.6,98z M104.4,114.8l-0.1-0.4l-0.7-1.4l-0.4-1l-0.1-0.3l-0.4-0.7l-0.6-1v0.4l-0.1,0.8l-0.3,0.8v2.5l0.3,0.6
		l0.4,0.4l0.7,0.1h0.7l0.4-0.4L104.4,114.8z M102.7,62.4l-0.6,0.3l-0.1,0.1l-0.1,0.3l0.1,0.1l0.1,0.3v0.4l0.4,0.1h0.4l0.8-0.3
		l0.3-0.1l0.4-0.1v-0.3l-0.3-0.3l-0.4,0.1l-0.3-0.3l-0.4-0.1L102.7,62.4z M103.1,74.1l-0.3,0.1l-0.4,0.4l0.3,0.3l0.4-0.3V74.1z
		 M103.8,96.2v-0.1l-0.4-0.1h-0.3l-0.6,0.1v0.4l0.1,0.4l0.4,0.1h0.8l0.1-0.3l0.1-0.1L103.8,96.2z M102.7,107l0.1,0.3l0.1,0.6
		l1.1,0.3V108l0.4-0.8l0.3-0.3l0.1-0.4l0.1-0.1l0.6-0.4l0.4-0.4h-0.3l-0.7-0.1l-1.1-0.1l-0.1,0.1l-0.4,0.6l-0.6,0.6h-0.1V107z
		 M103.9,75.9h-0.6l-0.3,0.1l-0.1,0.1v0.4h0.4l0.3-0.1l0.3-0.3V75.9z M103.1,42.7l0.1,0.1v0.1h0.7l0.6-0.4l-0.4-0.1h-0.4L103.1,42.7
		z M103.1,45.8l0.3,0.6l0.8,0.3l-0.1-0.7l-0.3-0.3l-0.3-0.1h-0.3L103.1,45.8z M103.9,82.1l-0.6,0.1l0.1,0.4l0.1,0.6v0.1l0.3,0.3
		l0.3,0.4l-0.3,0.8v0.8l0.8-0.8l0.7-0.8l-0.1-0.1l-0.4-0.6l-0.3-0.6L103.9,82.1z M104.6,57.3l-0.1-0.3l-0.1-0.1l-0.4-0.3l-0.1,0.3
		l-0.1,0.1v0.1l0.1,0.4l0.4,0.1h0.1l0.1-0.1L104.6,57.3z M109.2,85.5l-3.1,1.7l-0.4,0.4l-0.3,0.4l-0.4-0.1l-0.4-0.3l-0.4,0.1h-0.4
		l0.3,0.6l0.1,0.4V89h0.6l0.7,0.1l0.8-0.8l0.6-0.3l0.4-0.4l0.4-0.1h0.6l0.4-0.1h0.6l0.8-0.4l0.1-0.1v-0.4l0.1-0.6l-0.1-0.3l-0.3-0.3
		L109.2,85.5z M104.2,71v0.6l-0.1,0.1l-0.1,1.3l0.3,0.6l0.7,0.6v-0.1l0.4-0.1l0.8-0.8l0.4-0.6v-0.1l0.3-0.6l0.1-0.6l-0.1-0.7
		l-0.4,0.3l-0.3,0.1h-0.1l-0.1,0.4l-0.4,0.4l-0.6-0.3l-0.1-0.4l-0.4-0.3L104.2,71z M104.6,60.7l0.1-0.1l0.3-0.1v-0.1l-0.4-0.1
		l-0.6-0.1v0.4L104.6,60.7z M104.6,64.5l-0.3,0.3l-0.1,0.6v0.4l0.3-0.3l0.4-0.3l0.3-0.1l0.3-0.3h0.3l0.1-0.3l-0.1-0.3l-0.4-0.4h-0.3
		l-0.3,0.3L104.6,64.5z M104.9,111.1l0.7-0.3l-0.3-1.4l1.7-0.6l-0.8-0.1l-0.8-0.3v0.1l-0.1,0.3l-0.1,0.4l-0.1,0.6l-0.4,1l-0.1,0.4
		L104.9,111.1z M104.8,54.6l0.1,0.7v0.3l0.3,0.3l0.4-0.4l-0.1-0.4v-0.4l-0.1-0.3L104.8,54.6z M105.2,47.2l0.4,0.3l0.3,0.1l0.1,0.1
		l0.3,0.1l0.3-0.1v-0.1l-0.1-0.4l-0.3-0.4l-0.4-0.4l-0.1-0.4l-0.1-0.1V46l-0.1,0.4v0.4L105.2,47.2z M106.8,74.9l-0.1,0.4l-0.1,0.1
		l-0.7,0.4l-0.4,0.4l-0.1,0.3h0.3l0.4-0.1l0.6-0.3l0.1-0.3v-0.1l0.3-0.1l0.3-0.3l0.4-0.1l0.3-0.1l0.1-0.7v-0.8l-0.4,0.6L106.8,74.9z
		 M107.2,119.4l-0.1-0.7v-0.4l-0.1-0.3l-0.6-0.1l-0.7-0.1l-0.1,0.1l-0.1,0.3l-0.1,0.6l0.7,0.7H107.2z M107.7,113.9l0.7-0.3l0.6-0.4
		l0.3-0.3v-2.4l-0.1,0.3l-0.8,1.1l-0.1,0.3l-0.1,0.1l-0.4,0.6l-0.4,0.8l-0.6,0.4l-0.4,0.1l-0.1,0.1l-0.4,0.7l-0.3,0.4v0.3l1.1-0.6
		h0.1l0.3-0.1l0.4-0.3v-0.1l0.1-0.1v-0.4L107.7,113.9z M106.2,49.8l0.3-0.6v-0.4h-0.3l-0.1,0.4v0.3L106.2,49.8z M106.8,52.8
		l-0.1,0.3l0.1,0.3l0.1,0.1h0.4l0.4-0.1l0.1-0.1l0.3-0.1l-0.4-0.4l-0.6-0.1L106.8,52.8z M107,42.4h0.3l0.1,0.1l0.3-0.1v-0.4
		l-0.4-0.1l-0.3,0.3V42.4z M108.6,62.5h-0.8l-0.3,0.3l-0.4,0.3l0.3,0.1l0.1,0.3h0.7l0.4-0.4V62.5z M107.7,105.4v0.1l0.1,0.3l0.6-0.1
		h0.4l0.1-0.4l0.1-0.3l0.1-0.1l-1-0.1l-0.3,0.3l-0.4,0.3L107.7,105.4z M108.7,80.1l-0.4-0.3l-0.4,0.1l-0.1,0.3v0.4L108,81l0.4-0.1
		l0.3-0.3V80.1z M110.3,116.3l-0.6-0.4l-0.7-0.6l-0.3,0.6l-0.3,0.4l0.1,0.4l0.3,0.6l0.6-0.1l0.6-0.3L110.3,116.3z M110.3,102
		l0.1,0.6l0.1,0.4v0.1l0.1,0.6v0.6l0.3,0.4l0.1,0.4l0.8,0.1l0.6-0.3l0.3-0.7l-0.1-0.1v-0.1l-0.3-0.4h-0.6l-0.4-0.3l-0.3-0.1v-1
		l-0.1-0.3l-0.1-0.4l-0.4-0.8l-1.4-0.8l-0.3,0.3l-0.1,0.3l0.4,0.6l0.3,0.4l0.6,0.4L110.3,102z M109.3,63.9l0.1,0.6v0.7l0.3,0.7
		l0.6,0.1l0.8-0.6h0.1l0.1-0.6l0.1-0.4l0.1-0.1l-0.4-0.4l-0.4,0.1h-0.3l-0.7,0.1L109.3,63.9z M109.3,67.7l0.4,0.3h0.3l0.3-0.1
		l-0.4-0.4l-0.4-0.1l-0.1,0.1V67.7z M110.1,88.9L110,89v0.1l-0.1,0.4l0.3,0.3l0.1,0.3l0.4,0.1h0.3l0.4-0.1v-0.6l-0.1-0.3L111,89
		l-0.4-0.1H110.1z M111,70.1l-0.1-0.4h-0.1l-0.3,0.1v0.4l0.1,0.3l0.3,0.1v-0.1h0.1V70.1z M111,108.9l0.1-0.3l0.1-0.1l0.3-0.7
		l-0.3-0.4l-0.4,0.1l-0.1,0.1l-0.3,0.6v0.3l0.1,0.4H111z M111.6,67.9l-0.7-0.1V68l0.1,0.4l0.3,0.6l0.3-0.3V67.9z M112.4,91.8
		l-1.3,0.8l-0.3,0.3l1.7,0.8l0.6,0.7l0.7,0.7l-0.1,0.4l-0.1,0.3l0.6,0.6l0.3-0.3l0.3-0.1l-0.1-0.4v-0.3l-0.1-0.1l0.1-0.4l0.1-0.6v-1
		l0.3-0.3l0.4-0.3v-0.6l0.1-0.6l-0.3-0.6l-0.1-0.4l-0.1-0.3l-0.4-0.3l-0.4-0.4l-0.3,0.3l-0.4,0.3l0.1,0.6v0.4l0.1,0.1l-0.4,0.1
		l-0.3,0.3L112.4,91.8z M112.5,95.8l-0.1-0.1l-0.1-0.3l-0.4,0.1h-0.6l-0.1,0.3l-0.1,0.1l0.1,0.4v0.1l0.1,0.1l0.6,0.3l0.6-0.3
		l0.1-0.4V95.8z M112.1,99l-0.4,0.3l-0.4,0.4l-0.1,0.4v0.3l0.4,0.3l0.4,0.1l0.4-0.3l0.3-0.3h0.4l0.3-0.1l0.8,0.6l0.1-0.1l0.1-0.3
		l0.4-0.3l-0.3-0.4l-0.3-0.6l-0.8,0.3l-0.1-0.1l-0.3-0.1H112.1z M112.7,109.9l-0.1,0.1l-0.4,0.3l-0.6,0.4v0.1l-0.3,0.8l-0.1,0.1
		l0.3,0.4l0.4,0.1v-0.3l0.4-0.8v-0.1l0.1-0.6l0.1-0.4L112.7,109.9z M116.2,107.6l-0.1-0.6l-0.1-0.8l-0.1,0.7v0.1l-0.1,0.3l-0.1,0.4
		l-0.7-0.3l-1-0.1h-0.3l-0.3,0.1h-0.4l-0.3,0.1l0.4,0.7l0.4,0.8l0.1,0.1l0.3,0.6l0.3,0.8l0.4-0.3l0.4-0.4l0.1-0.4l0.1-0.3V109
		l0.6-0.6l0.3-0.4l0.1-0.1V107.6z M113.4,56.2h0.3l0.1-0.1l0.1-0.3v-0.3l-0.3-0.1l-0.3,0.3V56.2z M114.9,101.3v0.1l-0.1,0.3
		l-0.1,0.4l-0.1,0.1l-0.4,0.3l-0.4,0.4v1.4l0.1,0.4l0.3,0.4h0.4l0.4-0.1l1.4,0.3l0.1,0.4l0.3,0.3l0.7-0.1v-0.3l0.1-0.4l-0.3-0.7
		l-0.1-0.3l-0.1-0.6l-0.3-0.6v-0.3l-0.6-0.7l-0.3-0.4l-0.1-0.1L114.9,101.3z M114.4,66.2l0.1,0.1v0.1h0.4l0.1-0.4l-0.1-0.1v-0.3
		L114.4,66.2z M119.4,69.4l1-2.3l1-2.8l0.8-3l0.4-2.7l0.1-3l-0.1-3.1l-0.3-3.2l-0.6-2.5l1,1.4l1.4,2.3l1,2l0.4,2l0.3,2.8l0.1,3.2
		l-0.1,3l-0.4,2.7l-0.7,2.7l-1,3l-1.1,2.4l-1.5,2.4L119,79l-0.6,0.6l-0.3-0.3l-2-2.4l-0.4-0.4l-1.3-1.1l1.3-1.1l2.1-2.4L119.4,69.4z
		"/>
	<path class="st0" d="M140.9,129.2l-4.4-0.1l-3.1-0.6l-1.1-0.1l-0.7-0.1l-0.6-0.6l-0.3-0.8l-0.4-2.7l0.3-3.8l0.1-5.5l0.1-3.7
		l0.4-2.7l0.1-1l0.4-0.7l0.4-0.6l0.8-0.3l2.1-0.1l3,0.8l2-0.1l0.8-0.3l0.6-0.4l0.3-0.7l0.3-1l0.4-3.1l0.1-4.2l-0.1-6.2l-0.4-4.2
		l-0.1-6.2V69.7l0.3-4.2l0.1-6.2l0.3-4.2l-0.3-3.1l-0.3-1l-0.4-0.6L141,50l-0.8-0.3l-2-0.3l-2.8,0.3l-2-0.3l-0.8-0.1l-0.6-0.4
		l-0.3-0.4l-0.1-0.8l-0.4-2.7l-0.4-3.7v-5.4l0.3-3.7l0.4-2.7l0.1-1l0.3-0.8l0.4-0.6l1-0.3l3.1-0.3l4.4,0.8l3.1,0.3h7.5l3.2,0.1
		l5.2-0.3l2.1-0.3l8.5-0.1h5.4l5.4,0.1h2.1l6.2,0.1l2.3,0.1l5.2,0.1l5.4-0.1h5.4l3.1-0.3l4.4-0.6l3.1,0.3l0.8,0.3l0.4,0.6l0.3,0.7
		l0.8,5.9v7.9l0.1,3.9v7.9l-0.7,4.9l-0.3,1l-0.1,0.8l-0.6,0.6l-0.8,0.3l-2.5,0.4l-3.7-0.3l-2.7-0.1h-2.5l-3.5-0.1l-3.5-0.6l-0.6-0.4
		l-0.4-0.4l-0.3-0.8l-0.4-1.8l0.4-2.5l0.1-1.8v-1.4l-0.1-0.7l-0.4-0.3l-3.7-0.3l-5.2,0.6l-3.7,0.3l-8.9-0.3l-3.7,0.1l-1,0.1
		l-0.6,0.6l-0.4,0.6l-0.1,0.8v3.4l-0.1,4.5l0.4,3.2l0.3,1l0.3,0.7l0.6,0.3l1,0.3l2.8,0.4h2.1l2-0.1h3l3-0.1l2-0.1l2,0.1l3.9,0.6
		l0.8,0.3l0.6,0.4l0.3,0.8l0.4,2.7l-0.4,3.7l-0.1,2.8l0.1,2.7l0.1,3.7l-0.3,2.7l-0.3,1l-1.1,1.1l-1,0.3l-2.7,0.3l-3.8-0.6l-2.8-0.3
		l-2.7,0.1l-1.8,0.3l-4.6,0.3l-1.5,0.1l-1.3,0.7l-1,1.1l-0.3,1.4l0.1,3l0.1,2.1l0.3,2v3l0.1,0.7l0.1,0.6l0.4,0.4l0.6,0.1l3.8-0.1
		l5.1-0.3h10.1l2.7,0.1h3.7l0.7,0.1l0.6,0.1h0.4l0.4-0.4l0.4-2.3l-0.1-1.7l-0.3-1.7l0.4-2.4l0.3-0.8l0.3-0.6l0.7-0.3l1-0.1l2.5-0.1
		l3.5-0.1h2.7l4.4-0.4l1.8-0.1l2.7,0.3l1,0.3l0.7,0.6l0.4,0.7l0.3,1l0.3,3l-0.8,4.1l-0.3,3.1l0.1,3l0.3,3.9v3.1l0.3,3l0.3,4.1
		l-0.3,3l-0.3,1l-0.4,0.7l-0.7,0.4l-1,0.3l-3.1,0.4h-2.3l-2.3-0.1l-3.2-0.1h-24.8l-4.5-0.4l-3.1-0.1l-3.2,0.1l-4.4,0.4h-3.2
		l-7.6-0.1h-6.5l-4.4-0.1L140.9,129.2z M136.3,121l-0.4-0.6l-0.6-0.1l-0.1,0.1v0.1l0.4,0.4H136.3z M230,129.3l0.1,2.1l-0.3,3l-0.3,1
		l-0.4,0.7l-0.7,0.4l-1,0.3l-3.1,0.4h-2.3l-2.3-0.1l-3.2-0.1h-24.8l-2.3-0.3l-5.4-0.3l-3.2,0.1l-4.4,0.4h-8.7l-8.6-0.1l-4.4-0.1
		h-3.2l-3.2,0.1h-2.1l-6.5-0.8l-0.7-0.1l-0.6-0.6l-0.3-0.8l-0.3-2h2.8l3.1-0.1l5.4,0.1h8.6l2.3,0.1h8.7l4.5-0.4l3.1-0.1l5.1,0.3
		l2.3,0.3l28.2,0.1l2.4,0.1h2.7l3.4-0.4l1.3-0.4l1-0.4l0.7-0.6l0.6-0.4l0.4-0.6l0.4-0.7l0.3-0.8l0.3-1.4l0.4-3l-0.1-2.7l-0.3-2.1
		l-0.1-5.8l-0.3-4.2l-0.1-2.7l0.3-2.5l0.4-2l0.1-0.6l2,0.1l1,0.3l0.7,0.6l0.4,0.7l0.3,1l0.3,3l-0.8,4.1l-0.3,3.1l0.1,3l0.3,3.9v3.1
		l0.3,3L230,129.3z M139.9,34.1l-0.1-0.1h-0.6v0.1l0.1,0.3l0.3,0.1l0.3-0.3V34.1z M142.1,36.2l-0.1-1.3l-0.7-0.4H141l-0.1,0.3
		l0.4,0.6L142.1,36.2z M142.1,119.4l0.4,0.6l0.6-0.1l0.3-0.6l0.3-0.1l0.4-0.1l-0.6-0.4l-0.7,0.1h-0.1l-0.3-0.3l-0.3,0.3V119.4z
		 M143.5,36.9l0.1,0.1h0.4l0.1-0.3v-0.1l-0.1-0.3l-0.4,0.1l-0.1,0.3V36.9z M143.5,40l0.1,0.7l0.8-0.6v-0.8H144L143.5,40z
		 M144.8,114.2l-0.3-0.1h-0.1l-0.1,0.3v0.1l0.3,0.1h0.3l0.1-0.3L144.8,114.2z M145.1,41.2l0.1,0.7h0.4l0.3-0.4l0.3-0.6l-0.7-0.3
		L145.1,41.2z M145.2,35h0.3l0.1-0.1v-0.4h-0.1l-0.3,0.1V35z M145.2,36.6l0.3,0.8l0.6,0.3l0.6-0.4l1.1-1l1.3-1h-1.8l-1.5,0.4
		L145.2,36.6z M149,40.5l-1-0.7l-1-0.4l-0.6-0.6l-1-0.3l0.6,0.7l0.3,0.4h0.4l0.8,1.1L149,40.5z M147.8,34.1l0.4,0.6h0.4l0.4-0.1
		v-0.6l-0.4-0.4l-0.4-0.1l-0.4,0.1V34.1z M148.5,42.7l0.8,0.1l-0.4-0.7l-0.6-0.1l-0.4,0.1v0.3L148.5,42.7z M148,31.7l0.3,0.6
		l0.4,0.1l0.4-0.4v-0.3l-0.3-0.1h-0.4L148,31.7z M150.6,37.6l-2.1-0.6l0.4,0.8l1-0.3l0.1,0.7l0.1,0.6L150.6,37.6z M150.7,44.6
		l0.4-0.3l0.3-0.3l0.3-0.1v-0.3l0.1-0.1v-0.3h-0.3l-0.3,0.1l-0.1,0.1l-0.3,0.6l-0.3,0.4l-0.7,0.7l0.1-0.3l0.1-0.1l0.3-0.6v-0.1
		l0.1-0.1v-0.8l0.1-0.4l-1,0.6l-1,0.7l0.3,0.4l0.4,0.3l0.4,0.4v0.3v0.1v-0.1l0.3-0.3l0.3-0.1L150.7,44.6z M150.7,41.2h-0.4l-0.3,0.1
		v0.3l0.3,0.1l0.4,0.1l0.3-0.1v-0.3L150.7,41.2z M150.7,35.3l0.3,0.1l0.4-0.1l0.8-0.1l0.8-0.3l-0.1-0.1v-0.1l-0.8-0.1l-0.7-0.1H151
		l-0.3,0.3V35.3z M150.7,36.6l0.6,0.3l0.8,0.6l0.6,0.8l0.3-1.5l-1.1-1h-0.3l-0.7,0.1L150.7,36.6z M151.4,110.3l-0.3-0.1l0.1,0.1
		H151.4z M153.1,45.2h0.4L154,45h0.3l0.6-0.3l-0.6-0.1h-0.6l-0.3-0.1l-0.4-0.1v-0.1h-0.1l-0.3,0.1h-0.1v0.3l-0.1,0.1l-0.1,0.3h-0.3
		l-0.3,0.1l-0.1,0.1h-0.1l0.3,0.1L152,46l0.6-0.3v-0.4h0.3L153.1,45.2z M152.3,41.5l-0.1,0.1l-0.3,0.6v0.1l-0.1,0.1l0.1,0.1h0.1
		l0.3-0.1l0.3-0.4l0.1-0.1l0.3-0.1h0.4l0.6-0.1h0.6l0.6-0.3l0.7-0.4v-0.1l-0.1-0.1l-0.4,0.1h-0.6l-0.8,0.6h-1l-0.3,0.1H152.3z
		 M154.1,42.7l0.3-0.6v-0.1h-0.3l-0.3,0.3l-0.3,0.1l-0.1,0.3l-0.6,0.6l-0.6,0.3l-0.1,0.1l-0.1,0.3l0.3-0.1h0.3l0.1-0.3l0.6-0.3
		l0.1-0.1L154.1,42.7z M152.4,40.3h0.1l0.1,0.3l0.1-0.4l0.1-0.3l-0.1-0.1l-0.1-0.3h-0.1l-0.3,0.1v0.6L152.4,40.3z M153.1,51.7h-0.6
		l-0.3,0.1l0.1,0.3l0.4,0.1l0.3-0.3V51.7z M153.4,40.1l0.3,0.3l0.1,0.4l0.6-0.3l0.6-0.1l0.8-0.3l-0.1-0.3v-0.3l0.8-0.6l0.3,0.1
		l-0.6,0.4l-0.4,0.7l0.7,0.6l0.6,0.4l0.4-0.6l0.7,0.3v0.7l-0.3,0.7l1.1,0.8l0.4-0.3l0.1-0.4l-0.4-0.3v-0.3l0.3-0.3h0.6v0.3l0.6,0.3
		l0.4-0.3v-0.6h0.6l0.1-0.6l0.7-0.1l0.6-0.1l-0.1-1.1l-0.4-1.3l-0.6,0.8v0.7l-0.4,0.6l-0.3,0.6L161,41l-0.1-0.3l-0.3-0.1h-0.1
		l-0.4,0.3v0.3h-0.6l-0.8-0.7l-1.1-0.3l-0.7-1l0.6,0.3L158,40h0.3l0.6,0.1l0.3,0.1h0.3l0.7-0.7v-0.7l-0.8,0.1l-0.7-0.3l0.1-0.1v-0.3
		L159,38l0.3-0.4l0.1-0.3l0.1-0.4l0.6-0.6l-0.8-0.7l0.1-0.3l0.1-0.4l0.1-0.3l0.1-0.4l-2.7-1l-0.8-0.3h-1.1l0.3,0.4l0.1,0.1v0.1h0.1
		l0.1,0.3l1.3,0.6l1.3,1.3l0.3,0.4l0.1,0.3l0.1,0.1l-0.6,0.7l-0.7,0.6l-0.8,0.1l-0.8,0.3l-1.1,0.8l-0.8,0.1h-0.7V40.1z M158.5,48.6
		l-0.7-0.4l-1.7,0.3l-0.6-0.1l-0.7-0.1H154l-0.4,0.6l0.1,0.4h3.1l0.3-0.3l0.4-0.1l0.3,0.6l0.7,0.3V48.6z M153.8,35l0.6,1.1l0.8,0.8
		l0.6-0.1l0.4-0.1l0.1-0.7v-0.8l-1-0.6l-0.1-0.1h-0.1v-0.1l-0.3-0.1l-0.1-0.1l-0.8,0.1V35z M153.8,43.9h0.6l0.4-0.1l0.1-0.1v-0.3
		l-0.1-0.1h-0.3l-0.3,0.3l-0.3,0.1L153.8,43.9z M154.7,46.2l-0.4-0.1h-0.4v0.3l0.1,0.4l0.6,0.3l0.1-0.1l0.1-0.3L154.7,46.2z
		 M155.5,55.3l0.4-0.4l-0.1-0.1h-0.7l-0.1,0.3l0.3,0.3H155.5z M157.5,50.7l-1.5,0.3l-0.1,1.4l0.1,0.4l0.3,0.1l0.4-0.7v-0.7l0.6-0.3
		L157.5,50.7z M156.6,58.7l0.1,0.1h0.1l0.3-0.6l-0.3-0.7l-0.4,0.6L156.6,58.7z M160.2,52.7l-0.1-0.3l-0.3-0.1l-0.1,0.1v0.1l0.1,0.4
		h0.3l0.1-0.1V52.7z M159.9,41.4l0.1-0.3l1-0.1v0.3v0.1h-0.1l-0.7,0.3H160L159.9,41.4z M161.7,48.8l-0.1-0.6l-0.4-0.3l-0.4,0.3
		l-0.1,0.6l0.1,0.6l0.4,0.1l0.4-0.3L161.7,48.8z M161,39.4l0.1,0.3l0.3-0.6l0.1-0.6v-0.3l-0.1-0.1l-0.4,0.4V39.4z M163.5,45.9
		L163,46h-0.4l-0.4-0.3h-0.3v0.4l0.4,0.1l0.7,0.1L163.5,45.9z M161.8,115.2l0.1,0.1l0.3,0.1l0.1-0.1l0.1-0.3l-0.1-0.3h-0.1l-0.3,0.1
		L161.8,115.2z M163.8,122.3l-1.4-0.6l-0.3,0.1l-0.1,0.3l0.6,0.4h0.7l0.3,0.1L163.8,122.3z M163.3,103.2l0.3-0.6l-0.6-0.3l-0.4,0.1
		l-0.1,0.7l0.1,0.6l0.4-0.3L163.3,103.2z M162.6,36l0.3,0.4l0.4-0.1l0.1,0.1h0.8l0.6-0.6v-0.1l-0.6-0.1l-0.4,0.3h-0.4l-0.6-0.1
		L162.6,36z M163,118.9l-0.3,0.3l0.3,0.3h0.3v-0.3L163,118.9z M163.7,53.5l-0.3,0.1l-0.3,0.4v0.1l0.1,0.1h0.4l0.3-0.3v-0.4
		L163.7,53.5z M164,120.3l-0.1-0.3l-0.1-0.1l-0.3,0.1l-0.1,0.3l0.1,0.1l0.3,0.1L164,120.3z M164.9,118.2l-0.7-0.4h-0.8v0.1l0.1,0.3
		l0.7,0.3L164.9,118.2z M164.2,48.4l0.1-0.3l0.1-0.1l-0.7-0.1l0.1,0.6l0.3,0.8l1.1,0.3l-0.7-0.6L164.2,48.4z M165.1,37.2l-0.4,0.1
		l-0.3,0.4l0.3,0.4l0.4,0.1l0.4-0.1l0.1-0.4l-0.1-0.4L165.1,37.2z M166.8,117.6l-0.4-0.3h-0.6l-0.4,0.3v0.4l0.4,0.4l0.6-0.1l0.4-0.1
		V117.6z M165.5,114.9h0.1l0.1-0.1v-0.6h-0.3V114.9z M166.6,120.1l-0.3-0.1h-0.4l-0.1,0.1v0.3l0.1,0.1h0.3l0.3-0.1L166.6,120.1z
		 M165.9,45.3h0.7l0.6,0.1l0.4,0.6l0.1-1l-0.8-0.3l-0.6-0.1l-0.4,0.1V45.3z M165.9,106.3l0.6,0.6v-0.6l-0.1-0.4l0.4-0.3l-0.1-0.4
		h-0.3l-0.3,0.4L165.9,106.3z M166.9,47.2l-0.3-0.4l-0.4-0.1v0.6l0.4,0.3h0.1L166.9,47.2z M166.9,42.7l0.3,0.4l0.1-0.1v-0.1l0.1-0.4
		h-0.4L166.9,42.7z M167.9,115.1l-0.1,0.6l0.3,0.6h0.1l0.3-0.1l-0.1-0.6L167.9,115.1z M168,33.6l0.4,0.4l-0.1,1.3l1.3,0.1h1l1,0.4
		h2.1l0.8-0.7h-1l-0.8,0.1l-1,0.1l-1.1-0.1l-0.3-0.6l-0.1-0.7l0.7-0.1v-0.7l-0.3-0.4l-0.4,0.1h-0.8l-0.7-0.4H168V33.6z M168.8,41.7
		l0.1,0.3l0.4-0.3v-0.4l-0.3-0.1l-0.3,0.1l-0.1,0.3L168.8,41.7z M169.3,47.3l0.6-0.8l-0.8-1l-0.1,1.1v1h0.3L169.3,47.3z M172.6,38.6
		l-1.1-0.1l0.1,0.4l0.4,0.3v0.1l-0.4-0.3h-0.4v-0.1l-0.3-0.1v-0.3l-0.3-0.4v-0.4l0.3-0.3l-0.1-0.1l-0.3-0.1l-0.4,0.3l-0.6,0.1
		l-0.4,0.1l0.3,0.6h0.6l0.4,0.8l-0.1,1l0.3,0.3v0.8l-0.1,0.8l-0.1,0.4l0.1,0.3l0.3,0.1l0.1-0.3l0.7-1.1l0.6-1.1v-0.6l0.4-0.1
		l0.1-0.1V38.6z M170,48.7l-0.3-0.3h-0.3l0.1,0.6l0.4,0.3V48.7z M170.7,115.9h0.4l0.4-0.4l-0.1-0.7l-0.4,0.6L170.7,115.9z
		 M171.4,121.8l-0.1,0.7l0.1,0.4l0.4-0.1l0.3-0.3l0.1-0.6l-0.4-0.4L171.4,121.8z M171.6,33.2l0.6,0.1l0.6-0.3l0.6-0.1h0.6l-0.3-0.4
		l-0.1-0.6l-0.3-0.3l0.3-0.4l-0.8-0.3l-0.7,0.1l-0.1,0.4l0.3,0.3l-0.4,0.4V33.2z M172,31.8l0.3-0.3h0.7l0.1,0.1l-0.3,0.3L172,31.8z
		 M172.6,112.5l0.1,0.1l0.3-0.1l0.1-0.4H173l-0.1-0.1l-0.3,0.1V112.5z M174.8,37.4l-0.8-0.1l-1.3,0.8l0.8,0.3l0.6,0.1l0.8-0.3
		L174.8,37.4z M173.3,117.2l-0.1,0.1l0.1,0.3l0.7,0.1l0.7-0.6l-0.7-0.3L173.3,117.2z M174.2,121.3l-0.1-0.1l-0.3-0.1l-0.3,0.4v0.6
		l0.6-0.1L174.2,121.3z M203.6,79.3l-0.6,6.5l0.1,2.7l0.1,1.8v0.8H202l-2.1,0.4l-1.4,0.7l-1,1.3l-0.7,1.8l-0.3,2l-0.6-0.1l-1.8-0.3
		l-2.8-0.3l-2.7,0.1h-1.8l-1.8-0.1l-2.8,0.1h-1.7l-1.4,0.4l-0.8,0.7l-0.3,1.3l0.1,2l-2.3,0.1l-1.5,0.1v-1.5l-0.3-2.3l-0.3-1.8v-2.7
		l1.1-0.1l2.7-0.1l3.7-0.4l2.4-0.1l2.4,0.3l1.7,0.3l2.1,0.3h0.7l2.7-0.4l1.6-0.3l0.6-0.1l1.1-0.8l0.8-0.8l1-1.7l0.3-1.4l0.4-3.1
		l-0.3-6.3l0.1-2.4l0.1-1l1.6,0.3l1,0.1l0.8,0.3l0.6,0.4l0.3,0.8L203.6,79.3z M194.8,54.5l-0.3,1.4l0.1,3L193,59l-3.8-0.1l-2.5-0.1
		h-2.5l-3.7,0.1l-1,0.1l-0.6,0.6l-0.4,0.6l-0.1,0.8v2.7h-2.3l-2-0.3l-0.3-2.5l0.1-4.1v-2.4h4.8l2.5,0.1l3.8,0.1l4.1-0.3l2.7-0.4
		l2.3-0.1l0.7,0.1V54.5z M175.1,46.3l-0.6-0.7l-0.1,0.7l0.1,0.7l0.1,0.1L175,47L175.1,46.3z M174.5,115.8l1,0.8l0.8-0.6l0.3-0.1
		v-0.3h-1L174.5,115.8z M176.2,33.4l0.3,0.6l0.6,0.1l0.1-0.4l-0.1-0.6l0.1-0.3l-0.1-0.3l-0.6,0.1L176.2,33.4z M177.1,37.6l-0.1-0.7
		l-0.6,0.7l0.6,0.6L177.1,37.6z M177.5,116.5l0.4,0.3h0.4l-0.3-0.4l-0.6-0.1V116.5z M178.2,47l0.4,0.4l0.4-0.6l-0.6-0.1h-0.1
		L178.2,47z M179.5,44.2l-0.4,1l-0.1,0.3l0.1,0.3l0.3,0.1h0.3l0.4-1.1l1,0.6h0.4l0.4-0.4l0.6-0.8l0.1-1l-0.4,0.4l-0.3,0.4l-0.7,0.4
		l-0.6-0.1l-0.7-0.7l-1-0.1L179.5,44.2z M180,34.1l0.3,0.6l0.8,0.4l1-0.6l-0.6-0.4l-0.4-0.4l-0.6-0.3l-0.4,0.3L180,34.1z
		 M180.9,121.8l0.1,0.3h0.6l0.3-0.1l-0.1-0.3l-0.3-0.1H181L180.9,121.8z M181.3,116.6l0.1,0.4l0.3,0.1l0.4-0.1l0.1-0.4l-0.3-0.4
		l-0.1-0.4l-0.4,0.4L181.3,116.6z M182.7,37.7l0.6,1l0.4-1.1L182.7,37.7z M182.7,118.6l0.3,0.6h0.8l0.3-0.1l0.3-0.3l-0.3-0.3H183
		L182.7,118.6z M182.8,35.5l0.4,0.7l-0.1,0.1h1.1l1-0.4l0.6,0.6h0.7l0.3-0.3l-0.6-0.6h-1l-0.8-1l-1.3,0.3L182.8,35.5z M185.2,122.3
		h-0.7l-0.4-0.4h-0.4v0.6l0.7,0.3l0.4-0.1L185.2,122.3z M184.3,110.8l0.1,0.1l0.3,0.1l0.3-0.3l-0.1-0.3l-0.3-0.1l-0.1,0.1
		L184.3,110.8z M185.2,120l0.4,0.3h0.3l0.4-0.1l0.3-0.4l-0.3-0.1l-0.3-0.3l-0.6,0.3L185.2,120z M186.6,122.3l-0.1-0.3h-0.3l-0.1,0.1
		l-0.3,0.1l0.6,0.3L186.6,122.3z M186.9,38l-0.4,0.1l0.1,0.4l0.4,0.3l0.4-0.3l0.6-0.1l0.1-0.3l-0.6-0.4L186.9,38z M187.8,40.1
		l-0.4-0.3l-0.6,0.1v0.4h0.6L187.8,40.1z M187.1,34.9l0.7-0.4l0.4-1.1v-0.7l-0.6-0.1l-0.3,0.3v0.6l-0.3,0.8V34.9z M189.2,119.6h0.6
		l0.1-0.6l-0.4-0.4l-0.3,0.1V119.6z M190,37l0.6-0.1l0.3-0.4v-0.1l-0.1-0.1l-0.4,0.4L190,37z M191,38.6l-0.6-0.1l-0.3,0.1l0.1,0.3
		l0.4,0.4l0.6-0.1L191,38.6z M191.4,42.5l-0.6,0.1l-0.3,0.7l0.1,0.4l0.7-0.1l0.6-0.7L191.4,42.5z M190.6,114.9l0.3,0.7l0.7,0.6
		l0.3-0.6l-0.1-0.6l-0.6-0.3L190.6,114.9z M193.1,123.8l-0.3-0.6h-1.3l-0.7-0.4l0.3,1.3l1.1,0.3h0.1l0.1-0.1L193.1,123.8z
		 M191.2,112.1l0.4,0.6l0.1,0.6v0.6l0.4-0.3l0.6-0.1l0.4-0.4v-0.6l-0.7-0.7h-1L191.2,112.1z M191.6,108.3l0.6,0.3l0.1-0.1l-0.1-0.3
		l-0.3-0.1L191.6,108.3z M194.3,119.7l-0.6-0.6l-0.7-0.6l-0.3-0.3h-0.3l-0.1,0.4l0.3,0.3v0.4l-0.3,0.8l0.6,0.4l0.6,0.1l0.4-0.4
		l0.4-0.1V119.7z M193.3,121.7l-0.3-0.1l-0.1-0.1h-0.4l-0.1,0.4l0.1,0.3h0.3l0.3-0.1L193.3,121.7z M193.3,116.8L193,117l-0.3,0.4
		l0.3,0.3l0.3,0.1h0.8l1-0.1l-1.4-0.7l-0.1-0.3H193.3z M194.1,111.3l0.6-0.4l0.3-0.4l-0.3-0.1h-0.1l-0.4,0.3V111.3z M194.5,111.7
		l-0.3,0.4l0.1,0.4l0.1,0.1l0.1-0.1l0.1-0.4L194.5,111.7z M195.2,123.5l-0.3-0.4v-0.4l0.1-0.6l-0.3-0.3l-0.4,0.3l0.1,0.4l-0.1,0.1
		v0.8l0.4,0.4h0.4V123.5z M195.7,36.7l0.1,0.1l0.3,0.1l0.1-0.1v-0.4l-0.3-0.1l-0.3,0.1V36.7z M195.7,110.6l0.1,0.1l0.3-0.1l0.1-0.3
		V110h-0.1l-0.4,0.1V110.6z M196.9,32.9l0.3,0.1l0.3-0.3l-0.1-0.3l-0.1-0.1h-0.3V32.9z M197.6,36.7l0.1,0.3h0.6l0.1-0.1l-0.1-0.3
		l-0.4-0.1h-0.1L197.6,36.7z M197.6,113.2l0.4,0.3l0.3,0.1h0.4l0.6,0.1v0.6l-0.1,0.3v0.4h0.3l0.1-0.1l0.8-0.3h0.3l0.1-0.6l0.3-0.6
		v-0.7l-0.7-0.3h-1.3l-1.1,0.3L197.6,113.2z M201,121.3l-0.4-0.6l-0.8-0.6l-0.7-0.4l-0.3,0.7l0.4,1.1l1.1,0.1L201,121.3z
		 M199.2,110.7l1,0.1l1-0.1l0.6,0.3l0.8-0.1l-0.6-0.3l-0.4-0.3l-0.1,0.1h-0.3l-1-0.4L199.2,110.7z M202.9,122.7l-0.1-0.7l-0.3-0.6
		l-0.6,0.1l-0.4,0.7l-0.1,0.7l0.4,0.4l0.8-0.1L202.9,122.7z M203,114.1v-0.3l-0.4-0.1l-0.4,0.4H203z M203.7,116.8l-0.1-0.4l-0.6-0.3
		l-0.3-0.8l-0.4,0.7l0.1,0.6v0.1l-0.1,0.4l0.3,0.3l0.6-0.1L203.7,116.8z M202.9,112.3l0.1,0.3l0.3,0.1h0.3l0.1-0.3l-0.3-0.3
		l-0.3-0.1h-0.3V112.3z M204,117.8l0.3,0.3l0.3-0.1l0.1-0.3l-0.1-0.1h-0.3v0.1L204,117.8z M219.9,65.1l1.7-0.7l0.6-0.6l0.3-0.8
		l0.4-1.4l0.1-1.1l0.1-1.3l0.7-4.9v-5.1l-0.1-5.1v-9.6l2,0.1l0.8,0.3l0.4,0.6l0.3,0.7l0.8,5.9V50l0.1,6.9v3l-0.3,4.1l-0.4,2.4
		l-0.3,1l-0.1,0.8l-0.6,0.6l-0.8,0.3l-2.5,0.4h-8.9l-3.5-0.1l-3.5-0.6l-0.6-0.4l-0.4-0.4L206,67l-0.4-2h3.5l6.2,0.4l3.2-0.4H219.9z
		 M206.7,117l0.4,0.8l0.3-0.8l0.3-0.7l0.3-0.1l0.4-0.3l-0.8-0.3l-0.6,0.7L206.7,117z M210,112.5h0.1l0.1,0.1h0.1l0.3-0.1l0.3-0.3
		v-0.6l-0.4,0.3L210,112.5z M211.2,113l-0.3,0.1l-0.1,0.6l0.6,0.1l0.4,0.4v-0.4l0.1-0.3l-0.3-0.1l-0.3-0.3l0.1-0.1H211.2z"/>
	<path class="st0" d="M244.4,129.2L240,129l-3.1-0.6l-1.1-0.1l-0.7-0.1l-0.6-0.6l-0.3-0.8l-0.4-2.7l0.3-3.8l0.1-5.5l0.1-3.7l0.4-2.7
		l0.1-1l0.4-0.7l0.4-0.6l0.8-0.3l2.1-0.1l3,0.8l2-0.1l0.8-0.3l0.6-0.4l0.3-0.7l0.3-1l0.4-3.1l0.1-4.2l-0.1-6.2l-0.4-4.2l-0.1-6.2
		V69.7l0.3-4.2l0.1-6.2l0.3-4.2l-0.3-3.1l-0.3-1l-0.4-0.6l-0.7-0.4l-0.8-0.3l-2-0.3l-2.8,0.3l-2-0.3l-0.8-0.1l-0.6-0.4l-0.3-0.4
		l-0.1-0.8l-0.4-2.7l-0.4-3.7v-5.4l0.3-3.7l0.4-2.7l0.1-1l0.3-0.8l0.4-0.6l1-0.3l3.1-0.3l4.4,0.8l3.1,0.3h7.5l3.2,0.1l5.2-0.3
		l2.1-0.3l8.5-0.1h5.4l5.4,0.1h2.1l6.2,0.1l2.3,0.1l5.2,0.1l5.4-0.1h5.4l3.1-0.3l4.4-0.6l3.1,0.3l0.8,0.3l0.4,0.6l0.3,0.7l0.8,5.9
		v7.9l0.1,3.9v7.9l-0.7,4.9l-0.3,1L323,61l-0.6,0.6l-0.8,0.3l-2.5,0.4l-3.7-0.3l-2.7-0.1h-2.5l-3.5-0.1l-3.5-0.6l-0.6-0.4l-0.4-0.4
		l-0.3-0.8l-0.4-1.8l0.4-2.5l0.1-1.8v-1.4l-0.1-0.7l-0.4-0.3l-3.7-0.3l-5.2,0.6l-3.7,0.3l-8.9-0.3l-3.7,0.1l-1,0.1l-0.6,0.6
		l-0.4,0.6l-0.1,0.8v3.4l-0.1,4.5l0.4,3.2l0.3,1l0.3,0.7l0.6,0.3l1,0.3l2.8,0.4h2.1l2-0.1h3l3-0.1l2-0.1l2,0.1l3.9,0.6l0.8,0.3
		l0.6,0.4l0.3,0.8l0.4,2.7l-0.4,3.7l-0.1,2.8l0.1,2.7l0.1,3.7l-0.3,2.7l-0.3,1l-1.1,1.1l-1,0.3l-2.7,0.3l-3.8-0.6l-2.8-0.3l-2.7,0.1
		l-1.8,0.3l-4.6,0.3l-1.6,0.1l-1.3,0.7l-1,1.1l-0.3,1.4l0.1,3l0.1,2.1l0.3,2v3l0.1,0.7l0.1,0.6l0.4,0.4l0.6,0.1l3.8-0.1l5.1-0.3
		h10.1l2.7,0.1h3.7l0.7,0.1l0.6,0.1h0.4l0.4-0.4l0.4-2.3l-0.1-1.7l-0.3-1.7l0.4-2.4l0.3-0.8l0.3-0.6l0.7-0.3l1-0.1l2.5-0.1l3.5-0.1
		h2.7l4.4-0.4l1.8-0.1l2.7,0.3l1,0.3l0.7,0.6l0.4,0.7l0.3,1l0.3,3l-0.8,4.1l-0.3,3.1l0.1,3l0.3,3.9v3.1l0.3,3l0.3,4.1l-0.3,3l-0.3,1
		l-0.4,0.7l-0.7,0.4l-1,0.3l-3.1,0.4h-2.3l-2.3-0.1l-3.2-0.1h-24.8l-4.5-0.4l-3.1-0.1l-3.2,0.1l-4.4,0.4h-3.2l-7.6-0.1h-6.5
		l-4.4-0.1L244.4,129.2z M239.9,121l-0.4-0.6l-0.6-0.1l-0.1,0.1v0.1l0.4,0.4H239.9z M333.6,129.3l0.1,2.1l-0.3,3l-0.3,1l-0.4,0.7
		l-0.7,0.4l-1,0.3l-3.1,0.4h-2.3l-2.3-0.1l-3.2-0.1h-24.8l-2.3-0.3l-5.4-0.3l-3.2,0.1l-4.4,0.4h-8.7l-8.6-0.1l-4.4-0.1h-3.2
		l-3.2,0.1h-2.1l-6.5-0.8l-0.7-0.1l-0.6-0.6l-0.3-0.8l-0.3-2h2.8l3.1-0.1l5.4,0.1h8.6l2.3,0.1h8.7l4.5-0.4l3.1-0.1l5.1,0.3l2.3,0.3
		l28.2,0.1l2.4,0.1h2.7l3.4-0.4l1.3-0.4l1-0.4l0.7-0.6l0.6-0.4l0.4-0.6l0.4-0.7l0.3-0.8l0.3-1.4l0.4-3l-0.1-2.7l-0.3-2.1l-0.1-5.8
		l-0.3-4.2l-0.1-2.7l0.3-2.5l0.4-2l0.1-0.6l2,0.1l1,0.3l0.7,0.6l0.4,0.7l0.3,1l0.3,3l-0.8,4.1l-0.3,3.1l0.1,3l0.3,3.9v3.1l0.3,3
		L333.6,129.3z M243.4,34.1l-0.1-0.1h-0.6v0.1l0.1,0.3l0.3,0.1l0.3-0.3V34.1z M245.7,36.2l-0.1-1.3l-0.7-0.4h-0.3l-0.1,0.3l0.4,0.6
		L245.7,36.2z M245.7,119.4l0.4,0.6l0.6-0.1l0.3-0.6l0.3-0.1l0.4-0.1l-0.6-0.4l-0.7,0.1h-0.1l-0.3-0.3l-0.3,0.3V119.4z M247.1,36.9
		l0.1,0.1h0.4l0.1-0.3v-0.1l-0.1-0.3l-0.4,0.1l-0.1,0.3V36.9z M247.1,40l0.1,0.7l0.8-0.6v-0.8h-0.6L247.1,40z M248.4,114.2l-0.3-0.1
		h-0.1l-0.1,0.3v0.1l0.3,0.1h0.3l0.1-0.3L248.4,114.2z M248.6,41.2l0.1,0.7h0.4l0.3-0.4l0.3-0.6l-0.7-0.3L248.6,41.2z M248.8,35h0.3
		l0.1-0.1v-0.4h-0.1l-0.3,0.1V35z M248.8,36.6l0.3,0.8l0.6,0.3l0.6-0.4l1.1-1l1.3-1h-1.8l-1.5,0.4L248.8,36.6z M252.6,40.5l-1-0.7
		l-1-0.4l-0.6-0.6l-1-0.3l0.6,0.7l0.3,0.4h0.4l0.8,1.1L252.6,40.5z M251.3,34.1l0.4,0.6h0.4l0.4-0.1v-0.6l-0.4-0.4l-0.4-0.1
		l-0.4,0.1V34.1z M252,42.7l0.8,0.1l-0.4-0.7l-0.6-0.1l-0.4,0.1v0.3L252,42.7z M251.6,31.7l0.3,0.6l0.4,0.1l0.4-0.4v-0.3l-0.3-0.1
		H252L251.6,31.7z M254.1,37.6L252,37l0.4,0.8l1-0.3l0.1,0.7l0.1,0.6L254.1,37.6z M254.3,44.6l0.4-0.3l0.3-0.3l0.3-0.1v-0.3l0.1-0.1
		v-0.3h-0.3l-0.3,0.1l-0.1,0.1l-0.3,0.6l-0.3,0.4l-0.7,0.7l0.1-0.3l0.1-0.1l0.3-0.6v-0.1l0.1-0.1v-0.8l0.1-0.4l-1,0.6l-1,0.7
		l0.3,0.4l0.4,0.3l0.4,0.4v0.3v0.1v-0.1l0.3-0.3l0.3-0.1L254.3,44.6z M254.3,41.2h-0.4l-0.3,0.1v0.3l0.3,0.1l0.4,0.1l0.3-0.1v-0.3
		L254.3,41.2z M254.3,35.3l0.3,0.1l0.4-0.1l0.8-0.1l0.8-0.3l-0.1-0.1v-0.1l-0.8-0.1l-0.7-0.1h-0.4l-0.3,0.3V35.3z M254.3,36.6
		l0.6,0.3l0.8,0.6l0.6,0.8l0.3-1.5l-1.1-1h-0.3l-0.7,0.1L254.3,36.6z M255,110.3l-0.3-0.1l0.1,0.1H255z M256.7,45.2h0.4l0.4-0.1h0.3
		l0.6-0.3l-0.6-0.1h-0.6l-0.3-0.1l-0.4-0.1v-0.1h-0.1l-0.3,0.1H256v0.3l-0.1,0.1l-0.1,0.3h-0.3l-0.3,0.1l-0.1,0.1h-0.1l0.3,0.1
		l0.4,0.6l0.6-0.3v-0.4h0.3L256.7,45.2z M255.8,41.5l-0.1,0.1l-0.3,0.6v0.1l-0.1,0.1l0.1,0.1h0.1l0.3-0.1l0.3-0.4l0.1-0.1l0.3-0.1
		h0.4l0.6-0.1h0.6l0.6-0.3l0.7-0.4v-0.1l-0.1-0.1l-0.4,0.1h-0.6l-0.8,0.6h-1l-0.3,0.1H255.8z M257.7,42.7l0.3-0.6v-0.1h-0.3
		l-0.3,0.3l-0.3,0.1l-0.1,0.3l-0.6,0.6l-0.6,0.3l-0.1,0.1l-0.1,0.3l0.3-0.1h0.3l0.1-0.3l0.6-0.3l0.1-0.1L257.7,42.7z M256,40.3h0.1
		l0.1,0.3l0.1-0.4l0.1-0.3l-0.1-0.1l-0.1-0.3h-0.1l-0.3,0.1v0.6L256,40.3z M256.7,51.7h-0.6l-0.3,0.1l0.1,0.3l0.4,0.1l0.3-0.3V51.7z
		 M256.9,40.1l0.3,0.3l0.1,0.4l0.6-0.3l0.6-0.1l0.8-0.3l-0.1-0.3v-0.3L260,39l0.3,0.1l-0.6,0.4l-0.4,0.7l0.7,0.6l0.6,0.4l0.4-0.6
		l0.7,0.3v0.7l-0.3,0.7l1.1,0.8l0.4-0.3l0.1-0.4l-0.4-0.3v-0.3l0.3-0.3h0.6v0.3l0.6,0.3l0.4-0.3v-0.6h0.6l0.1-0.6l0.7-0.1l0.6-0.1
		l-0.1-1.1l-0.4-1.3l-0.6,0.8v0.7l-0.4,0.6l-0.3,0.6l-0.1,0.1l-0.1-0.3l-0.3-0.1H264l-0.4,0.3v0.3H263l-0.8-0.7l-1.1-0.3l-0.7-1
		l0.6,0.3l0.7,0.6h0.3l0.6,0.1l0.3,0.1h0.3l0.7-0.7v-0.7l-0.8,0.1l-0.7-0.3l0.1-0.1v-0.3l0.3-0.3l0.3-0.4l0.1-0.3l0.1-0.4l0.6-0.6
		l-0.8-0.7l0.1-0.3l0.1-0.4l0.1-0.3l0.1-0.4l-2.7-1l-0.8-0.3h-1.1l0.3,0.4l0.1,0.1v0.1h0.1l0.1,0.3l1.3,0.6l1.3,1.3l0.3,0.4l0.1,0.3
		l0.1,0.1l-0.6,0.7l-0.7,0.6l-0.8,0.1l-0.8,0.3l-1.1,0.8l-0.8,0.1h-0.7V40.1z M262,48.6l-0.7-0.4l-1.7,0.3l-0.6-0.1l-0.7-0.1h-0.8
		l-0.4,0.6l0.1,0.4h3.1l0.3-0.3l0.4-0.1l0.3,0.6l0.7,0.3V48.6z M257.4,35l0.6,1.1l0.8,0.8l0.6-0.1l0.4-0.1l0.1-0.7v-0.8l-1-0.6
		l-0.1-0.1h-0.1v-0.1l-0.3-0.1l-0.1-0.1l-0.8,0.1V35z M257.4,43.9h0.6l0.4-0.1l0.1-0.1v-0.3l-0.1-0.1h-0.3l-0.3,0.3l-0.3,0.1
		L257.4,43.9z M258.2,46.2l-0.4-0.1h-0.4v0.3l0.1,0.4l0.6,0.3l0.1-0.1l0.1-0.3L258.2,46.2z M259.1,55.3l0.4-0.4l-0.1-0.1h-0.7
		l-0.1,0.3l0.3,0.3H259.1z M261,50.7l-1.6,0.3l-0.1,1.4l0.1,0.4l0.3,0.1l0.4-0.7v-0.7l0.6-0.3L261,50.7z M260.2,58.7l0.1,0.1h0.1
		l0.3-0.6l-0.3-0.7l-0.4,0.6L260.2,58.7z M263.7,52.7l-0.1-0.3l-0.3-0.1l-0.1,0.1v0.1l0.1,0.4h0.3l0.1-0.1V52.7z M263.4,41.4
		l0.1-0.3l1-0.1v0.3v0.1h-0.1l-0.7,0.3h-0.1L263.4,41.4z M265.3,48.8l-0.1-0.6l-0.4-0.3l-0.4,0.3l-0.1,0.6l0.1,0.6l0.4,0.1l0.4-0.3
		L265.3,48.8z M264.6,39.4l0.1,0.3l0.3-0.6l0.1-0.6v-0.3l-0.1-0.1l-0.4,0.4V39.4z M267.1,45.9l-0.6,0.1h-0.4l-0.4-0.3h-0.3v0.4
		l0.4,0.1l0.7,0.1L267.1,45.9z M265.4,115.2l0.1,0.1l0.3,0.1l0.1-0.1l0.1-0.3l-0.1-0.3h-0.1l-0.3,0.1L265.4,115.2z M267.4,122.3
		l-1.4-0.6l-0.3,0.1l-0.1,0.3l0.6,0.4h0.7l0.3,0.1L267.4,122.3z M266.8,103.2l0.3-0.6l-0.6-0.3l-0.4,0.1l-0.1,0.7l0.1,0.6l0.4-0.3
		L266.8,103.2z M266.1,36l0.3,0.4l0.4-0.1l0.1,0.1h0.8l0.6-0.6v-0.1l-0.6-0.1l-0.4,0.3H267l-0.6-0.1L266.1,36z M266.5,118.9
		l-0.3,0.3l0.3,0.3h0.3v-0.3L266.5,118.9z M267.2,53.5l-0.3,0.1l-0.3,0.4v0.1l0.1,0.1h0.4l0.3-0.3v-0.4L267.2,53.5z M267.5,120.3
		l-0.1-0.3l-0.1-0.1L267,120l-0.1,0.3l0.1,0.1l0.3,0.1L267.5,120.3z M268.5,118.2l-0.7-0.4H267v0.1l0.1,0.3l0.7,0.3L268.5,118.2z
		 M267.8,48.4l0.1-0.3l0.1-0.1l-0.7-0.1l0.1,0.6l0.3,0.8l1.1,0.3l-0.7-0.6L267.8,48.4z M268.6,37.2l-0.4,0.1l-0.3,0.4l0.3,0.4
		l0.4,0.1l0.4-0.1l0.1-0.4l-0.1-0.4L268.6,37.2z M270.3,117.6l-0.4-0.3h-0.6l-0.4,0.3v0.4l0.4,0.4l0.6-0.1l0.4-0.1V117.6z
		 M269.1,114.9h0.1l0.1-0.1v-0.6h-0.3V114.9z M270.2,120.1l-0.3-0.1h-0.4l-0.1,0.1v0.3l0.1,0.1h0.3l0.3-0.1L270.2,120.1z
		 M269.5,45.3h0.7l0.6,0.1l0.4,0.6l0.1-1l-0.8-0.3l-0.6-0.1l-0.4,0.1V45.3z M269.5,106.3l0.6,0.6v-0.6l-0.1-0.4l0.4-0.3l-0.1-0.4
		h-0.3l-0.3,0.4L269.5,106.3z M270.5,47.2l-0.3-0.4l-0.4-0.1v0.6l0.4,0.3h0.1L270.5,47.2z M270.5,42.7l0.3,0.4l0.1-0.1v-0.1l0.1-0.4
		h-0.4L270.5,42.7z M271.5,115.1l-0.1,0.6l0.3,0.6h0.1l0.3-0.1l-0.1-0.6L271.5,115.1z M271.6,33.6l0.4,0.4l-0.1,1.3l1.3,0.1h1l1,0.4
		h2.1l0.8-0.7h-1l-0.8,0.1l-1,0.1l-1.1-0.1l-0.3-0.6l-0.1-0.7l0.7-0.1v-0.7l-0.3-0.4l-0.4,0.1h-0.8l-0.7-0.4h-0.6V33.6z M272.3,41.7
		l0.1,0.3l0.4-0.3v-0.4l-0.3-0.1l-0.3,0.1l-0.1,0.3L272.3,41.7z M272.9,47.3l0.6-0.8l-0.8-1l-0.1,1.1v1h0.3L272.9,47.3z M276.1,38.6
		l-1.1-0.1l0.1,0.4l0.4,0.3v0.1l-0.4-0.3h-0.4v-0.1l-0.3-0.1v-0.3l-0.3-0.4v-0.4l0.3-0.3l-0.1-0.1L274,37l-0.4,0.3l-0.6,0.1
		l-0.4,0.1l0.3,0.6h0.6l0.4,0.8l-0.1,1l0.3,0.3v0.8l-0.1,0.8l-0.1,0.4l0.1,0.3l0.3,0.1l0.1-0.3l0.7-1.1l0.6-1.1v-0.6l0.4-0.1
		l0.1-0.1V38.6z M273.6,48.7l-0.3-0.3H273l0.1,0.6l0.4,0.3V48.7z M274.3,115.9h0.4l0.4-0.4l-0.1-0.7l-0.4,0.6L274.3,115.9z
		 M275,121.8l-0.1,0.7l0.1,0.4l0.4-0.1l0.3-0.3l0.1-0.6l-0.4-0.4L275,121.8z M275.1,33.2l0.6,0.1l0.6-0.3l0.6-0.1h0.6l-0.3-0.4
		l-0.1-0.6l-0.3-0.3l0.3-0.4l-0.8-0.3l-0.7,0.1l-0.1,0.4l0.3,0.3l-0.4,0.4V33.2z M275.5,31.8l0.3-0.3h0.7l0.1,0.1l-0.3,0.3
		L275.5,31.8z M276.1,112.5l0.1,0.1l0.3-0.1l0.1-0.4h-0.1l-0.1-0.1l-0.3,0.1V112.5z M278.4,37.4l-0.8-0.1l-1.3,0.8l0.8,0.3l0.6,0.1
		l0.8-0.3L278.4,37.4z M276.8,117.2l-0.1,0.1l0.1,0.3l0.7,0.1l0.7-0.6l-0.7-0.3L276.8,117.2z M277.8,121.3l-0.1-0.1l-0.3-0.1
		l-0.3,0.4v0.6l0.6-0.1L277.8,121.3z M307.1,79.3l-0.6,6.5l0.1,2.7l0.1,1.8v0.8h-1.3l-2.1,0.4l-1.4,0.7l-1,1.3l-0.7,1.8l-0.3,2
		l-0.6-0.1l-1.8-0.3l-2.8-0.3l-2.7,0.1h-1.8l-1.8-0.1l-2.8,0.1H284l-1.4,0.4l-0.8,0.7l-0.3,1.3l0.1,2l-2.3,0.1l-1.5,0.1v-1.5
		l-0.3-2.3l-0.3-1.8v-2.7l1.1-0.1l2.7-0.1l3.7-0.4l2.4-0.1l2.4,0.3l1.7,0.3l2.1,0.3h0.7l2.7-0.4l1.5-0.3l0.6-0.1l1.1-0.8l0.8-0.8
		l1-1.7l0.3-1.4l0.4-3.1l-0.3-6.3l0.1-2.4l0.1-1l1.5,0.3l1,0.1l0.8,0.3l0.6,0.4l0.3,0.8L307.1,79.3z M298.4,54.5l-0.3,1.4l0.1,3
		l-1.7,0.1l-3.8-0.1l-2.5-0.1h-2.5l-3.7,0.1l-1,0.1l-0.6,0.6l-0.4,0.6l-0.1,0.8v2.7h-2.3l-2-0.3l-0.3-2.5l0.1-4.1v-2.4h4.8l2.5,0.1
		l3.8,0.1l4.1-0.3l2.7-0.4l2.3-0.1l0.7,0.1V54.5z M278.6,46.3l-0.6-0.7l-0.1,0.7l0.1,0.7l0.1,0.1l0.3-0.1L278.6,46.3z M278.1,115.8
		l1,0.8l0.8-0.6l0.3-0.1v-0.3h-1L278.1,115.8z M279.8,33.4l0.3,0.6l0.6,0.1l0.1-0.4l-0.1-0.6l0.1-0.3l-0.1-0.3l-0.6,0.1L279.8,33.4z
		 M280.6,37.6l-0.1-0.7l-0.6,0.7l0.6,0.6L280.6,37.6z M281,116.5l0.4,0.3h0.4l-0.3-0.4l-0.6-0.1V116.5z M281.7,47l0.4,0.4l0.4-0.6
		l-0.6-0.1h-0.1L281.7,47z M283,44.2l-0.4,1l-0.1,0.3l0.1,0.3l0.3,0.1h0.3l0.4-1.1l1,0.6h0.4l0.4-0.4l0.6-0.8l0.1-1l-0.4,0.4
		l-0.3,0.4l-0.7,0.4l-0.6-0.1l-0.7-0.7l-1-0.1L283,44.2z M283.6,34.1l0.3,0.6l0.8,0.4l1-0.6l-0.6-0.4l-0.4-0.4l-0.6-0.3l-0.4,0.3
		L283.6,34.1z M284.4,121.8l0.1,0.3h0.6l0.3-0.1l-0.1-0.3l-0.3-0.1h-0.4L284.4,121.8z M284.8,116.6l0.1,0.4l0.3,0.1l0.4-0.1l0.1-0.4
		l-0.3-0.4l-0.1-0.4l-0.4,0.4L284.8,116.6z M286.3,37.7l0.6,1l0.4-1.1L286.3,37.7z M286.3,118.6l0.3,0.6h0.8l0.3-0.1l0.3-0.3
		l-0.3-0.3h-1.1L286.3,118.6z M286.4,35.5l0.4,0.7l-0.1,0.1h1.1l1-0.4l0.6,0.6h0.7l0.3-0.3l-0.6-0.6h-1l-0.8-1l-1.3,0.3L286.4,35.5z
		 M288.8,122.3h-0.7l-0.4-0.4h-0.4v0.6l0.7,0.3l0.4-0.1L288.8,122.3z M287.8,110.8l0.1,0.1l0.3,0.1l0.3-0.3l-0.1-0.3l-0.3-0.1
		l-0.1,0.1L287.8,110.8z M288.8,120l0.4,0.3h0.3l0.4-0.1l0.3-0.4l-0.3-0.1l-0.3-0.3l-0.6,0.3L288.8,120z M290.2,122.3l-0.1-0.3h-0.3
		l-0.1,0.1l-0.3,0.1l0.6,0.3L290.2,122.3z M290.5,38l-0.4,0.1l0.1,0.4l0.4,0.3l0.4-0.3l0.6-0.1l0.1-0.3l-0.6-0.4L290.5,38z
		 M291.3,40.1l-0.4-0.3l-0.6,0.1v0.4h0.6L291.3,40.1z M290.6,34.9l0.7-0.4l0.4-1.1v-0.7l-0.6-0.1l-0.3,0.3v0.6l-0.3,0.8V34.9z
		 M292.7,119.6h0.6l0.1-0.6l-0.4-0.4l-0.3,0.1V119.6z M293.6,37l0.6-0.1l0.3-0.4v-0.1l-0.1-0.1l-0.4,0.4L293.6,37z M294.6,38.6
		l-0.6-0.1l-0.3,0.1l0.1,0.3l0.4,0.4l0.6-0.1L294.6,38.6z M295,42.5l-0.6,0.1l-0.3,0.7l0.1,0.4l0.7-0.1l0.6-0.7L295,42.5z
		 M294.1,114.9l0.3,0.7l0.7,0.6l0.3-0.6l-0.1-0.6l-0.6-0.3L294.1,114.9z M296.7,123.8l-0.3-0.6h-1.3l-0.7-0.4l0.3,1.3l1.1,0.3h0.1
		l0.1-0.1L296.7,123.8z M294.7,112.1l0.4,0.6l0.1,0.6v0.6l0.4-0.3l0.6-0.1l0.4-0.4v-0.6l-0.7-0.7h-1L294.7,112.1z M295.1,108.3
		l0.6,0.3l0.1-0.1l-0.1-0.3l-0.3-0.1L295.1,108.3z M297.8,119.7l-0.6-0.6l-0.7-0.6l-0.3-0.3H296l-0.1,0.4l0.3,0.3v0.4l-0.3,0.8
		l0.6,0.4l0.6,0.1l0.4-0.4l0.4-0.1V119.7z M296.8,121.7l-0.3-0.1l-0.1-0.1H296l-0.1,0.4l0.1,0.3h0.3l0.3-0.1L296.8,121.7z
		 M296.8,116.8l-0.3,0.3l-0.3,0.4l0.3,0.3l0.3,0.1h0.8l1-0.1l-1.4-0.7l-0.1-0.3H296.8z M297.7,111.3l0.6-0.4l0.3-0.4l-0.3-0.1h-0.1
		l-0.4,0.3V111.3z M298.1,111.7l-0.3,0.4l0.1,0.4l0.1,0.1l0.1-0.1l0.1-0.4L298.1,111.7z M298.8,123.5l-0.3-0.4v-0.4l0.1-0.6
		l-0.3-0.3l-0.4,0.3l0.1,0.4l-0.1,0.1v0.8l0.4,0.4h0.4V123.5z M299.2,36.7l0.1,0.1l0.3,0.1l0.1-0.1v-0.4l-0.3-0.1l-0.3,0.1V36.7z
		 M299.2,110.6l0.1,0.1l0.3-0.1l0.1-0.3V110h-0.1l-0.4,0.1V110.6z M300.5,32.9l0.3,0.1l0.3-0.3l-0.1-0.3l-0.1-0.1h-0.3V32.9z
		 M301.2,36.7l0.1,0.3h0.6l0.1-0.1l-0.1-0.3l-0.4-0.1h-0.1L301.2,36.7z M301.2,113.2l0.4,0.3l0.3,0.1h0.4l0.6,0.1v0.6l-0.1,0.3v0.4
		h0.3l0.1-0.1l0.8-0.3h0.3l0.1-0.6l0.3-0.6v-0.7l-0.7-0.3h-1.3l-1.1,0.3L301.2,113.2z M304.6,121.3l-0.4-0.6l-0.8-0.6l-0.7-0.4
		l-0.3,0.7l0.4,1.1l1.1,0.1L304.6,121.3z M302.7,110.7l1,0.1l1-0.1l0.6,0.3l0.8-0.1l-0.6-0.3l-0.4-0.3l-0.1,0.1h-0.3l-1-0.4
		L302.7,110.7z M306.4,122.7l-0.1-0.7l-0.3-0.6l-0.6,0.1l-0.4,0.7l-0.1,0.7l0.4,0.4l0.8-0.1L306.4,122.7z M306.5,114.1v-0.3
		l-0.4-0.1l-0.4,0.4H306.5z M307.3,116.8l-0.1-0.4l-0.6-0.3l-0.3-0.8l-0.4,0.7l0.1,0.6v0.1l-0.1,0.4l0.3,0.3l0.6-0.1L307.3,116.8z
		 M306.4,112.3l0.1,0.3l0.3,0.1h0.3l0.1-0.3l-0.3-0.3l-0.3-0.1h-0.3V112.3z M307.5,117.8l0.3,0.3l0.3-0.1l0.1-0.3l-0.1-0.1h-0.3v0.1
		L307.5,117.8z M323.5,65.1l1.7-0.7l0.6-0.6l0.3-0.8l0.4-1.4l0.1-1.1l0.1-1.3l0.7-4.9v-5.1l-0.1-5.1v-9.6l2,0.1l0.8,0.3l0.4,0.6
		l0.3,0.7l0.8,5.9V50l0.1,6.9v3l-0.3,4.1l-0.4,2.4l-0.3,1l-0.1,0.8l-0.6,0.6l-0.8,0.3l-2.5,0.4h-8.9l-3.5-0.1l-3.5-0.6l-0.6-0.4
		l-0.4-0.4l-0.3-0.8l-0.4-2h3.5l6.2,0.4l3.2-0.4H323.5z M310.2,117l0.4,0.8l0.3-0.8l0.3-0.7l0.3-0.1l0.4-0.3l-0.8-0.3l-0.6,0.7
		L310.2,117z M313.6,112.5h0.1l0.1,0.1h0.1l0.3-0.1l0.3-0.3v-0.6l-0.4,0.3L313.6,112.5z M314.7,113l-0.3,0.1l-0.1,0.6l0.6,0.1
		l0.4,0.4v-0.4l0.1-0.3l-0.3-0.1l-0.3-0.3l0.1-0.1H314.7z"/>
	<path class="st0" d="M443.5,121.7l-0.3,4.6l0.3,1.5l-0.7,1l-4.9,0.3l-4.9-0.4l-4.9-0.1l-4.9-0.3l-4.9,0.3l-4.9,0.4l-4.9,0.1
		l-4.9-0.7l-1-0.7l-0.3-1.4l0.1-5.9l0.4-5.9v-0.7l-0.1-0.7l-2.7-4.1l-2.8-3.9l-6.2-7.6l-1.3-1.1l-1.5-0.4l-2.4-0.1h-2.4l-1.3-0.3
		l-1.3-0.1l-0.7,0.3l-0.4,0.4l-0.3,1.5v7.9l0.3,1.3l0.6,0.4l0.6,0.1l3.8-0.1l3.7,0.4l1,0.3l0.6,0.6l0.6,0.8l0.4,2.5v2.3l-0.4,4.1
		v4.1l-0.1,4.1l-0.1,0.7l-0.6,0.6l-1.5,0.6l-4.9,0.4l-5.1,0.3l-4.9-0.3l-4.9-0.4l-10,0.6h-10l-5.1,0.3l-4.9-0.4l-0.6-0.8l0.3-1.4
		l0.1-5.2l0.3-5.1l-0.3-5.1l0.6-5.1l0.6-0.7l1.1,0.1l3.9,0.4l3.9-0.1l1.4-0.6l0.3-0.6l0.1-0.8l0.3-5.2l-0.4-5.2l0.4-5.2l0.3-5.2
		l-0.6-10.4l0.4-5.2l0.3-5.2l-0.3-5.2l-0.4-5.2l0.1-1.5l-0.1-0.8l-0.4-0.1l-7.9,0.8l-2.8-0.3l-0.8-0.8v-1.5l-0.1-4.5v-9l0.3-4.5
		l0.3-1l0.7-0.7l1.1-0.7l1.3-0.3l9.7,0.6h9.9l4.8,0.1h4.9l4.8,0.1h4.9l9.7-0.6l14.8,0.4l4.6,0.7l5.1,1l4.5,1.5l4.5,2.4l3.9,2.7
		l3.5,3.7l2.7,4.1l2.7,4.2l2,4.5l0.8,4.9l0.1,4.9l-0.4,6.1l-1.5,5.6l-2.3,5.4l-3.5,4.9l-4.5,3.2l-5.5,3.1l-0.7,0.7l-0.4,1V93
		l0.4,0.8l4.1,5.8l4.4,5.5l0.8,0.7l1.1,0.1l4.9-0.3l4.9,0.1l1.5,0.7l0.4,0.6l0.1,1l0.4,2.7v1.8L443.5,121.7z M398,117l-0.6-0.8
		l-0.6-0.6l-1-0.3l-2-0.3l-0.3,3.4v3.8l-0.1,4.1l-0.1,1.5v1l-0.3,1.3l-0.4,0.7l-1.1,0.4l-1.1,0.1l-2,0.3l-5.2,0.1l-5.1,0.4l-5.5-0.3
		l-4.8-0.4l-9.7,0.6H348l-2.5,0.1v1.8l-0.3,1.4l0.6,0.8l4.9,0.4l5.1-0.3h10l10-0.6l4.9,0.4l4.9,0.3l5.1-0.3l4.9-0.4l1.5-0.6l0.6-0.6
		l0.1-0.7l0.1-4.1v-4.1l0.4-4.1v-2.3L398,117z M355.3,84.2l-0.3,0.3v0.3l0.4,0.1h0.1l0.1-0.1l-0.1-0.3L355.3,84.2z M359.1,54.1
		l0.3-0.6l0.6-0.4l-0.1-0.8l-0.6-0.6l-0.6,0.3h-0.6l-0.6-0.1l-0.4-0.3l-0.4,0.1v0.4l0.3,0.3l0.7,1l0.8,0.6L359.1,54.1z M357.7,51.4
		v-0.8h1.4l0.4-0.3l0.4-0.1l-2-1.4l-0.3,0.6l-0.1,0.6l-0.4,0.7L357.7,51.4z M359.2,60.7l0.1-0.7l0.6-0.1h0.6l0.7-0.1l0.6-0.3l-1-0.7
		l-0.8-1l0.3-0.4l-0.4-0.4l-0.4,0.3v0.4l-0.3,0.6v0.6l-0.7,0.1l-0.3,0.7l0.1,0.7l0.4,0.6L359.2,60.7z M359,44.9l0.7,0.1v-0.7
		l-0.7-0.3l-0.6,0.4l0.1,0.4H359z M359.5,67.3l-0.1-0.3l-0.3-0.1h-0.3l-0.3,0.3l0.1,0.3l0.4,0.1l0.1-0.1L359.5,67.3z M360.6,42.7
		v-0.3l-0.3-0.4h-0.8l-0.7,0.6l1,0.4L360.6,42.7z M359.4,47.3h-0.3V48l0.1,0.8l0.6-0.7l-0.1-0.7L359.4,47.3z M359.5,82.2l-0.4-0.4
		v0.6l0.3,0.4L359.5,82.2z M362.1,54.9l0.1-0.3l-0.1-0.1l-0.6-0.3l-0.6,0.4h-0.4l-0.1,0.1l-0.7-0.4l-0.4,0.4l0.3,0.6l0.7-0.1
		l0.1,0.1h0.3l0.7,0.1L362.1,54.9z M359.7,102l-0.3,0.1l-0.1,0.3v0.3l0.3,0.1l0.3-0.1v-0.6L359.7,102z M361.5,99.9l-0.6-0.4
		l-0.3-0.7l-0.6-0.4h-0.3l-0.1,0.1l0.4,1l0.8,0.6l0.4,0.1l0.3,0.4l-0.1,0.4l0.3,0.3h0.4l0.3-0.3v-0.6l-0.3-0.3L361.5,99.9z
		 M363.5,64.5l0.8-0.3l0.4,0.6l0.6,0.4l0.1-1.1l-0.7-0.6l-0.8,0.1l-1,0.1l-0.7-0.1l-0.7-0.3h-0.8l-0.6,0.4l0.1,0.4l0.6,0.1h1.4
		L363.5,64.5z M361.2,45l-0.7,1.3l0.8,1.3l0.3-1.3v-1.1l0.3-0.8l-0.1-1l-0.4,0.7l-0.3,0.6v0.3L361.2,45z M361.5,51.4l-0.6,0.1
		l-0.4,0.1v0.4l0.3,0.4h0.6l0.4,0.3l0.1,0.6l0.7,1l1.1,0.6l0.1-0.1l0.1-0.3l-0.6-0.7l-0.8-0.4l-0.3-0.7l-0.4-0.7L361.5,51.4z
		 M362.2,87.2l-0.7-0.1l-0.6,0.4l-0.4,0.1v0.6l0.6,0.7l0.7,0.6l0.3,0.3h0.3l0.3-0.3l-0.3-0.4v-0.8l0.3-0.6L362.2,87.2z M361.2,50
		l0.1-0.4v-0.3l-0.3-0.3l-0.4,0.1v0.7l0.3,0.3L361.2,50z M361.2,62.1l0.6-0.3l-0.3-0.6l-0.4-0.1h-0.4v0.1l0.1,0.6L361.2,62.1z
		 M361.1,57.7h0.8l0.3-0.3l-0.1-0.4l-0.6-0.3l-0.4,0.1l-0.1,0.6L361.1,57.7z M361.6,70.4l-0.3,0.1l-0.1,0.3l0.1,0.3h0.4l0.4-0.4
		l-0.1-0.3H361.6z M362.3,67.9v0.4l0.3,0.3l0.6-0.7v-0.7l0.6-0.3l0.4-0.6l-1.7,0.1L362.3,67.9z M362.9,41.4l0.3-0.1l0.1-0.3
		l-0.3-0.3l-0.4-0.1v0.1l-0.1,0.1l0.1,0.4L362.9,41.4z M364,37.4l-0.3-0.3h-0.3l-0.3,0.7l-0.6,1l1.1-0.6L364,37.4z M362.6,74.2v0.6
		l0.1,0.3h0.1l0.3-0.6l-0.1-0.8L362.6,74.2z M362.8,42.8l0.1,0.7l0.7,0.4l1.4,0.7l1.5,0.8l-0.8-1.8l-1.1-1.4l-1-0.1L362.8,42.8z
		 M363.2,50.7l-0.1,0.7l0.7-0.1l0.4-0.6l-0.1-0.1l-0.3-0.1L363.2,50.7z M363.6,35.9l0.3-0.3l-0.3-0.6l-0.1,0.1l-0.3,0.1l0.1,0.4
		L363.6,35.9z M368,55.9l-0.6-0.4v-0.6l0.4-0.1l0.8-0.1l1-0.3h0.7l0.4-0.6l0.7-0.1l0.8-0.3l-0.1-1.4l-0.7-1.5l-0.6,1l-0.1,0.8
		l-0.8,1.4l-0.1,0.1l-0.1,0.3l-1-0.1h-0.8l-1.1-0.8l-1.4-0.4l-0.8-1.3l-0.7,0.4l-0.6,1l0.8,0.7l0.7,0.6l0.6-0.6l0.8,0.3v0.8
		l-0.3,0.8l0.6,0.7l0.7,0.4l0.7-0.3L368,55.9z M364.4,45.6l-0.6,0.7l0.7,0.8l-1.1,0.8l1.4-0.1L364.4,45.6z M365.2,103.7l-0.3-0.4
		l-0.1-0.4l-0.4,0.7l0.1,0.7v0.1l-0.1,0.3l0.1,0.3h0.8l0.6-0.4l-0.1-0.6L365.2,103.7z M365.4,41.8h0.3l0.1-0.1l-0.3-0.3h-0.3
		l-0.3,0.1l0.3,0.1L365.4,41.8z M365.9,47.6v0.7l-0.1,1l-0.6,1l1.7-0.4l0.4-1.5V48l-0.6-0.6L365.9,47.6z M366.4,83.9l-0.6,0.1
		l-0.3,0.4l0.3,0.3l0.4,0.1l0.6-0.3l0.3-0.3l-0.4-0.3L366.4,83.9z M366.7,69l0.1-0.1l0.1-0.3l-0.3-0.3l-0.3-0.1h-0.1v0.3l0.1,0.4
		L366.7,69z M366.4,111.4l-0.1,0.6l0.1,0.1h0.3l0.4-0.6l-0.1-0.7L366.4,111.4z M367.4,44.9l0.6-0.1l0.1-0.6l-0.1-0.4l-0.3-0.6
		l-0.6,0.4l-0.3,0.6l0.1,0.4L367.4,44.9z M367.5,46.9l-0.3,0.1v0.4l0.3,0.3l0.6,0.7l0.4,0.7l0.1-0.1h0.1l-0.1-0.8l-0.1-1l-0.1-0.4
		H368L367.5,46.9z M368.5,58.3l0.1-0.4l-0.1-0.4l-0.4-0.3l-0.4,0.1l-0.3,0.3l0.1,0.6l0.6,0.3L368.5,58.3z M368.8,50l-0.4,0.6L368,51
		l-0.4,1l0.7,0.4l1.5-0.4l0.3-1.5l-0.4-0.8L368.8,50z M368.7,65.2l0.1-0.6v-0.6l-0.4-0.3l-0.6,0.3l-0.1,0.6l0.1,0.6l0.4,0.3
		L368.7,65.2z M368.7,71.5l-0.7,0.3v1.3l0.6-0.3l0.3-0.3l0.3-0.6L368.7,71.5z M369,56l-0.1,0.4v0.1l0.1,0.3l0.6-0.6l-0.1-0.1
		l-0.1-0.3L369,56z M369.2,93.7l-0.3,0.1v0.6l0.4,0.1l0.6-0.3l-0.3-0.3L369.2,93.7z M371.8,81.3l-0.6-0.6h-0.3l-1.4,0.3l-0.4,1.3
		l0.8-0.4h1.5L371.8,81.3z M369.8,44.1l0.3-0.1l0.1-0.3l-0.6-0.8l-0.3,0.3l-0.1,0.3v0.6L369.8,44.1z M370.2,70l-0.3,0.3v0.3l0.1,0.1
		h0.4l0.4-0.3V70l-0.3-0.1L370.2,70z M372.1,87.2l0.4-0.4l-0.1-0.6l-0.1-0.1l-0.3,0.1l-0.6,0.4l0.1,0.7v0.3l-0.1,0.6l0.4,0.3
		l0.4-0.4l-0.1-0.4V87.2z M372.8,74.5h-0.4l-0.3,0.6l-0.1,0.7l0.7,0.4l-0.3-0.8l0.4-0.4V74.5z M407.8,70.4l1.1-1.8l0.8-2l0.6-2.3
		l0.1-2.4l-0.1-2.4l-0.6-2.1l-1-2.1l-1.3-1.7l-1.4-1.5l-1.8-1.3l-2.1-1l-2.5-0.3l-2.8,0.1l-2,0.1l-1.8,0.3l-2.8,0.1l-2.7-0.1l-2-0.3
		l-1.8-0.3l-2.8-0.1l-0.8,0.3l-0.6,0.6l-0.3,0.8l-0.1,0.8v3L379,57v2l-0.1,3V67l0.1,2l0.1,3v1l0.4,0.7l0.6,0.4l0.8,0.3h2.8l2,0.1
		h1.8l2.8,0.1l2.8-0.1l2-0.4l2-0.3l5.2-0.3l2.1-0.7l1.8-1L407.8,70.4z M382.2,66.7l0.1,2.1V71h1.5l1.5,0.1h0.7v-1.4l0.1-3v-2
		l0.1-2.1v-3.8l0.3-0.8l0.6-0.6l0.8-0.3l3.4,0.1h3.8l2.7,0.1l2.8-0.1h2l1.8,0.1l1.5-0.1L406,57l-1-1.3l-1.1-1.1l-1.3-1l-1.3-0.6
		l-1.7-0.1l-2.5,0.1l-1.7,0.1l-2.1,0.3l-3.1,0.1l-3.1-0.1l-2.1-0.4l-1.7-0.1l-0.8-0.1v2.3l-0.1,2.1v2.1l-0.1,2.8V66.7z M386.6,101.8
		l0.1,0.1h3.4l-1.8-2.3l-0.4-0.4h-0.4l-2-0.1h-2.8v4.6h2.3l1.7,0.1V101.8z M391.5,82.2l-0.1-0.1h-0.6l-0.1,0.3h-0.3l0.6,0.3h0.7
		v-0.1L391.5,82.2z M392.1,80.4l-0.6,0.3v0.6l-0.1,0.1l0.1,0.1l0.3,0.1l0.4-0.1l-0.1-0.6V80.4z M395.2,91.1l-0.1-0.6l-0.6-0.6v1.1
		l0.1,0.1h0.3l0.1,1.1l1.1,0.4l-0.4-0.8L395.2,91.1z M395.2,89h0.3l0.1-0.4l-0.3-0.6l-0.3,0.1l-0.1,0.3l0.1,0.4L395.2,89z
		 M396.7,83.2l0.7-0.1l0.4-1l-0.8,0.3l-0.7,0.3l-0.4-0.3l-0.4-0.1l0.3,1H396.7z M397.3,88.4v-0.1l-0.1-0.3l-0.3-0.3l-0.1,0.3
		l0.1,0.3L397.3,88.4z M398.7,92.7h0.4v-0.6l0.1-0.3l-0.3-0.1l-0.1-0.6l0.4-0.4h0.4l0.3-0.3l-0.1-0.3h-0.4l-0.6-0.6v-0.1h-0.7
		l-0.7,0.1l-0.6,0.4l0.1,0.8l0.7,1L398.7,92.7z M398,95.9v-0.1l-0.3-0.3l-0.3,0.1l-0.1,0.1v0.1l0.3,0.1h0.3L398,95.9z M398.3,100
		H398l-0.1,0.3l0.3,0.3h0.3v-0.3L398.3,100z M399.3,86.8h0.1l0.4-0.1l0.1-0.3l-0.4-0.6l-0.7-0.1l-0.4,0.4l0.1,0.6l-0.1,0.4l-0.3,0.3
		h0.7L399.3,86.8z M398.3,96.6v0.3l0.1,0.1l0.4,0.1l0.7-0.4l-0.7-0.1H398.3z M399.1,84.8h0.4v-0.3l-0.3-0.3l-0.3,0.3L399.1,84.8z
		 M400.2,95.6l-0.4,0.1l-0.1,0.4h0.4l0.4-0.4l-0.1-0.1H400.2z M402.1,96.9l-0.7-0.3l-0.4,0.4l-0.1,1l0.4,0.8l0.6-0.1l0.3-0.6
		l0.4-0.6l0.6-0.3l-0.6-0.1L402.1,96.9z M404.7,84.5l0.6-0.3l0.3-0.7l-0.6-0.6l-0.7,0.1l-0.4,0.3l-0.4,0.7l0.4,0.3L404.7,84.5z
		 M405.4,86.8l-0.6-1.1l-0.7-0.3l-0.3,0.7v1l0.1,0.7h0.7L405.4,86.8z M404,96.8v0.6l0.4,0.4L405,97l0.1-0.8h-0.7L404,96.8z
		 M404.5,104.6l-0.3,0.1v0.4l0.1,0.1l0.3-0.3v-0.3L404.5,104.6z M405.2,93l-0.7-0.7v1l0.1,0.7l-0.1,0.3l0.1,0.1l0.6,0.1l0.4-0.1
		v-0.6L405.2,93z M407.4,91.8l-0.4-0.3l-0.3,0.4l-0.3,0.7l-0.1,0.8v0.4l0.1,0.3l0.3-0.1l0.3-0.4l0.3-0.1l0.4-0.1l0.6-0.3v-0.6
		L408,92L407.4,91.8z M409.7,88.7l-0.4,0.1l-0.3,0.6l-0.3,0.3h-0.6v0.6l0.4,0.1L409,90h0.3l0.4-0.3L410,89L409.7,88.7z M408.4,95.9
		l-0.1,0.6l0.3,0.3l0.3-0.3l0.4-0.3l-0.3-0.4L408.4,95.9z M409.3,91.7h-0.4v0.6l0.3,0.1l0.4-0.1l0.1-0.1l-0.1-0.3L409.3,91.7z
		 M410,72.5l0.4-0.6l-0.1-0.8l-0.3,0.4l-0.1,0.6l-0.6,0.1l-0.1,0.3l0.3,0.3L410,72.5z M451.5,118.5l-0.4-2.7l-0.1-1l-0.4-0.6
		l-1.5-0.7h-1.8l-0.3,3.8v4.4l-0.1,4.5v1.4l0.1,1.1l-0.1,1.7l-0.7,1l-1.4,0.7h-1.5l-5.5,0.4l-4.9-0.4l-4.8-0.1l-4.8-0.3l-9.6,0.7
		h-3.7v1.7l0.3,1.4l1,0.7l4.9,0.7l4.9-0.1l4.9-0.4l4.9-0.3l4.9,0.3l4.9,0.1l4.9,0.4l4.9-0.3l0.7-1l-0.3-1.5l0.3-4.7v-4.5l0.3-4.6
		V118.5z M410.7,103.8l-0.3,0.3l-0.3,0.4l0.6,0.1l0.6-0.1l0.3-0.3v-0.4l-0.4-0.3L410.7,103.8z M411.6,90.8h-0.1v-0.1l-0.7-0.1
		l-0.4,0.4l0.3,0.6l0.4,0.7v0.8l1-1L411.6,90.8z M411.5,77.6l0.4-0.6l0.3-0.6h-1l-0.6,0.4l0.1,0.7H411.5z M410.9,98.3l-0.1,0.3V99
		l0.6,0.3h0.4v-0.8l-0.4-0.3L410.9,98.3z M412.4,101.5l-0.4-0.6l-0.3-0.3h-0.3l-0.1,0.4l0.3,0.4l0.3,0.6h0.3L412.4,101.5z
		 M412.2,113.8l-0.3,0.1v0.3l0.3,0.1l0.3-0.1v-0.3L412.2,113.8z M413.2,107.7v-0.4l-0.3-0.4l-0.1,0.6l0.1,0.4h0.1L413.2,107.7z
		 M413.2,97.5h0.3l-0.1-0.3v-0.3l-0.1-0.1l-0.3,0.3v0.3L413.2,97.5z M413.2,108.7l-0.3,0.3l0.6,0.8l0.7,0.7l0.1-1.3L413.2,108.7z
		 M414.9,66.9l-0.3-0.3l-0.3-0.1l-0.6,0.6l0.3,0.7v0.1h0.1l1.4,0.4l1-1h-0.8L414.9,66.9z M414.2,98.2l-0.4-0.1l0.3,0.6v0.6l0.3,0.3
		l0.4-0.3v-0.7L414.2,98.2z M415.2,44.3l-0.1-0.7l-0.3,0.1h-0.1l-0.1,0.7l0.4,0.7L415.2,44.3z M416.2,113.4h-0.6l-0.6,0.4l0.7,0.1
		l0.7-0.3L416.2,113.4z M415.9,102l0.1-0.4l-0.1-0.3l-0.1-0.1h-0.3l-0.3,0.1l0.1,0.4l0.1,0.3H415.9z M415.3,109.9l0.3,0.7l0.4,0.4
		h0.3l0.1-0.3l-0.3-0.7L415.3,109.9z M417.7,61.2v-0.1l0.4-0.4l-0.1-0.1v-0.3h-0.6l-0.1,0.7l-0.3,0.3l-0.6,0.3l-0.3,0.6l0.1,0.1h0.3
		l0.7-0.1L417.7,61.2z M418.1,115.8l-0.3-0.3l-0.4,0.4l-0.1,0.7l0.6-0.3L418.1,115.8z M418.4,118.6H418l-0.3,0.1l0.1,0.3l0.3-0.1
		l0.4-0.1L418.4,118.6z M419.1,107.7L419,108v0.1l0.6,0.1l0.4-0.3l-0.3-0.4L419.1,107.7z M420.4,51.1l0.8,0.6v-0.8l-0.6-0.6v-0.6
		l-0.4-0.3l-0.6,0.4l-0.3,0.8l0.4,0.4H420.4z M419.7,67l0.3,0.3l0.6,0.1l0.4-0.3l-0.1-0.4l-0.1-0.3l-0.6-0.1l-0.6,0.3L419.7,67z
		 M420.1,59.8h0.4l0.3,0.1l0.3-0.1l-0.1-0.1h-0.7L420.1,59.8z M420.5,115.8l-0.4,0.4v0.4l0.3,0.4l0.4,0.3l0.4-0.3l0.1-0.6l-0.4-0.6
		L420.5,115.8z M420.5,121l-0.3,0.1l-0.1,0.1v0.3l0.3,0.1l0.4-0.1l0.1-0.1l-0.1-0.3L420.5,121z M420.7,109v0.6l0.4,0.3l0.7-0.3
		l0.3-0.4l-0.4-0.3h-0.4L420.7,109z M421.5,117.3l0.1,0.8l0.4,0.7l0.4-0.4l-0.3-0.7L421.5,117.3z M422.9,114.9l-0.3-0.1h-0.3v0.3
		l0.4,0.4l0.3-0.1v-0.3L422.9,114.9z M423.6,118l-0.3,0.1v0.4h0.3l0.1-0.1l-0.1-0.3V118z M424,116.9h-0.1l-0.1,0.3v0.3l0.3,0.1
		l0.3-0.1V117L424,116.9z M431.9,93.7l4.4-3.2l4.4-5.6l2.8-6.5l1.4-5.8l0.6-6.9l-0.1-5.2l-0.7-4.2l-0.4-1l-2.5-4.1l1,5.4l0.1,5.2
		l-0.6,7l-1.4,5.6l-2.8,6.5l-4.4,5.6l-4.4,3.4l-5.1,2.7l2.8,3.8L431.9,93.7z M426.2,52.4l-0.6,0.1l-0.4-0.3l-0.1-0.4l-0.4-0.1
		l-0.3,0.3l-0.1,0.3l0.3,0.6l0.4,0.1h1.5l0.6,0.6l0.8,0.1l0.1-0.1v-0.3l-0.8-0.7L426.2,52.4z M424.9,73.1l0.4-0.4v-0.6l-0.4,0.3
		V73.1z M427.3,64.3l-0.1-0.1v-0.3l-0.3-0.1l-0.4,0.3v0.6l-0.6,0.8l-0.3,0.3l-0.3,0.1l0.1,0.6L426,67l0.7-0.1l0.4,0.1l0.1-0.3v-0.1
		h0.1v-0.7l0.1-0.6l-0.1-0.6L427.3,64.3z M425.9,49.8h0.3v-0.6l-0.1-0.1h-0.3l-0.1,0.1L425.9,49.8z M426.2,115.9h-0.4l0.3,1.4
		l0.3,0.3h0.3v-0.7l-0.3-0.7L426.2,115.9z M430,72.1h-0.3l-0.1,0.4l0.1,0.3h0.3l0.1-0.3L430,72.1z"/>
	<path d="M457.3,49.8l-1-0.3l-0.7-0.4l-0.6-0.6l-0.1-1l-0.1-2.7l0.3-3.7v-2.8l-0.1-2.7v-3.7l0.4-2.7l0.3-1l0.3-0.7l0.4-0.4l1-0.3
		l3-0.4l4.4,0.6l3.1,0.1h3.1l2.1-0.3l5.4-0.3h3.1l4.2,0.1l3.1,0.1l3.1-0.1h10.4l4.4,0.4l3.1,0.1l5.2-0.1h2.7l2.4,0.3l5.1,1.3
		l4.8,1.7l2.5,0.7l2.5,1l4.5,2l4.5,2.7l3.9,3.2l3.4,3.7l3.1,4.2l1.4,2.1l1.5,2l2.5,4.5l0.8,2.4l0.7,2.5l1.1,5.2l0.3,5.1l-0.1,2.5
		v5.4l-0.1,5.2l-0.8,5.2l-1.7,4.9l-0.8,2.4l-1.7,5.1l-2.1,4.8l-1.5,2.1l-1.8,1.8l-3.8,3.7l-3.9,3.4l-4.4,3l-4.5,2.4l-7.5,2.5l-5.1,1
		l-10.4,1.7l-2.7,0.1h-3.1l-4.4,0.1L496,129l-4.2,0.3h-6.2l-2.1-0.3l-8.3-0.3h-10.6l-2.1,0.3l-2.1,0.1l-3.1-0.3l-1-0.3l-0.7-0.4
		l-0.4-0.6l-0.3-1l-0.4-2.7l0.1-1.8l0.3-1.8l0.1-2.8l-0.3-2.7l-0.3-2l-0.1-1.8l0.3-2.7l0.4-1l0.4-0.6l0.8-0.3l1-0.3l2.7-0.1l3.7,0.8
		l2.7-0.3l0.4-0.4l-0.1-0.6l-0.3-0.8l-0.1-0.8l-0.1-3.1l-0.3-4.2l-0.1-6.1V80.1l0.1-4.2l0.1-3.1v-3.1l0.6-4.2l0.1-3.1v-3.1l-0.1-4.2
		v-3.9l0.3-0.7v-0.6l-0.6-0.3l-2.5-0.3l-1.8,0.3l-2,0.4L457.3,49.8z M468.6,136.6l2.8-0.1h7.5l10.6,0.3l2.1,0.1l2.1,0.3h2.3l6.9-0.3
		h11.1l2.4-0.1l2.8-0.4l7.7-1.3l5.4-1.1l5.2-1.7l5.4-2.3l4.8-2.8l4.4-3.4l3.9-3.7l4.1-4.2l1.8-2.5l2.4-5.2l0.8-2.4l1.7-5.1l1-2.5
		l0.8-2.8l0.6-3l0.4-5.5v-5.4l0.1-5.2v-3l-0.3-2.5l-0.6-2.8l-1-3.5l-1.1-2.3l-1.4-2.3l-1-1.4l0.6,2.3l0.7,2.7l0.7,5.5l0.1,2.8
		l-0.1,5.4v5.4l-0.1,3l-0.3,2.5l-0.7,3l-1.7,5.4l-1.7,4.9l-0.8,2.5l-2.4,5.2l-1.8,2.5l-4.1,4.2l-3.9,3.7l-4.4,3.4l-4.8,2.8l-5.4,2.3
		l-5.2,1.7l-5.5,1.1l-7.6,1.3l-3,0.4l-6.1,0.1h-10.4l-4.2,0.3h-6.6l-2.1-0.3l-5.1-0.1l-3.1-0.1l-4.2-0.1h-3l-2.8,0.1l-2.3,0.3h-0.4
		l0.3,2l0.3,1l0.4,0.6l0.7,0.4l1,0.3l1.4,0.1L468.6,136.6z M463.5,120.8v0.4l0.6,0.4l0.7-0.1l-0.6-0.6L463.5,120.8z M472.8,118.6
		h-1.4l-0.3,0.1l0.1,0.8l0.4,0.6l0.6-0.1l0.3-0.6l0.6-0.3l0.4-0.3L472.8,118.6z M473.6,113.5h-0.3l-0.1,0.3l0.1,0.1l0.3,0.1h0.3
		l0.1-0.3l-0.1-0.1L473.6,113.5z M478,113.7l-1,0.4l-0.7,0.8l-0.1,0.6l-0.4,0.1h-0.4l-0.3,0.3v0.4l0.3,0.3h0.6l0.4-0.4l0.3-0.6
		l0.3-0.7l0.8-0.3l0.4-0.7v-0.1L478,113.7z M483.2,122.7l-0.4,0.1v0.4l0.1,0.3l0.1,0.1l0.6-0.6l-0.1-0.4H483.2z M490.3,115.6
		l0.1-0.7l-0.4-0.4l-0.3-0.6l-0.4,0.1l-0.8,0.6l-0.6,0.7l-0.3,0.3v0.4l0.4,0.1l0.4-0.3h0.8l0.6,0.1L490.3,115.6z M491.4,124.9h-0.8
		l-0.1,0.1l-0.6-0.1l-0.4,0.4l0.4,0.4l0.6-0.3h0.3l0.1,0.1l0.6,0.3l0.6-0.1v-0.4L491.4,124.9z M491.4,35.5h0.1l0.1-0.3l-0.1-0.1
		h-0.3l-0.1,0.1v0.3l0.1,0.1L491.4,35.5z M493.2,108.6l-0.3-0.3l-0.3,0.1l-0.1,0.3v0.1l0.1,0.1h0.3L493.2,108.6z M493.5,119
		l-0.6,0.6l0.3,0.6l0.6,0.3l0.3-0.4v-0.3l-0.1-0.6L493.5,119z M494.5,36.9h-0.3l-0.1,0.3v0.1l0.1,0.1h0.3l0.1-0.3l-0.1-0.1V36.9z
		 M494.8,102.4l-0.1,0.7l-0.3,0.6v0.3l0.4,0.1l4.4,0.3l3.1,0.1h10.3l2.8-0.3l2.5-0.4l2.3-0.7l2.5-1.3l2.1-1.5l2-1.8l1.7-1.8l1.5-2.1
		l1.3-2.4l1-2.4l1.4-5.1l0.4-2.7l0.3-2.5l0.1-2.7l-0.1-2.7l-0.4-2.4l-0.6-2.4l-0.7-2.4l-0.8-2.4l-1-2.4l-1.1-2.1l-1.5-2l-1.7-1.8
		l-2-1.5l-2.3-1.4l-2.4-1.1l-2.3-0.6l-2.5-0.3l-2.7-0.1h-2.7l-4.5-0.1l-3-0.1l-3.1,0.1l-4.4,0.6l-0.4,0.1l0.3,0.3l0.4,0.6l0.1,0.7
		v4.9l-0.1,2v3l-0.1,3l-0.6,3.9l-0.1,3l0.1,2.8l0.1,4.1v12.7l0.1,3l0.1,3.9V102.4z M495.2,35.3l-0.1-0.1h-0.3l-0.1,0.3v0.3l0.1,0.1
		l0.3-0.1v-0.1L495.2,35.3z M495.1,112.7h0.4l0.6-0.3h-0.6L495.1,112.7z M496,122.4l0.4,0.8l0.1,0.8v0.7l0.7,0.1l0.6-0.6v-0.3
		l-0.4-1.4L496,122.4z M500.7,33.9l-0.8,0.1l-1-0.1l-0.3-0.4l-0.1-0.6l0.6-0.3v-0.6l-0.1-0.3l-0.4,0.1h-0.7l-0.7-0.3h-0.4v0.8
		l0.4,0.3l-0.1,1.1l1.1,0.1h0.8l0.8,0.3h1.8l0.7-0.6h-0.8L500.7,33.9z M497.7,77.7l0.1,2v12.8l0.1,4.8l0.1,3.7h1.3l2.8,0.1V87.6
		l-0.1-4.1l-0.1-2.8l0.1-3l0.6-3.9l0.1-3l0.1-6.9v-3l-0.1-0.7l-0.4-0.6l-0.3-0.3l0.4-0.1l4.4-0.6l3.1-0.1l3,0.1l4.5,0.1h2.7l2.7,0.1
		l1.8,0.3l-0.6-0.6l-1.5-1.3l-1.8-1.3l-2-0.8l-1.8-0.4l-2.1-0.3l-2.4-0.1h-2.8l-4.4-0.1l-3-0.1l-2.8,0.1l-0.8,0.1v3.8l-0.1,2
		l-0.1,2.8v3.4l-0.6,3.8V77.7z M498.4,35.3l-0.1-0.1l-0.4,0.3v1l0.4,0.1l0.3-0.3l-0.1-0.6V35.3z M503.2,38.4l0.4-0.6l-0.3,0.1
		l-0.4,0.1l-0.3-0.3h-0.4v0.3L503.2,38.4z M504.1,125.1l-0.7-0.1l-0.6,0.7l0.4-0.1l0.6-0.1l0.4,0.3h0.4v-0.4L504.1,125.1z
		 M506.3,37.3l0.6,0.3l0.4,0.4l0.1-1l-0.8-0.1l-0.4-0.1l-0.4,0.1v0.4H506.3z M506.5,39.1h0.1V39l-0.1-0.4H506V39L506.5,39.1z
		 M506.6,120.7l-0.6,0.1l0.3,0.6l0.3,0.3l0.7,0.1l0.3-0.4l-0.3-0.6L506.6,120.7z M507.6,33.8v-0.6l-0.1-0.3H507L507.6,33.8z
		 M512.5,30.5l-0.3,0.6v0.4l0.1,0.3l0.4,0.1h0.3l0.3-0.6L512.5,30.5z M514.5,37.3l-0.3,1l-0.1,0.8l0.1,0.1l0.8-0.8L514.5,37.3z
		 M514.9,113.1l-0.3,0.1v0.1l0.7,0.1l1-0.3l-0.8-0.3L514.9,113.1z M516.3,32.2l-0.3,0.1l-0.1,0.1l0.7,0.4l0.1-0.4L516.3,32.2z
		 M521.5,37.2l-0.1-0.1v-0.1l0.3-0.6l-0.7-0.7l-0.8,0.1L520,36l0.4,0.3l0.6,0.1h-0.7l-0.1,0.1l-0.1-0.1h-0.6l-0.6-0.1l-0.4-0.4v-0.3
		h-0.1l-0.3,0.1V36l-0.3,0.4l-0.1,0.4L518,37l0.6-0.3l0.8,0.3l0.3,0.1l0.4,0.7h0.3l0.1,0.1v0.1l0.1,0.1l0.1,0.3l0.3,0.7l0.1,0.3
		l0.3,0.3l0.3-0.1v-0.3L521.5,37.2z M519.6,111.6l-0.4-0.1l-0.3,0.3l0.1,0.3l0.1,0.1l0.3,0.1l0.3-0.1v-0.3L519.6,111.6z M519.7,43.4
		l0.3-0.3l-0.4-0.3l-0.1,0.6v0.8l0.7,0.4l-0.3-0.7L519.7,43.4z M520.8,118.5h-0.3l-0.1,0.1v0.3l0.4,0.3h0.4l0.1-0.3l-0.1-0.3
		L520.8,118.5z M523.4,111.8h-0.3l-0.4,0.1h-0.6v0.1l-0.1,0.3h0.3v0.1l0.3,0.1h0.3l0.4-0.1l0.3,0.1l0.1,0.1v0.1h0.7l-0.7-1.3
		L523.4,111.8z M522.4,115.2l-0.3,0.1l-0.1,0.3l0.1,0.1h0.3l0.1-0.1h0.1l0.1-0.3l-0.1-0.1H522.4z M522.2,109.6l0.1,0.1l0.1-0.1v-0.3
		l-0.1-0.3l-0.1-0.1V109.6z M525.9,113.5l1.1-0.3l0.4-0.7l-0.8-1.4l0.1-0.6V110l-0.1-0.7l-0.7-0.3l-0.4,0.3v0.4l0.3,1.1l0.3,1
		l0.6,0.6l-0.6,0.4L525.9,113.5z M525.9,41.7l0.1,0.4l0.3,0.3v0.1l0.3-0.1h0.3l0.4,0.4v0.1l-0.3,0.4l-0.4,0.4l0.3,1.1l0.6,0.1
		l0.1-0.3l-0.1-0.4l0.1-0.3h0.4l0.6,0.3l0.6,0.1l0.4,0.3l0.4-0.3l0.6,0.3l0.4,0.1l0.6-1l0.1-1l-0.7,0.3l-0.4,0.4l-0.4,0.3h-1.4
		l-0.4-0.3l-0.4-1l-0.7-0.7l-0.3-0.7l0.1-0.4h-0.7l-0.4,0.3l-0.3,0.3h0.1L525.9,41.7z M527,115.1l-0.6,0.3v0.4l0.4,0.3l1.1-0.3
		l0.1-0.4l-0.4-0.3H527z M527,38.4h0.1l0.1,0.1l0.3,0.1l0.4-0.3l0.6-0.3l1,1.1l0.3,0.1l0.4-0.1l0.8-0.1l0.6-0.7h-0.6l-0.4,0.3
		l-0.6-0.1H530l-0.1-0.3l-0.8-0.8l-0.3-0.4l-0.6-0.4H528l-0.3-0.3v0.6l0.3,0.4l-0.4,0.3l-0.3,0.3h-0.1l-0.1,0.3V38.4z M529.7,108.3
		l0.6,0.4l0.1-1.3l0.7-1.1h0.4l0.1-0.4l-0.3-0.3l-0.6,0.4h-0.6l-0.6,0.4l-0.4-0.4l-0.8,0.1l-0.6,0.6v0.4l0.1,0.1l0.3,0.1h0.3v-0.1
		l0.4,0.3l0.3,0.4L529.7,108.3z M528.6,108.7h-0.3l-0.1,0.1v0.3l-0.1,0.1l0.3,0.3h0.1l0.1-0.1h0.1v-0.1l-0.1-0.3V108.7z M545.1,110
		h-0.7l-0.7,0.1l-0.4,0.1h-0.1l-0.8,0.4v-1.3l-0.1-0.1v-0.1l-0.4-0.8l-0.1,0.3l-0.3,0.3l-0.4,0.6l-0.1,1.3l-0.3,0.8l-0.6,0.7
		l-0.1-1.4v-1.4l0.7-1l0.3-0.4l0.3-0.6l0.1-0.4l0.1-0.6h-0.4l-0.4-0.1l-0.1-0.1l-0.8-1.1l-0.8,0.3h-0.3l-0.3,0.1h-0.3l-1.1,0.6v1.3
		l-0.6,1.1l-0.1,0.1l-0.3,0.1v-0.4l-0.1-0.3v-0.1l-0.1-0.8v-0.6l-0.7-0.1l-0.4-0.4l-0.7-0.1l-0.7-1l-0.3-1.3l0.3-0.4v-0.4l0.6-0.6
		l0.7-0.4h0.7v0.7l0.3,0.4h0.4l0.3-0.1v-0.3l-0.3-0.6l-0.1-0.1v-0.1h-0.1l0.8-0.1l0.4-0.3l-0.3-0.3v-0.6l-0.4-0.3v-0.6l-0.6-0.1
		l-0.4,0.3v0.4l-0.3,0.3l-2,2.1l-0.8,0.3l-0.8,1l-0.6,0.1H529l0.3,0.8h1.1l1.4,0.3h0.1l0.1,0.1h0.3l0.1,0.1l0.8,1.1l0.1,0.3l0.3,0.3
		h-0.1l-0.1,0.8l0.3,0.3l0.3,0.4h-0.1l-0.1,0.1l0.4,1.4l1.1,0.6l0.8-0.3h0.1l0.1-0.4l0.3-0.4h0.3l0.8,0.4l1,1.4v0.1h-0.1l-1,1h-0.4
		l-0.3-0.1l-0.1-0.3l0.3-0.4l-0.4-0.4l-0.8,0.8v0.1l-0.4,0.6l-0.4,0.7l-0.1,0.4l-0.6,0.8l-0.1,0.3v0.3l-0.4,0.1l-0.3,0.1v-0.6
		l-1-0.8l-0.4-0.1l-0.1-0.1h-0.1v-0.4l0.1-0.4l0.7-1.4l-0.3-1.3l-1.1,0.6h-1l-0.7,0.4v0.1l-0.1,0.3l-0.3,0.3l0.3,0.3l0.1,0.4h1
		l0.1-0.3v-0.3l0.7-0.1l0.1,0.6l-0.1,0.3l-0.3,0.4v0.1l-0.1,0.1v0.8l0.1,0.3l0.4,0.3l0.4,0.1v0.6l-0.1,0.6l0.8,0.6l0.4-0.1l0.3-0.1
		l0.6-0.1l-0.3,0.3v0.1l-0.1,0.1l-0.3,0.6h0.6l0.1-0.1l0.3-0.6v-0.6l0.6-0.3l1.7-0.6l0.6-0.4l0.4-0.1l0.3-0.3l0.6-0.3l0.3,0.1h1
		l0.8-0.3l0.6-0.3v-0.1h0.1l0.8-0.7l0.3,0.4h0.4l0.4-0.8l-0.3-0.7l0.1-0.1v-0.1l0.4-0.3l0.3-0.3h0.3l0.4-0.1l1-0.7L545.1,110z
		 M534.6,112.4l0.6-0.3l-0.1-0.6l-0.1-0.1h-0.4l-0.4,0.4l-0.1,0.6l0.3,0.3L534.6,112.4z M534.8,53.2l0.3-0.1l-0.1-0.3l-0.3,0.1
		l-0.1,0.4l0.1-0.1H534.8z M536.1,46.9V47l0.4,0.4h0.7l0.1-0.1l-0.3-0.4l-0.4-0.1l-0.1-0.1h-0.1l-0.3-0.4h-0.4v0.4L536.1,46.9z
		 M536.6,49l0.1-0.3l-0.1-0.3l-0.4-0.3l-0.3,0.1l-0.1,0.4l0.3,0.4l0.3,0.1L536.6,49z M536.3,53.6h0.3l0.3-0.3v-0.1h-0.1l-0.1-0.1
		l-0.3,0.1V53.6z M537,97.3l-0.1,0.1V99l0.1,1l0.4,0.4l0.4-0.4l0.7-0.3l0.4-0.8v-0.1l-0.1-0.1v-0.1l-0.6-0.3l-0.4-0.1l-0.6-0.6h-0.1
		L537,97.3z M537.6,103.5h-0.1l-0.4,0.1v0.1l-0.1,0.1l0.3,0.3l0.1,0.3l0.3-0.1h0.1l0.1-0.3v-0.3L537.6,103.5z M539,102.4l0.3-0.3
		V102l-0.3-0.4h-0.8l-0.3-0.1l-0.1-0.4l-0.7,0.1v0.7l0.6,0.1v0.1l0.1,0.1l0.6,0.4L539,102.4z M537.6,97.6l0.1,0.1v-0.1l0.1-0.3
		l0.4,0.1l0.6,0.1h0.4l0.4-0.1l-0.4-1l-0.6-1l-0.4,0.4l-0.3,0.6l-0.6,0.7l0.1,0.3V97.6z M539.7,102l0.6,1h0.1l0.3-0.3v-0.8l-0.4-0.8
		l0.3-0.7v-0.4l0.1-0.4v-0.3l-0.1-0.1h-0.3l-0.3-0.1h-0.3l-0.3,0.1l0.1,0.1v0.4l0.3,0.1l0.3,0.4l-0.3,0.6L539.7,102z M540.6,94.5
		l-0.1-0.3h-0.3l-0.3,0.8l-0.1,0.8l0.6-0.6L540.6,94.5z M540.6,92.4l0.6,0.1l0.1-0.7l-0.6-0.4l-0.4,0.4v0.4L540.6,92.4z M541,97.2
		l0.1-0.3l-0.1-0.4l-0.3,0.1l-0.1,0.3l-0.1,0.4l0.1,0.4l0.3-0.1L541,97.2z M541.1,55.2l0.7,0.4l0.6-0.6l-0.4-0.7l-1.1-0.4l0.1,0.7
		L541.1,55.2z M547.8,101.4v0.1h-0.1l-0.4,1.1L547,103l-0.8,0.7h-0.1l-1.8,0.4l-0.6-0.4l-0.3-1.3l-0.8-0.8l0.4-1.1l-0.3-0.6
		l-0.3,0.3H542l-0.4,0.3l-0.6,0.4l0.3,1l0.1,0.7l0.7-0.3l0.4,0.6l-0.6,0.8l-0.6,0.7v0.8l0.1,0.4v0.4h0.7l0.1-0.3l0.1-0.1v-0.6
		l0.1-0.6l0.6-0.1l0.7,0.4h0.7l0.6,0.4l0.7-0.6l1.1,0.3l0.4-0.7l0.7-1.1l0.1-0.3v-0.4l0.1-0.6v-0.3l0.1-0.8l-0.6,0.4L547.8,101.4z
		 M542.5,89.7l-0.1-0.4l-0.7-0.1l-0.6,0.6l0.6,0.6l0.7-0.3L542.5,89.7z M543.2,91l-0.6,0.7l-0.4,0.6v0.6l-0.3,0.6l-0.1,0.1v0.3h-0.3
		l0.1,0.1v0.4l0.1,0.8l0.3-0.7l0.3-0.3v-0.3l0.1-0.4V93l0.6-0.8L543.2,91z M542,59.4l-0.3,0.1V60l0.3,0.3h0.1l0.3,0.3h0.3l0.1-0.3
		V60l-0.1-0.1l-0.4-0.3L542,59.4z M542,98.9l-0.3,0.6h0.3l0.1,0.1l0.3-0.3l0.3-0.1v-0.3l-0.1-0.1L542,98.9z M543.5,106.5v-0.3h-0.4
		v0.1l-0.3,0.1l-0.3,0.8l0.4-0.3L543.5,106.5z M543.8,56.2H543v0.6l0.4-0.1L543.8,56.2z M544.4,95.5l-0.6,0.3l-0.6,0.4l1.1,0.1
		l0.4-1.5v-0.8l-0.6,0.6L544.4,95.5z M544.2,51.2l0.4,0.4l0.3,0.4l0.1-0.4l0.3-0.6l0.1-0.4l-0.4-0.4l-0.8-0.1l-0.7,0.4l0.1,0.6
		L544.2,51.2z M546.1,97.5v-1.1l-0.8-0.1l-0.3,0.8l-0.4,1l-0.8,0.8h1.4L546.1,97.5z M543.9,91.4l0.6,0.4l0.8,1l1.1,1.1l-0.1-2.1
		l-0.7-1.5l-0.7-0.4l-0.8,0.7L543.9,91.4z M544.7,69l-0.3,0.3l0.3,0.6l0.7,0.3l0.1-0.6l-0.3-0.4L544.7,69z M544.4,88.3v0.4l0.3,0.1
		h0.1l0.1-0.1v-0.3l-0.1-0.1l-0.3-0.1L544.4,88.3z M545.9,84.9l-0.1-0.4h-0.3l-0.3,0.7l-0.6,1.3l1-0.7L545.9,84.9z M544.9,102.4
		l0.7-0.1h0.8l0.3-0.6l0.1-0.4v-0.1h0.1l0.4-0.8v-1l-0.8,0.3l-1.1,0.8v0.1h-0.1v0.1l-0.1,0.1l-0.3,0.6h-0.1v0.4L544.9,102.4z
		 M545.5,82.5v0.3l0.3,0.3l0.3-0.3l-0.1-0.3l-0.1-0.4l-0.1,0.1L545.5,82.5z M546.2,54.6l0.3-0.3l0.3-0.1l0.1-0.1l-0.4-0.4l-0.6,0.1
		l-0.3,0.6l0.3,0.4L546.2,54.6z M545.6,61.8h1l-0.6-0.7L545.6,61.8z M545.8,65.2v0.1l0.1,0.4l0.4,0.3v-0.6l-0.3-0.3H545.8z
		 M547.2,51.4l-0.3-0.7l-0.4-0.6l-0.4,0.3l-0.1,0.4l0.4,0.4L547.2,51.4z M546.6,89.3h-0.1l-0.3,0.1l0.1,0.3l0.1,0.1h0.1l0.1-0.1
		v-0.1L546.6,89.3z M546.5,96.1l-0.1,0.4l0.1,0.4l0.3,1.7h0.1l0.1-0.1l0.1-1l0.1-0.8l0.1-0.3v-0.4l-0.3-0.1h-0.3L546.5,96.1z
		 M547.8,93.4l0.3-0.6v-0.4l-0.1-0.7l-0.4,0.3l-0.4,0.7v0.4l0.3,0.4L547.8,93.4z M547.5,58.1v0.7l0.8,0.6v-0.6l0.3-0.6l-0.1-0.6
		l-0.4-0.4h-0.4l-0.3,0.6L547.5,58.1z M548.9,62.4l-0.1-0.1v-0.1l0.3-1l-0.6-0.8h-0.7l-0.3,0.6l-0.1,0.1l0.4,0.7l0.7,0.6l-0.1,0.7
		l0.3,0.6h0.3l0.1-0.6L548.9,62.4z M548.5,67.4l-0.3,0.1L548,68l0.3,0.6l0.3-0.4v-0.6L548.5,67.4z M549.6,91.5l-0.6,0.6v0.6l0.4,0.1
		h0.3l0.1-0.4L549.6,91.5z M549.6,66.9l0.3,0.4l0.4,0.1l0.1-0.1v-0.1l-0.3-0.3H549.6z M552.1,63.2l-0.1-0.4l-0.3-0.1l-0.4,0.1
		l-0.8,0.1l-0.4,0.3l0.6,0.4l1-0.1L552.1,63.2z M551.8,71.5l-0.1-0.1h-0.3l-0.1,0.1v0.3h0.1l0.1,0.1l0.3-0.1V71.5z M552,72.9
		l-0.1,0.3v0.4l0.3,0.1l0.1-0.3v-0.3L552,72.9z M555.2,71.3h-0.1l-0.3,0.3l0.1,0.3h0.1l0.3-0.1v-0.3L555.2,71.3z"/>
	<path d="M631.9,49.8l-1-0.3l-0.7-0.4l-0.6-0.6l-0.1-1l-0.1-2.7l0.3-3.7v-2.8l-0.1-2.7v-3.7l0.4-2.7l0.3-1l0.3-0.7l0.4-0.4l1-0.3
		l3-0.4l4.4,0.6l3.1,0.1h3.1l2.1-0.3l5.4-0.3h3.1l4.2,0.1l3.1,0.1l3.1-0.1h10.4l4.4,0.4l3.1,0.1l5.2-0.1h2.7l2.4,0.3l5.1,1.3
		l4.8,1.7l2.5,0.7l2.5,1l4.5,2l4.5,2.7l3.9,3.2l3.4,3.7l3.1,4.2l1.4,2.1l1.5,2l2.5,4.5l0.8,2.4l0.7,2.5l1.1,5.2l0.3,5.1l-0.1,2.5
		v5.4l-0.1,5.2l-0.8,5.2l-1.7,4.9l-0.8,2.4l-1.7,5.1l-2.1,4.8l-1.5,2.1l-1.8,1.8l-3.8,3.7l-3.9,3.4l-4.4,3l-4.5,2.4l-7.5,2.5l-5.1,1
		l-10.4,1.7l-2.7,0.1h-3.1l-4.4,0.1l-6.2-0.1l-4.2,0.3h-6.2l-2.1-0.3l-8.3-0.3h-10.6l-2.1,0.3l-2.1,0.1l-3.1-0.3l-1-0.3l-0.7-0.4
		l-0.4-0.6l-0.3-1l-0.4-2.7l0.1-1.8l0.3-1.8l0.1-2.8l-0.3-2.7l-0.3-2l-0.1-1.8l0.3-2.7l0.4-1l0.4-0.6l0.8-0.3l1-0.3l2.7-0.1l3.7,0.8
		l2.7-0.3l0.4-0.4l-0.1-0.6l-0.3-0.8l-0.1-0.8l-0.1-3.1l-0.3-4.2l-0.1-6.1V80.1l0.1-4.2l0.1-3.1v-3.1l0.6-4.2l0.1-3.1v-3.1l-0.1-4.2
		v-3.9l0.3-0.7v-0.6l-0.6-0.3l-2.5-0.3l-1.8,0.3l-2,0.4L631.9,49.8z M643.1,136.6l2.8-0.1h7.5l10.6,0.3l2.1,0.1l2.1,0.3h2.3l6.9-0.3
		h11.1l2.4-0.1l2.8-0.4l7.7-1.3l5.4-1.1l5.2-1.7l5.4-2.3l4.8-2.8l4.4-3.4l3.9-3.7l4.1-4.2l1.8-2.5l2.4-5.2l0.8-2.4l1.7-5.1l1-2.5
		l0.8-2.8l0.6-3l0.4-5.5v-5.4l0.1-5.2v-3l-0.3-2.5l-0.6-2.8l-1-3.5l-1.1-2.3l-1.4-2.3l-1-1.4l0.6,2.3l0.7,2.7l0.7,5.5l0.1,2.8
		l-0.1,5.4v5.4l-0.1,3l-0.3,2.5l-0.7,3l-1.7,5.4l-1.7,4.9l-0.8,2.5l-2.4,5.2l-1.8,2.5l-4.1,4.2l-3.9,3.7l-4.4,3.4l-4.8,2.8l-5.4,2.3
		l-5.2,1.7l-5.5,1.1l-7.6,1.3l-3,0.4l-6.1,0.1H671l-4.2,0.3h-6.6l-2.1-0.3l-5.1-0.1l-3.1-0.1l-4.2-0.1h-3l-2.8,0.1l-2.3,0.3h-0.4
		l0.3,2l0.3,1l0.4,0.6l0.7,0.4l1,0.3l1.4,0.1L643.1,136.6z M638.1,120.8v0.4l0.6,0.4l0.7-0.1l-0.6-0.6L638.1,120.8z M647.4,118.6
		h-1.4l-0.3,0.1l0.1,0.8l0.4,0.6l0.6-0.1l0.3-0.6l0.6-0.3l0.4-0.3L647.4,118.6z M648.2,113.5h-0.3l-0.1,0.3l0.1,0.1l0.3,0.1h0.3
		l0.1-0.3l-0.1-0.1L648.2,113.5z M652.6,113.7l-1,0.4l-0.7,0.8l-0.1,0.6l-0.4,0.1h-0.4l-0.3,0.3v0.4l0.3,0.3h0.6l0.4-0.4l0.3-0.6
		l0.3-0.7l0.8-0.3l0.4-0.7v-0.1L652.6,113.7z M657.8,122.7l-0.4,0.1v0.4l0.1,0.3l0.1,0.1l0.6-0.6l-0.1-0.4H657.8z M664.8,115.6
		l0.1-0.7l-0.4-0.4l-0.3-0.6l-0.4,0.1l-0.8,0.6l-0.6,0.7l-0.3,0.3v0.4l0.4,0.1l0.4-0.3h0.8l0.6,0.1L664.8,115.6z M666,124.9h-0.8
		l-0.1,0.1l-0.6-0.1l-0.4,0.4l0.4,0.4l0.6-0.3h0.3l0.1,0.1l0.6,0.3l0.6-0.1v-0.4L666,124.9z M666,35.5h0.1l0.1-0.3l-0.1-0.1h-0.3
		l-0.1,0.1v0.3l0.1,0.1L666,35.5z M667.8,108.6l-0.3-0.3l-0.3,0.1l-0.1,0.3v0.1l0.1,0.1h0.3L667.8,108.6z M668.1,119l-0.6,0.6
		l0.3,0.6l0.6,0.3l0.3-0.4v-0.3l-0.1-0.6L668.1,119z M669.1,36.9h-0.3l-0.1,0.3v0.1l0.1,0.1h0.3l0.1-0.3l-0.1-0.1V36.9z
		 M669.3,102.4l-0.1,0.7l-0.3,0.6v0.3l0.4,0.1l4.4,0.3l3.1,0.1h10.3l2.8-0.3l2.5-0.4l2.3-0.7l2.5-1.3l2.1-1.5l2-1.8l1.7-1.8l1.5-2.1
		l1.3-2.4l1-2.4l1.4-5.1l0.4-2.7l0.3-2.5l0.1-2.7l-0.1-2.7l-0.4-2.4l-0.6-2.4l-0.7-2.4l-0.8-2.4l-1-2.4l-1.1-2.1l-1.5-2l-1.7-1.8
		l-2-1.5l-2.3-1.4l-2.4-1.1l-2.3-0.6l-2.5-0.3l-2.7-0.1h-2.7l-4.5-0.1l-3-0.1l-3.1,0.1l-4.4,0.6l-0.4,0.1l0.3,0.3l0.4,0.6l0.1,0.7
		v4.9l-0.1,2v3l-0.1,3l-0.6,3.9l-0.1,3l0.1,2.8l0.1,4.1v12.7l0.1,3l0.1,3.9V102.4z M669.8,35.3l-0.1-0.1h-0.3l-0.1,0.3v0.3l0.1,0.1
		l0.3-0.1v-0.1L669.8,35.3z M669.6,112.7h0.4l0.6-0.3H670L669.6,112.7z M670.6,122.4l0.4,0.8l0.1,0.8v0.7l0.7,0.1l0.6-0.6v-0.3
		l-0.4-1.4L670.6,122.4z M675.3,33.9l-0.8,0.1l-1-0.1l-0.3-0.4l-0.1-0.6l0.6-0.3v-0.6l-0.1-0.3l-0.4,0.1h-0.7l-0.7-0.3h-0.4v0.8
		l0.4,0.3l-0.1,1.1l1.1,0.1h0.8l0.8,0.3h1.8l0.7-0.6H676L675.3,33.9z M672.3,77.7l0.1,2v12.8l0.1,4.8l0.1,3.7h1.3l2.8,0.1V87.6
		l-0.1-4.1l-0.1-2.8l0.1-3l0.6-3.9l0.1-3l0.1-6.9v-3l-0.1-0.7l-0.4-0.6l-0.3-0.3l0.4-0.1l4.4-0.6l3.1-0.1l3,0.1l4.5,0.1h2.7l2.7,0.1
		l1.8,0.3l-0.6-0.6l-1.5-1.3l-1.8-1.3l-2-0.8l-1.8-0.4l-2.1-0.3l-2.4-0.1h-2.8l-4.4-0.1l-3-0.1l-2.8,0.1l-0.8,0.1v3.8l-0.1,2
		l-0.1,2.8v3.4l-0.6,3.8V77.7z M673,35.3l-0.1-0.1l-0.4,0.3v1l0.4,0.1l0.3-0.3l-0.1-0.6V35.3z M677.8,38.4l0.4-0.6l-0.3,0.1
		l-0.4,0.1l-0.3-0.3h-0.4v0.3L677.8,38.4z M678.6,125.1l-0.7-0.1l-0.6,0.7l0.4-0.1l0.6-0.1l0.4,0.3h0.4v-0.4L678.6,125.1z
		 M680.9,37.3l0.6,0.3l0.4,0.4l0.1-1l-0.8-0.1l-0.4-0.1l-0.4,0.1v0.4H680.9z M681,39.1h0.1V39l-0.1-0.4h-0.4V39L681,39.1z
		 M681.2,120.7l-0.6,0.1l0.3,0.6l0.3,0.3l0.7,0.1l0.3-0.4l-0.3-0.6L681.2,120.7z M682.2,33.8v-0.6l-0.1-0.3h-0.4L682.2,33.8z
		 M687.1,30.5l-0.3,0.6v0.4l0.1,0.3l0.4,0.1h0.3l0.3-0.6L687.1,30.5z M689.1,37.3l-0.3,1l-0.1,0.8l0.1,0.1l0.8-0.8L689.1,37.3z
		 M689.5,113.1l-0.3,0.1v0.1l0.7,0.1l1-0.3L690,113L689.5,113.1z M690.9,32.2l-0.3,0.1l-0.1,0.1l0.7,0.4l0.1-0.4L690.9,32.2z
		 M696.1,37.2L696,37v-0.1l0.3-0.6l-0.7-0.7l-0.8,0.1l-0.1,0.3l0.4,0.3l0.6,0.1h-0.7l-0.1,0.1l-0.1-0.1H694l-0.6-0.1l-0.4-0.4v-0.3
		h-0.1l-0.3,0.1V36l-0.3,0.4l-0.1,0.4l0.4,0.1l0.6-0.3L694,37l0.3,0.1l0.4,0.7h0.3l0.1,0.1v0.1l0.1,0.1l0.1,0.3l0.3,0.7l0.1,0.3
		l0.3,0.3l0.3-0.1v-0.3L696.1,37.2z M694.1,111.6l-0.4-0.1l-0.3,0.3l0.1,0.3l0.1,0.1l0.3,0.1l0.3-0.1v-0.3L694.1,111.6z M694.3,43.4
		l0.3-0.3l-0.4-0.3l-0.1,0.6v0.8l0.7,0.4l-0.3-0.7L694.3,43.4z M695.4,118.5h-0.3l-0.1,0.1v0.3l0.4,0.3h0.4l0.1-0.3l-0.1-0.3
		L695.4,118.5z M697.9,111.8h-0.3l-0.4,0.1h-0.6v0.1l-0.1,0.3h0.3v0.1l0.3,0.1h0.3l0.4-0.1l0.3,0.1l0.1,0.1v0.1h0.7l-0.7-1.3
		L697.9,111.8z M697,115.2l-0.3,0.1l-0.1,0.3l0.1,0.1h0.3l0.1-0.1h0.1l0.1-0.3l-0.1-0.1H697z M696.8,109.6l0.1,0.1l0.1-0.1v-0.3
		L697,109l-0.1-0.1V109.6z M700.5,113.5l1.1-0.3l0.4-0.7l-0.8-1.4l0.1-0.6V110l-0.1-0.7l-0.7-0.3l-0.4,0.3v0.4l0.3,1.1l0.3,1
		l0.6,0.6l-0.6,0.4L700.5,113.5z M700.5,41.7l0.1,0.4l0.3,0.3v0.1l0.3-0.1h0.3l0.4,0.4v0.1l-0.3,0.4l-0.4,0.4l0.3,1.1L702,45
		l0.1-0.3l-0.1-0.4l0.1-0.3h0.4l0.6,0.3l0.6,0.1l0.4,0.3l0.4-0.3l0.6,0.3l0.4,0.1l0.6-1l0.1-1l-0.7,0.3l-0.4,0.4l-0.4,0.3h-1.4
		l-0.4-0.3l-0.4-1l-0.7-0.7l-0.3-0.7l0.1-0.4h-0.7l-0.4,0.3l-0.3,0.3h0.1L700.5,41.7z M701.6,115.1l-0.6,0.3v0.4l0.4,0.3l1.1-0.3
		l0.1-0.4l-0.4-0.3H701.6z M701.6,38.4h0.1l0.1,0.1l0.3,0.1l0.4-0.3l0.6-0.3l1,1.1l0.3,0.1l0.4-0.1l0.8-0.1l0.6-0.7h-0.6l-0.4,0.3
		l-0.6-0.1h-0.1l-0.1-0.3l-0.8-0.8l-0.3-0.4l-0.6-0.4h-0.1l-0.3-0.3v0.6l0.3,0.4l-0.4,0.3l-0.3,0.3h-0.1l-0.1,0.3V38.4z
		 M704.3,108.3l0.6,0.4l0.1-1.3l0.7-1.1h0.4l0.1-0.4l-0.3-0.3l-0.6,0.4h-0.6l-0.6,0.4l-0.4-0.4l-0.8,0.1l-0.6,0.6v0.4l0.1,0.1
		l0.3,0.1h0.3v-0.1l0.4,0.3l0.3,0.4L704.3,108.3z M703.2,108.7h-0.3l-0.1,0.1v0.3l-0.1,0.1l0.3,0.3h0.1l0.1-0.1h0.1v-0.1l-0.1-0.3
		V108.7z M719.6,110h-0.7l-0.7,0.1l-0.4,0.1h-0.1l-0.8,0.4v-1.3l-0.1-0.1v-0.1l-0.4-0.8l-0.1,0.3l-0.3,0.3l-0.4,0.6l-0.1,1.3
		l-0.3,0.8l-0.6,0.7l-0.1-1.4v-1.4l0.7-1l0.3-0.4l0.3-0.6l0.1-0.4l0.1-0.6h-0.4l-0.4-0.1l-0.1-0.1l-0.8-1.1l-0.8,0.3h-0.3l-0.3,0.1
		h-0.3l-1.1,0.6v1.3l-0.6,1.1l-0.1,0.1l-0.3,0.1v-0.4l-0.1-0.3v-0.1l-0.1-0.8v-0.6l-0.7-0.1l-0.4-0.4l-0.7-0.1l-0.7-1l-0.3-1.3
		l0.3-0.4v-0.4l0.6-0.6l0.7-0.4h0.7v0.7l0.3,0.4h0.4l0.3-0.1v-0.3l-0.3-0.6l-0.1-0.1v-0.1h-0.1l0.8-0.1l0.4-0.3l-0.3-0.3v-0.6
		l-0.4-0.3v-0.6l-0.6-0.1l-0.4,0.3v0.4l-0.3,0.3l-2,2.1l-0.8,0.3l-0.8,1l-0.6,0.1h-1.3l0.3,0.8h1.1l1.4,0.3h0.1l0.1,0.1h0.3l0.1,0.1
		l0.8,1.1l0.1,0.3l0.3,0.3h-0.1l-0.1,0.8l0.3,0.3l0.3,0.4h-0.1l-0.1,0.1l0.4,1.4l1.1,0.6l0.8-0.3h0.1l0.1-0.4l0.3-0.4h0.3l0.8,0.4
		l1,1.4v0.1h-0.1l-1,1h-0.4l-0.3-0.1l-0.1-0.3l0.3-0.4l-0.4-0.4l-0.8,0.8v0.1l-0.4,0.6l-0.4,0.7l-0.1,0.4l-0.6,0.8l-0.1,0.3v0.3
		l-0.4,0.1l-0.3,0.1v-0.6l-1-0.8l-0.4-0.1l-0.1-0.1h-0.1v-0.4l0.1-0.4l0.7-1.4l-0.3-1.3l-1.1,0.6h-1l-0.7,0.4v0.1l-0.1,0.3l-0.3,0.3
		l0.3,0.3l0.1,0.4h1l0.1-0.3v-0.3l0.7-0.1l0.1,0.6l-0.1,0.3l-0.3,0.4v0.1l-0.1,0.1v0.8l0.1,0.3l0.4,0.3l0.4,0.1v0.6l-0.1,0.6
		l0.8,0.6l0.4-0.1l0.3-0.1l0.6-0.1l-0.3,0.3v0.1l-0.1,0.1l-0.3,0.6h0.6l0.1-0.1l0.3-0.6v-0.6l0.6-0.3l1.7-0.6l0.6-0.4l0.4-0.1
		l0.3-0.3l0.6-0.3l0.3,0.1h1l0.8-0.3l0.6-0.3v-0.1h0.1l0.8-0.7l0.3,0.4h0.4l0.4-0.8l-0.3-0.7l0.1-0.1v-0.1l0.4-0.3l0.3-0.3h0.3
		l0.4-0.1l1-0.7L719.6,110z M709.2,112.4l0.6-0.3l-0.1-0.6l-0.1-0.1h-0.4l-0.4,0.4l-0.1,0.6l0.3,0.3L709.2,112.4z M709.4,53.2
		l0.3-0.1l-0.1-0.3l-0.3,0.1l-0.1,0.4l0.1-0.1H709.4z M710.6,46.9V47l0.4,0.4h0.7l0.1-0.1l-0.3-0.4l-0.4-0.1l-0.1-0.1h-0.1l-0.3-0.4
		h-0.4v0.4L710.6,46.9z M711.2,49l0.1-0.3l-0.1-0.3l-0.4-0.3l-0.3,0.1l-0.1,0.4l0.3,0.4l0.3,0.1L711.2,49z M710.9,53.6h0.3l0.3-0.3
		v-0.1h-0.1l-0.1-0.1l-0.3,0.1V53.6z M711.6,97.3l-0.1,0.1V99l0.1,1l0.4,0.4l0.4-0.4l0.7-0.3l0.4-0.8v-0.1l-0.1-0.1v-0.1l-0.6-0.3
		l-0.4-0.1l-0.6-0.6h-0.1L711.6,97.3z M712.2,103.5H712l-0.4,0.1v0.1l-0.1,0.1l0.3,0.3l0.1,0.3l0.3-0.1h0.1l0.1-0.3v-0.3
		L712.2,103.5z M713.6,102.4l0.3-0.3V102l-0.3-0.4h-0.8l-0.3-0.1l-0.1-0.4l-0.7,0.1v0.7l0.6,0.1v0.1l0.1,0.1l0.6,0.4L713.6,102.4z
		 M712.2,97.6l0.1,0.1v-0.1l0.1-0.3l0.4,0.1l0.6,0.1h0.4l0.4-0.1l-0.4-1l-0.6-1l-0.4,0.4l-0.3,0.6l-0.6,0.7l0.1,0.3V97.6z
		 M714.3,102l0.6,1h0.1l0.3-0.3v-0.8l-0.4-0.8l0.3-0.7v-0.4l0.1-0.4v-0.3l-0.1-0.1h-0.3l-0.3-0.1h-0.3L714,99l0.1,0.1v0.4l0.3,0.1
		l0.3,0.4l-0.3,0.6L714.3,102z M715.1,94.5l-0.1-0.3h-0.3l-0.3,0.8l-0.1,0.8l0.6-0.6L715.1,94.5z M715.1,92.4l0.6,0.1l0.1-0.7
		l-0.6-0.4l-0.4,0.4v0.4L715.1,92.4z M715.6,97.2l0.1-0.3l-0.1-0.4l-0.3,0.1l-0.1,0.3l-0.1,0.4l0.1,0.4l0.3-0.1L715.6,97.2z
		 M715.7,55.2l0.7,0.4l0.6-0.6l-0.4-0.7l-1.1-0.4l0.1,0.7L715.7,55.2z M722.3,101.4v0.1h-0.1l-0.4,1.1l-0.1,0.3l-0.8,0.7h-0.1
		l-1.8,0.4l-0.6-0.4l-0.3-1.3l-0.8-0.8l0.4-1.1l-0.3-0.6l-0.3,0.3h-0.4l-0.4,0.3l-0.6,0.4l0.3,1l0.1,0.7l0.7-0.3l0.4,0.6l-0.6,0.8
		l-0.6,0.7v0.8l0.1,0.4v0.4h0.7l0.1-0.3l0.1-0.1v-0.6l0.1-0.6l0.6-0.1l0.7,0.4h0.7l0.6,0.4l0.7-0.6l1.1,0.3l0.4-0.7l0.7-1.1l0.1-0.3
		v-0.4l0.1-0.6v-0.3l0.1-0.8l-0.6,0.4L722.3,101.4z M717.1,89.7l-0.1-0.4l-0.7-0.1l-0.6,0.6l0.6,0.6L717,90L717.1,89.7z M717.8,91
		l-0.6,0.7l-0.4,0.6v0.6l-0.3,0.6l-0.1,0.1v0.3h-0.3l0.1,0.1v0.4l0.1,0.8l0.3-0.7l0.3-0.3v-0.3l0.1-0.4V93l0.6-0.8L717.8,91z
		 M716.5,59.4l-0.3,0.1V60l0.3,0.3h0.1l0.3,0.3h0.3l0.1-0.3V60l-0.1-0.1l-0.4-0.3L716.5,59.4z M716.5,98.9l-0.3,0.6h0.3l0.1,0.1
		l0.3-0.3l0.3-0.1v-0.3l-0.1-0.1L716.5,98.9z M718.1,106.5v-0.3h-0.4v0.1l-0.3,0.1l-0.3,0.8l0.4-0.3L718.1,106.5z M718.4,56.2h-0.8
		v0.6l0.4-0.1L718.4,56.2z M718.9,95.5l-0.6,0.3l-0.6,0.4l1.1,0.1l0.4-1.5v-0.8l-0.6,0.6L718.9,95.5z M718.8,51.2l0.4,0.4l0.3,0.4
		l0.1-0.4l0.3-0.6l0.1-0.4l-0.4-0.4l-0.8-0.1l-0.7,0.4l0.1,0.6L718.8,51.2z M720.6,97.5v-1.1l-0.8-0.1l-0.3,0.8l-0.4,1l-0.8,0.8h1.4
		L720.6,97.5z M718.5,91.4l0.6,0.4l0.8,1l1.1,1.1l-0.1-2.1l-0.7-1.5l-0.7-0.4l-0.8,0.7L718.5,91.4z M719.2,69l-0.3,0.3l0.3,0.6
		l0.7,0.3l0.1-0.6l-0.3-0.4L719.2,69z M718.9,88.3v0.4l0.3,0.1h0.1l0.1-0.1v-0.3l-0.1-0.1l-0.3-0.1L718.9,88.3z M720.5,84.9
		l-0.1-0.4h-0.3l-0.3,0.7l-0.6,1.3l1-0.7L720.5,84.9z M719.5,102.4l0.7-0.1h0.8l0.3-0.6l0.1-0.4v-0.1h0.1l0.4-0.8v-1l-0.8,0.3
		l-1.1,0.8v0.1h-0.1v0.1l-0.1,0.1l-0.3,0.6h-0.1v0.4L719.5,102.4z M720.1,82.5v0.3l0.3,0.3l0.3-0.3l-0.1-0.3l-0.1-0.4l-0.1,0.1
		L720.1,82.5z M720.8,54.6l0.3-0.3l0.3-0.1l0.1-0.1l-0.4-0.4l-0.6,0.1l-0.3,0.6l0.3,0.4L720.8,54.6z M720.2,61.8h1l-0.6-0.7
		L720.2,61.8z M720.3,65.2v0.1l0.1,0.4l0.4,0.3v-0.6l-0.3-0.3H720.3z M721.8,51.4l-0.3-0.7l-0.4-0.6l-0.4,0.3l-0.1,0.4l0.4,0.4
		L721.8,51.4z M721.2,89.3H721l-0.3,0.1l0.1,0.3l0.1,0.1h0.1l0.1-0.1v-0.1L721.2,89.3z M721,96.1l-0.1,0.4l0.1,0.4l0.3,1.7h0.1
		l0.1-0.1l0.1-1l0.1-0.8l0.1-0.3v-0.4l-0.3-0.1h-0.3L721,96.1z M722.3,93.4l0.3-0.6v-0.4l-0.1-0.7L722,92l-0.4,0.7v0.4l0.3,0.4
		L722.3,93.4z M722,58.1v0.7l0.8,0.6v-0.6l0.3-0.6l-0.1-0.6l-0.4-0.4h-0.4l-0.3,0.6L722,58.1z M723.4,62.4l-0.1-0.1v-0.1l0.3-1
		l-0.6-0.8h-0.7l-0.3,0.6l-0.1,0.1l0.4,0.7l0.7,0.6l-0.1,0.7l0.3,0.6h0.3l0.1-0.6L723.4,62.4z M723,67.4l-0.3,0.1l-0.1,0.4l0.3,0.6
		l0.3-0.4v-0.6L723,67.4z M724.1,91.5l-0.6,0.6v0.6l0.4,0.1h0.3l0.1-0.4L724.1,91.5z M724.1,66.9l0.3,0.4l0.4,0.1l0.1-0.1v-0.1
		l-0.3-0.3H724.1z M726.7,63.2l-0.1-0.4l-0.3-0.1l-0.4,0.1l-0.8,0.1l-0.4,0.3l0.6,0.4l1-0.1L726.7,63.2z M726.4,71.5l-0.1-0.1H726
		l-0.1,0.1v0.3h0.1l0.1,0.1l0.3-0.1V71.5z M726.5,72.9l-0.1,0.3v0.4l0.3,0.1l0.1-0.3v-0.3L726.5,72.9z M729.8,71.3h-0.1l-0.3,0.3
		l0.1,0.3h0.1l0.3-0.1v-0.3L729.8,71.3z"/>
</g>
<path d="M591.6,3.7c0.4-0.4,0.3-0.8,7.1-0.8s6.2,0.4,6.6,0.8c0.4,0.4,0.9,2.8,0.9,2.8c-1.2,0-1.1,0.6-1.8,0.5
	c-0.3,0-0.7-0.6-1.2-0.6c-0.4,0-0.8,0.6-1.2,0.6c-0.4,0-0.8-0.6-1.2-0.6c-0.4,0-0.8,0.6-1.2,0.6c-0.4,0-0.8-0.6-1.2-0.6
	c-0.4,0-0.8,0.6-1.2,0.6c-0.4,0-0.8-0.6-1.2-0.6c-0.4,0-0.8,0.6-1.2,0.6c-0.4,0-0.8-0.6-1.2-0.6c-0.4,0-0.8,0.6-1.2,0.6
	c-0.7,0-0.4-0.5-1.8-0.5C590.8,6.4,591.2,4,591.6,3.7z M616.1,127.9c-0.4-4.4,1.4-46.9,0.3-55.1c-2.5-17.8-11.3-22.4-11.3-51.5
	c0-1.4,0.1-1.7,0.3-1.9c0.3-0.3,0.7-0.3,0.5-1.4c-0.3-1.1-0.9-2.8-0.9-2.8s-0.2-0.7,0-0.9c0.2-0.2,0.2-0.9-0.6-1.2
	c-0.5-0.2-11.3-0.2-11.8,0c-0.7,0.3-0.7,1-0.6,1.2c0.2,0.2,0,0.9,0,0.9s-0.6,1.7-0.9,2.8c-0.3,1.1,0.2,1.1,0.5,1.4
	c0.2,0.2,0.3,0.5,0.3,1.9c0,29.1-8.8,33.7-11.3,51.5c-1.1,8.2,0.7,50.7,0.3,55.1c-0.9,9.2,16.5,8.8,17.6,8.8
	C599.6,136.7,617.1,137.2,616.1,127.9z"/>
<path d="M123.2,81.6c0,0.4,0.3,0.8,0.5,1.2c1,1.6,2.2,3.1,2.9,4.8c0.4,0.8-0.1,2-0.3,3.4c0,1,0,2.4,0.1,3.9c0,0,0.3,0,0.6,0
	c-0.1,0.5-0.1,1-0.2,1.6c1.3,0.5,2.6,1,3.9,1.5c0.1-0.1,0.2-0.2,0.2-0.3c0.1,0.6,0.2,1.1,0.4,2c-1.4-0.4-2.6-0.7-3.8-1
	c-0.8-0.2-1.7-0.3-2.5-0.3c-0.4,0-0.8,0.6-1.1,1c0.1,0.1,0.2,0.2,0.3,0.3c0.5,0,1,0,1.2-0.1c0,1.5,0,3,0,4.5c0.2,0,0.3,0,0.5,0.1
	c0.3-1,0.6-2,1-3.3c0.2-0.1,0.7-0.3,1.3-0.6c0.2,0.7,0.4,1.3,0.5,1.9c-2.2,1.3-2.5,2.1-1.3,4.4c0.4,0.9,0.9,1.8,1.3,2.7
	c0.2,0.5,0.1,1,0.2,1.5c-0.2,0.1-0.3,0.2-0.5,0.2c-0.3-0.4-0.6-0.8-1-1.2c-0.2-0.2-0.6-0.2-0.9-0.3c0,0.3,0,0.5,0.1,0.8
	c0.1,0.4,0.3,0.8,0.4,1.3c1.1,0.4,2.9-0.1,3.5,1.7c-0.7-0.2-1.3-0.4-2-0.6c0,0.7,0,1.1-0.1,1.6c1,0.5,2.7-0.4,3,1.2
	c0.1,0.6,0.4,1.2,0.3,1.8c-0.1,1.3-0.4,2.5-0.6,4.1c-1.1-0.1-2.3-0.2-3.6-0.4c-0.2,1.1,0.2,1.5,1.3,1.3c0.8-0.1,1.5-0.1,1.5,0.9
	c-0.1,0-0.3-0.1-0.4-0.1c-0.4,0.9-0.8,1.8-1,2.7c-0.4,1.3-0.6,2.6-0.9,3.9c-0.2,0-0.4,0-0.5,0c-0.1-0.3-0.3-0.7-0.4-1
	c-0.7,0.2-1.4,0.3-2.1,0.4c0,0.1,0,0.3,0,0.4c0.6,0,1.1,0,1.5,0.1c-0.1,0.8-0.2,1.7-0.3,2.6c0.2,0,0.4,0.1,0.5,0.1
	c0.2-0.6,0.3-1.2,0.5-1.8c0.2,0.1,0.5,0.2,0.7,0.4c-0.3,1.9-0.7,3.9-1,5.6c1.5,0.5,2.9,1,4.4,1.5c-0.2,1.1-0.4,2.3-0.6,3.4
	c-0.6,0-1.1,0-1.7,0c0.1,1.6,0.3,3.2,0.5,5c1.8-1.6-0.2-4,2.2-5.2c-0.2,2.1-0.4,3.9-0.6,5.9c0.5,0,1-0.1,1.7-0.2
	c-0.8,1.4-1.5,2.7-2.2,4c-0.2,0.4-0.3,0.8-0.5,1.3c-0.5,1.3-1,2.5,0.1,3.9c1,1.3,0.3,5-1,6.5c0-0.8,0.2-1.5,0-2.1
	c-0.2-0.5-0.8-0.8-1.6-1.5c-0.2,2.1-0.3,3.7-0.4,5.4c-0.2,0-0.3,0.1-0.5,0.1c-0.2-0.8-0.4-1.7-0.7-2.4c-0.1-0.4-0.5-0.7-0.8-1
	c0,0-0.6,0.2-0.6,0.3c0.1,0.4,0.2,0.8,0.4,1.1c0.1,0.4,0.6,1.1,0.4,1.2c-0.8,0.9-1.2,2.2-3,2.1c0.2,0.4,0.3,0.8,0.5,1.2
	c-2.4,1.7-3.8,3.9-3.7,6.8c0,0.2,0,0.4-0.1,0.6c-0.5,1.1-0.9,2.1-1.4,3.2c-0.3,0.5-0.8,0.9-1.5,1.7c0.4,1.3-0.1,2-2.1,2.8
	c-0.5,0.2-0.9,0.8-1.3,1.3c-0.5,0.8-1.1,1.3-2.2,0.6c0,2.3-1.7,2.2-3.2,2.3c-0.2,0.8-0.4,1.5-0.6,2.3c0.4,0.1,0.9,0.1,1.7,0.2
	c-0.4,0.6-0.7,1.1-1,1.6c-0.3,0.7-1,1.6-0.7,2c0.5,0.9,1.3,0.5,2-0.2c0.4-0.3,1.1-0.4,1.6-0.5c1.1-0.3,2.1-0.5,3.4-0.6
	c-0.9,0.6-1.8,1.2-2.8,1.6c-3.2,1.5-6.3,3.4-9.7,4.1c-2,0.4-3.5,1.3-5.3,2c-1.2,0.5-2.8,0.4-4.2,0.7c-0.3,0.1-0.6,0.4-1,0.8
	c1.6-0.1,2.9-0.2,4.5-0.3c-0.4,1.3-0.6,2.2-1,3.4c-1.4-1.6-2.9-1.4-4.4-1c-0.8,0.2-1.8,0-2.6,0c-0.9,0-1.8,0-2.8,0.1
	c0,0.1,0,0.3,0,0.4c1.3,0.2,2.6,0.4,3.9,0.6c0,0.2-0.1,0.4-0.1,0.6c-1-0.2-2-0.3-2.9-0.5c-0.1,0.7-0.2,1.3-0.2,1.8
	c0.5,0.5,1.1,1.1,1.7,1.7c-2.3,0.3-2.7,0-4.3-2.9c-0.9,1.2-1.8,2.4-2.6,3.4c0.9,0.4,1.8,0.8,3,1.3c-1.2,0.5-1.9,0.8-2.8,1.1
	c-0.5-1.3-1.6-1.1-2.7-0.8c-0.8,0.3-1.4,0.4-2.2-0.3c-1.9-1.7-3-1.2-3.9,1.4c-0.8-0.4-1.7-0.8-2.6-1.2c0,0.6,0.1,1.1,0.1,1.5
	c-1.1,0.1-2,0.1-3.3,0.2c0,0-0.4-0.4-0.7-0.7c-3,1.5-5.2,1.5-8.8,0.1c0.6-0.4,1-0.7,1.4-1c-0.5-0.6-0.7-1-1.1-1.3
	c-0.4-0.3-1-0.3-1.5-0.5c-0.1,0.4-0.5,1-0.3,1.2c0.3,0.3,0.8,0.4,1.5,0.7c0,0,0,0.3-0.1,0.9c-1.4-0.7-2.6-1.3-3.9-1.9
	c-0.1,0.1-0.2,0.2-0.4,0.3c0.3,0.6,0.6,1.2,1,1.8c-1.5,0.3-2.5-0.3-3.1-1.5c-0.7-1.4-1.5-2.7-3.4-3.6c0.5,1.4,0.9,2.5,1.2,3.6
	c-1.4-2-2.9-3.7-5.6-4.4c0,1.2-0.8,1-1.6,0.6c-0.2,0.7-0.3,1.3-0.5,2.2c-1.2-0.7-2.3-1.3-3.3-1.8c-0.6-0.3-1.2-0.5-1.8-0.8
	c-0.1,0.1-0.3,0.2-0.4,0.4c0-0.5-0.1-1-0.1-1.6c-1,0.4-2.1,0.7-2.9,1c-0.4-0.6-0.9-1.2-1.4-1.9c0,0,0.2-0.2,0.6-0.7
	c-1.3,0-2.5,0.1-3.8,0.1c0.3-0.8,0.5-1.3,0.6-1.7c-1.2-2-3.1-0.8-4.6-0.8c-0.9-0.7,0.5-2.5-1.4-2.4c-0.4,2.1-0.7,4.1-1.1,6.2
	c-0.8-0.3-1.5-0.5-2.3-0.7c-0.5-0.1-1,0-1.5,0.1c-0.5,0.1-0.9,0.3-1.3,0.5c-0.1-0.5-0.2-1-0.3-1.6c2.9,0.6,4.3-0.2,5.2-2.7
	c-0.5-0.4-1.1-0.8-1.8-1.3c-0.2,0.6-0.3,1.2-0.5,1.8c-0.1,0.2-0.3,0.6-0.5,0.6c-0.2,0-0.6-0.2-0.7-0.4c-0.1-0.3-0.1-0.6,0-0.9
	c0.5-1.1,1.2-2.1,1.4-3.2c0.3-1.1-0.6-1.5-1.9-1.7c-0.2,0.9-0.3,1.7-0.5,2.6c-0.5-1-1-1.9-1.5-2.9c1.4-0.4,3.7,0.1,3.2-2.2
	c-1.2-0.5-2.1-1-3.1-1.4c-0.7,1.1-1.4,2.2-2.1,3.3c-0.2-0.1-0.3-0.1-0.5-0.2c0.2-2.1,0.5-4.1,0.7-6.3c2.4,0.8,2.4,0.8,2.9-0.5
	c-0.9-0.4-2.5,0.3-2.4-1.3c0-0.4,1.3-0.7,2.2-1.1c-0.4-0.6-1.1-1.1-2.2-0.4c-0.9,0.6-1.8,1.3-2.7,1.8c-0.5,0.3-1.1,0.4-1.9,0.7
	c1.2-2.2,4.7-1.9,4.8-4.9c-0.9,0.4-1.5,0.8-2.1,0.9c-0.5,0.1-1.1,0-1.7-0.1c-1.2-0.1-2.5-0.2-3.8-0.4c0.1-0.4,0.2-0.8,0.3-1.3
	c-0.8,0-1.6-0.1-2.5-0.1c0.4-1.6,1.3-1.9,2.7-1c0.2-0.7,0.3-1.2,0.4-1.7c0.1,0,0.2,0,0.4,0c0.1,0.6,0.2,1.1,0.3,1.7
	c0.2,0.9,0.6,1.6,1.7,1.3c1.9-0.5,3.7-1.2,5.5-2c1.2-0.5,1.4-1.5,1-2.7c-1.2,0.1-2.5-0.6-3.3,1.1c-0.3,0.5-1.7,0.7-2.6,0.8
	c-0.3,0-0.7-0.9-1-1.4c-0.3-0.5-0.5-0.9-0.9-1.7c-0.3,1.1-0.1,2.2-1.5,1.4c-0.3-0.2-0.9,0.2-1.4,0.3c-0.6-2.2-3.2,0.2-4.1-1.4
	c2.5-0.2,5.1-0.4,7.2-0.6c0.7-0.7,1.3-1.2,2.1-1.9c0-1.2-1.1-1.2-2.1-1.2c-1.1-0.1-2.2-0.2-3.7-0.3c-1,0.8-1.7,0.9-2.7,0
	c1.2-0.4,2.3-0.8,3.4-1.2c0-0.2-0.1-0.3-0.1-0.5c0.5,0.2,1,0.3,1.6,0.5c-1.1-1.2,0-1.8,0.7-2.5c0.7-0.7,0.8-0.7,0.1-1.6
	c-1,0.9-2,1.8-3.1,2.7c-0.1-0.1-0.2-0.1-0.3-0.2c0.5-1.6,0.9-3.1,1.4-4.8c-0.3,0-0.7,0-1.2-0.1c0.5-1.8,3.7-0.5,3.4-2.9
	c-0.5,0-1,0.1-1.6,0.1c0-0.5-0.1-0.9-0.1-1.4c0.5-0.1,1-0.1,1.6-0.2c-0.2-0.3-0.5-0.6-0.7-0.9c0.5-0.4,1-0.8,1.5-1.1
	c0.9,0.5,1.8,1.2,2.9,0.3c-1.6-0.9-3.2-1.8-4.9-2.8c-0.1-1.7,2.8-2.1,1.9-4.1c-0.4,0-0.8,0.1-1.2,0.1c-0.1-0.1-0.1-0.2-0.2-0.3
	c0.7-0.5,1.4-1,2.2-1.5c-1-1.7,0.3-2.8,1.3-4.2c-0.9,0.5-1.8,1-2.8,1.6c0.3-1.4,0.5-2.4,0.8-3.6c0.5,0,1.2,0,1.9-0.1
	c0.4-0.1,0.8-0.3,1-0.6c0.1-0.1-0.1-0.6-0.3-0.7c-0.3-0.1-0.8-0.1-1.1,0c-0.4,0.1-0.8,0.4-1.1,0.5c-0.7-1.2-1.3-2.4-1.9-3.5
	c-0.2,0.1-0.4,0.1-0.6,0.2c0,0.4,0,0.8-0.1,1.4c-0.8-0.3-1.5-0.5-2.4-0.8c0.1,2.4,0.3,4.6,0.4,7c3.2,0.9,0.5,3.6,1.7,5.2
	c-1.5,0.9-3.8,0.8-3.8,3.1c-0.3-0.9-0.6-1.8-0.7-2.8c0-0.3,0.3-0.9,0.6-1.1c0.2-0.1,0.7,0.1,1.1,0.3c0.3,0.2,0.5,0.4,0.7,0.7
	c0.8-1.2,0.8-3.3-0.2-4c-0.9-0.6-0.6-1.2-0.6-1.9c0.1-0.9,0.4-1.9-1.1-2c0.3-2.6,0.7-5.1,1-7.7c0.1-0.9,0.5-1.3,1.5-1.2
	c1.4,0,2.8-0.2,4.5-0.3c-0.3,0.8-0.6,1.6-0.9,2.5c0.5,0.1,1,0.1,1.5,0.2c0,0.6,0.1,1.2,0.1,1.8c0.5,0.1,1,0.1,1.7,0.2
	c0.1-1.7,0.2-3.4,0.4-5.1c-0.7,0-1.5-0.1-2.3-0.1c0-0.1,0-0.2,0-0.3c0.4-0.1,0.8-0.3,1.2-0.4c1.3-0.5,2.3-1.1,1.6-2.6
	c-0.4-0.9,0.6-2.3-0.9-3c-0.1,0,0.1-0.7,0.3-1.1c0.2-0.7,0.5-1.4,0.8-2.2c-0.6,0.1-1,0.1-1.5,0.2c0.1-0.3,0-0.6,0.2-0.8
	c1.9-2.7,3.9-5.4,5.8-8.2c0.2-0.3,0.3-0.9,0.2-1.3c-0.4-1-0.2-1.7,0.7-2.3c1.1-0.7,1.5-1.6,0.5-2.7c-0.2-0.2-0.4-0.5-0.4-0.8
	c0-0.3,0.2-0.7,0.3-1.1c0.3,0.2,0.6,0.3,1.3,0.6c0-1.1-0.1-2.2-0.1-3.5c0.5,0.4,1,0.7,1.4,1.1c0.1-0.1,0.2-0.1,0.3-0.2
	c-0.3-0.4-0.6-0.9-1.2-1.6c1.7-0.2,3.2-0.4,4.7-0.6c-0.3-1.4-1-1.6-3.6-1.4c-0.4-0.6-0.7-1.4-1.3-1.7c-1.8-1-2.8-2.2-1.6-4.3
	c1.3,0.4,1.4,1.6,1.7,2.7c0.2,0.6,0.7,1.1,1.1,1.6c0,0,0.5-0.1,0.5-0.1c0-0.3-0.1-0.5-0.2-1c1.4-0.1,2.7-0.1,3.9-0.2
	c0.5-1,1-2.1,1.6-3.2c1.3,1.1,3,0.9,3.9-0.3c-0.6-0.2-1.1-0.3-1.6-0.5c0-0.2,0-0.3,0-0.5c1,0,2.1,0,3.1,0.1c0.2,0,0.2,0.6,0.4,1.2
	c1.9-0.3,3.9-0.7,6-1c0.2,1.4,1.5,0.8,2.4,0.9c1.4,0.3,2.9,0.4,4.2,0.6c0.5-0.7,1.4-1.5,1.4-2.3c0-0.8-1-1.5-1.9-2.6
	c2.3,0,4.1,0,5.9,0.1c0.3,0,0.6,0.3,0.7,0.5c0.4,1.3,0.8,2.6,1.2,3.8c-0.1,0.1-0.3,0.1-0.4,0.2c-0.3-0.3-0.5-0.5-0.8-0.9
	c-0.4,0.5-0.8,1-1.4,1.7c0.6-0.1,1.2-0.1,1.7-0.2c-0.1,1-0.1,1-1,1c-0.6,0-1.2,0-1.9,0c0.1,0.1,0.1,0.3,0.2,0.4
	c-0.5,0.4-0.9,0.9-1.4,1c-0.9,0.2-1.2,0.6-1.1,1.5c0.2,1.1,0.2,2.3,0.3,3.7c0.7-0.4,1.1-0.7,1.9-1.2c-0.1,0.6,0,1.2-0.2,1.3
	c-1.2,0.7-0.5,1.3-0.2,2c2.4-1.1,4,0.8,6.3,1c-1.6,1.4-2.4-0.7-3.9-0.1c-0.2,1.5-0.3,3.1-0.5,4.7c0.1,0,0.3,0.1,0.4,0.1
	c0.3-0.8,0.7-1.5,0.8-2.3c0.2-1.3,0.8-1.6,2-1.3c0.9,0.2,1.7,0.4,2.6,0.5c1.2,0.1,2.4,0.2,3.6,0c1.2-0.3,1.8,0,2.3,0.9
	c0.5,0.8,0.9,1.4,1.7,0.2c0.2-0.3,0.8-0.3,1.4-0.5c-0.2,0.7-0.3,1-0.4,1.5c2.4,0.2,1.8,3.9,4.8,3.3c-0.1,1.4-0.2,2.6-0.3,4.1
	c0.9-1,1.6-1.8,2.2-2.4c0.6,1.3,1.1,2.3,1.6,3.3c1.5,0.6,3.4-1,4.6,0.9c0.5-0.4,1-0.8,1.8-1.4c-2.7,0.3-1.9-1.9-3.1-2.7
	c2.3-0.9,1,1.8,2.4,1.7c-0.1-0.4-0.2-0.8-0.3-1.3c1-0.2,2-0.4,2.2,1c0,0.3,0.4,0.7,0.6,0.7c0.4,0,0.8-0.3,1-0.5c0.5-0.5,1-1.1,1.7-2
	c-0.5-0.4-1.1-1-1.8-1.5c0.2-0.2,0.5-0.6,0.7-0.9c0.8,0.5,1.7,0.9,2.7,1.5c0,0.3-0.1,0.8-0.2,1.4c1.2-0.4,1.2-0.4,1-2.3
	c0.9-0.1,1.8-0.2,2.3-0.3c0.2-1.3,0.3-2.5,0.5-3.6c2,0.8,2.2,1.8,0.7,3.3c2.3-0.5,3.1-2.2,3.9-4.1c0.7,0.8,1.2,1.5,1.7,2.2
	c0.1-0.1,0.3-0.2,0.4-0.2c0.1-2-0.9-4.1,0.3-6.1c0.2,0,0.4-0.1,0.6-0.1c0.2,0.8,0.4,1.6,0.7,2.3c0.2,0.5,0.6,1,0.9,1.5
	c0.2-0.1,0.4-0.2,0.6-0.2c-0.2-1.4-0.3-2.8-0.5-4.1c1.4-1,3-2.1,4.7-3.3c-1.2-1.5-0.5-3.2,0.3-5c0.3-0.7,0.2-1.7,0-2.5
	c-0.4-1.5,0.9-1.1,1.6-1.4c0-0.9-0.2-2,0.2-2.8c0.4-0.6,1.5-0.9,2.3-1.3c-0.6-0.3-1.1-0.5-1.7-0.8c0-0.1,0.1-0.3,0.1-0.4
	c0.6-0.1,1.2-0.2,1.9-0.3c-0.1-0.4-0.2-0.7-0.4-1.3c0.8,0.4,1.4,0.7,2,1.1c1.4-1.7-0.7-4.5,2.2-5.6c-1.8,2,1.3,2.8,1.3,4.5
	c0-0.5,0.2-1,0.1-1.5c-0.1-1.1-0.3-2.3-0.5-3.4c-0.5-2.7-0.3-2.9,2.9-3.3c-0.7-0.7-1.3-1.3-2.2-2.1 M13.2,149.9
	c-1.5-0.4-1.6-0.5-1.3-1.7c0.3-0.9,0.6-1.8,0.9-2.7c-0.2-0.2-0.4-0.4-0.6-0.6c0.3,2.1-1.3,1.1-1.6,1.4c-0.7,1.8-1.4,3.4-2.1,5.1
	c0.3,0.4,0.8,1,1.4,1.6c-0.5,0.4-0.9,0.6-1.2,0.9c0.2,0.5,0.4,0.9,0.6,1.2c1.4,0.1,2.8,0.2,4,0.3c0.5-0.6,1-1.2,1.6-2
	c-1.4,0.1-2.7,0.3-4.4,0.5c0.5-1.2,1-2.3,1.4-3.3c0.2,0,0.3,0.1,0.5,0.1c0.1,0.3,0.1,0.6,0.2,0.9c0.1,0,0.3,0,0.4,0
	C13.1,151,13.1,150.5,13.2,149.9z M13.9,167.8c-0.1-0.1-0.2-0.2-0.3-0.3c-1,0.8-2,1.6-3,2.5c1.3,2.2,1.3,2.8-0.4,3.9
	c0.7,1.1,1.6,0.7,2.4,0.2c0.6-0.4,1-0.9,1.5-1.3c-0.1-0.1-0.1-0.2-0.2-0.3c-0.4,0.1-0.8,0.2-1.4,0.3c0.2-1,0.4-1.8,0.6-2.6
	C13.3,169.4,13.6,168.6,13.9,167.8z M8.9,160.4c-0.1,0-0.3,0.1-0.4,0.1c0.2,0.4,0.3,1,0.5,1c0.7,0,1.6-0.1,2.1-0.4
	c0.7-0.4,1.1-1.2,1.7-1.8c0.4-0.4,0.8-0.7,1.2-1c-1.1,0.1-1.9-1.2-2.8-0.1c-0.7,0.8-1.3,1.7-2,2.6C9.2,160.8,9,160.6,8.9,160.4z
	 M52.5,204.9c-1,0.1-1.7,0.1-2.4,0.2c0.1-1,0.2-1.8,0.3-2.8c-1.5,0.5-2,1.2-1.7,2.3c0.3,1.4,2.1,2.3,4.5,2.2
	C52.9,206.1,52.7,205.5,52.5,204.9z M116.7,76.9c0.7-0.1,1.4-0.3,2.2-0.5 M103.9,186.8c0.4,1.1,0.8,2.2,1.2,3.4
	c-1.1,0.5-2.2,0.9-3.3,1.3c0,0.2,0,0.3,0,0.5c1.1,0,2.2-0.1,3.1-0.1C106.8,189.7,105.6,188.2,103.9,186.8z M62.3,115.8
	c0.2-1.5-0.9-2.4-2.1-3.2c-1.5-1-2.2-1-3-0.6C58.8,113.1,60.5,114.4,62.3,115.8z M63.8,119.4c1.6-1.4,1.6-4.2-0.2-6.3
	C63.7,115.3,63.8,117.4,63.8,119.4z M23.8,130.6c1.1-0.5,2.1-1,3-1.4c-0.1-0.2-0.1-0.4-0.2-0.5c-1.5,0.5-2.9,0.9-4.4,1.4
	c-0.2,0.1-0.2,0.8-0.2,1c1.1,0.3,2,0.5,2.9,0.7c0-0.1,0.1-0.2,0.1-0.2C24.7,131.3,24.3,131.1,23.8,130.6z M126.2,158.7
	c1-0.2,2-1,2.6,0.5c1.5-1.6,1.4-2.6,0.1-3C127.9,157,127,157.8,126.2,158.7z M121.1,84.4c1,1.6,1.8,3,2.7,4.4c0.3-0.3,0.6-0.6,1-0.9
	C123.6,86.7,123.4,84.9,121.1,84.4z M10.5,167.8c0.2,0,0.4,0,0.6,0c0.3-1.3,0.5-2.7,0.8-4.2c-0.5-0.3-1-0.7-1.5-1
	C10.5,164.6,10.5,166.2,10.5,167.8z M38.3,126.3c-0.1,0.6-0.2,1.2-0.3,1.9c0.1-0.1,0.2-0.1,0.3-0.2c0.6,1,1.3,2,1.9,3
	c0.1-0.7-0.1-1.3-0.1-1.8c-0.1-0.6-0.1-1.2-0.1-1.5C39.4,127.2,38.9,126.8,38.3,126.3z M13.9,138.2c0.2-1.3,0.4-2.2,0.7-3.6
	c-1.1,1.1-1.9,1.8-3,2.9C12.6,137.8,13.2,138,13.9,138.2z M66.7,126.1c1.9-0.8,2-2.2,0.6-3.9C67.1,123.5,66.9,124.7,66.7,126.1z
	 M26,143.3c-1.1,0.2-2.2,0.1-2.4,1.4c0,0.2,0.6,0.7,0.9,0.7C25.7,145.3,26,144.6,26,143.3z M24.2,138.1c0.6,0.4,4,0,4.2-0.6
	c-0.2-0.3-0.4-0.6-0.4-0.5C26.6,137.4,25.4,137.7,24.2,138.1z M36.2,193.8c-0.2,0.6-0.6,1.1-0.5,1.3c0.5,0.8,1.1,1.4,1.7,2.1
	c0.2-0.1,0.3-0.2,0.5-0.3C37.4,196,36.9,195.1,36.2,193.8z M47.4,202.6c-0.5,0-1.1,0.1-1.3-0.1c-1.1-0.9-1.3-0.8-1.9,0.6
	C45.7,203.6,46.7,203.5,47.4,202.6z M19.9,111.7c0.1,0.1,0.3,0.3,0.4,0.4c0.6-0.6,1.2-1.3,2.1-2.2c0.2,0.4,0.5,0.7,0.7,1
	c0.1-0.1,0.2-0.2,0.3-0.3c0-0.4,0-0.8,0-1.3c-0.1-0.1-0.3-0.2-0.4-0.3C22,110,21,110.8,19.9,111.7z M101.3,192.5
	c-1.4,0.3-2.5,0.5-3.6,0.8C98.9,194,100.5,193.8,101.3,192.5z M94.4,115c0.1-0.1,0.3-0.3,0.4-0.4c-0.2-0.6-0.5-1.1-0.8-2
	c-0.4,0.5-1,1-0.9,1.1C93.4,114.2,93.9,114.6,94.4,115z M43.7,199.7c-0.7-1.2-1.2-2-1.7-2.9C41.3,198,41.7,198.9,43.7,199.7z
	 M36.2,110.3c-0.3,0-0.5,0-0.8,0c0.1,1,0.2,2,0.3,3.1c0.2,0,0.4,0,0.5,0C36.3,112.4,36.2,111.4,36.2,110.3z"/>
</svg>
