<?xml version="1.0" encoding="utf-8"?>
<!-- Generator: Adobe Illustrator 19.1.0, SVG Export Plug-In . SVG Version: 6.00 Build 0)  -->
<svg version="1.1" id="Layer_1" xmlns="http://www.w3.org/2000/svg" xmlns:xlink="http://www.w3.org/1999/xlink" x="0px" y="0px"
	 viewBox="-413 98.1 100 95.1" style="enable-background:new -413 98.1 100 95.1;" xml:space="preserve">
<style type="text/css">
	.st0{fill:#EA8C2F;}
</style>
<path d="M-332.1,193.2l-30.9-22.5l-30.9,22.5l11.8-36.3l-30.9-22.5h38.2l11.8-36.3l11.8,36.3h38.2l-30.9,22.5L-332.1,193.2
	L-332.1,193.2z M-363,165.8l23.3,16.9l-8.9-27.4l23.3-16.9h-28.8l-8.9-27.4l-8.9,27.4h-28.8l23.3,16.9l-8.9,27.4L-363,165.8
	L-363,165.8z"/>
<polygon class="st0" points="-363,111.1 -363,165.8 -386.3,182.7 -377.4,155.4 -400.7,138.4 -371.9,138.4 "/>
<polygon class="st0" points="-354.1,138.4 -363,111.1 -363,165.8 -339.7,182.7 -348.6,155.4 -325.3,138.4 "/>
</svg>
